<?xml version="1.0" encoding="UTF-8"?><svg id="_1" xmlns="http://www.w3.org/2000/svg" viewBox="0 0 147.79 250.3"><defs><style>.cls-1{fill:#fff;}.cls-2{fill:#f6cdab;}.cls-3{fill:#c45046;}.cls-4{fill:#854e23;}.cls-5{fill:#542425;}.cls-6{fill:#744431;}.cls-7{fill:#e5e5e4;}.cls-8{fill:#d05f1c;}.cls-9{fill:#c77e42;}.cls-10{fill:#ec756c;}.cls-11{fill:#0063af;}.cls-12{fill:#4f2a24;}.cls-13{fill:#a9632c;}.cls-14{fill:#ffc609;}.cls-15{fill:#231f20;}</style></defs><ellipse class="cls-7" cx="73.9" cy="234.2" rx="73.9" ry="16.1"/><g><path class="cls-9" d="M112.79,126.4s16.2,9.09,19.65,9.88c3.75-2.27,5.33-2.96,5.73-1.98,.39,.99-2.07,2.57-2.07,2.57,0,0,5.43,3.06,4.94,4.15-.49,1.09-3.06-.2-3.06-.2,0,0,3.65,1.78,2.67,2.76-.99,.99-3.65-1.38-3.65-1.38,0,0,3.36,2.96,2.47,3.65-.89,.69-3.55-1.58-3.55-1.58,0,0,1.38,3.16,.3,3.26-1.09,.1-5.73-5.63-5.73-5.63l-20.64-9.58,2.96-5.93Z"/><path class="cls-13" d="M140.64,143.58c.95-.95-2.43-2.65-2.65-2.76,.18,.09,2.57,1.24,3.05,.19,.49-1.09-4.94-4.15-4.94-4.15,0,0,.65-.42,1.23-.95-.51-.66-1.43-.45-1.58,.54-.08-1.67-1.8-1-1.78,.38-.33-1.33-1.88-.81-1.45,.69-.9-1.48-1.31,.35-.78,2.57,.37,1.56,.79,3.14,1.14,4.61,1.31,1.44,2.77,2.88,3.32,2.83,1.09-.1-.3-3.26-.3-3.26,0,0,2.67,2.27,3.55,1.58,.89-.69-2.47-3.65-2.47-3.65,0,0,2.67,2.37,3.65,1.38Z"/><g><path class="cls-9" d="M66.91,213.81c-.64,1.97-3.16,7.06-5.21,11.21-.94,1.91-3.49,5.98-5.5,9.36-.85,1.42-1.02,3.15,.49,2.45-.58,1.03,.38,1.64,1.27,.83-.39,1.36,1.05,1.76,1.92,.59-.15,1.5,1.51,2,2.44,.18,.36,2.98,4.66,2.34,6-4.37,1.27-6.4,4.78-7.04,3.16-12.33-.63-2.06,.08-4.68,.27-5.68-3.84-.82-4.83-2.23-4.83-2.23Z"/><path class="cls-2" d="M62.6,238.41s.81,.31,1.89,.47c.79-1.18,.19-1.94-.29-1.92-1.01,.04-1.6,1.45-1.6,1.45Z"/><path class="cls-2" d="M60.18,238.38s.5,.19,1.18,.29c.49-.73,.12-1.2-.18-1.19-.63,.02-1,.9-1,.9Z"/><path class="cls-2" d="M58.09,237.85s.46,.18,1.08,.27c.45-.67,.11-1.1-.17-1.09-.57,.02-.91,.82-.91,.82Z"/><path class="cls-2" d="M56.75,237.21s.4,.15,.93,.23c.39-.58,.09-.95-.14-.95-.5,.02-.79,.71-.79,.71Z"/><path class="cls-2" d="M55.69,236.22s.31,.12,.73,.18c.3-.45,.07-.75-.11-.74-.39,.01-.62,.55-.62,.55Z"/></g><g><path class="cls-9" d="M125.07,154.1c1.35-.98,9.12-1.73,9.73-2.24,1.59-1.37-.03-6.43-1.19-11.28-.53-2.22-.11-4.05,.78-2.57-.43-1.5,1.12-2.02,1.45-.69-.02-1.38,1.7-2.04,1.78-.38,.21-1.31,1.79-1.26,1.91,.45,.44-1.91,4.61-2.97,3.71,9.33-.46,6.37,3.81,9.78-1.32,11.09-3.08,.78-11.89,2.27-13.53,3.08-5.26-1.3-3.32-6.79-3.32-6.79Z"/><path class="cls-2" d="M139.76,137.09s.97,.22,2.1,.76c0,1.62-1.06,1.96-1.5,1.64-.94-.68-.6-2.4-.6-2.4Z"/><path class="cls-2" d="M137.89,136.64s.6,.14,1.31,.47c0,1.01-.66,1.22-.93,1.02-.58-.43-.38-1.49-.38-1.49Z"/><path class="cls-2" d="M136.26,136.53s.55,.13,1.19,.44c0,.92-.6,1.11-.86,.93-.53-.39-.34-1.37-.34-1.37Z"/><path class="cls-2" d="M134.59,136.96s.48,.11,1.04,.38c0,.8-.52,.96-.74,.81-.46-.34-.3-1.18-.3-1.18Z"/><path class="cls-2" d="M133.46,137.87s.28,.06,.61,.22c0,.47-.31,.57-.43,.47-.27-.2-.17-.69-.17-.69Z"/></g><path class="cls-11" d="M51.65,158.55c10.86-2.07,39.75-1.37,45.79-2.17,11.22-1.5,22.52-2.75,28.3-4.11,3.16,4.62,3.56,11.31,1.37,15.08-10.82,2.43-48.27,9.67-49.05,10.1-3.48,1.91-.62,32.28-2.87,41.82-6.49,1.58-11.49,1.11-13.74-.97-1.91-25.29-9.79-59.74-9.79-59.74Z"/><g><path class="cls-9" d="M86.3,116.72s-3.39,.66-6.84-.07c-.58-3.4-.31-8.19-.31-8.19l-6.34-.15s.05,6.56,.3,8.8c-4.48,1.54-8.37,1.54-8.37,1.54,0,0-.88,11.47,11.17,11.14,4.22-.12,10.17-5.17,10.38-13.07Z"/><path class="cls-13" d="M76.14,116.12c-1.04,.02-1.93,.47-2.43,1.12l-.17-3.84,4.9-.11,.17,3.84c-.52-.63-1.44-1.03-2.47-1.01Z"/></g><g><g><path class="cls-14" d="M47.95,139.87c-1.84-.19-6.66-10.91-6.85-13.53,5.45-2.16,18.83-6.49,21.36-6.78,.97,8.07,8.03,11.52,14.3,11.13,6.19-1.08,12.26-6.07,11.33-14.14,2.53-.31,15.88,2.83,22.46,4.73,.43,2.59-2.73,13.22-4.48,13.83-1.3,.18-4.72-1.7-7.46-3,.89,6.87,4.76,20.28,5.75,21.61,0,0,2.34,7.07-22.07,15.05-21.46,7.02-31.64,1.52-31.64,1.52,.65-1.53,5.91-26.26,5.18-33.15-3.47,1.48-6.59,2.61-7.89,2.74Z"/><path class="cls-8" d="M66.41,117.78c.01,5.13,1.99,11.53,9.56,10.08,6.67-1.28,8.11-6.3,7.99-11.88,1.83,.31,5,.23,5,.23,0,0,1.74,14.43-12.87,16.38-13.88,1.85-14.47-13.95-14.47-13.95l4.79-.86Z"/></g><path class="cls-8" d="M108.18,137.11q4.77-9.07,5.77-15.13c-1.45-.83-4.26-1.24-4.26-1.24-.26,2.78-1.82,8.41-5.83,14.78,1.8,.9,4.32,1.6,4.32,1.6Z"/></g><path class="cls-9" d="M40.38,130.22c-7.18,6.6-10.99,16.32,7.29,27.05,.5,2.33,3.03,4.13,6.57,4.92,2.33,1.34,4.15,1.85,4.48,.84,.34-1.04-2.37-2.31-3-2.72,.12,.01,3.61,1.21,4.4,1.42,1.83,.49,2.52-1.19,1.03-1.9-1.26-.58-4.23-1.74-4.38-1.81,.17,0,3.94,.72,4.63,.87,2.05,.42,2.81-1.79,.47-2.33-1.59-.36-4.4-.89-4.63-1,.11-.07,2.28-.18,3.56-.35,2.1-.27,2.16-2.1-.26-2.21-1.91-.08-6.52-.82-6.52-.82,0,0,2.12-2.05,.79-3.17-1.33-1.13-4.82,3.12-4.82,3.12,0,0-13.72-7.09-6.37-16.22-1.34-2.28-2.07-5.14-3.24-5.69Z"/><path class="cls-8" d="M44.93,141.97q-5.13-8.87-6.37-14.89c1.41-.89,4.21-1.42,4.21-1.42,.37,2.76,2.16,8.32,6.42,14.53-1.77,.97-4.26,1.77-4.26,1.77Z"/><g><g><path class="cls-12" d="M120.67,26.57C103.7,.72,66.92-9.05,42.24,9.85c-18.04,13.81-10.09,21.17-10.09,21.17,0,0-15.16-2.27-18.18,16.41-.99,6.15,3.74,28.6,15.57,28.43,0,0,27.86-1.14,43.68-2.39,15.81,1.25,46.83,2.39,46.83,2.39,15.03-22.03,6.62-40.17,.63-49.29Z"/><path class="cls-12" d="M29.72,34.12c-8.53-.57-12.2-.22-12.06-2.91,.23-4.3,9.8-.82,9.8-.82,0,0-9.51-6.96-7.01-9.92,2.5-2.96,12.43,5.95,12.43,5.95,0,0,3.31,8.13-3.16,7.69Z"/><path class="cls-9" d="M29.79,74.32c0,24.65,19.24,41.06,42.98,41.05,23.74,0,42.97-16.42,42.97-41.07,0-24.65-19.25-43.74-42.98-43.74-23.74,0-42.97,19.11-42.97,43.76Z"/><g><g><path class="cls-9" d="M31.5,74.51s-.58-5.01-6.62-5.88c-6.37-.91-9.14,7.41-5.84,12.5,3.3,5.09,10.41,5.36,12.73,1.51l-.26-8.13Z"/><path class="cls-4" d="M23.57,70.78c4.18-.58,7.27,6.85,1.5,10.44,2.57-5.08,.46-6.93-2.62-4.57,.1-1.68,1.17-2.71,3.67-2.43-.11-2.24-2.56-3.44-2.56-3.44Z"/></g><g><path class="cls-9" d="M114.29,74.51s.58-5.01,6.62-5.88c6.37-.92,9.14,7.4,5.85,12.5-3.3,5.09-10.41,5.37-12.73,1.51l.26-8.13Z"/><path class="cls-4" d="M122.22,70.78c-4.18-.58-7.27,6.85-1.5,10.44-2.57-5.08-.46-6.93,2.61-4.57-.1-1.68-1.17-2.71-3.67-2.43,.11-2.23,2.55-3.44,2.55-3.44Z"/></g></g><path class="cls-3" d="M70.38,72.34c.42,2.58,7.11,5.55,4.63,8.69-1.53,1.94-5.05,1.45-5.05-2.46,0-2.27,.42-6.23,.42-6.23Z"/><g><path class="cls-3" d="M56.99,87.99c0,2.53-3.84,4.59-8.57,4.59s-8.57-2.06-8.57-4.59,3.84-4.59,8.57-4.59,8.57,2.05,8.57,4.59Z"/><path class="cls-3" d="M105.68,87.99c0,2.53-3.84,4.59-8.57,4.59s-8.57-2.06-8.57-4.59,3.84-4.59,8.57-4.59,8.57,2.05,8.57,4.59Z"/></g><g><path class="cls-5" d="M84.96,88.86c-3.34-2.23-4.6,1.28-12.08,1.25-7.63-.03-8.69-3.7-12.37-.85-3,2.32-.44,15.5,12.07,15.38,12.61-.13,15.55-13.65,12.37-15.78Z"/><path class="cls-10" d="M63.98,101.87c2.07,1.67,4.91,2.8,8.61,2.77,3.47-.04,6.21-1.09,8.29-2.64-2.12-.72-4.96-1.21-8.64-1.22-3.5,0-6.23,.43-8.27,1.09Z"/><path class="cls-1" d="M83.74,88.26c-2.55-.77-4.36,1.88-10.86,1.85-6.58-.02-8.28-2.75-10.97-1.68,.04,3.57,5.59,6.21,10.88,6.16,5.24-.05,11-2.79,10.95-6.33Z"/></g><g><g><g><path class="cls-1" d="M57.37,70.59c1.58,4.15-.32,8.73-4.23,10.22-3.92,1.49-8.38-.66-9.96-4.81-1.58-4.16,.32-8.73,4.23-10.22,3.92-1.49,8.38,.67,9.96,4.82Z"/><path class="cls-15" d="M54.65,71.63c.97,2.56-.19,5.38-2.61,6.3-2.42,.92-5.17-.41-6.14-2.97-.97-2.56,.19-5.38,2.61-6.3,2.42-.92,5.17,.41,6.14,2.97Z"/><path class="cls-1" d="M49.55,71.95c-.02,.8-.64,1.44-1.4,1.42-.75-.02-1.35-.67-1.34-1.47,.02-.8,.64-1.43,1.39-1.42,.76,.02,1.36,.68,1.34,1.48Z"/><path class="cls-1" d="M53.56,75.36c0,.5-.4,.89-.87,.88-.47,0-.84-.42-.83-.92,.02-.49,.4-.89,.87-.88,.47,0,.84,.42,.83,.91Z"/></g><path class="cls-6" d="M42.13,69.87s6.09-7.04,14.41-1.99c-8.15-8.86-14.41,1.99-14.41,1.99Z"/></g><g><g><path class="cls-1" d="M88.15,70.59c-1.58,4.15,.31,8.73,4.23,10.22,3.92,1.49,8.38-.66,9.96-4.81,1.58-4.16-.32-8.73-4.23-10.22-3.92-1.49-8.38,.67-9.96,4.82Z"/><path class="cls-15" d="M90.87,71.63c-.97,2.56,.19,5.38,2.61,6.3,2.42,.92,5.17-.41,6.14-2.97,.98-2.56-.19-5.38-2.61-6.3-2.42-.92-5.17,.41-6.14,2.97Z"/><path class="cls-1" d="M95.97,71.95c.02,.8,.64,1.44,1.4,1.42,.75-.02,1.35-.67,1.34-1.47-.02-.8-.64-1.43-1.39-1.42-.76,.02-1.36,.68-1.34,1.48Z"/><path class="cls-1" d="M91.96,75.36c0,.5,.4,.89,.87,.88,.47,0,.84-.42,.83-.92-.02-.49-.4-.89-.87-.88-.47,0-.84,.42-.83,.91Z"/></g><path class="cls-6" d="M103.39,69.87s-6.09-7.04-14.42-1.99c8.15-8.86,14.42,1.99,14.42,1.99Z"/></g></g><g><path class="cls-12" d="M92.36,58.89c1.25-4.24,9.21-3.77,11.8,3.51-3.53-3.85-11.8-3.51-11.8-3.51Z"/><path class="cls-12" d="M53.16,58.89c-1.25-4.24-9.21-3.77-11.8,3.51,3.53-3.85,11.8-3.51,11.8-3.51Z"/></g></g><path class="cls-12" d="M29.27,70.18s14.7-11.27,12.23-26.25c26.2,12.73,63.23-21.73,74.62,26.52,5.4-30.47-48.34-58.56-81.9-28.86-8.87,9.26-4.95,28.58-4.95,28.58Z"/></g></g></svg>