<?xml version="1.0" encoding="UTF-8"?><svg id="Layer_1" xmlns="http://www.w3.org/2000/svg" xmlns:xlink="http://www.w3.org/1999/xlink" viewBox="0 0 2525.19 1781.35"><defs><style>.cls-1{fill:#466de8;}.cls-2{fill:#fff;}.cls-3{fill:#363636;}.cls-4{clip-path:url(#clippath-2);}.cls-5{fill:#b5c7ff;}.cls-6{fill:#303030;}.cls-7{clip-path:url(#clippath-1);}.cls-8{fill:#1c4ed8;}.cls-9{fill:#ff9494;}.cls-10{fill:url(#_Áåçûìÿííûé_ãðàäèåíò_103);}.cls-11{fill:#1f2226;}.cls-12{fill:#15171a;}.cls-13{clip-path:url(#clippath);}.cls-14{fill:none;}.cls-15{clip-path:url(#clippath-3);}.cls-16{fill:#383838;}</style><clipPath id="clippath"><ellipse class="cls-5" cx="313.64" cy="962.37" rx="37.87" ry="165.98"/></clipPath><clipPath id="clippath-1"><circle class="cls-14" cx="2277.87" cy="552.98" r="244.44"/></clipPath><linearGradient id="_Áåçûìÿííûé_ãðàäèåíò_103" x1="2165.56" y1="614.4" x2="2671.86" y2="1148.41" gradientUnits="userSpaceOnUse"><stop offset="0" stop-color="#5c84ff"/><stop offset="1" stop-color="#4555ff"/></linearGradient><clipPath id="clippath-2"><circle class="cls-14" cx="1620.69" cy="247.32" r="244.44"/></clipPath><clipPath id="clippath-3"><circle class="cls-14" cx="605.41" cy="524.34" r="244.44" transform="translate(-193.44 581.67) rotate(-45)"/></clipPath></defs><g id="_2"><g id="plant"><g><path class="cls-5" d="M2224.34,1395.12s-155.11,136.2-37.87,221.01c0,0,156.81-32.42,37.87-221.01Z"/><path class="cls-3" d="M2206.44,1780.72c-2.41,0-4.63-1.58-5.34-4.01-1.04-3.59-25.49-88.87-19.35-162.26,.26-3.06,2.94-5.34,6-5.08,3.06,.26,5.33,2.94,5.08,6-5.97,71.31,18.69,157.37,18.94,158.23,.86,2.95-.84,6.03-3.79,6.89-.52,.15-1.04,.22-1.55,.22Z"/><path class="cls-3" d="M2186.45,1620.37c-1.16,0-2.3-.36-3.26-1.05-29.1-21.05-44.59-47.09-46.02-77.38-1.5-31.68,12.16-67,40.6-104.98,20.94-27.96,41.99-46.56,42.87-47.33,1.22-1.07,2.85-1.56,4.46-1.32,1.61,.23,3.04,1.16,3.91,2.54,42.97,68.14,55.56,124.32,37.42,166.99-21.26,50-76.52,61.95-78.86,62.43-.37,.08-.75,.12-1.12,.12Zm36.71-217.89c-17.69,16.98-77.72,79.23-74.88,138.96,1.24,26.02,14.48,48.67,39.36,67.35,10.29-2.78,52-16.23,68.6-55.41,16.08-37.95,4.95-88.7-33.08-150.9Z"/><path class="cls-3" d="M2187.3,1620.47c-.08,0-.17,0-.25,0-3.07-.14-5.44-2.74-5.3-5.8,.17-3.75,4.42-92.51,27.68-146.18,1.22-2.82,4.5-4.11,7.31-2.89,2.82,1.22,4.11,4.49,2.89,7.31-22.46,51.81-26.74,141.36-26.78,142.26-.13,2.98-2.59,5.31-5.55,5.31Z"/></g><g><path class="cls-3" d="M2074.9,1780.19c-.7,0-1.42-.14-2.11-.42-2.84-1.17-4.19-4.42-3.02-7.26,.27-.66,18.51-46.13,14.87-109.07-.18-3.07,2.16-5.69,5.23-5.87,3.07-.17,5.69,2.16,5.87,5.23,3.8,65.76-14.89,112.01-15.69,113.95-.88,2.15-2.96,3.44-5.14,3.44Z"/><path class="cls-5" d="M2078.12,1532.42s96.93,93.82,10.56,138.58c0,0-75.58-9.45-13.2-136.19l2.64-2.39h0Z"/><path class="cls-3" d="M2090.55,1677.07c-.41,0-.82-.05-1.23-.14-1.14-.26-28.12-6.64-39.98-34.09-12-27.77-3.93-65.88,23.99-113.25,.88-1.49,2.41-2.49,4.13-2.7,1.73-.2,3.44,.4,4.65,1.64,2.15,2.21,52.47,54.57,45.68,101.86-2.75,19.13-14.36,34.59-34.5,45.96-.84,.47-1.78,.72-2.73,.72Zm-11.42-135.24c-22.59,40.44-29.38,73.69-19.64,96.45,7.97,18.61,24.54,25.39,30.31,27.24,15.76-9.44,24.84-21.78,26.98-36.71,4.85-33.74-25.39-72.76-37.65-86.98Z"/><path class="cls-3" d="M2090.55,1677.07c-.23,0-.47-.01-.71-.05-3.04-.39-5.2-3.17-4.81-6.22,.05-.39,4.92-39.86-2.81-75.39-.65-3,1.25-5.96,4.25-6.61,3.01-.66,5.96,1.25,6.61,4.25,8.14,37.45,3.19,77.47,2.97,79.16-.36,2.81-2.75,4.86-5.51,4.86Z"/></g><g><path class="cls-3" d="M2340.07,1780.19c-2.18,0-4.26-1.3-5.14-3.44-.91-2.21-22.28-55.08-17.94-130.32,.18-3.06,2.78-5.4,5.87-5.23,3.07,.18,5.41,2.81,5.23,5.87-4.19,72.56,16.9,124.93,17.12,125.45,1.16,2.84-.19,6.09-3.03,7.25-.69,.28-1.41,.42-2.11,.42Z"/><path class="cls-2" d="M2336.38,1496.86s-111.16,107.59-12.11,158.92c0,0,86.68-10.84,15.14-156.18l-3.03-2.74h0Z"/><path class="cls-3" d="M2322.13,1661.94c-.95,0-1.89-.24-2.73-.72-22.87-12.9-36.04-30.43-39.16-52.11-7.74-53.84,49.71-113.61,52.16-116.13,1.21-1.24,2.92-1.84,4.65-1.64,1.72,.21,3.25,1.2,4.13,2.7,31.88,54.09,41.12,97.54,27.47,129.14-13.44,31.1-43.99,38.33-45.28,38.62-.41,.09-.82,.14-1.23,.14Zm13.25-155.68c-13.59,15.63-49.85,61.62-44.13,101.29,2.52,17.46,13.15,31.86,31.62,42.84,6.35-2.05,26.31-10.03,35.63-31.77,5.29-12.34,6.46-27.3,3.49-44.48-3.42-19.79-12.37-42.6-26.6-67.88Z"/><path class="cls-3" d="M2322.12,1661.94c-2.76,0-5.15-2.05-5.51-4.86-.25-1.93-5.91-47.69,3.4-90.5,.65-3,3.61-4.9,6.61-4.25,3,.65,4.9,3.61,4.25,6.61-8.9,40.96-3.29,86.28-3.23,86.73,.39,3.05-1.77,5.83-4.81,6.22-.24,.03-.48,.05-.71,.05Z"/></g></g><path class="cls-3" d="M2448.89,1780.68H3.7c-2.04,0-3.7-1.66-3.7-3.7s1.66-3.7,3.7-3.7H2448.89c2.04,0,3.7,1.66,3.7,3.7s-1.66,3.7-3.7,3.7Z"/><g id="plant-2"><polygon class="cls-5" points="485.26 1595.71 232.59 1595.71 266.17 1774.17 451.68 1774.17 485.26 1595.71"/><g><path class="cls-2" d="M360.53,1595.71s-133.08-53.92-17.93-338.18c0,0,135.15,211.71,17.93,338.18Z"/><path class="cls-6" d="M360.53,1598.52c-.35,0-.71-.07-1.05-.21-1.4-.57-34.62-14.51-53.71-64.08-11.11-28.85-15.06-63.9-11.74-104.16,4.13-50.08,19.6-108.48,45.98-173.59,.39-.97,1.3-1.64,2.34-1.74,1.04-.09,2.06,.4,2.62,1.28,.34,.53,34.23,54.07,53.26,122.42,11.2,40.25,15.16,77.71,11.75,111.36-4.28,42.24-20.22,78.51-47.39,107.82-.54,.59-1.29,.9-2.06,.9Zm-17.41-334.74c-56.87,142.78-48.95,224.71-32.12,268.43,15.79,40.99,41.93,56.56,48.86,60.08,58.13-64.2,50.1-150.72,33-212.22-15.55-55.94-41.18-101.84-49.74-116.29Z"/></g><path class="cls-6" d="M360.53,1598.52c-.35,0-.71-.07-1.05-.21-1.4-.57-34.62-14.51-53.71-64.08-11.11-28.85-15.06-63.9-11.74-104.16,4.13-50.08,19.6-108.48,45.98-173.59,.39-.97,1.3-1.64,2.34-1.74,1.04-.09,2.06,.4,2.62,1.28,.34,.53,34.23,54.07,53.26,122.42,11.2,40.25,15.16,77.71,11.75,111.36-4.28,42.24-20.22,78.51-47.39,107.82-.54,.59-1.29,.9-2.06,.9Zm-17.41-334.74c-56.87,142.78-48.95,224.71-32.12,268.43,15.79,40.99,41.93,56.56,48.86,60.08,58.13-64.2,50.1-150.72,33-212.22-15.55-55.94-41.18-101.84-49.74-116.29Z"/><path class="cls-2" d="M393.06,1595.71s117.19-.24,33.34-253.82c0,0-132.65,190.98-33.34,253.82Z"/><path class="cls-6" d="M451.68,1776.98h-185.51c-1.35,0-2.51-.96-2.76-2.29l-33.58-178.46c-.15-.82,.06-1.67,.6-2.31,.53-.64,1.33-1.01,2.16-1.01h252.67c.84,0,1.63,.37,2.16,1.01,.53,.64,.75,1.49,.6,2.31l-33.58,178.46c-.25,1.33-1.41,2.29-2.76,2.29Zm-183.19-5.61h180.86l32.52-172.84H235.97l32.52,172.84Z"/><path class="cls-5" d="M392.89,1595.71s117.19-.24,33.34-253.82c0,0-132.65,190.98-33.34,253.82Z"/><path class="cls-6" d="M393.06,1598.52c-.53,0-1.05-.15-1.5-.44-19.27-12.19-31.39-29.98-36.03-52.87-6.93-34.22,2.53-79.15,28.11-133.54,18.96-40.31,40.23-71.08,40.45-71.39,.61-.87,1.66-1.33,2.71-1.18,1.05,.15,1.93,.89,2.26,1.9,20.35,61.54,30.57,113.47,30.37,154.37-.16,32.42-6.81,57.99-19.79,75.98-19.33,26.8-45.48,27.16-46.58,27.16h0Zm32.47-250.27c-6.6,10.08-22.4,35.19-36.84,65.9-17.21,36.6-35.98,88.86-27.65,129.96,4.26,21.03,15.29,37.43,32.79,48.76,4.3-.3,25.55-2.88,41.37-24.93,19.41-27.05,33.27-87.1-9.67-219.69Z"/><path class="cls-16" d="M389.34,1597.43c-.55,0-1.11-.11-1.65-.34-2.14-.91-3.13-3.39-2.22-5.52,.25-.58,24.52-58.37,21.57-127.25-.1-2.32,1.7-4.29,4.03-4.39,2.3-.12,4.29,1.7,4.39,4.03,3.04,70.86-21.21,128.5-22.24,130.92-.68,1.6-2.24,2.56-3.87,2.56Z"/><path class="cls-2" d="M302.56,1595.71s-117.19-.24-33.34-253.82c0,0,132.65,190.98,33.34,253.82Z"/><path class="cls-6" d="M302.56,1598.52h0c-1.1,0-27.26-.36-46.58-27.16-12.97-17.99-19.63-43.56-19.79-75.98-.2-40.89,10.02-92.83,30.37-154.37,.33-1.01,1.21-1.74,2.26-1.9,1.05-.15,2.1,.3,2.71,1.18,.21,.31,21.49,31.09,40.45,71.39,25.58,54.38,35.04,99.31,28.11,133.54-4.63,22.89-16.75,40.67-36.03,52.87-.45,.28-.97,.44-1.5,.44Zm-32.47-250.27c-43,132.77-29.05,192.81-9.57,219.83,15.88,22.03,36.99,24.52,41.27,24.8,17.5-11.33,28.53-27.73,32.79-48.77,8.33-41.12-10.46-93.41-27.69-130.03-14.44-30.69-30.2-55.76-36.8-65.82Z"/></g><g id="decor"><path class="cls-3" d="M1929.47,1371.01c15.09-9.74,31.16,6.33,21.42,21.42-.64,.99-1.48,1.83-2.47,2.47-15.09,9.74-31.17-6.33-21.42-21.42,.64-.99,1.48-1.83,2.47-2.47Z"/><path class="cls-3" d="M1929.47,1283.5c15.09-9.74,31.16,6.33,21.42,21.42-.64,.99-1.48,1.83-2.47,2.47-15.09,9.74-31.16-6.33-21.42-21.42,.64-.99,1.48-1.83,2.47-2.47Z"/><path class="cls-3" d="M1929.47,1195.98c15.09-9.74,31.16,6.33,21.42,21.42-.64,.99-1.48,1.83-2.47,2.47-15.09,9.74-31.17-6.33-21.42-21.42,.64-.99,1.48-1.83,2.47-2.47Z"/><path class="cls-3" d="M2023.95,1371.01c15.09-9.74,31.16,6.33,21.42,21.42-.64,.99-1.48,1.83-2.47,2.47-15.09,9.74-31.16-6.33-21.42-21.42,.64-.99,1.48-1.83,2.47-2.47Z"/><path class="cls-3" d="M2024.29,1283.28c14.99-9.28,30.75,6.66,21.08,21.64-.64,.99-1.48,1.83-2.47,2.47-14.98,9.67-30.92-6.09-21.64-21.08,.76-1.23,1.8-2.27,3.03-3.03Z"/><path class="cls-3" d="M2023.95,1195.98c15.09-9.74,31.16,6.33,21.42,21.42-.64,.99-1.48,1.83-2.47,2.47-15.09,9.74-31.17-6.33-21.42-21.42,.64-.99,1.48-1.83,2.47-2.47Z"/><path class="cls-3" d="M2118.43,1371.01c15.09-9.74,31.16,6.33,21.42,21.42-.64,.99-1.48,1.83-2.47,2.47-15.09,9.74-31.17-6.33-21.42-21.42,.64-.99,1.48-1.83,2.47-2.47Z"/><path class="cls-3" d="M2118.43,1283.5c15.09-9.74,31.17,6.33,21.42,21.42-.64,.99-1.48,1.83-2.47,2.47-15.09,9.74-31.16-6.33-21.42-21.42,.64-.99,1.48-1.83,2.47-2.47Z"/><path class="cls-3" d="M2118.43,1195.98c15.09-9.74,31.16,6.33,21.42,21.42-.64,.99-1.48,1.83-2.47,2.47-15.09,9.74-31.17-6.33-21.42-21.42,.64-.99,1.48-1.83,2.47-2.47Z"/></g><g><path class="cls-5" d="M755.22,919.64h22.36c13.79,0,24.98,11.19,24.98,24.98v35.5c0,13.79-11.19,24.98-24.98,24.98h-22.36v-85.46h0Z"/><path d="M763.97,1007.97h-8.75c-1.59,0-2.88-1.29-2.88-2.88v-85.46c0-1.59,1.29-2.88,2.88-2.88h8.75c22.86,0,41.46,18.6,41.46,41.46v8.28c0,22.86-18.6,41.47-41.46,41.47Zm-5.87-5.75h5.87c19.69,0,35.71-16.02,35.71-35.71v-8.28c0-19.69-16.02-35.71-35.71-35.71h-5.87v79.7Z"/><g id="Person_5"><g id="Head"><g><path class="cls-12" d="M1470.94,1352.94c-59.76,0-121.92-21.06-170.55-57.79-36.62-27.65-68.23-66.69-89.01-109.93-19.52-40.62-27.16-80.27-20.95-108.77,.13-.6,.29-1.28,.46-2.04,1.73-7.58,5.34-23.35,2.64-43.34-4.57-33.89-24.3-57.35-33.79-68.63-.94-1.12-1.8-2.14-2.54-3.04-24.97-30.54-32.73-72.51-34.85-102.33-2.52-35.52,1.39-73.68,10.74-104.71,13.86-45.98,44.86-88.98,87.3-121.09,41.48-31.37,91.87-51.06,141.89-55.42,6.88-.6,14.07-.9,21.37-.9,34.56,0,101.25,7.04,159.64,54.15,41.63,33.6,70.53,80.12,85.88,138.29,5.69,21.57,8.1,41.26,7.35,60.2-.86,21.73-5.26,37.15-9.52,52.06-4.68,16.38-9.1,31.85-8.47,54.5,.52,18.6,4.26,31.83,9.44,50.15,9.2,32.5,20.37,51.74,31.17,70.35,10.64,18.33,20.69,35.64,26.65,63.07,1.76,8.09,7.11,32.72,3.58,61.1-11.41,91.86-105.93,144.99-109.95,147.2-32.36,17.85-68.87,26.9-108.5,26.9Z"/><path d="M1383.67,577.82c34.78,0,100.06,6.89,157.83,53.51,60.77,49.04,79,114.42,84.9,136.78,6.18,23.41,7.92,42.61,7.26,59.36-1.78,45.17-19.22,62.89-17.99,106.76,.53,18.96,4.26,32.14,9.55,50.85,18.6,65.73,46.06,79.3,57.78,133.25,1.97,9.06,6.93,32.8,3.54,60.14-11.14,89.64-102.72,141.86-108.48,145.04-33.42,18.44-70.25,26.55-107.11,26.55-61.38,0-122.85-22.49-168.82-57.2-77.68-58.66-121.08-159.76-108.88-215.79,1.48-6.81,6.18-23.91,3.14-46.38-5.13-38.01-28.51-62.78-36.95-73.11-42.81-52.37-40.56-148.07-23.58-204.39,28.68-95.16,125.85-165.68,226.69-174.47,4.14-.36,11.45-.89,21.12-.89h0Zm0-5.75v0c-7.38,0-14.65,.31-21.62,.92-50.56,4.41-101.48,24.29-143.38,55.99-21.03,15.91-39.24,34.29-54.12,54.65-15.51,21.21-27.02,44.06-34.2,67.91-9.45,31.35-13.41,69.89-10.86,105.75,2.15,30.24,10.05,72.82,35.5,103.95,.75,.91,1.61,1.94,2.56,3.07,9.31,11.07,28.68,34.11,33.14,67.16,2.63,19.47-.9,34.9-2.6,42.32-.18,.77-.33,1.46-.47,2.07-6.34,29.11,1.37,69.43,21.17,110.62,20.97,43.64,52.89,83.06,89.87,110.98,49.12,37.09,111.92,58.37,172.29,58.37,40.12,0,77.1-9.17,109.89-27.26,2.76-1.52,27.68-15.6,53.49-41.04,14.75-14.55,26.98-30.06,36.35-46.11,11.67-20.01,18.93-40.94,21.58-62.22,3.59-28.87-1.84-53.86-3.62-62.07-6.05-27.88-16.22-45.38-26.98-63.91-10.72-18.46-21.8-37.54-30.89-69.69-5.32-18.79-8.83-31.2-9.34-49.45-.62-22.21,3.74-37.47,8.36-53.63,4.31-15.08,8.76-30.67,9.63-52.74,.76-19.23-1.68-39.2-7.44-61.05-4.02-15.24-10.19-35.77-22.31-59.54-16.21-31.78-37.93-58.78-64.54-80.26-26.04-21.01-56.2-36.26-89.64-45.31-22.89-6.2-47.72-9.48-71.8-9.48h0Z"/></g><path class="cls-2" d="M1541.49,631.33c-73.82-59.58-159.93-54.28-178.93-52.62-100.85,8.8-198.02,79.31-226.7,174.46-16.97,56.33-19.22,152.02,23.58,204.39,2.68,3.27,6.85,8,11.47,14.14-1.27-2.36-2.54-4.71-3.81-7.07-9.97-19.43-24.01-52.75-27.88-96.44-.71-8.07-3.38-53.8,10.8-100.85,28.69-95.17,125.86-165.68,226.69-174.46,19.02-1.66,105.13-6.97,178.95,52.62,3.88,3.14,7.59,6.32,11.13,9.57-7.48-8.16-15.88-16.15-25.29-23.74Z"/><path class="cls-2" d="M1618.45,1122.67c-4.55,8.38-72.46,128.59-209.41,138.31-84.43,5.99-172.6-31.6-219.57-97.99-10.89-15.39-17.76-29.78-22.06-40.32,12.9-1.14,71.91-7.3,114.74-32.96,19-11.38,27.83-21.81,32.81-32.82,3.57-7.86,4.59-14.81,5.47-27.33,.67-9.58,1.2-21.52,1.11-35.52-.06-9.17-.39-19.24-1.11-30.11h110.84c-.72,10.87-1.05,20.95-1.11,30.11-.1,14.02,.44,25.94,1.11,35.52,.87,12.52,1.9,19.47,5.46,27.33,4.98,11.01,13.81,21.44,32.82,32.82,37.84,22.66,129.39,30.36,148.91,32.96Z"/><g><path class="cls-2" d="M1618.45,1122.67c-4.55,8.38-72.46,128.59-209.41,138.31-84.43,5.99-172.6-31.6-219.57-97.99-10.89-15.39-17.76-29.78-22.06-40.32,12.9-1.14,71.91-7.3,114.74-32.96,19-11.38,27.83-21.81,32.81-32.82,3.57-7.86,4.59-14.81,5.47-27.33,.67-9.58,1.2-21.52,1.11-35.52-.06-9.17-.39-19.24-1.11-30.11h110.84c-.72,10.87-1.05,20.95-1.11,30.11-.1,14.02,.44,25.94,1.11,35.52,.87,12.52,1.9,19.47,5.46,27.33,4.98,11.01,13.81,21.44,32.82,32.82,37.84,22.66,129.39,30.36,148.91,32.96Z"/><path d="M1391.21,1264.49c-36.46,0-73.16-7.75-107.15-22.73-40.27-17.74-73.79-44.41-96.93-77.11-8.91-12.6-16.44-26.36-22.38-40.89-.35-.85-.27-1.81,.21-2.59,.48-.78,1.29-1.29,2.2-1.37,16.28-1.43,72.56-8.02,113.52-32.56,16.5-9.89,26.27-19.61,31.66-31.54,3.41-7.5,4.36-14.19,5.22-26.35,.81-11.48,1.18-23.35,1.1-35.3-.06-9.76-.44-19.83-1.1-29.93-.05-.79,.23-1.58,.77-2.16,.54-.58,1.3-.91,2.1-.91h110.84c.8,0,1.56,.33,2.1,.91,.54,.58,.82,1.36,.77,2.16-.67,10.08-1.04,20.15-1.1,29.94-.09,11.96,.27,23.5,1.1,35.3,.84,12.12,1.79,18.8,5.21,26.35,5.39,11.93,15.16,21.65,31.68,31.54,32.53,19.48,105.87,27.78,137.18,31.32,4.55,.51,8.14,.92,10.63,1.25,.94,.12,1.76,.7,2.19,1.55,.43,.84,.42,1.85-.04,2.68-1.97,3.63-20.28,36.44-55.62,69.38-45.72,42.62-98.25,66.31-156.11,70.42-6,.43-12.02,.64-18.04,.64Zm-219.63-139.32c5.52,12.81,12.32,24.96,20.25,36.16,45.2,63.89,132.42,102.78,217.02,96.78,56.52-4.01,107.86-27.19,152.6-68.89,29.2-27.22,46.5-54.24,52.38-64.22-1.81-.21-3.91-.45-6.26-.72-31.68-3.58-105.88-11.98-139.49-32.1-17.58-10.53-28.06-21.04-33.96-34.1-3.76-8.31-4.84-15.75-5.71-28.32-.84-11.95-1.21-23.64-1.12-35.74,.06-8.9,.37-18.04,.92-27.21h-104.71c.55,9.19,.86,18.33,.92,27.21,.08,12.09-.3,24.12-1.12,35.74-.89,12.61-1.98,20.07-5.72,28.32-5.91,13.06-16.38,23.57-33.95,34.1-39.16,23.46-91.68,30.9-112.06,32.98Z"/></g><g><path class="cls-2" d="M1429.83,984.83c2.87-2.39,6.76-5.83,11.06-10.25,14.38-14.79,22.06-29.01,26.73-37.81,4.49-8.47,9.78-19.97,14.13-34.26,3.8-.49,9.49-1.66,15.54-4.83,23.28-12.2,31.02-43.14,29-65.55-.88-9.8-2.3-25.53-15.29-36.18-11.37-9.32-24.97-9.32-29.71-9.09-15.09-85.69-67.12-120.39-138.74-109.36-69.41,10.69-99.18,69.53-108.95,123.55-1.55,8.57-1.93,15.91-1.97,21.17-1.04,2.3-2.39,5.16-4.12,8.43-2.94,5.55-5.42,9.39-6.38,10.92-8,12.69-14.92,23.67-11.44,29.91,2.43,4.35,10.84,8.02,13.8,9.32,0,0,4.33,1.89,5.58,4.73,.55,1.24,.66,2.34,.69,2.76,0,.06,0,.1,0,.12,0,0,0,.01,0,.01,.54,5.97,1.62,14.64,3.99,24.87,2.67,18.44,9.23,31.47,13.71,38.86,18.64,30.76,55.08,50.16,88.64,50.83,4.92,.1,9-.21,11.75-.5l82-17.64Z"/><path d="M1337.95,1005.87c-.64,0-1.29,0-1.93-.02-35.97-.72-72.56-21.7-91.05-52.22-7.23-11.94-11.97-25.33-14.08-39.82-1.91-8.27-3.26-16.72-4.03-25.14,0-.04,0-.08,0-.12,0-.02,0-.04,0-.06-.02-.28-.1-1.01-.45-1.81-.54-1.22-2.76-2.66-4.09-3.26-5.26-2.3-12.55-5.89-15.16-10.55-4.32-7.74,2.67-18.82,11.52-32.85l.24-.37c1.09-1.72,3.36-5.31,6.04-10.36,1.35-2.55,2.62-5.14,3.79-7.71,.09-7.07,.76-14.15,2.01-21.05,7.56-41.77,32.08-113.67,111.35-125.88,37.28-5.74,68.48,.64,92.74,18.96,24.72,18.67,41.14,49.05,48.83,90.31,7.38,.01,19.1,1.57,29.14,9.8,13.93,11.42,15.43,28.15,16.34,38.15,2.17,24.08-6.46,55.74-30.53,68.36-4.52,2.37-9.44,4-14.66,4.86-3.6,11.44-8.24,22.54-13.8,33.02-4.28,8.07-12.25,23.09-27.2,38.47-3.57,3.67-7.36,7.19-11.28,10.46-1.22,1.02-3.03,.85-4.05-.37-1.02-1.22-.85-3.03,.37-4.05,3.77-3.14,7.41-6.52,10.84-10.05,14.38-14.79,22.1-29.34,26.25-37.16,5.67-10.69,10.35-22.05,13.92-33.75,.33-1.08,1.26-1.87,2.38-2.02,5.23-.67,10.13-2.2,14.57-4.52,21.73-11.39,29.47-40.51,27.47-62.74-.87-9.69-2.19-24.33-14.25-34.22-9.79-8.02-21.59-8.73-27.75-8.44-1.46,.07-2.72-.95-2.97-2.38-14.14-80.29-62.25-118.29-135.46-107.02-75.74,11.67-99.27,80.96-106.56,121.22-1.23,6.78-1.87,13.74-1.93,20.68,0,.4-.09,.79-.25,1.16-1.29,2.87-2.7,5.76-4.21,8.59-2.78,5.25-5.13,8.96-6.26,10.75l-.23,.37c-6.89,10.93-14.01,22.22-11.36,26.98,1.3,2.33,5.49,5.05,12.44,8.08l-.02,.04c2.05,.78,5.74,3.12,7.08,6.17,.66,1.49,.87,2.85,.93,3.72v.09s0,0,0,.01c.74,8.18,2.06,16.41,3.92,24.44,.02,.08,.03,.16,.04,.24,1.99,13.76,6.47,26.47,13.33,37.78,17.51,28.89,52.17,48.76,86.24,49.44,3.79,.07,7.62-.09,11.39-.48,1.58-.16,3,.98,3.16,2.56,.17,1.58-.98,3-2.56,3.16-3.36,.35-6.78,.53-10.17,.53Z"/></g><path d="M1484.96,879.32c-.82,0-1.63-.35-2.2-1.03-1.02-1.22-.87-3.03,.35-4.05,4.16-3.5,7.39-7.68,9.6-12.43,2.9-6.22,6.77-17.97,.6-27.75-2.45-3.89-6.1-7.1-10.56-9.28-1.43-.7-2.01-2.42-1.31-3.85,.7-1.43,2.42-2.02,3.85-1.31,5.41,2.66,9.86,6.59,12.89,11.38,5.66,8.96,5.58,20.74-.2,33.16-2.6,5.6-6.34,10.45-11.15,14.49-.54,.45-1.2,.68-1.85,.68Z"/><path d="M1309.55,813.58c0,8.92-5.38,16.15-12.01,16.15s-12.01-7.23-12.01-16.15,5.38-16.15,12.01-16.15,12.01,7.23,12.01,16.15Z"/><path d="M1291.88,935.15c-5.18,0-9.62-.95-12.85-1.95-1.95-.6-3.05-2.68-2.44-4.63,.6-1.95,2.68-3.04,4.63-2.44,4.13,1.27,10.61,2.45,18.07,.82,10.9-2.39,17.63-9.32,20.66-13.23,1.25-1.62,3.58-1.91,5.19-.66s1.91,3.58,.66,5.19c-3.65,4.71-11.74,13.04-24.93,15.93-3.17,.69-6.19,.97-8.99,.97Z"/><path d="M1320.11,772.48c-.65,0-1.31-.17-1.9-.53-3.7-2.23-7.68-3.77-11.83-4.59-10.83-2.14-20.08,1.31-24.62,3.55-1.83,.91-4.05,.15-4.96-1.68-.9-1.83-.15-4.05,1.68-4.96,5.38-2.66,16.36-6.74,29.33-4.18,4.99,.98,9.77,2.84,14.21,5.5,1.75,1.05,2.32,3.33,1.27,5.08-.69,1.16-1.92,1.79-3.17,1.79Z"/><path class="cls-12" d="M1315.39,661.46c-.34,14.77,1.01,38.81,11.88,65.48,12.15,29.79,29.99,47.69,43.2,60.66,50.77,49.88,109.94,63.03,123.08,65.69,44.88,9.11,82.83,3.57,106.03-1.92-.92-54.11-1.83-108.22-2.75-162.34-27.83-16.84-88.39-48.11-169.8-47.95-47.33,.09-85.85,10.77-111.64,20.38Z"/><path d="M1544.84,861.52c-17.99,0-35.89-1.92-53.57-5.77-24.47-5.32-71.93-20.05-114.91-58.85-14.97-13.51-37.59-33.94-51.76-68.88-8.5-20.97-12.57-43.38-12.09-66.62,.03-1.59,1.33-2.84,2.94-2.82,1.59,.03,2.85,1.35,2.82,2.94-.46,22.45,3.47,44.1,11.67,64.34,13.67,33.72,35.7,53.61,50.28,66.77,41.99,37.91,88.37,52.3,112.28,57.5,33.32,7.25,67.44,7.51,101.42,.77,1.56-.31,3.07,.7,3.38,2.26,.31,1.56-.7,3.07-2.26,3.38-16.73,3.32-33.5,4.97-50.19,4.97Z"/><path class="cls-12" d="M1173.14,761.93c2.83,3.24,7.23,7.39,13.53,10.23,17.14,7.73,35.03-.61,55.03-9.04,13.53-5.7,41.08-19.24,65.74-47.25,23.29-26.45,26.41-45.84,27.02-50.23,.62-4.47,.73-8.23,.71-10.84-6.59-9.13-13.19-18.26-19.78-27.38-12.48,12.6-25.41,25.34-38.8,38.17-15.78,15.12-26.93,25.28-41.57,38.77-14.6,13.45-35.75,33.03-61.88,57.57Z"/><path d="M1202.78,775.24c-1.36,0-2.57-.97-2.83-2.36-.29-1.56,.75-3.06,2.31-3.35,29.71-5.47,71.7-19.54,103-55.54,5.84-6.72,11.15-14.04,15.79-21.76,.82-1.36,2.59-1.8,3.95-.99,1.36,.82,1.8,2.59,.99,3.95-4.81,8.01-10.32,15.61-16.38,22.57-32.4,37.26-75.69,51.79-106.3,57.42-.18,.03-.35,.05-.52,.05Z"/></g><g id="Body"><g><path class="cls-2" d="M978.93,1555.83c-3.92,0-7.86-.26-11.72-.76-8.25-1.08-14.11-2.94-19.41-4.76-29.54-10.14-62.92-36.87-155.27-124.36-.79-.75-80.1-75.95-150.15-148.11-7.38-7.6-14.87-15.37-22.29-23.11-8.21-2.84-16.25-6.35-23.91-10.46-20.26-10.86-34-24.57-43.1-33.63-2.18-2.18-4.07-4.06-5.78-5.64-7.64-7.09-15.35-14.73-18.49-23.28-1.1-2.06-1.93-3.87-2.62-5.69-2.46-6.51-2.87-11.47-1.3-16.08,2.22-6.55,7.59-10.37,11.73-12.42-1.83-2.6-3.63-6.27-4-10.91-.8-10.04,5.83-16.85,7.88-18.71,4.08-3.68,8.65-5.2,12.12-5.82-1.45-3.66-2.68-9.26-.42-15.26,3.45-9.19,12.21-12.05,15.09-13,2.12-.69,4.31-1.11,6.54-1.24-.35-.3-.7-.6-1.04-.9-2.39-2.07-3.55-4.73-3.33-7.68,.68-9.43,15.77-19.34,17.49-20.44,.48-.3,1.01-.45,1.55-.45,.71,0,1.42,.26,1.96,.77,16.17,15.09,33.98,29.01,43.55,36.48,4.94,3.86,7.16,5.6,8.04,6.5,19.67,19.94,32.67,33.1,43.4,53.18,4.73,8.84,5.19,13.67,5.6,17.93,.29,3.02,.54,5.63,2.4,9.63,2.05,4.39,4.14,8.03,7,12.17,4.69,6.32,10.1,12.16,16.1,17.37,50.28,43.71,169.78,131.64,170.98,132.52,.04,.03,.09,.07,.13,.1,20.11,16.67,38.42,25.11,54.43,25.11,3.5,0,6.94-.41,10.23-1.21,23.97-5.86,36.81-31.88,48.14-54.84,1.59-3.21,3.08-6.25,4.61-9.23,26.55-51.91,68.08-99.21,123.45-140.6,.5-.38,1.11-.57,1.72-.57,.29,0,.57,.04,.85,.13,19.99,6.18,35.93,16.12,47.36,29.55,18.87,22.16,25.57,53.27,19.91,92.46-13.9,96.25-100.76,218.61-150.31,250.98-12.06,7.88-37.15,24.27-69.13,24.27Z"/><path d="M588.5,1056.01c23.1,21.56,48.84,40.2,51.51,42.9,19.46,19.72,32.37,32.81,42.91,52.51,7.87,14.73,3.15,17.17,7.92,27.42,2.11,4.53,4.3,8.33,7.27,12.63,0,0,0,0,0,0,6.66,8.99,13.25,15,16.55,17.86,50.95,44.29,171.17,132.67,171.17,132.67,15.15,12.56,35.53,25.78,56.27,25.78,3.63,0,7.28-.41,10.91-1.29,28.66-7,41.78-40.42,54.63-65.55,19.57-38.27,54.64-88.8,122.61-139.61,21.63,6.69,36.13,17.05,46.02,28.66,73.86,86.74-64.25,296.35-129.78,339.17-11.45,7.48-36.43,23.8-67.56,23.8-3.7,0-7.49-.23-11.35-.73-7.87-1.03-13.51-2.79-18.85-4.63-28.71-9.85-61.48-35.86-154.23-123.72,0,0-79.25-75.07-150.06-148.02-9.5-9.79-17.35-17.96-22.76-23.6-6.17-2.1-14.63-5.4-24.14-10.5-24.56-13.17-39.11-30.34-48.27-38.85-7.81-7.26-14.98-14.45-17.81-22.35-.94-1.74-1.81-3.55-2.56-5.53-2.41-6.37-2.49-10.53-1.27-14.13,2.81-8.29,11.79-11.54,13.72-12.19-1.25-1.24-5.31-5.56-5.85-12.29-.73-9.1,5.6-15.12,6.94-16.34,5.75-5.19,12.53-5.47,14.52-5.47,.05,0,.09,0,.14,0-.58-.89-5.32-8.42-2.2-16.73,2.97-7.9,10.77-10.45,13.3-11.28,2.62-.85,5.1-1.15,7.3-1.15,3.61,0,6.45,.8,7.84,1.26-2.06-1.63-5.09-4.07-8.66-7.16-9.75-8.44,13.82-23.52,13.82-23.52h0Zm0-5.75c-1.93,0-2.87,.67-5.38,2.47-1.77,1.27-3.48,2.59-5.07,3.94-5.47,4.63-9.02,9.06-10.56,13.18-1.44,3.86-1.18,7.62,.67,10.76-.58,.15-1.16,.32-1.73,.51-8.61,2.82-14.29,7.77-16.91,14.72-1.99,5.29-1.61,10.29-.58,14.2-3.26,.97-6.95,2.7-10.35,5.76-2.3,2.07-9.73,9.72-8.82,21.07,.3,3.81,1.45,7.03,2.85,9.63-4.03,2.51-8.37,6.48-10.43,12.54-1.79,5.29-1.38,10.84,1.33,18.02,.71,1.89,1.57,3.75,2.68,5.85,3.4,9.07,11.33,16.93,19.16,24.21,1.67,1.55,3.54,3.41,5.7,5.57,9.21,9.19,23.14,23.07,43.77,34.13,7.58,4.07,15.54,7.57,23.67,10.41,7.23,7.54,14.56,15.15,21.82,22.62,36.63,37.73,75.52,76.01,101.7,101.48,14.82,14.42,27.22,26.35,35.02,33.82,4.27,4.09,7.65,7.32,9.96,9.51l2.64,2.51c.32,.3,.62,.59,.92,.85h-.01c92.71,87.83,126.31,114.7,156.31,125,5.44,1.87,11.46,3.78,19.97,4.89,3.98,.52,8.05,.78,12.09,.78,32.84,0,59.37-17.33,70.7-24.74,25.46-16.64,59.57-55.63,89.01-101.78,33.96-53.22,56.18-106.92,62.57-151.2,5.78-40.05-1.14-71.93-20.56-94.74-11.79-13.85-28.18-24.09-48.7-30.43-.56-.17-1.13-.26-1.7-.26-1.23,0-2.44,.39-3.45,1.15-55.72,41.65-97.54,89.29-124.29,141.59-1.54,3.01-3.04,6.05-4.63,9.27-11.05,22.39-23.57,47.77-46.24,53.31-3.06,.75-6.28,1.13-9.54,1.13-15.32,0-33.02-8.23-52.6-24.45-.09-.07-.17-.14-.26-.21-1.2-.88-120.38-88.54-170.8-132.37-5.84-5.07-11.1-10.75-15.64-16.87-2.75-3.98-4.77-7.49-6.74-11.71-1.65-3.55-1.86-5.7-2.14-8.69-.41-4.3-.92-9.66-5.92-19.02-10.93-20.44-24.04-33.73-43.89-53.84-1.01-1.02-3.15-2.7-8.31-6.74-9.53-7.45-27.28-21.32-43.36-36.33-1.07-.99-2.47-1.55-3.93-1.55h0Z"/></g><g><path class="cls-2" d="M1657.4,1778.47c-1.48,0-2.72-1.12-2.86-2.59-8.47-84.71-17.64-190.93-27.25-315.71-.07-.93,.31-1.83,1.02-2.43,.52-.44,1.18-.67,1.85-.67,.24,0,.48,.03,.72,.09l168.85,43.7c1.2,.31,2.07,1.36,2.15,2.6,7.01,108.61,11.21,207.88,13.51,272.02,.03,.78-.26,1.54-.8,2.1-.54,.56-1.29,.88-2.07,.88h-155.11Z"/><path d="M1630.16,1459.96c56.28,14.57,112.56,29.13,168.85,43.7,6.45,99.93,10.76,195.25,13.5,271.94h-155.11c-7.8-78.06-16.83-180.49-27.24-315.64h0Zm0-5.75c-1.34,0-2.65,.47-3.7,1.34-1.42,1.19-2.19,3-2.04,4.85,9.61,124.79,18.78,231.03,27.25,315.77,.29,2.94,2.77,5.18,5.73,5.18h155.11c1.56,0,3.06-.63,4.14-1.76,1.08-1.12,1.67-2.64,1.61-4.2-2.29-64.16-6.5-163.45-13.51-272.1-.16-2.48-1.89-4.58-4.3-5.2l-168.85-43.7c-.48-.12-.96-.18-1.44-.18h0Z"/></g><path class="cls-5" d="M1813.05,1501.36c-3.07-41.91-10.29-130.84-49.82-229.22-19.57-48.68-43.63-91.15-87.9-122.35-24.05-16.95-47.32-25.83-63.57-30.69-8.15-1.35-16.31-2.69-24.48-4.02-31.16-5.07-62.16-9.93-92.99-14.6-11.18,17.15-33.89,46.27-72.71,65.2-17.61,8.59-46.2,22.53-81.11,15.35-20.99-4.32-35.18-14.41-40.01-18.09-29.03-22.1-36.45-53.61-38.3-63.03-32.66,7.27-57.92,11.86-75.7,14.8-22.06,3.66-46.02,7-72.48,23.08,0,0-2.56,1.56-5.21,3.31-33.61,22.3-124.86,156.56-157.13,204.72,12.72,27.16,28.66,57.02,48.7,88.23,27.36,42.61,55.88,77.62,81.82,105.63,3.07-3.78,6.14-7.67,9.21-11.7,8.97-11.76,16.94-23.36,24.03-34.59-.82,5.66-1.79,14.65-1.35,25.63,1.1,27.52,9.99,42.42,15.4,64.48,1.43,5.82,.26,3.32,3.21,59.34,.22,4.14,.72,13.29,1.73,31.6,1.2,21.68,3.03,54.22,5.81,100.79,149.6,.11,299.2,.23,448.79,.34,4.73-15.43,9.8-33.66,14.75-54.21,1.12-4.64,5.93-24.89,11-52.83,0,0,2.24-12.94,8.6-61.64,2.45,.64,5.2,1.25,8.13,1.85,.15,1.83,.31,3.67,.47,5.51,66.55-7.49,127.46-35.21,184.14-70.36-.98-13.96-1.99-28.13-3.05-42.54Z"/><path class="cls-8" d="M1813.05,1501.36c-3.07-41.91-10.29-130.84-49.82-229.22-19.57-48.68-43.63-91.15-87.9-122.35-24.05-16.95-47.32-25.83-63.57-30.69-8.15-1.35-16.31-2.69-24.48-4.02-31.16-5.07-62.16-9.93-92.99-14.6-11.18,17.15-33.89,46.27-72.71,65.2-17.61,8.59-46.2,22.53-81.11,15.35-20.99-4.32-35.18-14.41-40.01-18.09-29.03-22.1-36.45-53.61-38.3-63.03-32.66,7.27-57.92,11.86-75.7,14.8-22.06,3.66-46.02,7-72.48,23.08,0,0-2.56,1.56-5.21,3.31-33.61,22.3-124.86,156.56-157.13,204.72,12.72,27.16,28.66,57.02,48.7,88.23,27.36,42.61,55.88,77.62,81.82,105.63,3.07-3.78,6.14-7.67,9.21-11.7,8.97-11.76,16.94-23.36,24.03-34.59-.82,5.66-1.79,14.65-1.35,25.63,1.1,27.52,9.99,42.42,15.4,64.48,1.43,5.82,.26,3.32,3.21,59.34,.22,4.14,.72,13.29,1.73,31.6,1.2,21.68,3.03,54.22,5.81,100.79,149.6,.11,299.2,.23,448.79,.34,4.73-15.43,9.8-33.66,14.75-54.21,1.12-4.64,5.93-24.89,11-52.83,0,0,2.24-12.94,8.6-61.64,2.45,.64,5.2,1.25,8.13,1.85,.15,1.83,.31,3.67,.47,5.51,66.55-7.49,127.46-35.21,184.14-70.36-.98-13.96-1.99-28.13-3.05-42.54Z"/><path d="M1262.16,1099.91c1.85,9.42,9.27,40.93,38.3,63.03,4.83,3.68,19.02,13.77,40.01,18.09,6.76,1.39,13.27,1.99,19.52,1.99,26.04,0,47.39-10.41,61.59-17.34,38.81-18.93,61.53-48.05,72.71-65.2,30.83,4.67,61.83,9.53,92.99,14.6,8.17,1.33,16.33,2.67,24.48,4.02,16.25,4.86,39.53,13.74,63.57,30.69,44.27,31.2,68.33,73.67,87.89,122.35,39.54,98.38,46.75,187.31,49.82,229.22,1.06,14.41,2.07,28.58,3.05,42.54-56.68,35.15-117.59,62.87-184.14,70.36-.15-1.83-.32-3.68-.47-5.51-2.92-.6-5.67-1.2-8.13-1.85-6.36,48.71-8.6,61.64-8.6,61.64-5.07,27.94-9.89,48.19-11,52.83-4.94,20.55-10.02,38.77-14.75,54.21-149.6-.11-299.2-.23-448.79-.34-2.77-46.57-4.61-79.11-5.81-100.79-1.01-18.31-1.51-27.47-1.73-31.6-2.96-56.02-1.78-53.52-3.21-59.34-5.41-22.06-14.3-36.96-15.4-64.48-.44-10.98,.52-19.97,1.35-25.63-7.09,11.23-15.06,22.83-24.03,34.59-3.07,4.02-6.14,7.92-9.21,11.7-25.94-28.01-54.46-63.02-81.82-105.63-20.04-31.21-35.98-61.07-48.7-88.23,32.27-48.17,123.52-182.42,157.13-204.72,2.64-1.75,5.21-3.31,5.21-3.31,26.45-16.08,50.42-19.42,72.48-23.08,17.78-2.95,43.03-7.53,75.7-14.8h0Zm0-5.75c-.42,0-.84,.05-1.25,.14-26.28,5.85-51.64,10.81-75.39,14.74l-3.18,.52c-21.17,3.48-45.17,7.43-71.28,23.28-1.11,.6-2.72,1.65-5.46,3.47-32.11,21.3-113.23,138.41-158.73,206.31-1.12,1.68-1.29,3.82-.43,5.64,14.33,30.6,30.84,60.51,49.07,88.9,24.2,37.69,51.94,73.5,82.44,106.43,1.09,1.18,2.62,1.84,4.22,1.84,.06,0,.12,0,.19,0,1.67-.05,3.23-.83,4.28-2.12,3.15-3.88,6.29-7.86,9.32-11.84,4.18-5.49,8.27-11.1,12.24-16.8,.01,1.53,.05,3.06,.11,4.58,.77,19.3,5.28,32.85,9.63,45.96,2.07,6.22,4.21,12.65,5.93,19.67,.61,2.47,.62,2.67,.92,11.04,.26,7.29,.74,20.87,2.13,47.23,.22,4.1,.71,13.09,1.7,31l.03,.61c1.61,29.22,3.57,63.14,5.81,100.82,.18,3.04,2.7,5.41,5.74,5.41l149.52,.11,299.27,.23h0c2.53,0,4.76-1.65,5.5-4.07,5.3-17.28,10.29-35.64,14.84-54.55,1.74-7.22,6.3-26.87,11.07-53.15,.09-.54,2.01-11.73,7.26-51.45,.19,.21,.39,.4,.61,.58,1.03,.85,2.33,1.31,3.65,1.31,.21,0,.43-.01,.64-.04,32.15-3.62,63.97-11.86,97.26-25.18,28.62-11.45,57.82-26.5,89.27-46.01,1.81-1.13,2.86-3.16,2.71-5.29-1.01-14.36-2.03-28.68-3.05-42.56-2.84-38.79-9.5-129.62-50.22-230.95-17.06-42.45-41.09-90.49-89.92-124.91-19.6-13.81-41.55-24.41-65.24-31.5-.23-.07-.47-.12-.71-.16-8.15-1.35-16.32-2.69-24.5-4.02-30.79-5.01-62.1-9.92-93.05-14.61-.29-.04-.58-.07-.86-.07-1.93,0-3.75,.97-4.82,2.61-12.57,19.28-34.99,45.9-70.41,63.17-13.68,6.67-34.36,16.75-59.07,16.75-6.15,0-12.33-.63-18.36-1.87-18.27-3.76-31.45-12.28-37.68-17.03-24.99-19.03-33.37-45.49-36.14-59.56-.3-1.52-1.2-2.86-2.5-3.71-.94-.62-2.04-.94-3.15-.94h0Z"/><path class="cls-2" d="M1264.65,1109.99c-29.67,6.5-52.84,10.68-69.48,13.44-22.06,3.66-46.03,7.01-72.48,23.08,0,0-2.57,1.55-5.2,3.31-27.78,18.43-94.91,113.31-135.6,172.89-13.67,20.02-15.17,45.97-3.75,67.36,9.04,16.94,19.29,34.6,30.91,52.71,24.45,38.08,49.83,70.1,73.49,96.46-.13,.16-.25,.32-.38,.48-25.93-28.02-54.46-63.03-81.81-105.65-20.05-31.21-35.99-61.07-48.7-88.21,32.27-48.16,123.53-182.44,157.13-204.74,2.65-1.74,5.21-3.3,5.21-3.3,26.45-16.09,50.42-19.43,72.46-23.09,17.78-2.95,43.05-7.53,75.71-14.8,.83,3.36,1.66,6.72,2.49,10.08Z"/><path d="M1627.22,1610.71c-.08,0-.17,0-.25-.01-1.58-.14-2.75-1.53-2.62-3.12,2.27-25.94,2.93-52.3,1.96-78.32-1.02-27.44-3.86-55.09-8.46-82.17-.27-1.57,.79-3.05,2.36-3.32,1.57-.27,3.05,.79,3.32,2.36,4.64,27.33,7.51,55.23,8.54,82.92,.97,26.26,.31,52.85-1.98,79.04-.13,1.5-1.39,2.63-2.86,2.63Z"/><path d="M1108.4,1518.68c-.12,0-.24,0-.36-.02-1.58-.2-2.69-1.64-2.49-3.22,2.93-23.16,6.72-46.51,11.27-69.4,.31-1.56,1.83-2.57,3.38-2.26,1.56,.31,2.57,1.83,2.26,3.38-4.52,22.75-8.29,45.97-11.2,69-.18,1.45-1.42,2.52-2.85,2.52Z"/><path d="M567.16,1180.14c-.82,0-1.63-.35-2.2-1.02-1.62-1.92-3.28-3.84-4.94-5.7-7.84-8.78-16.4-17.12-25.44-24.77-1.21-1.03-1.36-2.84-.33-4.06,1.03-1.21,2.84-1.36,4.06-.33,9.24,7.83,17.98,16.35,26.01,25.33,1.7,1.9,3.4,3.86,5.05,5.83,1.02,1.22,.87,3.03-.35,4.06-.54,.45-1.2,.68-1.85,.68Z"/><path d="M584.57,1145.26c-.77,0-1.54-.31-2.11-.92-.36-.38-.85-.91-1.43-1.53,0,0,0,0-.01-.01-.12-.13-1.86-1.97-3.63-3.8-8.35-8.6-17.24-16.87-26.43-24.59-1.22-1.02-1.37-2.84-.35-4.05,1.02-1.22,2.84-1.38,4.05-.35,9.34,7.84,18.37,16.25,26.86,24.99,2.28,2.35,3.25,3.36,3.7,3.88h0c.59,.63,1.09,1.16,1.45,1.55,1.08,1.16,1.02,2.98-.15,4.07-.55,.52-1.26,.77-1.96,.77Z"/><path class="cls-5" d="M605.41,1250.84h0c-14.8,0-26.8-12-26.8-26.8v-247.67h53.61v247.67c0,14.8-12,26.8-26.8,26.8Z"/><path d="M632.22,976.37v247.67c0,14.8-12,26.8-26.8,26.8s-26.8-12-26.8-26.8v-247.67h53.61Zm0-5.75h-53.61c-3.18,0-5.75,2.58-5.75,5.75v247.67c0,17.95,14.61,32.56,32.56,32.56s32.56-14.61,32.56-32.56v-247.67c0-3.18-2.58-5.75-5.75-5.75h0Z"/><path class="cls-5" d="M713.86,1034.2c-85.71,.35-269.03,9.04-400.22,94.15v-331.97s140.62,126.56,394.22,100.08c46.64-4.87,81.33,47.38,63.17,95.35-.28,.73-.57,1.47-.86,2.21-9.94,24.52-32.1,40.08-56.3,40.18Z"/><path d="M313.64,1131.23c-.47,0-.94-.12-1.37-.35-.93-.5-1.5-1.47-1.5-2.53v-331.97c0-1.14,.67-2.17,1.71-2.63,1.04-.46,2.25-.27,3.1,.49,.35,.31,35.73,31.75,101.46,59.57,60.64,25.66,160.28,53.39,290.53,39.79,21.39-2.23,41.65,6.85,55.58,24.93,16.01,20.78,20.07,49.25,10.58,74.3-.29,.75-.58,1.51-.89,2.27-10.29,25.39-33.43,41.87-58.96,41.98v-2.88s0,2.88,0,2.88c-167.4,.69-305.26,33.08-398.67,93.69-.47,.31-1.02,.46-1.57,.46Zm2.88-328.71v320.58c94.23-59.38,231.45-91.09,397.33-91.77h0c23.18-.09,44.24-15.16,53.65-38.38,.29-.72,.57-1.43,.84-2.15,8.78-23.19,5.04-49.54-9.76-68.75-12.68-16.46-31.06-24.74-50.42-22.72-58.1,6.07-115.08,4.55-169.36-4.49-43.44-7.24-85.25-19.3-124.27-35.83-52.68-22.32-86.17-47.01-98.01-56.48Z"/><g><ellipse class="cls-5" cx="313.64" cy="962.37" rx="37.87" ry="165.98"/><g class="cls-13"><path class="cls-5" d="M345.19,891.21h26.73v142.32h-26.73c-20.76,0-37.62-16.86-37.62-37.62v-67.08c0-20.76,16.86-37.62,37.62-37.62Z"/><path d="M371.92,1036.4c-37.07,0-67.23-30.16-67.23-67.23v-13.62c0-37.07,30.16-67.23,67.23-67.23,1.59,0,2.88,1.29,2.88,2.88v142.32c0,1.59-1.29,2.88-2.88,2.88Zm-2.88-142.25c-32.57,1.51-58.6,28.47-58.6,61.41v13.62c0,32.93,26.03,59.9,58.6,61.41v-136.43Z"/></g></g><path d="M313.64,1131.23c-26.47,0-40.75-87-40.75-168.86s14.28-168.86,40.75-168.86,40.75,87,40.75,168.86-14.28,168.86-40.75,168.86Zm0-331.97c-16.55,0-34.99,66.99-34.99,163.11s18.44,163.11,34.99,163.11,34.99-66.98,34.99-163.11-18.44-163.11-34.99-163.11Z"/><g><path class="cls-9" d="M572.67,1167.71c-20.24,0-36.7-16.46-36.7-36.7v-24.03c0-20.23,16.46-36.7,36.7-36.7,1.59,0,2.88,1.29,2.88,2.88v91.67c0,1.59-1.29,2.88-2.88,2.88Z"/><path d="M572.67,1073.17v91.67h0c-18.68,0-33.82-15.14-33.82-33.82v-24.03c0-18.68,15.14-33.82,33.82-33.82h0Zm0-5.75c-21.82,0-39.58,17.75-39.58,39.58v24.03c0,21.82,17.75,39.58,39.58,39.58,3.18,0,5.75-2.58,5.75-5.75v-91.67c0-1.53-.61-2.99-1.69-4.07-1.08-1.08-2.54-1.69-4.07-1.69h0Z"/></g><path class="cls-5" d="M572.67,1164.84h0v-91.67h0c-18.68,0-33.82,15.14-33.82,33.82v24.03c0,18.68,15.14,33.82,33.82,33.82Z"/><path class="cls-2" d="M648.28,1117.28c-10.51,2.51-19.41,4.9-26.3,6.84-12.54,3.54-17.04,5.21-21.95,7.75-3.44,1.78-9.11,4.7-14.53,9.64-8.58,7.82-11.73,16.57-17.66,33.76-6.15,17.82-6.45,26.87-3.37,31.65,1.91,2.97,4.99,4.85,5,4.85,0,0,5.61,3.65,12.38,2.97,15.1-1.51,18.98-42.01,31.84-42.44,4.24-.14,5.13,4.21,18.25,10.39,4.78,2.25,8.89,3.66,11.58,4.5l4.77-69.9Z"/><path d="M580.15,1217.7c-6.77,0-12.02-3.36-12.26-3.52l.02-.03c-2.12-1.14-4.79-4.01-5.86-5.68-3.93-6.1-2.98-16.63,3.07-34.15,5.7-16.51,9.14-26.47,18.44-34.95,5.7-5.19,11.61-8.24,15.15-10.07,5.35-2.76,10.4-4.55,22.49-7.96,8.66-2.45,17.55-4.76,26.42-6.87,1.54-.37,3.1,.58,3.47,2.13,.37,1.55-.59,3.1-2.13,3.47-8.79,2.1-17.6,4.39-26.19,6.81-12.85,3.63-16.99,5.26-21.41,7.54-3.28,1.69-8.77,4.53-13.91,9.21-7.88,7.18-10.87,15.18-16.88,32.57-5.27,15.26-6.47,24.8-3.67,29.15,1.49,2.32,3.98,3.89,4.08,3.95,.02,.01,.05,.03,.07,.04,.04,.02,4.9,3.08,10.53,2.52,6.11-.61,10.75-11.4,14.84-20.92,4.7-10.94,9.14-21.27,17.19-21.54,3.09-.1,4.98,1.37,7.39,3.22,2.39,1.84,5.67,4.37,12.18,7.43,3.62,1.71,7.39,3.17,11.21,4.35,1.52,.47,2.37,2.08,1.9,3.6-.47,1.52-2.08,2.36-3.6,1.9-4.07-1.26-8.09-2.82-11.95-4.64-7.08-3.33-10.79-6.19-13.24-8.08-2.21-1.7-2.77-2.05-3.69-2.03-4.39,.15-8.49,9.66-12.1,18.06-4.95,11.51-10.07,23.42-19.55,24.37-.67,.07-1.33,.1-1.98,.1Z"/></g></g></g><g><g class="cls-7"><path class="cls-5" d="M2216.24,684.9s-55.24,14.49-97.03,54.04c-41.78,39.55,324.36,157.91,351.44,25.5l-20-38.55s-36.26-39.89-104.93-47.31c-68.67-7.42-129.49,6.33-129.49,6.33Z"/><path class="cls-10" d="M2216.24,684.9s-55.24,14.49-97.03,54.04c-41.78,39.55,324.36,157.91,351.44,25.5l-20-38.55s-36.26-39.89-104.93-47.31c-68.67-7.42-129.49,6.33-129.49,6.33Z"/><path d="M2303.52,676.38c13.37,0,27.61,.62,42.2,2.2,68.67,7.42,104.93,47.32,104.93,47.32l20,38.55c-9.21,45.02-57.59,61.04-115.82,61.04-113.05,0-263.2-60.44-235.62-86.55,41.78-39.54,97.03-54.04,97.03-54.04,0,0,37.71-8.53,87.28-8.53h0Zm0-5.75c-49.64,0-86.99,8.32-88.55,8.67-.06,.01-.13,.03-.19,.05-2.31,.61-57.16,15.33-99.52,55.42-5.06,4.79-6.43,10.98-3.86,17.43,3.34,8.38,13.66,17.44,30.7,26.94,15.51,8.65,35.93,17.29,59.07,25,51.72,17.23,107.73,27.12,153.66,27.12,32.19,0,58.68-4.77,78.74-14.19,23.63-11.09,38-28.41,42.72-51.46,.26-1.29,.08-2.63-.53-3.8l-20-38.55c-.23-.44-.51-.85-.85-1.22-.39-.43-9.82-10.7-27.95-21.9-16.61-10.26-44.08-23.32-80.62-27.27-13.7-1.48-28.11-2.23-42.82-2.23h0Z"/><g><g><path class="cls-11" d="M2335.9,570.94c-1.83,0-3.43-.42-4.75-1.25-9.4-5.9-4.6-33.22,3.21-71.18,3-14.56,6.71-32.6,5.55-36.22-.92-.49-1.82-.65-2.15-.69-.56,.05-1.24,.37-2.34,.9-2.57,1.24-6.45,3.12-14.19,3.12-1.42,0-2.95-.06-4.53-.19-14.34-1.14-28.08-8.89-40.85-23.03-15.26,8.38-31.44,15.07-48.15,19.88-3.79,1.09-7.27,2.16-10.63,3.2-11.42,3.52-20.44,6.29-30.07,6.29-7.74,0-15.26-1.82-23.68-5.72-14.99-6.95-35.89-23.72-32.04-41.41,2.38-10.94,13.08-16.85,17.57-18.88,4.33-1.96,8.96-2.95,13.79-2.95,1.39,0,2.7,.08,3.93,.22-5.27-6.94-9.01-14.4-11.14-22.28-1.47-5.42-3.48-12.85,.73-16.28,1.19-.96,2.67-1.45,4.42-1.45,4.11,0,9.22,2.79,14.15,5.48,1.83,1,3.55,1.94,5.1,2.67,4.21,1.98,8.39,2.94,12.78,2.94,8.31,0,16.8-3.45,26.62-7.45,12.28-4.99,27.56-11.21,47.7-12.41,1.66-.1,4.75-.29,8.72-.29,19.28,0,46.16,4.14,64.7,23.84,5.89,6.26,10.54,13.72,13.82,22.19,4.37,.4,8.48,1.49,12.23,3.25,11.1,5.2,19.91,16.38,25.48,32.33,9.6,27.48,7.36,62.25-5.7,88.59-13.07,26.34-37.75,46.77-50.27,46.77h0Z"/><path d="M2335.9,573.61c-2.34,0-4.41-.56-6.16-1.66-10.88-6.83-6.26-33.72,2.02-73.98,2.21-10.73,5.76-27.97,5.75-33.51-.3,.14-.66,.31-.92,.44-2.62,1.27-7,3.39-15.35,3.39-1.49,0-3.09-.07-4.74-.2-14.5-1.15-28.35-8.67-41.2-22.35-14.89,8.01-30.64,14.44-46.86,19.11-3.74,1.08-7.19,2.14-10.53,3.17-11.69,3.6-20.88,6.43-30.91,6.43h0c-8.13,0-16.01-1.9-24.79-5.97-15.77-7.32-37.71-25.17-33.53-44.39,2.64-12.12,14.21-18.54,19.07-20.74,4.27-1.93,8.82-3,13.55-3.16-3.84-5.92-6.68-12.2-8.44-18.72-1.57-5.79-3.94-14.53,1.63-19.04,1.68-1.36,3.73-2.05,6.1-2.05,4.79,0,10.2,2.95,15.43,5.81,1.79,.98,3.48,1.9,4.96,2.6,3.85,1.81,7.66,2.69,11.65,2.69,7.79,0,16.05-3.36,25.62-7.25,12.46-5.07,27.96-11.37,48.54-12.61,1.69-.1,4.84-.29,8.88-.29,19.81,0,47.45,4.28,66.64,24.68,5.77,6.13,10.39,13.38,13.76,21.54,4.07,.53,7.92,1.64,11.47,3.31,11.76,5.51,21.05,17.22,26.87,33.87,9.82,28.12,7.54,63.71-5.83,90.65-13.7,27.62-39.1,48.25-52.65,48.25Zm1.86-114.67c.12,0,.25,0,.37,.03,.6,.08,1.78,.32,3.02,.98,.62,.33,1.08,.88,1.29,1.54,1.28,3.98-1.33,17.46-5.47,37.57-5.78,28.08-12.97,63.02-4.41,68.39,.89,.56,2.01,.84,3.33,.84,11.51,0,35.43-20.2,47.88-45.29,12.76-25.72,14.95-59.68,5.57-86.52-5.33-15.26-13.66-25.91-24.09-30.8-3.46-1.62-7.28-2.64-11.34-3.01-1.01-.09-1.87-.75-2.24-1.69-3.16-8.15-7.63-15.32-13.28-21.33-17.88-19.01-44-23-62.76-23-3.88,0-6.92,.18-8.56,.28-19.71,1.18-34.76,7.3-46.86,12.22-10.08,4.1-18.79,7.64-27.62,7.64-4.79,0-9.34-1.05-13.92-3.2-1.63-.77-3.38-1.73-5.24-2.74-4.64-2.54-9.44-5.16-12.88-5.16-1.13,0-2.03,.28-2.74,.86-2.87,2.33-1.05,9.06,.16,13.51,2.04,7.53,5.64,14.71,10.69,21.37,.64,.85,.72,2,.2,2.93-.53,.93-1.55,1.46-2.61,1.33-5.71-.63-11.27,.22-16.32,2.51-4.12,1.87-13.94,7.26-16.06,17.02-3.49,16.04,16.89,32.08,30.56,38.42,8.05,3.74,15.22,5.48,22.55,5.48h0c9.23,0,18.08-2.73,29.29-6.17,3.42-1.05,6.89-2.12,10.68-3.21,16.51-4.76,32.52-11.37,47.61-19.66,1.08-.6,2.43-.37,3.26,.55,12.3,13.62,25.46,21.07,39.09,22.16,1.51,.12,2.97,.18,4.32,.18,7.13,0,10.54-1.65,13.03-2.86,1.22-.59,2.19-1.06,3.25-1.16,.08,0,.17-.01,.25-.01Z"/></g><g><path class="cls-2" d="M2273.62,723.05c-37.2-2.93-55.95-35.56-57.38-38.15,2.57-.77,19.52-11.65,23.4-22.63,.86-2.44,2.42-13.52,2.62-20.11,.05-1.7,.08-3.53,.09-5.51,0-4.13-.1-8.83-.36-14.04-.28-5.04-.7-10.57-1.39-16.52l73.96-3.4c-.12,5.99-.06,11.54,.15,16.57,.21,5.47,1.15,21.27,1.45,25.53,.11,1.74,.23,3.39,.36,4.91,.51,5.89,1.96,8.63,3.15,11.36,4.46,10.29,24.22,17.38,26.06,17.5-13.16,29.09-42.27,46.83-72.11,44.48h0Z"/><path d="M2278.94,725.95c-1.84,0-3.68-.07-5.53-.22h0c-38.29-3.02-57.46-35.8-59.52-39.53-.39-.71-.44-1.56-.14-2.31,.31-.75,.94-1.33,1.71-1.56,2.43-.82,18.21-11.24,21.64-20.96,.72-2.03,2.26-12.74,2.46-19.29,.05-1.68,.08-3.49,.09-5.45,0-4.32-.11-9-.36-13.88-.31-5.65-.76-11-1.37-16.35-.08-.74,.14-1.48,.62-2.05,.48-.57,1.18-.91,1.92-.94l73.96-3.4c.74-.03,1.47,.24,2,.76s.83,1.24,.81,1.98c-.11,5.78-.06,11.3,.15,16.41,.2,5.34,1.13,21.01,1.45,25.45,.11,1.73,.22,3.37,.35,4.87,.42,4.85,1.51,7.3,2.56,9.67l.38,.85c3.79,8.74,21.76,15.55,23.88,15.9,.88,.06,1.62,.54,2.07,1.3,.45,.76,.45,1.68,.09,2.48-12.77,28.22-40.12,46.27-69.24,46.27Zm-5.11-5.58c27.93,2.2,54.94-13.84,68.13-40.15-6.8-2.42-20.8-8.96-24.76-18.08l-.36-.81c-1.12-2.51-2.51-5.65-3-11.39-.13-1.54-.25-3.21-.36-4.96-.32-4.45-1.25-20.23-1.46-25.6-.18-4.36-.25-9.01-.2-13.86l-68.25,3.13c.47,4.51,.83,9.05,1.09,13.82,.25,4.99,.37,9.76,.37,14.19-.02,2.02-.04,3.87-.1,5.59-.2,6.43-1.72,17.97-2.77,20.92-3.52,9.95-16.01,19.23-22.14,22.81,5.01,7.8,22.92,31.96,53.8,34.39h0Z"/><g><path class="cls-2" d="M2346.12,476.87c.12-4.26,0-11.14-1.61-19.36,0,0-3.01-15.04-10.64-27.37-7.59-12.27-37.02-30.36-75.55-31.62-18.47-.6-33.91-1.1-49.13,7.86-42.01,24.72-37.17,94.86-35.61,117.53,1.55,22.48,3.82,51.41,25.48,75.13,18.8,20.59,45.28,31.27,73.4,27.9,23.4-2.81,38.91-14.52,42.86-17.65,26.52-20.99,31.16-51.15,32.05-58.12,4.98-1.88,14.11-6.26,20.13-15.85,10-15.94,6.85-38.96-6.46-50.82-5.35-4.76-11.24-6.74-14.92-7.64h0Z"/><path d="M2308.92,616.51c-.88,0-1.75-.44-2.25-1.24-.79-1.24-.42-2.89,.82-3.68,1.77-1.12,3.53-2.35,5.23-3.65,0,0,.48-.37,.95-.74,23.95-18.96,29.7-45.73,31.06-56.37,.12-.98,.78-1.81,1.7-2.16,5.7-2.14,13.58-6.45,18.81-14.78,9.18-14.64,6.45-36.35-5.98-47.41-3.78-3.37-8.41-5.73-13.78-7.04-1.22-.3-2.07-1.41-2.03-2.66,.17-6.26-.34-12.53-1.53-18.64l-4.74-15.39c-.43-1.41,.36-2.9,1.76-3.33,1.41-.43,2.9,.36,3.33,1.76l4.78,15.53c.03,.09,.05,.18,.07,.27,1.15,5.85,1.71,11.84,1.69,17.84,5.35,1.59,10.05,4.17,13.99,7.68,14.5,12.9,17.61,37.23,6.95,54.22-5.56,8.87-13.66,13.74-19.96,16.34-1.79,12.17-8.44,39.01-32.83,58.3-.5,.4-1.02,.79-1.02,.79-1.83,1.4-3.72,2.72-5.62,3.92-.44,.28-.94,.41-1.42,.41Z"/><path d="M2252.07,626.58c-4.51,0-8.96-.46-13.32-1.39-22.08-4.69-35.08-19.71-40.63-26.12-20.19-23.33-23.08-49.95-25.87-75.69-2.42-22.28-1.52-45.03,2.66-67.63,.27-1.45,1.66-2.4,3.11-2.14,1.45,.27,2.4,1.66,2.14,3.11-4.09,22.09-4.97,44.32-2.61,66.08,2.7,24.93,5.5,50.7,24.6,72.78,5.2,6.01,17.38,20.08,37.71,24.4,6.12,1.3,12.47,1.61,18.87,.91,1.47-.16,2.78,.9,2.94,2.36,.16,1.46-.9,2.78-2.36,2.94-2.42,.26-4.84,.4-7.24,.4Z"/><path d="M2255.99,597.21c-6.33,0-11.38-1.66-13.9-2.68-2.04-.83-3.03-3.17-2.19-5.21s3.17-3.03,5.21-2.19c3.2,1.3,11.65,3.92,21.1,.11,8-3.22,12.23-9.23,14.04-12.52,1.06-1.93,3.5-2.64,5.43-1.58,1.93,1.06,2.64,3.5,1.58,5.43-2.32,4.22-7.76,11.93-18.06,16.08-4.71,1.9-9.22,2.56-13.21,2.56Z"/><path d="M2348.6,533.66c-1.72,0-3.31-1.12-3.83-2.86-.63-2.12,.58-4.34,2.69-4.97,1.61-.48,3.92-1.5,5.75-3.62,3.06-3.55,3.76-9.01,1.72-13.27-1.23-2.56-3.2-4.2-4.65-5.13-1.86-1.2-2.39-3.67-1.2-5.53,1.2-1.86,3.67-2.39,5.53-1.2,3.31,2.13,5.91,5.03,7.52,8.39,3.43,7.15,2.28,15.97-2.86,21.95-2.45,2.84-5.74,4.94-9.53,6.07-.38,.11-.76,.17-1.14,.17Z"/><path d="M2251.42,559.96c-4.29,0-8.9-1.45-11.14-5.06-2.53-4.08-.67-8.22,1.3-12.6,1.09-2.44,2.33-5.2,3.33-8.66,1.5-5.19,2.24-10.62,2.21-16.13-.01-2.21,1.77-4.01,3.98-4.02,0,0,.01,0,.02,0,2.2,0,3.99,1.78,4,3.98,.03,6.27-.82,12.46-2.53,18.39-1.15,4-2.58,7.17-3.72,9.72-.79,1.77-2,4.45-1.81,5.09,.58,.94,3.55,1.63,6.21,1.14,2.35-.43,3.95-1.83,4.7-2.63,1.51-1.61,4.04-1.7,5.65-.19,1.61,1.51,1.7,4.04,.19,5.65-2.45,2.62-5.68,4.41-9.1,5.03-1.04,.19-2.16,.29-3.3,.29Z"/><path d="M2302.59,490.21c-.84,0-1.68-.26-2.41-.81-2.14-1.62-5.7-3.65-10.45-4.12-6.34-.63-11.22,1.86-13.57,3.4-1.84,1.21-4.32,.7-5.54-1.14-1.21-1.85-.7-4.32,1.14-5.54,3.23-2.12,9.96-5.55,18.75-4.68,6.6,.66,11.51,3.46,14.47,5.69,1.76,1.33,2.11,3.84,.78,5.6-.79,1.04-1.98,1.59-3.19,1.59Z"/><path d="M2225.76,491.34c-.83,0-1.66-.26-2.38-.79-2.04-1.51-5.4-3.43-9.85-4-6.55-.84-11.69,1.67-14.17,3.24-1.87,1.18-4.34,.63-5.52-1.24-1.18-1.87-.63-4.34,1.24-5.52,3.39-2.15,10.43-5.58,19.47-4.42,4.87,.63,9.57,2.53,13.59,5.51,1.77,1.31,2.15,3.82,.83,5.59-.78,1.06-1.99,1.62-3.22,1.62Z"/><path d="M2204.92,515.55c.31,5.33,3.6,9.47,7.34,9.25,3.74-.22,6.52-4.71,6.21-10.04-.31-5.33-3.6-9.47-7.34-9.25-3.74,.22-6.52,4.71-6.21,10.04h0Z"/><path d="M2280,512.12c.04,5.34,3.11,9.64,6.86,9.61,3.75-.03,6.75-4.38,6.71-9.72-.04-5.33-3.11-9.64-6.86-9.61-3.75,.03-6.75,4.38-6.71,9.71h0Z"/></g><g><path class="cls-11" d="M2381.93,473.75c.85,6.6,2.42,18.83-4.98,26.74-9.64,10.31-29.96,8.43-42.58,.42-11.34-7.2-9.44-14.88-18.74-25.32-19.12-21.46-57.28-22.87-80.51-18.6-23.61,4.34-32.74,14.72-54.49,11.22-11.05-1.78-19.59-6.21-24.95-9.56,9.33-22.26,21.61-36.95,29.83-45.35,1.94-1.99,43.49-43.48,94.37-41.16,12.48,.57,19.7,3.1,21.9,4.26,13.89,7.28,22.18,15.22,35.06,31.01,36.65,44.92,43.11,50.9,45.1,66.34h0Z"/><path class="cls-11" d="M2381.93,473.75c.85,6.6,2.42,18.83-4.98,26.74-9.64,10.31-29.96,8.43-42.58,.42-11.34-7.2-9.44-14.88-18.74-25.32-19.12-21.46-57.28-22.87-80.51-18.6-23.61,4.34-32.74,14.72-54.49,11.22-11.05-1.78-19.59-6.21-24.95-9.56,9.33-22.26,21.61-36.95,29.83-45.35,1.94-1.99,43.49-43.48,94.37-41.16,12.48,.57,19.7,3.1,21.9,4.26,13.89,7.28,22.18,15.22,35.06,31.01,36.65,44.92,43.11,50.9,45.1,66.34h0Z"/><path d="M2357.66,510.22c-8.63,0-17.72-2.62-24.72-7.06-7.18-4.56-9.56-9.38-12.08-14.48-1.74-3.53-3.54-7.19-7.23-11.32-19.39-21.77-58.18-21.4-78.03-17.75-8.75,1.61-15.33,4.02-21.7,6.35-10.48,3.84-19.53,7.16-33.7,4.88-10.69-1.72-21.4-3.82-27.33-7.52-1.25-.78-1.63-2.42-.85-3.67,.78-1.25,2.42-1.63,3.67-.85,5.14,3.21,15.7,5.23,25.35,6.78,12.8,2.05,20.84-.89,31.02-4.62,6.27-2.3,13.37-4.9,22.57-6.59,20.96-3.85,62.01-4.09,82.98,19.45,4.17,4.68,6.22,8.84,8.03,12.51,2.36,4.79,4.23,8.58,10.15,12.34,11.64,7.39,30.6,9.21,39.2,0,1-1.08,2.69-1.13,3.77-.13,1.07,1.01,1.13,2.69,.13,3.77-5.15,5.51-12.98,7.91-21.24,7.91Z"/></g></g><g><path class="cls-2" d="M2166.1,405.74c2.06,3.09,4.6,6.34,7.71,9.62-2.03-.77-12.56-4.53-24.04,.68-1.59,.72-13.23,5.99-15.87,16.37-.46-2.38-.47-4.78,.05-7.18,2.34-10.77,14.39-16.23,16.02-16.97,6-2.72,11.73-2.99,16.13-2.51h0Z"/><path class="cls-2" d="M2394.79,479.41c-.17-29.73-11.03-57.12-29.76-65.9-4.71-2.21-9.29-2.94-13.02-3.12-2.17-6.02-6.19-14.77-13.87-22.92-24.01-25.53-63.03-23.19-71.25-22.7-43.76,2.63-62.58,28.82-88.43,16.66-6.87-3.23-16.76-10.32-20.78-7.05-.32,.26-.59,.58-.79,.94-.74-3.58-.95-7.14,.99-8.72,4.02-3.27,13.91,3.81,20.78,7.04,25.85,12.16,44.67-14.03,88.43-16.66,8.22-.49,47.24-2.83,71.25,22.7,7.68,8.15,11.69,16.9,13.87,22.92,3.72,.18,8.3,.92,13.01,3.12,20.36,9.54,31.42,41.06,29.56,73.68h0Z"/></g></g></g><path class="cls-3" d="M2277.87,800.3c-66.06,0-128.17-25.73-174.88-72.44-46.71-46.71-72.44-108.82-72.44-174.88s25.73-128.17,72.44-174.88c46.71-46.71,108.82-72.44,174.88-72.44s128.17,25.73,174.88,72.44c46.71,46.71,72.44,108.82,72.44,174.88s-25.73,128.17-72.44,174.88c-46.71,46.71-108.82,72.44-174.88,72.44Zm0-488.89c-133.2,0-241.57,108.37-241.57,241.57s108.37,241.57,241.57,241.57,241.57-108.37,241.57-241.57-108.37-241.57-241.57-241.57Z"/></g><g><g class="cls-4"><path class="cls-12" d="M1564.89,341.73s-95.02,10.61-136.16,119.76c-33.99,90.19,230.06,137.7,328.3,35.68,98.24-102.02,45.34-66.12,45.34-66.12,0,0-36.29-91.32-131.5-89.74-95.2,1.58-105.98,.41-105.98,.41Z"/><path d="M1673.3,341.3c93.38,0,129.06,89.76,129.06,89.76,0,0,9.03-6.12,12.7-6.12,5.22,0-.38,12.37-58.04,72.24-39.06,40.57-104.33,57.49-166.67,57.49-94.43,0-182.11-38.84-161.63-93.17,41.14-109.15,136.16-119.76,136.16-119.76,0,0,3.83,.41,27.1,.41,15.76,0,40.44-.19,78.88-.83,.82-.01,1.63-.02,2.44-.02h0Zm0-5.75c-.84,0-1.68,0-2.53,.02-33.08,.55-59.59,.83-78.78,.83-21.86,0-26.29-.37-26.53-.39-.19-.02-.38-.03-.57-.03-.21,0-.43,.01-.64,.04-1.02,.11-25.26,2.98-54.84,19.66-17.32,9.77-32.91,22.29-46.33,37.22-16.73,18.61-30.1,41.01-39.74,66.58-5.94,15.75-3.94,31.49,5.76,45.52,11.52,16.66,33.56,30.76,63.72,40.77,28.49,9.46,63.13,14.67,97.53,14.67,72.29,0,134.55-21.6,170.81-59.25,22.91-23.8,39.53-42.09,49.37-54.38,11.69-14.58,12.95-19.32,11.22-23.38-1.11-2.61-3.68-4.23-6.7-4.23h0c-2.89,0-6.72,1.66-10.16,3.56-4.16-8.47-13.08-24.41-27.8-40.45-12.42-13.54-26.42-24.33-41.61-32.09-19.04-9.72-39.96-14.65-62.18-14.65h0Z"/><g><g><path class="cls-2" d="M1671.11,346.6c-1.19,19.42-26.07,40.44-52.3,40.83-27.13,.41-53.05-21.31-54.16-40.83-.11-1.9,.03-3.55,.23-4.87,8.55-5.49,12.74-10.58,15.16-15.95,1.86-4.12,2.4-7.77,2.86-14.33,.12-1.62,.23-3.36,.33-5.24,.19-3.94,.29-8.41,.27-13.38-.04-4.81-.21-10.09-.6-15.78h70.54c-.37,5.69-.56,10.98-.58,15.78-.04,5.22,.08,9.88,.31,13.94,.08,1.66,.17,3.23,.27,4.68,.46,6.57,.99,10.21,2.86,14.33,2.36,5.24,6.4,10.23,14.56,15.53,.21,1.39,.38,3.2,.25,5.28h0Z"/><path d="M1618.08,390.14c-13.02,0-26.74-4.9-37.77-13.52-10.92-8.53-17.78-19.69-18.35-29.87-.1-1.79-.02-3.61,.25-5.42,.12-.77,.56-1.46,1.22-1.88,7.28-4.67,11.65-9.23,14.15-14.78,1.71-3.79,2.19-7.2,2.63-13.4,.12-1.62,.23-3.34,.33-5.2,.2-4.14,.29-8.59,.27-13.22-.05-5.37-.24-10.47-.59-15.61-.05-.75,.21-1.48,.72-2.03,.51-.55,1.23-.86,1.98-.86h70.54c.75,0,1.46,.31,1.98,.86,.51,.55,.77,1.28,.73,2.03-.36,5.52-.55,10.78-.57,15.62-.04,4.85,.06,9.48,.31,13.77,.08,1.66,.16,3.21,.27,4.64,.43,6.21,.91,9.62,2.62,13.41,2.45,5.44,6.63,9.87,13.57,14.38,.65,.42,1.08,1.1,1.2,1.86,.3,1.95,.39,3.93,.28,5.86h0c-1.32,21.49-28.54,42.98-54.96,43.37-.26,0-.51,0-.77,0Zm-50.66-46.83c-.1,1.05-.12,2.1-.06,3.14,.99,17.56,24.9,38.71,51.41,38.28,26.22-.39,48.59-21.27,49.64-38.29h0c.07-1.17,.05-2.36-.07-3.54-7.24-4.88-11.73-9.85-14.5-15.99-2.04-4.51-2.62-8.52-3.09-15.26-.1-1.46-.19-3.06-.27-4.74-.25-4.39-.35-9.13-.31-14.09,.02-4.09,.15-8.47,.41-13.05h-64.78c.25,4.28,.38,8.57,.42,13.05,.02,4.73-.07,9.28-.27,13.53-.11,1.92-.21,3.69-.34,5.32-.47,6.72-1.05,10.72-3.09,15.24-2.83,6.27-7.51,11.37-15.09,16.41Z"/></g><g><path class="cls-11" d="M1619,275.74c-32.66,0-66.24-11.26-89.83-30.13-19-15.2-28.4-32.72-32.32-41.81-16.04-37.23-9.24-60.34-.71-73.16,4.08-6.14,9.49-11.39,16.08-15.63-1.02-6.3-2.71-25.6,11.07-41.09,8.99-10.1,22.17-15.9,36.17-15.9,4.43,0,8.85,.58,13.15,1.72,4.24-5.11,9.12-9.54,14.53-13.17,14.71-9.89,30.25-11.97,40.7-11.97,2.47,0,4.95,.11,7.36,.34,21.26,2,35.45,11.45,43.61,19.03,7.28,6.77,13.01,14.91,17.04,24.21,9.73,5.68,17.79,12.85,23.96,21.31,21.95,30.12,15.24,68.85,13.03,81.58l-.13,.74c-.34,2-.81,4.74-1.65,8.16-.37,1.51-9.46,37.31-40.68,62.65-18.63,15.12-43.31,23.12-71.36,23.12h0Z"/><path d="M1627.84,37.23c2.69,0,5.09,.14,7.11,.33,5.64,.53,25.18,2.66,42.06,18.34,9.4,8.73,14.29,18.24,16.75,24.12,12.48,7.13,19.78,15.36,23.91,21.02,20.99,28.8,14.87,66.3,12.56,79.58-.36,2.1-.82,4.96-1.74,8.72,0,0-8.89,36.16-39.79,61.23-19.2,15.58-44.19,22.53-69.7,22.53-32.07,0-64.95-10.97-88.18-29.56-20.32-16.26-29.03-34.96-31.54-40.8-3.53-8.18-18.84-43.74-.94-70.66,5.3-7.98,12-12.91,16.81-15.8-.49-2.22-4.9-23.75,10.12-40.62,8.64-9.71,21.16-15.01,34.2-15.01,4.69,0,9.44,.69,14.1,2.1,3.07-3.89,7.94-9.22,15.05-14,14.02-9.43,28.82-11.52,39.23-11.52h0Zm0-5.27v0h0c-10.81,0-26.91,2.15-42.17,12.42-5.17,3.47-9.87,7.64-14.01,12.41-4.01-.93-8.1-1.41-12.2-1.41-14.75,0-28.64,6.12-38.13,16.78-6.96,7.82-11.17,17.78-12.18,28.83-.48,5.22-.17,9.71,.23,12.75-6.26,4.27-11.44,9.45-15.42,15.44-8.89,13.37-16.02,37.34,.49,75.66,4.01,9.32,13.65,27.27,33.09,42.83,24.04,19.23,58.24,30.71,91.47,30.71,28.66,0,53.91-8.2,73.02-23.71,16.69-13.54,27.09-30.18,32.87-41.75,4.93-9.86,7.91-18.87,8.67-22.32h.04c.87-3.52,1.35-6.31,1.7-8.35l.12-.72c1.01-5.84,3.38-19.51,2.52-35.16-1.04-18.98-6.43-35.27-16.02-48.42-6.23-8.54-14.3-15.8-24.01-21.6-4.15-9.31-9.97-17.47-17.31-24.3-8.46-7.86-23.15-17.65-45.15-19.72-2.49-.23-5.05-.35-7.6-.35h0Z"/><path class="cls-2" d="M1727.63,186.46c-.06,2.53-.36,5.09-.99,7.63-2.5,10.34-10.07,20.23-20.44,24.24-2.83,1.09-5.34,1.54-7.09,1.75-.49,1.65-1.15,3.88-1.91,6.46-5.9,20.03-6.33,21.84-7.79,25.79-1.97,5.33-4.11,10.91-8.3,17.77-3.93,6.44-8.87,12.47-15.16,17.67,0,0-4.84,4-10.55,7.14-29.44,16.19-77.32,2.49-88.99-7.14-.37-.3-.76-.64-.76-.64-2.46-2.1-8.57-7.69-14.41-17.03-5.68-9.09-9.23-20.7-16.09-43.55-.83-2.75-1.49-5.01-1.91-6.46-1.75-.21-4.25-.66-7.08-1.75-10.37-4.01-17.94-13.9-20.44-24.24-.63-2.53-.93-5.09-1-7.63-.36-12.18,5.07-23.76,11.67-27.01,4.49-2.23,13.11-2.38,14.17-2.35,.06-1.63,.15-3.26,.27-4.91v-.06c0-2.94,.62-52.63,30.36-67.92,1.62-.83,3.67-2.19,6.76-2.7,7.78-1.28,14.73,3.96,34.45,4.3,4.13,.06,8.8,.12,13.78,.3,4.97-.18,9.65-.24,13.78-.3,19.72-.33,26.67-5.58,34.45-4.3,3.17,.52,5.27,1.92,6.76,2.7,0,0,26.48,13.75,30.36,67.92,.09,1.26,.16,2.53,.16,2.53,.05,.94,.09,1.77,.11,2.45,1.06-.03,9.68,.12,14.17,2.35,6.6,3.26,12.03,14.83,11.67,27.01h0Z"/><path d="M1608.22,304.16c-5.43,0-10.78-.67-15.96-1.99-16.56-4.23-31.06-15.02-41.94-31.2-7.95-11.83-12.06-25.16-17.75-43.61-.5-1.62-.99-3.24-1.45-4.86-2.03-.36-4.02-.91-5.93-1.64-10.58-4.09-19.25-14.35-22.1-26.13-.64-2.56-1-5.33-1.07-8.2-.38-12.92,5.28-25.61,13.18-29.51,3.73-1.85,9.45-2.4,12.78-2.56,.04-.77,.09-1.56,.15-2.37,.01-3.39,.76-54.32,31.83-70.29,.26-.13,.52-.28,.81-.43,1.58-.86,3.74-2.03,6.76-2.53,4.11-.68,7.85,.19,12.59,1.3,5.34,1.24,11.98,2.79,22.34,2.96h.73c3.91,.07,8.33,.13,13.01,.3,4.68-.17,9.1-.23,13.01-.29h.73c10.35-.19,17-1.73,22.34-2.97,4.74-1.1,8.48-1.97,12.59-1.3,3.11,.51,5.36,1.75,6.85,2.57,.26,.14,.5,.28,.73,.39,1.14,.59,27.87,15.08,31.81,70.13,.08,1.14,.15,2.28,.16,2.53,3.33,.16,9.05,.71,12.79,2.57,7.89,3.89,13.55,16.58,13.17,29.52-.07,2.86-.43,5.63-1.07,8.2-2.85,11.77-11.52,22.02-22.09,26.11-1.92,.74-3.91,1.29-5.95,1.65l-1.42,4.8c-1.42,4.83-2.53,8.6-3.41,11.6-2.8,9.56-3.3,11.28-4.44,14.36-2.19,5.92-4.34,11.38-8.53,18.24-.96,1.57-2.3,3.69-4.19,6.21-4.61,6.13-9.61,10.52-11.55,12.13-4.17,3.45-8.75,6.42-13.61,8.84-1.34,.67-2.96,.12-3.63-1.22-.67-1.34-.12-2.96,1.22-3.63,4.49-2.23,8.72-4.97,12.57-8.16,1.79-1.48,6.41-5.54,10.68-11.21,1.76-2.34,3.01-4.32,3.9-5.78,3.93-6.44,5.98-11.64,8.07-17.29,1.07-2.91,1.57-4.6,4.33-14,.88-3,1.98-6.77,3.41-11.61l1.91-6.46c.31-1.04,1.2-1.79,2.27-1.92,2.22-.27,4.39-.8,6.44-1.59,8.96-3.46,16.33-12.24,18.78-22.35,.55-2.21,.86-4.58,.92-7.06,.35-11.88-5-21.98-10.16-24.52-3.54-1.76-11.07-2.12-12.89-2.07-1.45,.06-2.73-1.12-2.78-2.6-.03-.67-.06-1.48-.11-2.4,0-.01-.07-1.25-.16-2.49-3.73-52.06-28.66-65.58-28.91-65.71-.26-.14-.54-.29-.84-.46-1.3-.72-2.92-1.61-5.11-1.97-3.05-.5-6.17,.22-10.48,1.23-5.29,1.23-12.54,2.92-23.48,3.1h-.74c-3.91,.07-8.33,.13-12.99,.3-.07,0-.13,0-.2,0-4.65-.17-9.08-.23-12.99-.29h-.73c-10.94-.2-18.19-1.88-23.49-3.11-4.32-1-7.43-1.73-10.48-1.23-2.12,.35-3.68,1.2-5.05,1.94-.32,.17-.63,.34-.92,.49-28.53,14.67-28.89,63.45-28.89,65.52,0,.07,0,.19,0,.26-.12,1.69-.21,3.27-.27,4.81-.05,1.49-1.29,2.69-2.78,2.61-1.81-.05-9.35,.32-12.89,2.07-5.17,2.55-10.52,12.64-10.17,24.51,.06,2.49,.37,4.86,.92,7.05,2.45,10.13,9.83,18.9,18.79,22.37,2.05,.78,4.21,1.32,6.43,1.59,1.09,.13,1.99,.9,2.28,1.95,.6,2.12,1.23,4.27,1.89,6.4,5.56,18.03,9.58,31.04,17.08,42.21,10.13,15.06,23.54,25.08,38.79,28.98,6.76,1.73,13.82,2.23,20.99,1.49,1.48-.15,2.82,.93,2.97,2.42,.15,1.49-.93,2.82-2.42,2.97-2.32,.24-4.63,.36-6.93,.36Z"/><path d="M1612.88,272.61c-2.43,0-5.34-.31-8.49-1.32-5.7-1.83-9.64-5.11-11.94-7.53-1.24-1.31-1.19-3.38,.12-4.62,1.31-1.24,3.38-1.19,4.62,.12,1.77,1.87,4.81,4.4,9.2,5.81,5.06,1.62,9.3,.88,11.34,.52l.26-.04c6.7-1.16,11.63-5.51,14.58-8.96,1.17-1.37,3.24-1.53,4.61-.35,1.37,1.17,1.53,3.24,.35,4.61-3.65,4.26-9.82,9.65-18.42,11.14l-.24,.04c-1.23,.22-3.32,.58-5.98,.58Z"/><path d="M1704.78,205.14c-.81,0-1.6-.4-2.06-1.13-.73-1.14-.4-2.65,.74-3.38,2.46-1.58,4.46-3.58,5.96-5.95,1.97-3.1,4.83-9.04,2.28-14.55-1.02-2.19-2.71-4.12-4.89-5.56-1.13-.75-1.44-2.27-.69-3.4,.75-1.13,2.27-1.43,3.4-.69,2.94,1.95,5.23,4.57,6.63,7.59,2.62,5.64,1.71,12.46-2.55,19.19-1.91,3.02-4.42,5.53-7.49,7.49-.41,.26-.87,.39-1.32,.39Z"/><path d="M1528.62,205.14c-.45,0-.91-.13-1.32-.39-3.06-1.96-5.57-4.47-7.46-7.45-4.29-6.77-5.2-13.59-2.58-19.23,1.4-3.01,3.69-5.64,6.63-7.59,1.13-.75,2.65-.44,3.4,.69,.75,1.13,.44,2.65-.69,3.4-1.52,1.01-3.6,2.79-4.89,5.56-2.55,5.51,.31,11.45,2.25,14.5,1.53,2.42,3.54,4.42,5.99,5.99,1.14,.73,1.47,2.25,.74,3.38-.47,.73-1.26,1.13-2.06,1.13Z"/><path d="M1619.17,234.05s-.03,0-.05,0c-11.16-.15-17.26-2.44-19.19-7.21-1.49-3.69,.21-6.89,2.36-10.95,1.16-2.18,2.6-4.89,3.9-8.32,1.87-4.91,3.02-10.1,3.43-15.43,.14-1.8,1.71-3.15,3.51-3,1.8,.14,3.14,1.71,3,3.51-.46,5.96-1.75,11.76-3.84,17.25-1.45,3.81-2.99,6.72-4.24,9.06-1.36,2.55-2.43,4.57-2.08,5.43,.12,.3,1.54,2.98,13.22,3.14,1.8,.02,3.25,1.51,3.22,3.31-.02,1.79-1.48,3.22-3.26,3.22Z"/><path d="M1666.06,164.33c-.69,0-1.38-.22-1.97-.66-2.97-2.25-6.27-3.92-9.79-4.94-6.7-1.95-12.68-1.14-16.51-.12-1.74,.47-3.53-.57-4-2.31-.47-1.74,.57-3.53,2.31-4,4.64-1.24,11.88-2.22,20.03,.16,4.29,1.25,8.3,3.27,11.91,6.01,1.44,1.09,1.72,3.14,.63,4.58-.64,.85-1.62,1.29-2.61,1.29Z"/><path d="M1558.49,169.91c-.95,0-1.9-.42-2.54-1.22-1.13-1.4-.91-3.46,.49-4.59,3.53-2.84,7.47-4.98,11.72-6.36,8.08-2.62,15.34-1.86,20.01-.76,1.76,.41,2.85,2.17,2.43,3.93-.41,1.76-2.17,2.84-3.93,2.43-3.86-.91-9.86-1.54-16.51,.61-3.49,1.13-6.74,2.89-9.64,5.23-.6,.49-1.33,.72-2.05,.72Z"/><path d="M1643.45,190.55c.16,6.07,3.9,10.89,8.35,10.77,4.45-.12,7.92-5.13,7.76-11.2-.16-6.06-3.9-10.89-8.35-10.77-4.45,.12-7.92,5.13-7.76,11.2h0Z"/><path d="M1570.31,192.62c.16,6.07,3.75,10.89,8.01,10.78,4.26-.11,7.58-5.12,7.42-11.19-.16-6.06-3.75-10.89-8.01-10.78-4.26,.12-7.58,5.13-7.42,11.19h0Z"/><path class="cls-11" d="M1522.25,136.63c2.12,3.79,5.99,5.55,8.37,6.37,11.69,2,27.41,2.61,42.54-4.69,17.28-8.33,19.85-20.24,35.1-22.87,14.71-2.54,28.15,5.78,38.42,12.19,20.2,12.6,22.17,23.43,39.24,27.67,6.03,1.5,15.55,3.93,20.51-.69,11.69-10.89-2.59-60.22-36.8-81.98-23.61-15.01-49.94-12.58-70.21-10.71-16.15,1.49-31.33,2.9-46.37,13.84-17.2,12.51-23.48,28.06-29.92,44.89-2.02,5.28-3.64,11.07-.89,15.99h0Z"/><path d="M1698.08,159.97c-4.39,0-8.97-1.14-12.56-2.03l-.22-.06c-10.48-2.6-15.8-7.67-21.96-13.55-4.53-4.32-9.67-9.22-18.06-14.45-9.61-5.99-22.77-14.2-36.55-11.82-7.6,1.31-11.68,5.12-16.84,9.93-4.41,4.12-9.41,8.78-17.56,12.71-12.67,6.11-27.52,7.76-44.15,4.92-1.45-.25-2.43-1.63-2.18-3.08,.25-1.45,1.63-2.43,3.08-2.18,15.51,2.66,29.29,1.15,40.93-4.46,7.42-3.58,11.9-7.76,16.23-11.81,5.35-4.99,10.4-9.71,19.58-11.29,15.79-2.72,29.95,6.1,40.29,12.55,8.85,5.52,14.19,10.62,18.91,15.12,6.07,5.79,10.46,9.97,19.56,12.23l.23,.06c5.23,1.3,13.98,3.47,17.82-.11,1.08-1,2.77-.94,3.77,.13,1,1.08,.94,2.77-.13,3.77-2.76,2.57-6.4,3.41-10.18,3.41Z"/></g></g></g><path class="cls-3" d="M1620.69,494.64c-66.06,0-128.17-25.73-174.88-72.44-46.71-46.71-72.44-108.82-72.44-174.88s25.73-128.17,72.44-174.88C1492.52,25.73,1554.63,0,1620.69,0s128.17,25.73,174.88,72.44c46.71,46.71,72.44,108.82,72.44,174.88s-25.73,128.17-72.44,174.88c-46.71,46.71-108.82,72.44-174.88,72.44Zm0-488.89c-133.2,0-241.57,108.37-241.57,241.57s108.37,241.57,241.57,241.57,241.57-108.37,241.57-241.57S1753.89,5.75,1620.69,5.75Z"/></g><g><g class="cls-15"><path class="cls-5" d="M488.21,638.63s-48.81,7.87-84.29,123.17c-25.56,83.03,335.45,109.57,387.5-47.91,0,0,5.11-69.27-68.81-75.25-73.92-5.98-234.4,0-234.4,0Z"/><path class="cls-1" d="M488.21,638.63s-48.81,7.87-84.29,123.17c-25.56,83.03,335.45,109.57,387.5-47.91,0,0,5.11-69.27-68.81-75.25-73.92-5.98-234.4,0-234.4,0Z"/><path d="M628.98,635.97c34.72,0,68.99,.66,93.62,2.66,73.92,5.98,68.81,75.25,68.81,75.25-27.2,82.29-138.73,114.33-235.41,114.33-88.35,0-164.29-26.77-152.09-66.41,35.49-115.29,84.29-123.17,84.29-123.17,0,0,71.32-2.66,140.77-2.66h0Zm0-5.75c-68.76,0-140.27,2.64-140.99,2.66-.24,0-.47,.03-.7,.07-2.14,.34-52.75,9.79-88.88,127.16-3.24,10.52-1.33,20.99,5.53,30.27,9.86,13.35,30.03,24.51,58.35,32.28,26.96,7.4,59.37,11.31,93.71,11.31,53.25,0,105.1-9.5,146-26.76,23.33-9.84,43.07-22.13,58.65-36.52,17.23-15.9,29.42-34.41,36.22-55,.15-.45,.24-.91,.28-1.38,.06-.77,1.29-18.97-7.16-38.13-7.9-17.91-25.92-39.97-66.93-43.28-21.96-1.78-53.61-2.68-94.09-2.68h0Z"/><g id="Person_2"><g id="Head-2"><g><path class="cls-12" d="M586.97,608.38c-3.41,0-6.86-.04-10.26-.12-40.82-.97-81.43-7.73-120.71-20.09-1.09-.34-1.87-1.3-2-2.43-2.87-26.52-3.57-53.5-2.06-80.2,1.14-20.22,2.32-41.12,7.81-62.25,2.41-9.3,7.44-28.65,18.41-49.54,13.67-26.02,31.9-45.53,54.19-57.98,19.29-10.77,41.1-16.24,64.83-16.24,37.77,0,76.95,14.4,104.81,38.51,31.58,27.35,42.13,61.43,51.44,91.51,11.98,38.71,15.17,79.22,9.48,120.41-.14,1-.79,1.85-1.71,2.25-55.87,24-114.49,36.17-174.21,36.17h0Z"/><path d="M597.17,322.4c38.27,0,76.48,14.92,102.92,37.81,30.96,26.81,41.48,60.79,50.58,90.19,15.54,50.22,12.86,93.95,9.37,119.17-36,15.46-96.53,35.94-173.08,35.94-3.37,0-6.77-.04-10.2-.12-48.74-1.16-89.61-10.43-119.91-19.96-2.12-19.53-3.9-46.97-2.05-79.73,1.16-20.59,2.3-40.84,7.72-61.69,4.69-18.08,20.03-77.14,71.22-105.73,19.72-11.01,41.58-15.87,63.43-15.87h0Zm0-5.75c-24.23,0-46.51,5.59-66.24,16.6-22.78,12.72-41.4,32.63-55.33,59.15-11.13,21.19-16.21,40.75-18.65,50.15-5.56,21.41-6.75,42.46-7.89,62.81-1.52,26.86-.82,54,2.07,80.68,.25,2.27,1.81,4.18,3.99,4.87,39.54,12.45,80.42,19.25,121.5,20.23,3.43,.08,6.9,.12,10.33,.12,60.12,0,119.12-12.25,175.35-36.4,1.85-.8,3.15-2.5,3.43-4.5,5.75-41.61,2.53-82.54-9.58-121.65-9.42-30.45-20.1-64.95-52.31-92.84-28.36-24.56-68.25-39.22-106.69-39.22h0Z"/></g><path class="cls-2" d="M709.5,369.2c-1.5-1.43-3.05-2.84-4.66-4.23-41.53-35.98-112.09-52.25-166.34-21.95-51.2,28.59-66.53,87.64-71.22,105.72-4.26,16.44-5.4,33.19-7.73,61.71-2.55,31.13-2.87,57.02-2.68,74.97h0c-2.12-19.54-3.91-46.97-2.05-79.72,1.16-20.58,2.3-40.85,7.71-61.71,4.69-18.06,20.02-77.13,71.22-105.72,54.25-30.3,124.8-14.01,166.36,21.95,3.37,2.91,6.48,5.91,9.39,8.98Z"/><path class="cls-2" d="M722.61,638.63c-2.36,4.36-37.66,66.82-108.83,71.88-43.88,3.11-89.7-16.42-114.11-50.92-5.66-8-9.23-15.48-11.47-20.95,6.7-.59,37.37-3.79,59.63-17.13,9.87-5.91,14.46-11.34,17.05-17.06,1.85-4.08,2.38-7.7,2.84-14.2,.35-4.98,.62-11.18,.58-18.46-.03-4.77-.2-10-.58-15.65h57.6c-.37,5.65-.55,10.89-.58,15.65-.05,7.29,.23,13.48,.58,18.46,.45,6.51,.99,10.12,2.84,14.2,2.59,5.72,7.18,11.14,17.06,17.06,19.67,11.77,67.24,15.78,77.38,17.13Z"/><path d="M604.51,713.71c-19.14,0-38.4-4.07-56.24-11.93-21.16-9.32-38.77-23.34-50.94-40.54-4.69-6.63-8.66-13.88-11.78-21.53-.35-.85-.27-1.81,.21-2.59s1.29-1.29,2.2-1.37c8.38-.74,37.37-4.13,58.4-16.73,8.32-4.98,13.23-9.85,15.91-15.77,1.68-3.71,2.16-7.07,2.59-13.22,.42-5.93,.61-12.06,.57-18.24-.03-5.04-.23-10.24-.57-15.47-.05-.79,.23-1.58,.77-2.16,.54-.58,1.3-.91,2.1-.91h57.6c.8,0,1.56,.33,2.1,.91,.54,.58,.82,1.36,.77,2.16-.34,5.2-.54,10.41-.57,15.47-.05,6.18,.14,12.14,.57,18.24,.42,6.13,.9,9.49,2.59,13.22,2.68,5.93,7.59,10.79,15.91,15.77,16.65,9.97,54.55,14.26,70.73,16.09,2.36,.27,4.26,.48,5.55,.65,.94,.12,1.76,.7,2.19,1.55,.43,.84,.42,1.85-.04,2.68-1.51,2.78-37.8,68.17-111.15,73.37-3.15,.22-6.31,.33-9.47,.33Zm-112.11-72.61c2.69,5.94,5.91,11.58,9.62,16.82,23.22,32.82,68.06,52.81,111.55,49.72,61.28-4.35,95.59-52.65,104.31-66.67-.35-.04-.72-.08-1.1-.13-16.55-1.87-55.32-6.26-73.04-16.87-9.4-5.62-15.01-11.28-18.2-18.34-2.04-4.51-2.62-8.49-3.08-15.19-.44-6.24-.63-12.35-.58-18.68,.03-4.18,.16-8.45,.4-12.75h-51.49c.24,4.31,.37,8.59,.4,12.75,.04,6.32-.16,12.6-.58,18.68-.48,6.72-1.06,10.71-3.09,15.19-3.19,7.06-8.8,12.71-18.19,18.33-19.47,11.66-45.15,15.79-56.92,17.12Z"/><path class="cls-2" d="M675.27,442.26c-.11,.03-.23,.06-.23,.06-.07,.02-.13,.03-.17,.04,.28-7.6-.17-24.59-10.56-41.82-2.58-4.27-8.09-13.21-18.45-20.4-17.16-11.9-36.72-10.52-57.8-8.61-25.38,2.3-38.07,3.45-49.85,12.11-32.8,24.12-24.91,81.32-22.46,99.11,2.97,21.56,8.5,61.58,40.91,82.01,4.8,3.02,24.83,15.23,50.14,10.95,18.23-3.09,30.05-13.2,37.16-19.45,22.12-19.43,29.18-44.22,31.59-55.43,1.11,.15,2.73,.25,4.62-.06,4.15-.69,6.87-2.94,8.5-4.31,.49-.41,6.6-5.67,8.82-13.5,5.97-21.09-21.98-40.76-22.22-40.7Z"/><path d="M624.7,572.73c-1.06,0-2.07-.58-2.58-1.59-.71-1.42-.13-3.15,1.29-3.86,8.48-4.24,14.85-9.83,18.66-13.18,19.47-17.1,27.42-38.73,30.67-53.87,.32-1.47,1.7-2.45,3.2-2.25,1.27,.17,2.53,.16,3.76-.05,3.45-.57,5.74-2.51,7.11-3.67,4.68-3.96,6.99-9.35,7.95-12.22,3.57-10.66,3.92-29.27-6.68-35.34-3.22-1.84-7.45-2.4-12.23-1.62l-.24,.06c-.88,.24-1.82,.04-2.54-.53-.71-.57-1.12-1.44-1.08-2.36,.38-10.59-1.47-21.2-5.36-30.7-.6-1.47,.1-3.15,1.57-3.75,1.47-.6,3.15,.1,3.75,1.57,3.78,9.23,5.78,19.42,5.83,29.68,4.97-.36,9.47,.54,13.15,2.65,13.54,7.76,13.58,29.33,9.28,42.16-1.4,4.2-4.23,10.17-9.69,14.79-1.58,1.34-4.87,4.11-9.88,4.95-.93,.15-1.87,.24-2.82,.24-3.74,15.82-12.32,37.33-31.96,54.57-4.02,3.53-10.74,9.43-19.88,14-.41,.21-.85,.3-1.28,.3Z"/><path d="M589.15,577.09c-.06,0-.13,0-.19,0-12.36-.82-23.71-4.12-33.72-9.82-35.34-20.11-41.83-63.38-44.61-81.86l-.05-.35c-2.98-19.82-2.48-42.76,1.31-61.36,4.38-21.47,12.69-34.8,23.38-37.52,3.63-.92,7.55-.66,11.68,.77,1.5,.52,2.3,2.16,1.77,3.66-.52,1.5-2.16,2.3-3.66,1.77-3.04-1.06-5.86-1.27-8.37-.63-18.3,4.66-26.13,54.39-20.42,92.45l.05,.35c2.65,17.65,8.85,58.99,41.76,77.72,9.25,5.26,19.77,8.32,31.25,9.08,1.59,.11,2.79,1.48,2.68,3.06-.1,1.52-1.37,2.69-2.87,2.69Z"/><path d="M593.39,545.82c-1.87,0-3.82-.15-5.82-.49-4.26-.73-8.35-2.25-12.16-4.52-1.75-1.05-2.33-3.32-1.28-5.07,1.05-1.75,3.32-2.33,5.07-1.28,3.02,1.8,6.25,3.01,9.61,3.58,10.24,1.75,18.75-3.03,21.93-5.16,1.7-1.14,4-.68,5.13,1.02,1.14,1.7,.68,4-1.02,5.13-4.08,2.73-11.78,6.8-21.47,6.8Z"/><path d="M682.3,487.07c-.81,0-1.61-.34-2.18-.99-1.04-1.2-.91-3.02,.29-4.06,1.99-1.72,3.51-3.75,4.54-6.05,1.35-3,3.14-8.62,.21-13.11-1.47-2.26-3.52-3.56-4.99-4.25-1.44-.68-2.05-2.4-1.37-3.83,.68-1.44,2.4-2.05,3.83-1.37,3.06,1.45,5.6,3.64,7.35,6.32,3.27,5.02,3.35,11.62,.23,18.56-1.39,3.11-3.42,5.82-6.05,8.09-.54,.47-1.21,.7-1.88,.7Z"/><path d="M592.5,512.22s-.07,0-.11,0c-9.92-.37-15.62-2.73-17.42-7.21-1.63-4.06,.72-7.86,3.2-11.88,1.07-1.74,2.29-3.7,3.34-5.88,3.58-7.43,4.69-16.33,3.3-26.46-.21-1.57,.89-3.03,2.46-3.24,1.57-.21,3.03,.89,3.24,2.46,1.54,11.26,.25,21.27-3.82,29.73-1.18,2.45-2.48,4.55-3.63,6.41-1.85,2.99-3.3,5.35-2.76,6.71,.3,.75,2.08,3.22,12.29,3.6,1.59,.06,2.83,1.39,2.77,2.98-.06,1.55-1.33,2.77-2.87,2.77Z"/><path d="M639.44,446.74c-.76,0-1.53-.23-2.19-.72-1.84-1.35-5.72-3.63-11-3.67-4.9,0-8.61,1.89-10.39,3.05-1.71,1.11-4.01,.63-5.12-1.09-1.11-1.71-.62-4.01,1.09-5.12,3.02-1.96,8.03-4.31,14.47-4.24,7.37,.06,12.76,3.22,15.32,5.11,1.65,1.21,2,3.53,.79,5.17-.72,.99-1.85,1.51-2.98,1.51Z"/><path d="M567.5,446.74c-.76,0-1.53-.23-2.19-.72-1.84-1.35-5.71-3.63-11-3.67-.05,0-.09,0-.14,0-4.83,0-8.49,1.9-10.25,3.05-1.71,1.11-4,.63-5.12-1.09-1.11-1.71-.63-4,1.09-5.12,4.27-2.77,9.44-4.27,14.47-4.24,7.37,.06,12.76,3.22,15.32,5.11,1.65,1.21,2,3.53,.79,5.17-.73,.99-1.85,1.51-2.98,1.51Z"/><path d="M618.89,466.21c0,5.64,3.21,10.21,7.17,10.21s7.17-4.57,7.17-10.21-3.21-10.21-7.17-10.21-7.17,4.57-7.17,10.21Z"/><path d="M548.41,466.21c0,5.64,3.21,10.21,7.17,10.21s7.17-4.57,7.17-10.21-3.21-10.21-7.17-10.21-7.17,4.57-7.17,10.21Z"/><path class="cls-12" d="M685.4,379.09c10.24,13.21,9.31,20.22,23.46,44.18,14.65,24.78,30.52,42.43,41.34,53.24-15.16,16.28-26.06,18.41-33.13,17.47-25.35-3.39-27.89-49.44-62.33-61.17-2.06-.7-14.52-4.78-30.49-11.47-10.68-4.47-14.22-6.46-17.91-9.44-6.25-5.05-12.14-12.33-15.59-16.59-1.45-1.78-2.72-3.43-3.82-4.9-2.53,4.81-6.61,11.46-12.92,18.29,0,0-5.73,6.2-12.78,11.32-17.1,12.43-58.47,28.75-66.4,17.81-4.24-5.84,5.43-13.48,12.39-44.52,3.79-16.91,1.64-17.79,4.31-23.96,11.2-25.84,58.19-31.64,84.56-30.39,11.73,.56,61.38,4.11,89.31,40.12Z"/><path d="M717.08,496.86c-.13,0-.26,0-.38-.03-13.53-1.81-20.98-14.15-28.87-27.21-8.4-13.92-17.09-28.32-34.01-34.09l-.63-.21c-10.07-3.39-20.18-7.2-30.04-11.33-10.44-4.37-14.44-6.49-18.6-9.85-6.42-5.19-12.36-12.51-15.91-16.88l-.11-.13c-.4-.5-.8-1-1.2-1.5-3.19,5.39-6.94,10.43-11.19,15.03-.24,.26-6,6.47-13.2,11.7-14.17,10.3-46.17,24.18-62.11,21.66-3.79-.6-6.58-2.11-8.31-4.49-.93-1.29-.65-3.09,.64-4.02,1.29-.93,3.09-.65,4.02,.64,.79,1.09,2.32,1.83,4.55,2.18,12.79,2.03,42.99-9.84,57.83-20.63,6.74-4.9,12.3-10.89,12.35-10.95,4.91-5.31,9.11-11.26,12.49-17.68,.46-.87,1.34-1.45,2.32-1.53,.98-.07,1.94,.35,2.53,1.15,1.21,1.62,2.48,3.24,3.75,4.81l.11,.13c3.4,4.2,9.1,11.22,15.05,16.03,3.29,2.66,6.41,4.5,17.21,9.02,9.73,4.07,19.71,7.83,29.65,11.18l.65,.22c18.91,6.44,28.56,22.44,37.08,36.56,7.46,12.36,13.91,23.04,24.7,24.48,1.58,.21,2.68,1.66,2.47,3.23-.19,1.45-1.43,2.5-2.85,2.5Z"/></g></g></g><path class="cls-3" d="M605.41,771.66c-66.06,0-128.17-25.73-174.88-72.44-46.71-46.71-72.44-108.82-72.44-174.88s25.73-128.17,72.44-174.88c46.71-46.71,108.82-72.44,174.88-72.44s128.17,25.73,174.88,72.44c46.71,46.71,72.44,108.82,72.44,174.88s-25.73,128.17-72.44,174.88c-46.71,46.71-108.82,72.44-174.88,72.44Zm0-488.89c-133.2,0-241.57,108.37-241.57,241.57s108.37,241.57,241.57,241.57,241.57-108.37,241.57-241.57-108.37-241.57-241.57-241.57Z"/></g><g><path class="cls-5" d="M997.1,336.94l247.35-38.8c15.65-2.45,30.32,8.24,32.77,23.89l22.39,142.74c2.45,15.65-8.24,30.32-23.89,32.77h0c-3.31,.52-5.57,3.62-5.05,6.93l5.26,33.56c1.76,11.19-10.73,19.05-20.06,12.63l-57.15-39.35c-1.28-.88-2.85-1.24-4.38-1l-165.96,26.03c-15.65,2.45-30.32-8.24-32.77-23.89l-22.39-142.74c-2.45-15.65,8.24-30.32,23.89-32.77Z"/><path class="cls-2" d="M1163.64,352.81c-26.65-3.02-36.02,26.03-36.2,26.59-.34-.48-18.23-25.2-42.64-14.1-18.97,8.63-31.48,41.93-.64,74.39,11.95,12.57,21.13,21.5,58.69,37h0s0,0,0,0c0,0,0,0,0,0h0c30.94-26.35,36.91-37.68,44.38-53.33,19.3-40.4-2.89-68.21-23.6-70.55Z"/><path class="cls-2" d="M1163.64,352.81c-26.65-3.02-36.02,26.03-36.2,26.59-.34-.48-18.23-25.2-42.64-14.1-18.97,8.63-31.48,41.93-.64,74.39,11.95,12.57,21.13,21.5,58.69,37h0s0,0,0,0c0,0,0,0,0,0h0c30.94-26.35,36.91-37.68,44.38-53.33,19.3-40.4-2.89-68.21-23.6-70.55Z"/><path class="cls-3" d="M1142.85,479.57c-.28,0-.56-.04-.83-.12-.14-.04-.28-.1-.41-.16-37.25-15.38-46.89-24.32-59.53-37.61-20.7-21.79-20.56-41.66-18.64-51.56,2.4-12.35,10.13-22.86,20.18-27.43,20.4-9.28,36.4,4.14,42.96,11.2,4.06-8.75,15.11-26.45,37.4-23.93,10.96,1.24,21.56,8.85,27.66,19.85,4.89,8.83,11.16,27.68-1.79,54.8-7.91,16.56-14.32,28.04-45.03,54.2,0,0-.01,.01-.02,.02-.24,.22-.52,.39-.81,.52-.35,.15-.74,.23-1.12,.23Zm-45.33-114.25c-3.61,0-7.47,.76-11.53,2.6-8.38,3.81-14.86,12.73-16.91,23.29-1.71,8.82-1.76,26.58,17.16,46.5,10.77,11.34,19.32,20.33,56.08,35.65,30.23-25.93,35.58-37.12,42.32-51.23,11.84-24.79,6.31-41.67,1.95-49.53-5.21-9.4-14.13-15.89-23.28-16.92h0c-24.15-2.73-32.78,23.48-33.13,24.6-.33,1.04-1.22,1.8-2.29,1.97-1.07,.17-2.15-.28-2.79-1.16-.56-.78-11.54-15.76-27.59-15.76Z"/><path class="cls-3" d="M1263.19,555.86c-3.11,0-6.21-.94-8.94-2.83l-57.15-39.35c-.68-.46-1.49-.65-2.3-.52l-165.96,26.03c-8.33,1.31-16.66-.71-23.48-5.67-6.81-4.96-11.28-12.28-12.59-20.61l-22.39-142.74c-1.31-8.33,.71-16.66,5.67-23.48,4.96-6.81,12.28-11.28,20.61-12.59l247.35-38.8c17.19-2.7,33.37,9.1,36.06,26.28l22.39,142.74c2.7,17.19-9.09,33.37-26.28,36.06-.84,.13-1.58,.58-2.08,1.27-.5,.69-.71,1.53-.57,2.37l5.26,33.56c.99,6.33-1.76,12.39-7.19,15.8-2.62,1.65-5.52,2.47-8.41,2.47Zm-67.89-48.5c1.8,0,3.56,.54,5.06,1.58l57.15,39.35c4.01,2.76,8.32,1.93,11.03,.23,2.7-1.7,5.32-5.23,4.56-10.04l-5.26-33.56c-.37-2.36,.2-4.72,1.61-6.65,1.41-1.93,3.48-3.2,5.84-3.57,14.05-2.2,23.69-15.43,21.49-29.49l-22.39-142.74c-2.2-14.05-15.42-23.69-29.49-21.49l-247.35,38.8c-6.81,1.07-12.79,4.72-16.85,10.29-4.06,5.57-5.71,12.39-4.64,19.19l22.39,142.75c1.07,6.81,4.72,12.79,10.29,16.85,5.57,4.06,12.38,5.71,19.19,4.64l165.96-26.03c.47-.07,.93-.11,1.4-.11Zm-198.19-170.42h0Z"/></g><g><path class="cls-5" d="M2046.8,795.73l-218.14-122.9c-13.8-7.77-31.29-2.89-39.06,10.91l-70.93,125.88c-7.77,13.8-2.89,31.29,10.91,39.06h0c2.92,1.64,3.95,5.34,2.31,8.26l-16.67,29.59c-5.56,9.87,3.39,21.6,14.38,18.85l67.31-16.86c1.51-.38,3.1-.16,4.45,.6l146.36,82.46c13.8,7.77,31.29,2.89,39.06-10.91l70.93-125.88c7.77-13.8,2.89-31.29-10.91-39.06Z"/><path class="cls-3" d="M1961.75,978.16c-5.36,0-10.65-1.38-15.44-4.08l-146.36-82.46c-.71-.4-1.55-.51-2.34-.31l-67.31,16.86c-6.22,1.56-12.5-.64-16.38-5.74-3.89-5.1-4.35-11.73-1.2-17.32l16.67-29.59c.42-.74,.52-1.6,.29-2.42-.23-.82-.76-1.5-1.51-1.92-15.16-8.54-20.54-27.82-12-42.98l70.93-125.88c4.14-7.34,10.89-12.64,19-14.9,8.12-2.27,16.63-1.24,23.98,2.9l218.13,122.9c7.34,4.14,12.64,10.89,14.9,19,2.27,8.12,1.24,16.63-2.9,23.98l-70.93,125.88c-4.14,7.34-10.89,12.64-19,14.9-2.82,.79-5.69,1.18-8.53,1.18Zm-163.36-92.71c1.52,0,3.03,.39,4.38,1.15l146.36,82.46c6,3.38,12.97,4.23,19.6,2.37,6.64-1.85,12.16-6.18,15.54-12.18l70.93-125.88c3.38-6,4.22-12.97,2.37-19.6-1.85-6.64-6.18-12.16-12.18-15.54h0l-218.13-122.9c-12.4-6.98-28.16-2.58-35.14,9.81l-70.93,125.88c-6.98,12.39-2.58,28.16,9.81,35.14,4.3,2.42,5.82,7.89,3.4,12.18l-16.67,29.59c-2.39,4.24-1.17,8.46,.76,11,1.94,2.54,5.68,4.83,10.41,3.64l67.31-16.86c.72-.18,1.45-.27,2.18-.27Z"/><g><path class="cls-2" d="M1865.54,801.09s36.84-9.69,46.52-24.37c9.68-14.69,14.64-22.66,23.77-18.92,9.13,3.74,5.93,22.08-1.45,31.03-7.39,8.95-20.63,19.6-19.64,24.06,3.07,13.85,20.12,16.91,40.7,27.95,6.72,3.61,.12,20.49-8.61,17.14,0,0,5.48,16.72-12.26,17.6,0,0,5.28,14.37-8.99,20.48,0,0,1.64,19.45-14.28,16.1,0,0-43.79-10.67-81.21-48.15l35.45-62.92Z"/><path class="cls-3" d="M1914.79,915.43c-1.29,0-2.65-.15-4.08-.45-1.91-.46-45.09-11.32-82.66-48.93-.91-.91-1.1-2.32-.47-3.45l35.45-62.92c.38-.68,1.02-1.17,1.77-1.37,.36-.09,35.88-9.58,44.85-23.17l.7-1.07c9.31-14.14,15.47-23.48,26.56-18.93,3.39,1.39,5.73,4.31,6.77,8.45,2,7.94-1.12,19.83-7.09,27.07-2.59,3.14-5.82,6.42-8.94,9.59-3.95,4.02-9.91,10.07-10.09,12.09,1.96,8.62,10.9,12.66,23.26,18.25,4.82,2.18,10.29,4.65,15.98,7.7,5.05,2.71,5.17,9.62,2.68,15.05-2.08,4.53-5.45,7.33-9.1,7.85,.32,3.09,.13,7.4-2.34,11-2.12,3.08-5.43,5.05-9.87,5.86,.99,6.07-.26,14.85-9.66,19.79-.04,3.47-.73,10.52-5.32,14.58-2.26,2-5.07,3-8.39,3Zm-81.12-51.92c36.04,35.2,77.89,45.75,78.31,45.86,3.21,.67,5.65,.27,7.38-1.24,3.29-2.9,3.53-9.52,3.35-11.83-.1-1.23,.6-2.39,1.73-2.88,11.33-4.86,7.85-15.64,7.42-16.86-.31-.86-.19-1.82,.31-2.57,.51-.76,1.34-1.24,2.25-1.28,4.32-.21,7.3-1.48,8.87-3.76,2.7-3.93,.82-10.01,.8-10.07-.35-1.06-.05-2.22,.75-2.98,.81-.77,1.98-1,3.02-.6,3.63,1.4,6.12-3.75,6.39-4.34,1.49-3.26,1.41-6.73-.17-7.58-5.51-2.96-10.88-5.39-15.63-7.53-13.4-6.06-23.98-10.84-26.53-22.33-.94-4.26,3.57-9.1,11.63-17.29,3.04-3.08,6.17-6.27,8.6-9.22,4.77-5.78,7.5-15.86,5.95-22.01-.59-2.33-1.72-3.85-3.37-4.52-6.4-2.62-10.02,2.27-19.58,16.77l-.7,1.07c-9.27,14.06-40.4,23.4-47,25.25l-33.78,59.96Z"/><path class="cls-2" d="M1816.83,771.47h30.62c4.84,0,8.76,3.93,8.76,8.76v77.14c0,4.84-3.93,8.76-8.76,8.76h-30.62c-4.84,0-8.76-3.93-8.76-8.76v-77.14c0-4.84,3.93-8.76,8.76-8.76Z" transform="translate(637.85 -793.91) rotate(29.4)"/><path class="cls-3" d="M1826.22,871.26c-2.07,0-4.17-.52-6.09-1.6h0l-25.26-14.23c-2.9-1.63-4.99-4.3-5.88-7.5-.9-3.2-.49-6.56,1.14-9.46l37.06-65.79c3.37-5.98,10.98-8.11,16.96-4.74l25.26,14.23c2.9,1.63,4.99,4.3,5.88,7.5,.9,3.2,.49,6.56-1.14,9.46l-37.06,65.79c-2.28,4.06-6.52,6.34-10.87,6.34Zm-3.27-6.62c3.22,1.81,7.31,.67,9.13-2.55l37.06-65.79c.88-1.56,1.1-3.37,.62-5.09-.48-1.72-1.6-3.16-3.16-4.04l-25.26-14.23c-3.22-1.81-7.31-.67-9.13,2.55l-37.06,65.79c-.88,1.56-1.1,3.37-.62,5.09,.48,1.72,1.6,3.16,3.16,4.04l25.26,14.23Z"/><path class="cls-3" d="M1809.44,851.57c-1.63,0-3.23-.42-4.69-1.24-4.61-2.59-6.24-8.45-3.65-13.06,2.59-4.61,8.45-6.24,13.06-3.65,2.23,1.26,3.84,3.31,4.53,5.77,.69,2.47,.38,5.05-.88,7.28-1.26,2.23-3.31,3.84-5.77,4.53-.86,.24-1.73,.36-2.59,.36Zm.02-13.42c-1.34,0-2.64,.7-3.35,1.95-1.04,1.84-.38,4.18,1.46,5.22,1.84,1.04,4.18,.38,5.22-1.46h0c.5-.89,.63-1.93,.35-2.91-.28-.99-.92-1.81-1.81-2.31-.59-.33-1.24-.49-1.87-.49Z"/></g></g><path class="cls-6" d="M2362.12,1389.76c-.31,0-.63-.04-.94-.14-1.74-.52-2.73-2.35-2.21-4.09,3.15-10.57,5.72-21.81,7.64-33.39,.3-1.79,1.99-3.01,3.78-2.71,1.79,.3,3,1.99,2.71,3.78-1.96,11.86-4.59,23.36-7.82,34.2-.43,1.43-1.73,2.35-3.15,2.35Zm11.83-74.67s-.09,0-.13,0c-1.81-.07-3.23-1.6-3.15-3.42,.19-4.85,.29-9.81,.29-14.74,0-8.54-.29-17.29-.88-26.01-.12-1.81,1.25-3.38,3.06-3.5,1.81-.14,3.38,1.25,3.5,3.06,.59,8.86,.89,17.76,.89,26.45,0,5.02-.1,10.07-.3,15-.07,1.77-1.53,3.16-3.28,3.16Zm-5.34-81.94c-1.58,0-2.97-1.14-3.24-2.75-2.23-13.43-5.12-26.84-8.6-39.86-.47-1.75,.57-3.56,2.33-4.03,1.76-.47,3.56,.57,4.03,2.33,3.53,13.22,6.47,26.84,8.73,40.48,.3,1.79-.91,3.49-2.71,3.78-.18,.03-.36,.04-.54,.04Zm-152.32-50.11c-1.72,0-3.16-1.33-3.28-3.07-.12-1.81,1.25-3.38,3.06-3.5,13.23-.89,25.46-5.93,35.36-14.58,1.37-1.2,3.45-1.05,4.64,.31,1.19,1.37,1.05,3.45-.31,4.64-11,9.6-24.57,15.2-39.25,16.19-.08,0-.15,0-.22,0Zm-39.51-9.09c-.54,0-1.1-.13-1.6-.42-13.16-7.37-23.46-18.38-29.02-31.02-.73-1.66,.02-3.6,1.69-4.33,1.67-.73,3.6,.02,4.33,1.69,4.99,11.34,14.29,21.26,26.21,27.93,1.58,.89,2.15,2.89,1.26,4.48-.6,1.08-1.72,1.68-2.87,1.68Zm170.55-20.09c-1.32,0-2.57-.8-3.07-2.11-5.03-13.15-10.68-25.62-16.8-37.06-.86-1.6-.25-3.59,1.35-4.45,1.6-.86,3.59-.25,4.45,1.35,6.25,11.68,12.01,24.4,17.14,37.81,.65,1.7-.2,3.6-1.9,4.25-.39,.15-.78,.22-1.17,.22Zm-71.51-20.22c-.37,0-.75-.06-1.12-.2-1.71-.62-2.59-2.5-1.97-4.21,4.11-11.35,6.66-24.57,7.59-39.29,.11-1.81,1.66-3.19,3.49-3.08,1.81,.11,3.19,1.68,3.08,3.49-.96,15.34-3.64,29.17-7.97,41.11-.48,1.34-1.75,2.17-3.09,2.17Zm-128.18-29.3c-.34,0-.68-.05-1.02-.16-1.73-.56-2.67-2.42-2.11-4.14,3.94-12.14,11.5-24.17,22.45-35.75,1.25-1.32,3.33-1.38,4.65-.13,1.32,1.25,1.38,3.33,.13,4.65-10.28,10.86-17.33,22.05-20.97,33.26-.45,1.39-1.74,2.27-3.13,2.27Zm160.51-22.46c-.98,0-1.94-.43-2.59-1.26-9.07-11.59-18.65-21.06-28.48-28.14-1.47-1.06-1.81-3.12-.74-4.59,.69-.95,1.78-1.43,2.88-1.36-1.39-13.13-3.78-25.49-7.09-36.77-.51-1.74,.49-3.57,2.23-4.08,1.74-.51,3.57,.49,4.08,2.23,3.68,12.51,6.24,26.28,7.62,40.91,.07,.69-.09,1.35-.4,1.91,8.67,6.94,17.09,15.61,25.09,25.84,1.12,1.43,.87,3.5-.56,4.62-.6,.47-1.32,.7-2.02,.7Zm-106.4-37.01c-1.21,0-2.37-.67-2.94-1.82-.81-1.62-.15-3.6,1.47-4.41,13.64-6.82,27.72-9.42,41.66-7.72,1.8,.22,3.09,1.86,2.86,3.66-.22,1.8-1.87,3.08-3.66,2.86-12.66-1.55-25.44,.83-37.92,7.07-.47,.24-.97,.35-1.47,.35Zm57.08-70.23c-1.1,0-2.18-.55-2.8-1.56-7.14-11.52-15.92-21.62-26.12-30.03-1.4-1.16-1.6-3.23-.44-4.63,1.16-1.4,3.23-1.6,4.63-.44,10.75,8.87,20.01,19.51,27.52,31.64,.96,1.54,.48,3.57-1.06,4.53-.54,.33-1.14,.49-1.73,.49Zm-62.1-51.59c-.41,0-.83-.08-1.23-.24-11.83-4.78-24.92-8.25-38.9-10.32-1.8-.27-3.04-1.94-2.77-3.74,.27-1.8,1.94-3.03,3.74-2.77,14.5,2.15,28.09,5.76,40.4,10.73,1.68,.68,2.5,2.6,1.82,4.28-.52,1.28-1.75,2.06-3.05,2.06Zm-121.49-8.09c-1.49,0-2.85-1.02-3.2-2.54-.41-1.77,.69-3.54,2.45-3.95,.7-.16,17.37-4,41.46-4.75,1.8-.06,3.33,1.37,3.39,3.18,.06,1.82-1.37,3.33-3.18,3.39-23.44,.73-40,4.55-40.17,4.58-.25,.06-.5,.09-.75,.09Z"/><g><path class="cls-3" d="M598.43,1493.34c-1.26,0-2.42-.84-2.77-2.12-.42-1.53,.48-3.11,2.01-3.54l67.57-18.52c1.54-.42,3.12,.48,3.54,2.02,.42,1.53-.48,3.11-2.01,3.54l-67.57,18.52c-.25,.07-.51,.1-.76,.1Z"/><path class="cls-3" d="M641.47,1517.87c-1.26,0-2.42-.84-2.77-2.12l-18.52-67.57c-.42-1.53,.48-3.11,2.01-3.54,1.54-.42,3.12,.48,3.54,2.02l18.52,67.57c.42,1.53-.48,3.11-2.01,3.54-.25,.07-.51,.1-.76,.1Z"/></g><g><path class="cls-3" d="M943.62,924.36c-.83,0-1.66-.36-2.23-1.05-1.01-1.23-.83-3.04,.4-4.05l35.66-29.21c1.23-1.01,3.04-.83,4.05,.4,1.01,1.23,.83,3.04-.4,4.05l-35.66,29.21c-.53,.44-1.18,.65-1.82,.65Z"/><path class="cls-3" d="M976.06,927.58c-.83,0-1.66-.36-2.23-1.05l-29.21-35.66c-1.01-1.23-.83-3.04,.4-4.05,1.23-1.01,3.04-.83,4.05,.4l29.21,35.66c1.01,1.23,.83,3.04-.4,4.05-.53,.44-1.18,.65-1.82,.65Z"/></g><g><path class="cls-3" d="M924.81,1725.13c-.38,0-.76-.07-1.12-.23-1.46-.62-2.14-2.31-1.52-3.77l18.03-42.43c.62-1.46,2.31-2.15,3.77-1.52,1.46,.62,2.14,2.31,1.52,3.77l-18.03,42.43c-.47,1.1-1.53,1.75-2.65,1.75Z"/><path class="cls-3" d="M955.04,1712.93c-.38,0-.76-.07-1.12-.23l-42.43-18.03c-1.46-.62-2.14-2.31-1.52-3.77,.62-1.46,2.31-2.14,3.77-1.52l42.43,18.03c1.46,.62,2.14,2.31,1.52,3.77-.47,1.1-1.53,1.75-2.65,1.75Z"/></g></g></svg>