<?xml version="1.0" encoding="UTF-8"?><svg id="Layer_2" xmlns="http://www.w3.org/2000/svg" xmlns:xlink="http://www.w3.org/1999/xlink" viewBox="0 0 2048 2732"><defs><style>.cls-1{fill:url(#linear-gradient);}.cls-1,.cls-2{opacity:.5;}.cls-3{mask:url(#mask);}.cls-4{filter:url(#luminosity-noclip-2);}.cls-5{fill:#032a33;}.cls-6{fill:#fff;}.cls-7{fill:url(#linear-gradient-2);mix-blend-mode:multiply;}.cls-8{fill:url(#radial-gradient);}.cls-2{fill:url(#linear-gradient-3);}.cls-9{mask:url(#mask-1);}</style><radialGradient id="radial-gradient" cx="1057.88" cy="1027.18" fx="1057.88" fy="1027.18" r="1478.73" gradientUnits="userSpaceOnUse"><stop offset="0" stop-color="#fff"/><stop offset=".06" stop-color="#dde2e4"/><stop offset=".16" stop-color="#abb8bb"/><stop offset=".26" stop-color="#7e9296"/><stop offset=".36" stop-color="#587177"/><stop offset=".47" stop-color="#39575e"/><stop offset=".59" stop-color="#21434b"/><stop offset=".71" stop-color="#10353d"/><stop offset=".84" stop-color="#062c35"/><stop offset="1" stop-color="#032a33"/></radialGradient><linearGradient id="linear-gradient" x1="1024" y1="2823" x2="1024" y2="960.6" gradientUnits="userSpaceOnUse"><stop offset=".5" stop-color="#032a33"/><stop offset=".78" stop-color="#90a1a5"/><stop offset="1" stop-color="#fff"/></linearGradient><filter id="luminosity-noclip-2" x="245.67" y="1802" width="1556" height="233" color-interpolation-filters="sRGB" filterUnits="userSpaceOnUse"><feFlood flood-color="#fff" result="bg"/><feBlend in="SourceGraphic" in2="bg"/></filter><filter id="luminosity-noclip-3" x="9216" y="-9558" width="-32766" height="32766" color-interpolation-filters="sRGB" filterUnits="userSpaceOnUse"><feFlood flood-color="#fff" result="bg"/><feBlend in="SourceGraphic" in2="bg"/></filter><mask id="mask-1" x="9216" y="-9558" width="-32766" height="32766" maskUnits="userSpaceOnUse"/><linearGradient id="linear-gradient-2" x1="1023.67" y1="2035" x2="1023.67" y2="1802" gradientUnits="userSpaceOnUse"><stop offset="0" stop-color="#fff"/><stop offset=".11" stop-color="#fafafa"/><stop offset=".24" stop-color="#ededed"/><stop offset=".37" stop-color="#d7d7d7"/><stop offset=".5" stop-color="#b9b9b9"/><stop offset=".63" stop-color="#929292"/><stop offset=".77" stop-color="#626262"/><stop offset=".91" stop-color="#2a2a2a"/><stop offset="1" stop-color="#000"/></linearGradient><mask id="mask" x="245.67" y="1802" width="1556" height="233" maskUnits="userSpaceOnUse"><g class="cls-4"><g class="cls-9"><rect class="cls-7" x="245.67" y="1802" width="1556" height="233"/></g></g></mask><linearGradient id="linear-gradient-3" x1="1023.67" y1="2035" x2="1023.67" y2="1802" gradientUnits="userSpaceOnUse"><stop offset="0" stop-color="#032a33"/><stop offset=".12" stop-color="#072d36"/><stop offset=".24" stop-color="#143841"/><stop offset=".37" stop-color="#2a4b52"/><stop offset=".5" stop-color="#48646b"/><stop offset=".64" stop-color="#6f858b"/><stop offset=".77" stop-color="#9faeb1"/><stop offset=".91" stop-color="#d7ddde"/><stop offset="1" stop-color="#fff"/></linearGradient></defs><g id="Layer_1-2"><rect class="cls-8" width="2048" height="2732"/><circle class="cls-6" cx="1024" cy="1074.84" r="327.84"/><path class="cls-5" d="M2020.5,285.4c-22.68,17.45-47.64,32.05-74.19,43.58-26.55,11.57-54.58,20.21-83.4,26.67-14.42,3.25-29.04,5.97-43.84,8.45l-11.15,1.82c-3.71,.59-7.53,1.22-11.19,1.76l-10.98,1.61-11.02,1.41c-14.71,1.73-29.51,2.94-44.34,3.66-14.84,.71-29.71,.88-44.6,.62-7.45-.16-14.89-.4-22.36-.77l-11.24-.61c-3.72-.21-7.31-.49-10.93-.8-14.45-1.36-29.48-3.63-44.44-5.85-29.96-4.53-60.02-9.35-90.05-14.16l-90.01-14.64-45.01-7.34-22.5-3.69-22.48-3.95c-28.38-5.01-56.71-10.07-84.95-15.53,.19-.21,.38-.43,.58-.64,3.08-3.32,6.14-6.06,8.97-8.3,.01,1.09,.19,5.47,3.54,8.81,2.07,2.08,4.45,2.85,5.21,3.09,2.3,.71,4.19,.6,4.67,.56,1.08-.08,1.94-.29,2.26-.38,.84-.23,1.52-.53,2.85-1.13,1.19-.53,1.79-.8,2.18-1.05,1.07-.67,1.24-1.11,2.46-2.3,2.12-2.05,2.5-1.59,3.46-2.95,.92-1.29,.65-1.83,1.71-2.9,.86-.86,1.25-.74,1.86-1.56,.72-.96,.41-1.44,1.05-2.82,.69-1.51,1.19-1.2,1.87-2.64,.57-1.21,.3-1.59,.97-3.49,.43-1.2,.56-1.12,.86-1.99,.56-1.6,.47-3.17,.26-6.26-.05-.77-.12-1.56-.2-3.09-.1-1.74-.11-2.55,.3-3.41,.36-.76,.86-1.21,1.19-1.49,3.9-3.37,5.74-4.42,5.74-4.42,2.45-1.39,5.31-3.12,9.01-5.46-6.28,3.25-11.09,5.68-13.71,7.06-.64,.34-1.84,.97-3.52,1.2-1.78,.24-3.36-.07-4.09-.23-.9-.18-1.61-.43-2.66-.79-1.48-.51-1.61-.67-2.82-1.04-1.36-.42-2.04-.63-2.91-.63-1.29,0-1.46,.44-2.93,.46-1.04,.02-1.09-.19-2.33-.28-1.35-.1-1.48,.13-3.76,.28-1.34,.08-1.4,0-3.5,.11-2.15,.11-2.45,.21-2.68,.29-1.29,.51-1.23,1.22-2.62,2.05-1.1,.66-1.27,.29-3.27,1.04-1.17,.44-2.33,.87-3.44,1.87-.85,.76-.62,.91-1.79,2.22-1.77,2-2.41,1.78-2.8,2.88-.42,1.2,.2,1.82-.46,3.17-.32,.66-.57,.71-.94,1.32-.79,1.33-.63,2.81-.55,3.58,.37,3.38,3.28,5.77,4.98,7.17,.93,.76,2.33,1.76,4.22,2.65-2.78,2.33-4.95,4.42-6.51,5.99-1.08,1.09-2.19,2.26-3.21,3.35-1.4-.27-2.8-.53-4.19-.8-29.79-5.8-59.5-12.09-89.09-18.86-14.8-3.37-29.55-6.9-44.29-10.58-7.37-1.83-14.74-3.72-22.22-5.49-3.29-.78-6.63-1.53-10.01-2.2-2.36-1.78-4.46-3.56-6.3-5.27,1.08-.18,5.38-1.02,8.18-4.83,1.74-2.36,2.14-4.83,2.26-5.62,.37-2.38-.03-4.23-.14-4.7-.24-1.06-.58-1.87-.72-2.17-.35-.8-.75-1.43-1.54-2.65-.71-1.1-1.06-1.65-1.37-2.01-.83-.94-1.29-1.04-2.65-2.07-2.35-1.79-1.95-2.24-3.44-2.98-1.41-.71-1.9-.37-3.12-1.26-.98-.71-.92-1.12-1.82-1.6-1.06-.57-1.49-.19-2.95-.61-1.59-.46-1.36-1-2.89-1.45-1.28-.38-1.62-.05-3.6-.43-1.25-.24-1.19-.39-2.1-.56-1.66-.31-3.2,.02-6.22,.69-.76,.17-1.53,.36-3.02,.67-1.71,.36-2.51,.49-3.42,.22-.8-.24-1.32-.68-1.65-.96-3.93-3.34-5.24-5-5.24-5-1.75-2.22-3.89-4.79-6.75-8.09,4.15,5.72,7.28,10.11,9.04,12.49,.43,.58,1.24,1.67,1.72,3.3,.5,1.72,.43,3.33,.39,4.07-.05,.93-.18,1.66-.38,2.75-.28,1.55-.42,1.7-.61,2.95-.21,1.41-.31,2.11-.18,2.97,.21,1.28,.65,1.38,.9,2.83,.17,1.02-.03,1.1,.07,2.34,.1,1.35,.36,1.45,.84,3.68,.28,1.31,.22,1.39,.64,3.45,.43,2.1,.58,2.39,.7,2.6,.7,1.19,1.39,1.03,2.42,2.27,.58,.71,.58,1.04,.91,1.85-1.38-.03-2.76-.06-4.14-.07-3.85-.13-7.7-.03-11.54,.01-3.85,0-7.68,.22-11.52,.37-15.35,.72-30.63,2.32-45.75,4.76-15.12,2.43-30.1,5.59-44.92,9.24-7.4,1.83-14.78,3.76-22.13,5.74-7.34,1.98-14.71,3.98-22.02,6.14-24.94,7.36-49.43,16.12-73.33,26.23,0,0,.02-.03,.04-.04-.36,.11-.74,.24-1.13,.37-.09,.03-.18,.06-.27,.09-.87,.29-1.78,.61-2.65,.93-.89,.33-1.99,.77-3.25,1.32-.63,.27-1.29,.58-1.98,.91-.02-1.35-.24-2.43-.44-3.17-.37-1.37-.99-3.71-2.87-4.82-.43-.25-1.26-.74-2.25-.62-.45,.05-.55,.18-1.02,.2-.96,.03-1.16-.5-1.97-.57-.05,0-.1-.01-.15-.01-.35,0-.55,.14-.93,.34-.3,.15-.69,.34-1.35,.54-.95,.3-1.08,.2-1.56,.37-.06,.03-.14,.05-.22,.09-.13,.06-.26,.12-.38,.19-.67,.37-1.15,.85-1.62,1.33-.97,.98-.8,1.17-1.48,1.64-.41,.29-.72,.39-1.01,.48-.29,.1-.55,.2-.88,.51-.11,.11-.25,.26-.88,1.49-.62,1.2-.59,1.26-1,2.02-.68,1.3-.85,1.31-1.15,2.13-.28,.75-.17,.84-.45,1.44-.39,.83-.68,.84-1.01,1.52-.02,.03-.03,.05-.04,.08-.15,.32-.23,.63-.29,1.05-.04,.23-.07,.49-.11,.82-.1,.8-.04,.92-.14,1.92-.07,.71-.11,1.19-.24,1.77-.09,.4-.27,1.2-.71,2.03-.01,.01-.01,.03-.02,.04-.07,.13-.14,.25-.22,.38-.58,.93-1.27,1.46-1.63,1.75-1.5,1.16-4.2,3.34-7.77,6.15,2.35-1.54,4.12-2.76,5.59-3.83,0,0,1.09-.8,4.1-2.19,.25-.11,.65-.29,1.19-.3,.61-.01,1.08,.21,2.08,.73,.87,.45,1.31,.7,1.75,.94,1.75,.93,2.65,1.4,3.73,1.5,.59,.05,.58-.05,1.4,.02,1.29,.11,1.44,.37,2.3,.36,1.02-.02,.97-.39,2.04-.4,.98,0,1.18,.3,1.93,.14,.64-.14,.67-.41,1.4-.68,.91-.34,1.16-.04,2.15-.23,1.05-.21,.89-.55,2.65-1.25,1.02-.4,1.32-.38,2-.83,.25-.16,.56-.44,1.19-1,.7-.62,1.06-.94,1.42-1.37,.13-.16,.48-.61,.82-1.22,.15-.27,.71-1.35,.9-2.88,.06-.51,.24-2.11-.42-3.87-.41-1.08-1.02-1.93-1.66-2.59-.95-.97-1.95-1.51-2.42-1.75,9.92-3.97,19.92-7.72,30-11.22-.11,1.36-.25,2.78-.48,4.28-.51,3.32-1.26,6.27-2.06,8.83-.47-.67-2.4-3.28-5.85-3.95-2.13-.41-3.91,.1-4.48,.28-1.71,.51-2.82,1.37-3.1,1.59-.64,.5-1.07,.99-1.23,1.17-.42,.49-.72,.96-1.29,1.88-.51,.82-.76,1.24-.9,1.56-.38,.85-.3,1.19-.55,2.43-.45,2.14-.88,2.02-.91,3.25-.02,1.18,.36,1.4,.16,2.5-.17,.88-.46,.97-.5,1.73-.04,.89,.35,1.05,.54,2.16,.19,1.22-.24,1.24-.06,2.41,.15,.98,.48,1.1,.86,2.55,.23,.91,.12,.92,.29,1.58,.33,1.21,1.04,2.14,2.45,3.95,.35,.46,.72,.91,1.41,1.81,.78,1.04,1.12,1.53,1.23,2.23,.1,.61-.03,1.1-.11,1.41-.99,3.69-1.69,5.1-1.69,5.1-.93,1.88-1.97,4.13-3.27,7.1,2.51-4.6,4.45-8.1,5.49-10.04,.26-.47,.73-1.36,1.67-2.2,.99-.88,2.09-1.35,2.6-1.56,.64-.26,1.17-.4,1.97-.62,1.12-.3,1.27-.26,2.16-.53,1.02-.31,1.52-.46,2.05-.82,.8-.55,.72-.88,1.61-1.5,.63-.45,.75-.34,1.55-.8,.88-.5,.86-.7,2.2-1.73,.79-.61,.86-.59,2.11-1.53,1.27-.96,1.41-1.15,1.52-1.29,.58-.85,.25-1.27,.75-2.35,.41-.86,.66-.71,1.58-2,.54-.75,1.08-1.5,1.34-2.58,.21-.82,.01-.82,.18-2.11,.25-1.96,.74-2.09,.52-2.93-.24-.91-.88-1.04-1.03-2.14-.08-.54,.05-.68,.02-1.2-.06-1.15-.77-1.99-1.15-2.43-1.63-1.93-4.41-2.18-6.04-2.33-.89-.09-2.16-.12-3.69,.12,.73-2.59,1.2-4.78,1.51-6.39,.49-2.63,.9-5.58,1.09-7.05,17.31-6,34.85-11.31,52.56-15.9,27.56-6.89,55.3-13.39,83.33-17.28,.96,2.02,1.91,4.23,2.8,6.62,1.58,4.24,2.64,8.21,3.36,11.75-.98-.48-4.96-2.29-9.46-.81-2.78,.91-4.54,2.68-5.1,3.26-1.67,1.72-2.43,3.46-2.61,3.91-.42,1-.61,1.86-.68,2.19-.17,.85-.21,1.59-.28,3.05-.06,1.31-.09,1.96-.04,2.43,.12,1.25,.44,1.6,.94,3.22,.88,2.82,.3,2.96,1.08,4.43,.74,1.39,1.34,1.4,1.81,2.83,.38,1.15,.1,1.45,.55,2.36,.54,1.08,1.11,1.02,2.05,2.2,1.04,1.31,.54,1.61,1.52,2.87,.82,1.06,1.28,.98,2.68,2.44,.87,.92,.74,1,1.38,1.67,1.18,1.21,2.63,1.84,5.47,3.05,.72,.3,1.45,.6,2.85,1.21,1.6,.7,2.33,1.05,2.92,1.81,.51,.65,.68,1.31,.78,1.73,1.26,5,1.36,7.11,1.36,7.11,.14,2.82,.4,6.16,.81,10.51-.06-7.07-.07-12.46-.12-15.42-.01-.73-.04-2.08,.52-3.68,.59-1.7,1.58-2.97,2.04-3.55,.58-.72,1.11-1.24,1.91-2.02,1.12-1.09,1.33-1.14,2.2-2.04,.99-1.03,1.49-1.54,1.87-2.32,.58-1.16,.28-1.5,.91-2.82,.46-.94,.67-.89,1.31-1.95,.7-1.16,.54-1.39,1.45-3.48,.52-1.24,.62-1.27,1.47-3.19,.87-1.96,.92-2.27,.95-2.52,.12-1.38-.54-1.65-.65-3.26-.09-1.28,.31-1.26,.55-3.38,.13-1.24,.27-2.48-.12-3.92-.29-1.11-.53-.97-1.18-2.6-.98-2.48-.5-2.95-1.31-3.79-.88-.92-1.71-.65-2.61-1.84-.45-.59-.38-.84-.76-1.44-.83-1.31-2.22-1.83-2.95-2.1-3.18-1.2-6.63,.32-8.64,1.21-1.1,.49-2.62,1.28-4.27,2.57-.83-3.53-1.71-6.42-2.41-8.51-1.37-4.09-3.19-8.68-3.68-9.88,1.7-.23,3.41-.46,5.11-.67,15-1.91,30.07-2.98,45.13-3.2,3.77-.01,7.53-.11,11.29,.02,3.77,.09,7.53,.11,11.28,.36,7.52,.34,15.03,.86,22.32,1.88,7.29,1,14.44,2.77,21.72,4.74,7.26,1.97,14.57,4.11,21.9,6.19,14.65,4.18,29.37,8.22,44.12,12.1,29.49,7.78,59.1,15.08,88.84,21.91,29.74,6.83,59.56,13.18,89.34,19.45l22.34,4.7,22.41,4.44,41.69,8.23c-3.15,.71-6.31,1.39-9.46,2.02-9.04,1.8-18.06,3.16-27.26,4.08-9.15,.94-18.79,1.48-28.6,2.81-9.81,1.35-19.49,3.5-28.86,6.14-9.37,2.62-18.6,5.73-27.62,9.23-4.52,1.74-8.96,3.59-13.31,5.39-4.37,1.8-8.64,3.55-12.87,4.96-4.24,1.42-8.48,2.51-12.82,3.22-4.34,.69-8.8,.94-13.31,1.03-4.52-.01-9.05-.22-13.57-.72-4.5-.53-8.99-1.3-13.43-2.33-4.45-1.03-8.84-2.32-13.18-3.83-4.36-1.51-8.61-3.24-13.03-5.08-8.96-3.7-18.19-6.67-27.53-8.99-9.35-2.33-18.81-4.04-28.3-5.33-19-2.36-38.12-3.02-57.13-2.27-17.46,.67-34.84,2.39-52.09,4.81-.05-.3-.1-.58-.15-.81-.32-1.38-.86-3.75-2.7-4.92-.42-.27-1.22-.79-2.22-.71-.45,.04-.55,.16-1.03,.16-.96,0-1.14-.54-1.95-.64-.07-.01-.12-.01-.18-.01-.33,0-.53,.12-.91,.3-.3,.14-.7,.32-1.37,.5-.95,.25-1.09,.15-1.57,.3-.06,.03-.14,.05-.22,.09-.14,.05-.27,.11-.39,.17-.68,.35-1.17,.81-1.67,1.27-1,.94-.84,1.14-1.53,1.59-.43,.27-.74,.36-1.03,.44-.3,.09-.56,.17-.9,.48-.12,.1-.26,.25-.94,1.45-.66,1.18-.63,1.24-1.07,1.99-.73,1.27-.9,1.27-1.23,2.08-.31,.74-.2,.83-.51,1.42-.42,.81-.7,.81-1.06,1.48-.01,.03-.02,.05-.04,.07-.16,.33-.25,.63-.33,1.04-.04,.23-.09,.5-.14,.82-.13,.8-.08,.92-.21,1.92-.09,.71-.15,1.18-.3,1.76-.11,.39-.32,1.18-.79,2-.01,.01-.01,.02-.02,.04-.07,.12-.15,.25-.23,.37-.62,.9-1.32,1.41-1.7,1.68-1.55,1.12-4.32,3.19-7.99,5.87,2.4-1.46,4.22-2.61,5.72-3.62,0,0,1.13-.76,4.19-2.04,.25-.1,.66-.27,1.19-.26,.62,.02,1.08,.25,2.06,.81,.85,.48,1.28,.75,1.72,1,1.71,1,2.59,1.5,3.67,1.64,.59,.08,.58-.02,1.39,.08,1.29,.15,1.42,.42,2.28,.44,1.03,.02,.99-.36,2.06-.32,.97,.02,1.16,.34,1.92,.2,.65-.11,.69-.37,1.43-.62,.92-.3,1.15,0,2.16-.16,1.05-.16,.9-.51,2.69-1.14,1.03-.37,1.33-.34,2.02-.76,.26-.15,.59-.42,1.24-.95,.72-.6,1.09-.9,1.46-1.32,.14-.16,.51-.59,.87-1.19,.15-.26,.76-1.32,1.01-2.85,.08-.51,.31-2.09-.28-3.88-.37-1.09-.95-1.97-1.57-2.65-.95-1.04-1.97-1.63-2.41-1.87-.03-.01-.06-.03-.08-.04,.35-.16,.72-.33,1.09-.49,1.84-.82,3.93-1.61,6.25-2.29,.48-.14,.96-.27,1.42-.4,.03-.02,.06-.05,.09-.08,7.09-.54,14.19-.95,21.28-1.21-.1,1.48-.26,3.03-.51,4.67-.52,3.32-1.26,6.28-2.07,8.83-.46-.66-2.39-3.28-5.84-3.94-2.13-.41-3.91,.1-4.48,.27-1.71,.51-2.83,1.37-3.11,1.59-.63,.5-1.06,.99-1.22,1.18-.43,.49-.72,.96-1.29,1.87-.51,.83-.76,1.24-.9,1.56-.38,.86-.3,1.2-.56,2.43-.44,2.15-.87,2.03-.9,3.26-.02,1.17,.36,1.39,.15,2.49-.16,.89-.46,.97-.49,1.73-.04,.89,.35,1.06,.53,2.17,.2,1.22-.23,1.23-.05,2.4,.15,.99,.48,1.1,.86,2.55,.23,.92,.12,.92,.29,1.58,.32,1.22,1.04,2.15,2.44,3.96,.36,.45,.73,.91,1.41,1.81,.79,1.03,1.13,1.52,1.24,2.22,.09,.62-.03,1.1-.11,1.41-1,3.7-1.69,5.11-1.69,5.11-.93,1.87-1.97,4.13-3.27,7.1,2.51-4.61,4.45-8.1,5.49-10.04,.25-.48,.72-1.36,1.66-2.2,1-.89,2.1-1.35,2.61-1.56,.64-.26,1.17-.41,1.96-.62,1.13-.31,1.28-.26,2.17-.53,1.01-.31,1.52-.46,2.05-.83,.79-.54,.72-.87,1.61-1.5,.63-.44,.75-.33,1.55-.79,.87-.5,.85-.7,2.2-1.74,.78-.6,.86-.59,2.1-1.53,1.28-.96,1.42-1.14,1.52-1.29,.58-.85,.25-1.26,.76-2.35,.4-.86,.66-.7,1.58-1.99,.54-.76,1.07-1.51,1.34-2.58,.21-.83,0-.82,.17-2.12,.26-1.96,.75-2.09,.52-2.93-.24-.91-.87-1.04-1.03-2.14-.07-.54,.06-.67,.03-1.2-.06-1.15-.78-1.99-1.15-2.43-1.63-1.92-4.41-2.18-6.04-2.33-.89-.08-2.16-.12-3.7,.13,.74-2.6,1.21-4.79,1.51-6.4,.53-2.78,.96-5.94,1.13-7.29,7.06-.26,14.12-.36,21.17-.29,18.9,.17,37.76,1.74,56.26,4.95,18.44,3.4,36.57,8.5,53.35,16.43,4.24,2.01,8.68,4.08,13.2,5.89,4.53,1.83,9.17,3.44,13.91,4.78,4.73,1.34,9.56,2.42,14.43,3.23,4.89,.78,9.82,1.25,14.77,1.5,4.97,.15,10,.11,15.06-.45,5.05-.57,10.08-1.61,14.9-2.98,4.84-1.35,9.44-2.99,13.91-4.59,2.13-.76,4.23-1.51,6.33-2.25,.95,2,1.89,4.18,2.78,6.55,1.57,4.24,2.63,8.21,3.36,11.75-.98-.48-4.97-2.29-9.47-.81-2.78,.91-4.54,2.68-5.1,3.26-1.67,1.72-2.42,3.46-2.61,3.91-.41,1-.6,1.86-.67,2.19-.18,.85-.22,1.6-.28,3.05-.06,1.31-.09,1.96-.05,2.43,.12,1.25,.44,1.6,.95,3.22,.88,2.82,.29,2.96,1.07,4.43,.74,1.39,1.34,1.4,1.82,2.83,.38,1.15,.09,1.45,.55,2.36,.54,1.08,1.11,1.02,2.05,2.21,1.03,1.3,.53,1.6,1.51,2.86,.83,1.06,1.29,.98,2.68,2.44,.88,.92,.75,1,1.39,1.67,1.17,1.21,2.62,1.84,5.46,3.05,.72,.3,1.46,.6,2.86,1.21,1.6,.7,2.32,1.05,2.91,1.81,.51,.65,.68,1.31,.79,1.73,1.25,5,1.36,7.11,1.36,7.11,.14,2.82,.39,6.16,.81,10.51-.07-7.07-.07-12.46-.12-15.42-.01-.73-.04-2.08,.51-3.68,.59-1.7,1.58-2.97,2.05-3.55,.58-.72,1.11-1.24,1.9-2.02,1.13-1.09,1.33-1.14,2.21-2.04,.99-1.03,1.48-1.54,1.87-2.32,.57-1.16,.27-1.5,.91-2.82,.45-.94,.66-.89,1.3-1.95,.7-1.16,.55-1.39,1.45-3.48,.53-1.24,.63-1.27,1.48-3.19,.87-1.96,.92-2.27,.94-2.52,.13-1.38-.53-1.65-.65-3.26-.09-1.27,.32-1.26,.55-3.38,.14-1.24,.28-2.48-.11-3.92-.3-1.11-.54-.97-1.18-2.6-.99-2.48-.5-2.95-1.31-3.79-.88-.92-1.72-.65-2.62-1.84-.44-.59-.38-.84-.76-1.44-.83-1.31-2.22-1.83-2.94-2.1-3.18-1.2-6.63,.32-8.65,1.21-1.09,.49-2.62,1.28-4.26,2.57-.84-3.53-1.72-6.42-2.42-8.51-1.38-4.16-3.25-8.83-3.7-9.94,2.12-.75,4.23-1.48,6.35-2.18,3.7-1.24,7.43-2.38,11.16-3.47,1.97,1.04,3.72,2.12,5.24,3.16-.69,.23-3.41,1.19-4.87,3.96-.91,1.71-.93,3.36-.93,3.89-.01,1.59,.43,2.76,.55,3.05,.26,.67,.56,1.17,.68,1.36,.31,.48,.63,.86,1.26,1.58,.57,.65,.86,.97,1.09,1.17,.64,.54,.95,.56,1.94,1.1,1.71,.94,1.49,1.27,2.54,1.62,.99,.32,1.28,.05,2.16,.51,.71,.38,.71,.65,1.34,.87,.75,.27,.99-.02,1.99,.11,1.09,.15,.99,.52,2.03,.67,.88,.13,1.06-.12,2.39-.07,.84,.04,.82,.14,1.43,.16,1.12,.04,2.09-.32,4-1.05,.48-.19,.97-.38,1.91-.74,1.08-.4,1.59-.56,2.22-.47,.54,.08,.93,.31,1.17,.46,2.89,1.81,3.91,2.76,3.91,2.76,1.35,1.28,3,2.75,5.2,4.63-3.27-3.33-5.75-5.89-7.13-7.28-.34-.34-.97-.97-1.44-1.99-.5-1.08-.61-2.13-.66-2.62-.05-.61-.04-1.1-.02-1.84,.04-1.03,.11-1.15,.11-1.98,.01-.94,.01-1.41-.17-1.96-.26-.82-.55-.84-.86-1.76-.21-.65-.09-.73-.27-1.53-.2-.87-.38-.91-.91-2.32-.31-.83-.28-.89-.76-2.19-.48-1.33-.6-1.51-.7-1.63-.58-.72-1.01-.54-1.81-1.26-.63-.56-.43-.74-1.29-1.86-.5-.65-1-1.3-1.85-1.81-.64-.39-.69-.21-1.75-.69-.3-.14-.53-.26-.73-.38,8.5-1.9,16.97-3.32,25.51-4.08,9.04-.79,18.37-.87,28.11-1.39,9.71-.5,19.52-1.49,29.16-2.94,9.66-1.43,19.18-3.22,28.66-5.33,8.32-1.85,16.6-3.95,24.82-6.29l45.5,8.96c29.89,5.81,59.75,11.63,89.79,17.19,10.65,1.94,21.26,3.9,32.15,5.61-37.92,12.08-75.84,24.2-113.74,36.47-29.23,9.5-58.45,19.04-87.56,29.29-3.64,1.28-7.28,2.58-10.91,3.91-3.64,1.3-7.27,2.66-10.9,4.02-3.63,1.33-7.24,2.83-10.86,4.23l-5.42,2.15c-1.81,.71-3.62,1.42-5.4,2.2-7.13,3.09-14.34,6.02-21.36,9.35l-10.58,4.89-10.44,5.15c-27.84,13.78-54.59,29.39-80.79,45.67-26.2,16.3-51.86,33.28-77.36,50.45-25.5,17.18-50.8,34.59-76.11,51.96l-16.82,11.57h-.06c-4.51-.4-8.55-1.15-12.05-2.01,.85-.68,4.2-3.5,4.8-8.2,.37-2.9-.48-5.25-.76-6.01-.84-2.25-2.09-3.68-2.41-4.03-.72-.81-1.42-1.35-1.68-1.55-.7-.53-1.36-.88-2.64-1.57-1.15-.61-1.73-.92-2.17-1.08-1.18-.43-1.64-.29-3.32-.53-2.92-.42-2.8-1.01-4.46-.93-1.58,.07-1.84,.6-3.34,.42-1.2-.15-1.34-.54-2.37-.52-1.2,.02-1.39,.56-2.87,.91-1.62,.37-1.68-.21-3.23,.13-1.31,.29-1.44,.74-3.36,1.37-1.2,.4-1.22,.25-2.1,.54-1.6,.54-2.79,1.57-5.1,3.62-.58,.52-1.17,1.06-2.32,2.06-1.32,1.15-1.95,1.65-2.89,1.85-.81,.18-1.48,.06-1.9-.03-5.05-1.01-7.01-1.83-7.01-1.83-2.6-1.08-5.72-2.29-9.83-3.78,6.41,2.98,11.28,5.29,13.97,6.52,.66,.3,1.9,.85,3.11,2.05,1.28,1.25,1.99,2.7,2.32,3.36,.41,.84,.65,1.54,1,2.59,.51,1.49,.47,1.69,.91,2.87,.5,1.33,.75,2,1.29,2.69,.8,1.01,1.23,.89,2.15,2.03,.65,.81,.52,.98,1.2,2.02,.75,1.13,1.02,1.08,2.53,2.8,.88,1.01,.87,1.11,2.23,2.7,1.4,1.63,1.67,1.81,1.87,1.93,1.2,.71,1.72,.23,3.23,.82,1.19,.47,1,.82,2.82,1.95,1.06,.66,2.12,1.31,3.59,1.58,1.12,.21,1.1-.07,2.85,.05,2.66,.18,2.88,.82,3.99,.45,.03-.01,.06-.03,.09-.04l-18.05,12.71-18.76,13.42c-36.31,26.23-72.03,53.28-106.98,81.29-1.9-.03-3.91-.12-6.01-.3-4.51-.4-8.55-1.15-12.06-2.01,.86-.68,4.21-3.51,4.8-8.2,.37-2.91-.47-5.26-.75-6.01-.84-2.25-2.09-3.68-2.41-4.03-.73-.81-1.42-1.36-1.69-1.56-.69-.52-1.35-.88-2.63-1.56-1.16-.62-1.73-.92-2.17-1.08-1.19-.43-1.64-.3-3.33-.54-2.92-.41-2.79-1-4.45-.93-1.58,.07-1.84,.61-3.34,.42-1.2-.14-1.35-.53-2.37-.51-1.2,.02-1.39,.56-2.87,.9-1.62,.38-1.68-.21-3.24,.14-1.3,.29-1.43,.74-3.35,1.37-1.21,.4-1.23,.24-2.1,.54-1.61,.53-2.79,1.57-5.1,3.62-.59,.52-1.17,1.06-2.32,2.06-1.32,1.14-1.95,1.64-2.89,1.85-.81,.18-1.48,.05-1.9-.03-5.06-1.02-7.01-1.83-7.01-1.83-2.6-1.09-5.73-2.29-9.83-3.78,6.41,2.97,11.28,5.29,13.97,6.51,.66,.3,1.9,.86,3.11,2.05,1.28,1.26,1.99,2.7,2.32,3.37,.41,.83,.64,1.54,1,2.59,.51,1.48,.46,1.69,.91,2.87,.5,1.33,.75,2,1.28,2.68,.8,1.02,1.24,.89,2.16,2.04,.65,.81,.51,.98,1.2,2.01,.75,1.13,1.01,1.09,2.52,2.81,.89,1,.87,1.1,2.24,2.7,1.4,1.63,1.66,1.81,1.87,1.93,1.19,.71,1.72,.23,3.22,.82,1.2,.46,1.01,.82,2.83,1.95,1.06,.65,2.12,1.31,3.58,1.58,1.13,.2,1.1-.07,2.86,.05,2.66,.17,2.87,.81,3.99,.44,1.2-.4,1.32-1.27,2.78-1.57,.72-.15,.92,.02,1.62-.07,1.54-.18,2.61-1.21,3.17-1.75,2.45-2.36,2.55-6.13,2.61-8.33,.04-1.2-.03-2.91-.48-4.96,3.54,.77,6.53,1.21,8.72,1.48,3.18,.39,6.71,.67,8.85,.82-12.81,10.27-25.53,20.67-38.12,31.21-11.81,9.86-23.46,19.89-35.11,29.87-.14,.12-.27,.23-.41,.35l-.03-.38c-13.59,1.24-27.1,3.12-40.47,5.84-1.67,.34-3.34,.64-5.01,1.01l-5,1.14c-3.34,.72-6.63,1.67-9.95,2.51-6.58,1.87-13.14,3.89-19.52,6.28-12.82,4.68-25.12,10.09-37.66,14.79-12.52,4.77-25.22,9.03-38.06,12.92-12.84,3.91-25.81,7.39-38.86,10.64-6.53,1.65-13.08,3.23-19.61,5.07-6.52,1.83-12.99,3.98-19.25,6.62-6.27,2.62-12.31,5.71-18.21,9.01-5.89,3.32-11.63,6.89-17.19,10.72-5.04,3.48-9.92,7.16-14.66,11.01,.24-.26,.42-.54,.54-.72,1.07-1.7,.61-3.87,.34-5.14-.14-.69-.42-1.66-.96-2.77,2.14-.05,3.91-.21,5.2-.36,2.94-.34,6.34-.96,6.34-.96,0,0-.06-.15-.14-.37-1.29,.31-2.69,.59-4.19,.82-2.63,.39-5.05,.53-7.18,.52,.4-.51,1.93-2.59,1.62-5.36-.19-1.72-1-2.95-1.27-3.34-.79-1.17-1.7-1.82-1.94-1.98-.52-.36-1-.58-1.18-.65-.47-.21-.89-.32-1.73-.54-.74-.19-1.11-.28-1.39-.32-.74-.08-.98,.06-1.98,.16-1.73,.17-1.73-.19-2.68,.08-.89,.26-.97,.61-1.85,.71-.71,.08-.85-.12-1.43,.03-.68,.18-.72,.52-1.52,.92-.88,.43-.99,.11-1.83,.52-.71,.35-.72,.63-1.74,1.25-.63,.4-.66,.31-1.12,.6-.85,.53-1.39,1.29-2.43,2.78-.26,.38-.52,.77-1.04,1.5-.6,.84-.89,1.22-1.4,1.46-.44,.22-.84,.24-1.09,.25-3.04,.12-4.27-.08-4.27-.08-1.64-.26-3.6-.52-6.16-.8,4.09,.82,7.2,1.46,8.91,1.79,.42,.09,1.21,.23,2.06,.75,.91,.54,1.52,1.27,1.8,1.61,.35,.42,.58,.79,.93,1.34,.5,.78,.5,.9,.92,1.52,.47,.69,.71,1.04,1.11,1.36,.6,.47,.83,.34,1.52,.86,.48,.38,.43,.49,.96,.99,.59,.55,.73,.49,1.84,1.26,.64,.45,.65,.51,1.65,1.24,1.03,.74,1.21,.8,1.34,.85,.78,.24,1.02-.11,1.96,.02,.75,.1,.69,.33,1.89,.72,.7,.23,1.39,.46,2.27,.41,.68-.04,.62-.19,1.64-.37,1.55-.26,1.76,.07,2.35-.29,.64-.4,.58-.91,1.38-1.29,.39-.18,.53-.12,.92-.26,.16-.06,.29-.15,.43-.23-3.52,2.88-6.95,5.87-10.29,8.95,.05-.14,.1-.29,.15-.44-.27,.26-.56,.53-.86,.82-.07,.07-.14,.13-.21,.2-.65,.63-1.34,1.32-1.98,1.98-.46,.47-1,1.04-1.58,1.68-.37,.36-.74,.71-1.1,1.07,.26-.24,.53-.48,.8-.73-.16,.19-.33,.37-.5,.57-.44,.51-.91,1.07-1.4,1.67-.59-1.21-1.25-2.09-1.75-2.68-.92-1.08-2.49-2.92-4.66-3.11-.5-.05-1.45-.13-2.3,.4-.38,.24-.41,.4-.84,.61-.85,.44-1.26,.06-2.02,.34-.43,.16-.54,.37-.84,.76-.2,.26-.47,.61-.98,1.07-.73,.67-.89,.64-1.25,1-.05,.05-.1,.11-.16,.18-.09,.11-.18,.22-.26,.33-.45,.63-.67,1.26-.9,1.9-.45,1.3-.21,1.4-.62,2.12-.25,.44-.49,.66-.71,.86-.22,.22-.42,.42-.57,.84-.06,.15-.12,.35-.16,1.73-.04,1.35,0,1.39-.03,2.25-.07,1.47-.22,1.55-.13,2.42,.07,.8,.21,.83,.21,1.49,0,.92-.25,1.05-.26,1.81v.08c0,.36,.06,.67,.18,1.08,.07,.22,.15,.47,.26,.78,.25,.77,.36,.85,.7,1.8,.25,.67,.41,1.12,.54,1.7,.09,.4,.27,1.2,.23,2.14v.04c0,.15-.02,.29-.03,.44-.13,1.09-.52,1.86-.73,2.28-.85,1.7-2.36,4.82-4.37,8.89,1.46-2.4,2.53-4.26,3.4-5.85,0,0,.65-1.2,2.77-3.74,.18-.22,.46-.55,.94-.79,.55-.27,1.07-.27,2.19-.23,.98,.03,1.49,.07,1.99,.09,1.98,.1,2.99,.14,4.01-.24,.56-.21,.51-.29,1.27-.58,1.21-.46,1.46-.28,2.23-.66,.92-.46,.71-.78,1.68-1.24,.87-.43,1.19-.23,1.8-.71,.52-.4,.43-.65,.98-1.21,.67-.69,1.02-.53,1.83-1.13,.87-.64,.57-.88,1.86-2.27,.75-.8,1.03-.91,1.45-1.6,.15-.26,.32-.65,.65-1.42,.36-.86,.55-1.3,.68-1.85,.06-.2,.19-.75,.22-1.45,.02-.31,.07-1.53-.42-2.99-.16-.49-.69-2.01-2.04-3.31-.83-.8-1.75-1.31-2.62-1.63-1.32-.49-2.5-.54-3-.54h-.09c.24-.31,.48-.62,.74-.94,.94-1.18,2.01-2.42,3.22-3.66,8.18-7.3,16.87-14.02,25.98-20.07,1.13,1.93,2.27,4.04,3.36,6.35,1.92,4.09,3.32,7.96,4.34,11.42-1.02-.4-5.14-1.86-9.5-.01-2.69,1.15-4.29,3.07-4.8,3.69-1.52,1.86-2.13,3.65-2.27,4.11-.33,1.04-.45,1.91-.49,2.24-.1,.86-.08,1.61-.02,3.07,.05,1.3,.07,1.95,.16,2.42,.23,1.23,.57,1.56,1.22,3.13,1.11,2.73,.54,2.92,1.44,4.32,.86,1.33,1.45,1.29,2.05,2.67,.48,1.11,.22,1.43,.75,2.31,.63,1.02,1.19,.91,2.23,2.02,1.14,1.21,.67,1.55,1.75,2.72,.91,.98,1.36,.87,2.88,2.21,.95,.84,.82,.93,1.52,1.54,1.27,1.11,2.77,1.62,5.7,2.58,.74,.24,1.5,.47,2.95,.96,1.65,.56,2.4,.85,3.05,1.56,.57,.61,.8,1.25,.94,1.65,1.67,4.88,1.96,6.98,1.96,6.98,.37,2.8,.91,6.1,1.69,10.4-.66-7.04-1.12-12.41-1.42-15.35-.08-.73-.22-2.07,.2-3.72,.44-1.74,1.32-3.08,1.73-3.7,.52-.78,1.01-1.34,1.73-2.18,1.03-1.18,1.23-1.25,2.02-2.22,.9-1.11,1.35-1.66,1.67-2.47,.48-1.21,.15-1.52,.67-2.89,.37-.97,.59-.94,1.14-2.05,.59-1.22,.42-1.43,1.14-3.6,.42-1.27,.52-1.3,1.2-3.29,.71-2.03,.73-2.35,.73-2.59,0-1.39-.67-1.6-.92-3.19-.2-1.27,.2-1.29,.26-3.43,.03-1.24,.06-2.49-.45-3.89-.39-1.08-.61-.92-1.4-2.49-1.19-2.39-.74-2.89-1.62-3.67-.96-.84-1.76-.5-2.77-1.61-.49-.55-.44-.8-.87-1.36-.94-1.24-2.37-1.64-3.12-1.85-3.27-.93-6.57,.88-8.51,1.94-1.05,.58-2.5,1.5-4.03,2.93-1.13-3.45-2.25-6.26-3.13-8.29-1.83-4.27-4.26-9.06-4.6-9.74,.69-.46,1.39-.93,2.09-1.38,5.65-3.64,11.46-7,17.4-10.11,5.95-3.09,12.02-5.95,18.25-8.34,12.45-4.85,25.61-7.46,38.78-10.35,13.17-2.85,26.33-5.95,39.38-9.47,13.05-3.51,26.02-7.43,38.82-11.85,12.83-4.36,25.37-9.41,37.99-13.57,6.3-2.14,12.68-3.89,19.1-5.5,3.24-.71,6.44-1.54,9.71-2.13l4.88-.96c1.63-.31,3.28-.55,4.91-.83,8.79-1.5,17.64-2.63,26.52-3.46-7.38,6.35-14.74,12.72-22.07,19.13-23.12,20.25-45.97,40.98-67.05,63.51-10.53,11.26-20.64,22.91-30.33,34.87-9.73,11.93-19.08,24.17-28.12,36.61-9.06,12.43-17.81,25.04-26.8,37.45-8.97,12.43-18.3,24.57-28.15,36.29-2.49,2.91-4.95,5.85-7.47,8.73l-7.64,8.58-7.82,8.41c-2.61,2.81-5.31,5.53-7.96,8.3-10.7,10.96-21.77,21.58-33.2,31.81-11.43,10.22-23.21,20.05-35.29,29.51-3.6,2.81-7.24,5.57-10.89,8.31-.3-.58-.47-.93-.47-.93,0,0-.21,.16-.54,.41,.17,.29,.34,.59,.51,.89-7.52,5.62-15.17,11.1-22.92,16.42-.23-.32-.45-.61-.65-.84-.91-1.07-2.49-2.92-4.66-3.11-.5-.05-1.45-.13-2.29,.4-.39,.24-.42,.4-.84,.62-.86,.44-1.27,.05-2.03,.33-.42,.16-.54,.37-.83,.76-.2,.26-.48,.61-.98,1.07-.73,.68-.9,.65-1.25,1-.05,.05-.11,.11-.16,.18-.1,.11-.19,.22-.27,.33-.44,.63-.67,1.27-.89,1.91-.46,1.29-.22,1.39-.63,2.11-.25,.44-.49,.66-.7,.87-.23,.21-.42,.41-.58,.84-.06,.14-.11,.34-.16,1.72-.04,1.35,.01,1.39-.03,2.25-.06,1.47-.21,1.55-.13,2.42,.07,.8,.21,.83,.21,1.5,0,.91-.25,1.04-.26,1.8v.08c0,.36,.07,.67,.19,1.08,.06,.22,.15,.48,.25,.78,.25,.77,.36,.86,.71,1.8,.24,.67,.4,1.12,.54,1.7,.09,.4,.26,1.2,.23,2.14v.04c0,.15-.02,.3-.04,.45-.12,1.1-.73,2.27-.73,2.27-.31,.62-.69,1.58-.97,3.04,0,0,.65-1.19,2.77-3.74,.18-.21,.46-.55,.94-.78,.56-.28,1.07-.28,2.19-.24,.98,.04,1.49,.07,1.99,.09,1.99,.1,3,.14,4.02-.24,.55-.2,.5-.29,1.27-.58,1.21-.46,1.45-.28,2.23-.66,.91-.46,.71-.77,1.67-1.24,.88-.43,1.19-.23,1.8-.71,.52-.4,.44-.65,.98-1.21,.67-.69,1.02-.53,1.84-1.13,.86-.64,.56-.88,1.85-2.26,.75-.8,1.03-.92,1.45-1.61,.16-.26,.32-.64,.65-1.42,.37-.86,.55-1.3,.69-1.84,.05-.21,.18-.76,.22-1.46,0-.31,.06-1.52-.42-2.99-.17-.49-.69-2.01-2.05-3.31-.83-.8-1.75-1.31-2.61-1.63-1.32-.49-2.5-.54-3-.54h-.09c.23-.31,.48-.62,.73-.94,1.26-1.58,2.75-3.24,4.49-4.92,.36-.35,.72-.69,1.08-1.01,.04-.14,.09-.27,.13-.41,5.15-3.52,10.24-7.11,15.29-10.77,.89,1.58,1.77,3.28,2.63,5.09,1.93,4.1,3.33,7.96,4.35,11.42-1.02-.39-5.15-1.86-9.5,0-2.69,1.14-4.3,3.06-4.81,3.68-1.52,1.86-2.12,3.66-2.27,4.11-.33,1.04-.44,1.91-.48,2.24-.11,.87-.08,1.61-.02,3.07,.05,1.3,.07,1.96,.16,2.42,.22,1.24,.57,1.56,1.21,3.14,1.12,2.73,.55,2.91,1.45,4.31,.85,1.33,1.45,1.29,2.05,2.67,.47,1.12,.21,1.44,.75,2.31,.62,1.02,1.19,.92,2.22,2.02,1.15,1.21,.67,1.56,1.76,2.73,.91,.98,1.36,.86,2.87,2.2,.95,.84,.83,.94,1.53,1.54,1.27,1.12,2.76,1.62,5.7,2.58,.74,.24,1.5,.47,2.94,.96,1.66,.57,2.41,.85,3.06,1.56,.57,.61,.79,1.25,.93,1.66,1.68,4.88,1.96,6.97,1.96,6.97,.38,2.8,.92,6.1,1.7,10.4-.67-7.03-1.13-12.41-1.43-15.35-.07-.72-.21-2.07,.2-3.72,.45-1.74,1.33-3.08,1.74-3.7,.51-.77,1-1.34,1.73-2.17,1.03-1.19,1.22-1.25,2.02-2.23,.9-1.11,1.35-1.66,1.67-2.47,.47-1.2,.14-1.52,.67-2.88,.37-.98,.58-.94,1.13-2.06,.6-1.22,.43-1.43,1.15-3.59,.42-1.28,.51-1.31,1.2-3.3,.7-2.03,.72-2.35,.73-2.59,0-1.39-.67-1.6-.93-3.19-.2-1.27,.21-1.29,.26-3.42,.04-1.25,.07-2.5-.44-3.9-.39-1.07-.62-.91-1.4-2.49-1.19-2.38-.75-2.89-1.63-3.67-.95-.83-1.76-.5-2.76-1.61-.49-.55-.45-.8-.87-1.36-.94-1.24-2.37-1.64-3.12-1.85-3.27-.92-6.58,.89-8.51,1.95-1.05,.57-2.5,1.49-4.03,2.92-1.13-3.45-2.26-6.25-3.13-8.28-1.36-3.16-3.04-6.61-3.96-8.46,3.72-2.7,7.42-5.43,11.09-8.2,12.23-9.29,24.17-18.97,35.78-29.03,11.6-10.08,22.85-20.56,33.75-31.39,2.7-2.74,5.45-5.43,8.11-8.21l7.97-8.33,7.8-8.5c2.58-2.85,5.09-5.77,7.64-8.65,10.07-11.63,19.63-23.71,28.82-36.03,9.2-12.32,18.14-24.8,27.35-37.04,9.19-12.26,18.66-24.29,28.5-36,9.82-11.75,20.01-23.14,30.62-34.15,21.21-22,44.19-42.25,67.55-62.1,9.98-8.48,20.05-16.89,30.13-25.28,.19-.02,.38-.03,.57-.04l-.03-.42c1.53-1.27,3.05-2.55,4.58-3.82,11.81-9.81,23.58-19.64,35.48-29.28,47.58-38.63,96.71-75.32,146.92-110.46l6.24-4.33c.16,.4,.32,.8,.47,1.21,1.57,4.24,2.64,8.21,3.36,11.74-.98-.48-4.97-2.29-9.46-.81-2.78,.92-4.54,2.69-5.1,3.26-1.68,1.73-2.43,3.47-2.61,3.91-.42,1.01-.61,1.87-.68,2.19-.18,.85-.21,1.6-.28,3.06-.06,1.3-.09,1.95-.05,2.42,.12,1.25,.44,1.6,.95,3.23,.88,2.81,.3,2.95,1.08,4.42,.74,1.4,1.33,1.41,1.81,2.84,.38,1.15,.09,1.44,.55,2.36,.54,1.07,1.11,1.01,2.05,2.2,1.03,1.3,.53,1.61,1.51,2.86,.83,1.06,1.29,.98,2.68,2.44,.88,.92,.75,1.01,1.39,1.67,1.18,1.22,2.62,1.85,5.47,3.05,.71,.31,1.45,.6,2.85,1.21,1.6,.7,2.32,1.05,2.91,1.81,.51,.66,.69,1.32,.79,1.73,1.26,5.01,1.36,7.12,1.36,7.12,.14,2.82,.39,6.15,.81,10.5-.07-7.06-.07-12.45-.12-15.41-.01-.73-.04-2.08,.52-3.69,.58-1.7,1.58-2.96,2.04-3.54,.58-.73,1.11-1.25,1.9-2.02,1.13-1.1,1.33-1.14,2.21-2.05,.99-1.02,1.48-1.54,1.87-2.32,.58-1.16,.27-1.5,.91-2.82,.45-.93,.66-.88,1.31-1.95,.69-1.16,.54-1.38,1.44-3.48,.53-1.23,.63-1.26,1.48-3.18,.87-1.97,.92-2.28,.94-2.52,.13-1.38-.53-1.65-.65-3.26-.09-1.28,.32-1.27,.55-3.39,.14-1.24,.28-2.48-.11-3.92-.3-1.1-.53-.96-1.18-2.6-.99-2.47-.5-2.94-1.31-3.79-.88-.91-1.72-.65-2.62-1.84-.44-.59-.38-.83-.76-1.43-.82-1.31-2.22-1.84-2.94-2.11-3.18-1.19-6.63,.33-8.65,1.22-1.09,.48-2.61,1.28-4.26,2.57-.84-3.53-1.72-6.42-2.42-8.52-.51-1.54-1.09-3.15-1.64-4.62l12.27-8.51,18.99-12.95,19.07-12.81,19.16-12.77c25.56-16.99,51.1-34.01,76.78-50.75,.23-.15,.46-.3,.69-.45,3.43,2.27,6.39,4.6,8.89,6.81-1.07,.21-5.34,1.15-8.05,5.04-1.67,2.4-2.01,4.88-2.11,5.67-.31,2.39,.14,4.23,.26,4.69,.27,1.06,.63,1.86,.77,2.16,.38,.79,.79,1.41,1.61,2.61,.74,1.08,1.11,1.62,1.43,1.97,.84,.92,1.31,1.01,2.69,2.01,2.4,1.72,2.01,2.18,3.52,2.89,1.43,.67,1.91,.32,3.15,1.17,1,.69,.95,1.1,1.86,1.56,1.08,.53,1.5,.14,2.96,.53,1.61,.42,1.4,.96,2.94,1.38,1.29,.34,1.61,0,3.6,.34,1.26,.2,1.2,.35,2.11,.5,1.68,.26,3.21-.11,6.21-.85,.75-.19,1.52-.4,3-.75,1.7-.4,2.49-.55,3.42-.3,.8,.22,1.34,.64,1.67,.91,4.01,3.24,5.36,4.87,5.36,4.87,1.81,2.17,4.02,4.68,6.96,7.91-4.3-5.61-7.54-9.92-9.36-12.25-.45-.58-1.28-1.64-1.8-3.26-.55-1.71-.52-3.32-.5-4.06,.03-.93,.14-1.66,.31-2.76,.24-1.55,.38-1.71,.53-2.96,.18-1.41,.27-2.12,.11-2.98-.24-1.27-.69-1.36-.97-2.8-.2-1.02,0-1.1-.13-2.34-.14-1.35-.39-1.43-.94-3.65-.31-1.31-.25-1.39-.73-3.44-.48-2.09-.63-2.37-.76-2.58-.73-1.18-1.42-1-2.47-2.21-.85-.97-.51-1.2-1.6-3.04-.64-1.07-1.27-2.14-2.45-3.06-.9-.71-1-.45-2.5-1.37-2.28-1.39-2.17-2.06-3.33-2.24-1.25-.21-1.76,.51-3.2,.1-.71-.21-.8-.44-1.46-.69-1.45-.55-2.88-.14-3.62,.08-3.27,.96-5.11,4.25-6.18,6.17-.59,1.05-1.33,2.6-1.87,4.62-2.79-2.32-5.23-4.1-7.05-5.36-.62-.43-1.26-.86-1.91-1.29,25.33-16.49,50.77-32.78,76.58-48.31,26.18-15.73,52.75-30.7,80.15-43.76l10.28-4.87,10.39-4.62c6.32-2.89,12.77-5.44,19.19-8.08,.85,1.82,1.68,3.78,2.47,5.9,1.57,4.24,2.63,8.21,3.36,11.74-.98-.47-4.97-2.29-9.46-.81-2.79,.92-4.54,2.69-5.1,3.27-1.68,1.72-2.43,3.46-2.61,3.9-.42,1.01-.61,1.87-.68,2.19-.18,.86-.21,1.6-.28,3.06-.06,1.3-.09,1.95-.05,2.42,.12,1.25,.44,1.61,.95,3.23,.88,2.82,.3,2.95,1.08,4.42,.74,1.4,1.33,1.41,1.81,2.84,.38,1.15,.09,1.44,.55,2.36,.54,1.07,1.11,1.01,2.05,2.2,1.03,1.31,.53,1.61,1.51,2.87,.83,1.05,1.29,.98,2.68,2.44,.88,.92,.75,1,1.39,1.66,1.18,1.22,2.62,1.85,5.47,3.05,.71,.31,1.45,.6,2.85,1.21,1.6,.71,2.32,1.06,2.91,1.81,.51,.66,.69,1.32,.79,1.73,1.26,5.01,1.36,7.12,1.36,7.12,.14,2.82,.39,6.15,.81,10.5-.07-7.06-.07-12.45-.12-15.41-.01-.73-.04-2.08,.52-3.69,.58-1.69,1.58-2.96,2.04-3.54,.58-.73,1.11-1.25,1.9-2.02,1.13-1.1,1.33-1.14,2.21-2.05,.99-1.02,1.48-1.54,1.87-2.31,.58-1.16,.27-1.5,.91-2.82,.45-.94,.66-.89,1.31-1.96,.69-1.16,.54-1.38,1.44-3.48,.53-1.23,.63-1.26,1.48-3.18,.87-1.97,.92-2.28,.94-2.52,.13-1.38-.53-1.65-.65-3.26-.09-1.28,.32-1.26,.55-3.39,.14-1.24,.28-2.47-.11-3.92-.3-1.1-.53-.96-1.18-2.59-.99-2.48-.5-2.95-1.31-3.8-.88-.91-1.72-.64-2.62-1.84-.44-.59-.38-.83-.76-1.43-.82-1.31-2.22-1.84-2.94-2.11-3.18-1.19-6.63,.33-8.65,1.22-1.09,.49-2.61,1.28-4.26,2.57-.84-3.53-1.72-6.42-2.42-8.52-1.19-3.59-2.75-7.56-3.44-9.29,.4-.17,.79-.33,1.19-.49,1.75-.74,3.52-1.41,5.29-2.07l5.32-2.01c1.69-.63,3.38-1.28,5.06-1.92,2.12,1.1,4.01,2.25,5.63,3.36-.68,.22-3.41,1.19-4.87,3.95-.91,1.71-.93,3.37-.93,3.9-.01,1.58,.43,2.76,.55,3.05,.26,.67,.56,1.17,.68,1.35,.31,.49,.63,.86,1.27,1.59,.57,.64,.85,.97,1.09,1.17,.63,.54,.94,.56,1.93,1.1,1.71,.94,1.49,1.27,2.54,1.61,.99,.33,1.28,.06,2.16,.52,.71,.37,.71,.64,1.34,.87,.75,.27,1-.02,1.99,.11,1.09,.15,.99,.52,2.03,.67,.88,.12,1.06-.13,2.4-.07,.84,.04,.81,.14,1.42,.16,1.12,.04,2.09-.33,4-1.06,.48-.18,.97-.38,1.91-.73,1.09-.4,1.59-.56,2.22-.47,.54,.07,.93,.31,1.17,.46,2.89,1.8,3.91,2.76,3.91,2.76,1.36,1.28,3.01,2.75,5.2,4.63-3.27-3.33-5.75-5.9-7.13-7.28-.34-.34-.97-.97-1.44-1.99-.5-1.08-.61-2.14-.65-2.63-.06-.61-.05-1.1-.02-1.83,.03-1.04,.1-1.15,.11-1.98,0-.95,0-1.42-.18-1.97-.25-.81-.55-.83-.86-1.75-.21-.66-.09-.73-.27-1.53-.2-.88-.37-.91-.91-2.32-.31-.83-.28-.89-.75-2.19-.49-1.34-.61-1.51-.71-1.64-.57-.71-1.01-.54-1.8-1.25-.63-.56-.43-.74-1.3-1.86-.5-.66-1-1.31-1.85-1.81-.64-.39-.69-.22-1.75-.7-1.6-.73-1.59-1.17-2.36-1.2-.84-.04-1.11,.47-2.09,.32-.17-.03-.28-.06-.39-.1,1.02-.36,2.04-.72,3.06-1.07,3.59-1.25,7.2-2.48,10.82-3.69,28.95-9.71,58.24-18.79,87.53-27.84,7.71-2.37,15.42-4.72,23.12-7.08-.55,3.81-1.33,7.28-2.19,10.3-.65-.87-3.35-4.32-8.02-5.08-2.89-.48-5.27,.29-6.03,.54-2.28,.76-3.75,1.95-4.12,2.26-.83,.7-1.4,1.37-1.61,1.63-.55,.68-.93,1.32-1.66,2.58-.65,1.13-.98,1.69-1.16,2.13-.47,1.17-.35,1.63-.65,3.3-.52,2.91-1.1,2.76-1.08,4.42,.01,1.58,.53,1.87,.3,3.35-.19,1.2-.59,1.33-.6,2.35-.02,1.2,.51,1.41,.8,2.9,.31,1.64-.27,1.67,.02,3.24,.24,1.32,.69,1.46,1.25,3.4,.36,1.22,.2,1.24,.46,2.12,.48,1.63,1.48,2.85,3.44,5.23,.5,.6,1.02,1.2,1.97,2.39,1.1,1.36,1.58,2.01,1.76,2.95,.15,.82,0,1.48-.1,1.9-1.2,5.02-2.08,6.94-2.08,6.94-1.18,2.57-2.49,5.64-4.13,9.69,3.2-6.3,5.69-11.08,7.01-13.73,.32-.65,.92-1.86,2.16-3.03,1.3-1.23,2.76-1.9,3.45-2.2,.84-.38,1.55-.59,2.62-.91,1.5-.46,1.7-.4,2.9-.8,1.35-.46,2.02-.68,2.72-1.2,1.05-.76,.94-1.2,2.11-2.08,.84-.62,1-.48,2.06-1.13,1.16-.7,1.13-.97,2.89-2.42,1.04-.85,1.14-.83,2.78-2.14,1.68-1.34,1.87-1.59,2-1.8,.75-1.17,.29-1.71,.93-3.19,.51-1.18,.86-.98,2.05-2.75,.7-1.04,1.39-2.07,1.71-3.53,.24-1.12-.03-1.1,.15-2.85,.27-2.65,.92-2.85,.59-3.97-.36-1.22-1.23-1.37-1.48-2.84-.12-.73,.05-.92-.01-1.62-.13-1.55-1.12-2.66-1.64-3.23-2.27-2.53-6.03-2.77-8.23-2.91-1.2-.07-2.91-.07-4.97,.31,.89-3.52,1.44-6.48,1.79-8.67,.1-.65,.2-1.32,.3-1.98,46.22-14.14,92.53-28.13,138.82-42.11,1.93,.11,3.85,.24,5.78,.35,15.52,.79,31.08,1.12,46.66,.9,15.57-.24,31.16-.99,46.72-2.3l11.66-1.1,11.65-1.32c3.89-.44,7.58-.93,11.41-1.41l11.43-1.47c6.99-.94,14-1.94,21.03-3.02-1.74,1.54-3.47,3.09-5.18,4.67-5.15,4.74-10.17,9.62-15.08,14.57-4.88,4.99-9.69,10.03-14.35,15.18-4.67,5.14-9.25,10.34-13.75,15.57s-8.94,10.47-13.38,15.82c-4.41,5.35-8.73,10.79-12.91,16.32-4.2,5.52-8.2,11.21-12.24,16.58-4.02,5.39-8.37,10.26-13.3,14.82-2.45,2.29-5.05,4.44-7.62,6.62-1.28,1.1-2.65,2.08-3.97,3.14-1.34,1.03-2.66,2.08-4.05,3.04-21.88,15.96-47.61,26.67-74.4,32.6,3.18-.5,6.35-1.05,9.52-1.67-.83,.91-2.27,2.53-3.5,4.06-.81,1-1.88,2.4-3.06,4.15-.63-1.04-1.3-1.78-1.8-2.27-.92-.9-2.49-2.43-4.47-2.43-.45,0-1.32,0-2.04,.55-.33,.25-.35,.4-.71,.63-.74,.47-1.14,.15-1.8,.47-.62,.3-.45,.65-1.49,1.8-.69,.76-.79,.64-1.18,1.18-.5,.71-.68,1.41-.86,2.12-.3,1.21-.08,1.28-.39,1.96-.39,.86-.81,.87-1.02,1.65-.04,.14-.07,.32,0,1.57,.07,1.22,.12,1.26,.16,2.04,.06,1.33-.07,1.42,.08,2.19,.13,.72,.26,.73,.31,1.34,.08,.85-.15,.97-.08,1.72,.06,.51,.22,.89,.55,1.65,.3,.67,.4,.74,.79,1.57,.27,.58,.46,.97,.63,1.49,.13,.41,.42,1.3,.39,2.35-.02,.99-.32,1.72-.47,2.12-.63,1.6-1.73,4.55-3.21,8.39,1.11-2.29,1.93-4.06,2.58-5.57,0,0,.49-1.13,2.2-3.61,.14-.2,.37-.53,.78-.78,.48-.3,.94-.34,1.96-.4,.89-.04,1.35-.05,1.81-.07,1.8-.08,2.71-.13,3.61-.56,.48-.23,.43-.3,1.09-.62,1.06-.52,1.3-.38,1.96-.79,.8-.48,.58-.75,1.42-1.25,.75-.46,1.05-.31,1.56-.79,.44-.41,.34-.63,.79-1.18,.55-.68,.88-.56,1.57-1.17,.72-.65,.43-.84,1.48-2.2,.61-.78,.86-.91,1.18-1.57,.12-.25,.24-.61,.47-1.33,.26-.81,.39-1.23,.47-1.73,.03-.19,.1-.7,.08-1.33-.01-.28-.07-1.38-.63-2.67-.19-.43-.79-1.75-2.12-2.82-2.15-1.73-4.7-1.55-5.33-1.49,1.11-1.78,2.51-3.73,4.23-5.73,.88-1.01,1.75-1.92,2.6-2.76,10.13-2.01,20.15-4.7,29.93-8.2,9.32-3.29,18.4-7.32,27.14-12.06-.03,.65-.07,1.31-.12,1.99-.29,3.31-.82,6.27-1.45,8.84-.5-.62-2.58-3.07-6.02-3.5-2.13-.26-3.85,.36-4.4,.57-1.65,.62-2.7,1.54-2.96,1.78-.59,.53-.98,1.04-1.13,1.24-.38,.51-.64,.99-1.14,1.94-.45,.84-.67,1.26-.79,1.59-.31,.87-.21,1.2-.38,2.44-.3,2.14-.73,2.05-.67,3.27,.05,1.15,.44,1.35,.31,2.44-.1,.88-.39,.99-.37,1.74,.02,.88,.42,1.02,.67,2.1,.28,1.19-.15,1.24,.11,2.38,.21,.95,.54,1.05,1.01,2.45,.3,.89,.18,.9,.4,1.54,.4,1.18,1.16,2.05,2.67,3.73,.38,.43,.78,.86,1.51,1.7,.85,.97,1.22,1.42,1.37,2.11,.13,.6,.04,1.09-.02,1.4-.73,3.71-1.32,5.14-1.32,5.14-.79,1.91-1.67,4.2-2.75,7.22,2.16-4.71,3.85-8.28,4.74-10.26,.22-.49,.63-1.39,1.5-2.28,.92-.95,1.97-1.47,2.46-1.72,.61-.3,1.13-.47,1.89-.74,1.09-.37,1.24-.34,2.11-.67,.97-.37,1.46-.55,1.96-.95,.75-.59,.65-.91,1.49-1.58,.59-.48,.72-.38,1.48-.89,.82-.55,.79-.75,2.04-1.86,.74-.65,.81-.64,1.98-1.64,1.19-1.04,1.32-1.23,1.41-1.38,.52-.88,.17-1.26,.59-2.36,.34-.88,.61-.75,1.42-2.08,.49-.78,.96-1.56,1.16-2.63,.14-.83-.06-.81,.02-2.1,.13-1.95,.6-2.11,.32-2.92-.29-.88-.93-.97-1.16-2.04-.11-.53,0-.67-.05-1.19-.14-1.13-.9-1.91-1.29-2.32-1.74-1.79-4.5-1.85-6.12-1.89-.88-.02-2.14,.02-3.63,.37,.55-2.61,.87-4.8,1.06-6.41,.19-1.6,.34-3.33,.45-4.77,3.37-1.83,6.68-3.76,9.93-5.81,1.5-.89,2.94-1.88,4.38-2.86,1.44-.99,2.92-1.91,4.32-2.96,2.81-2.07,5.64-4.12,8.36-6.35,5.47-4.4,10.65-9.47,15.2-14.81,4.58-5.31,8.83-10.59,13.31-15.72,4.45-5.13,9.01-10.15,13.67-15.11,4.68-4.91,9.45-9.84,14.24-14.71,4.79-4.87,9.61-9.67,14.5-14.38,4.88-4.71,9.87-9.29,14.91-13.79,5.01-4.43,10.09-8.75,15.29-12.93-12.16,15.95-23.46,32.43-34.08,49.27-12.55,19.92-24.34,40.21-35.18,61.12l-4.03,7.86-3.87,7.94-1.93,3.98-1.85,4.01c-1.21,2.69-2.5,5.34-3.65,8.05-4.79,10.77-9.12,21.74-13.33,32.58-4.22,10.85-8.46,21.46-13.69,31.55-5.2,10.1-11.35,19.79-18.18,28.95-6.84,9.17-14.42,17.8-22.5,25.97-4.17,3.95-8.25,8.01-12.68,11.69l-3.26,2.83-1.64,1.41-1.69,1.34-6.8,5.34-1.7,1.34-1.76,1.26-3.53,2.51c-2.36,1.66-4.67,3.4-7.08,4.99l-7.29,4.7-3.65,2.35c-1.22,.78-2.49,1.47-3.74,2.2-5.02,2.87-9.95,5.94-15.14,8.52l-7.71,4.03-1.93,1.01-1.97,.93-3.94,1.84c-20.46,9.72-41.76,17.73-63.44,24.54-.47,0-1.27,.03-1.95,.55-.33,.25-.34,.4-.7,.63-.74,.46-1.14,.15-1.81,.47-.61,.29-.44,.65-1.49,1.8-.68,.76-.79,.64-1.17,1.18-.51,.71-.69,1.41-.86,2.12-.31,1.2-.08,1.28-.4,1.96-.39,.85-.8,.87-1.02,1.65-.03,.13-.07,.31,.01,1.56,.07,1.23,.12,1.26,.15,2.04,.07,1.33-.06,1.42,.08,2.2,.14,.71,.26,.73,.32,1.33,.08,.85-.16,.98-.08,1.73,.05,.5,.22,.88,.55,1.65,.29,.67,.39,.73,.78,1.56,.28,.59,.46,.98,.63,1.49,.14,.42,.42,1.31,.39,2.36-.02,.99-.31,1.72-.46,2.11-.64,1.61-1.74,4.55-3.22,8.4,1.12-2.29,1.94-4.06,2.59-5.57,0,0,.49-1.13,2.19-3.61,.15-.21,.37-.53,.79-.79,.47-.29,.94-.33,1.96-.39,.89-.05,1.35-.06,1.8-.08,1.8-.08,2.72-.12,3.61-.55,.49-.23,.43-.3,1.1-.63,1.06-.51,1.29-.37,1.96-.78,.79-.49,.58-.76,1.41-1.26,.76-.45,1.06-.3,1.57-.78,.43-.41,.34-.63,.78-1.18,.55-.68,.88-.56,1.57-1.18,.73-.64,.43-.83,1.49-2.19,.61-.79,.85-.91,1.18-1.57,.12-.25,.23-.61,.47-1.33,.26-.81,.39-1.23,.47-1.73,.02-.19,.1-.7,.07-1.33-.01-.28-.06-1.39-.62-2.67-.19-.43-.79-1.76-2.12-2.82-2.16-1.73-4.7-1.55-5.34-1.49,1.12-1.78,2.51-3.73,4.24-5.73,.94-1.1,1.89-2.08,2.8-2.97,15.34-4.56,30.48-9.81,45.31-15.9,.1,.81,.23,1.8,.38,2.71,.15,.9,.38,2.13,.76,3.58-.85-.16-1.56-.16-2.06-.12-.9,.06-2.46,.17-3.39,1.21-.21,.24-.62,.7-.67,1.34-.02,.29,.05,.37,0,.67-.1,.61-.46,.67-.6,1.17-.14,.47,.13,.55,.25,1.64,.08,.72-.04,.72,.07,1.18,.13,.6,.42,1.03,.71,1.45,.49,.73,.64,.65,.85,1.13,.27,.61,.08,.84,.39,1.32,.06,.08,.13,.19,.83,.74,.68,.54,.72,.53,1.15,.88,.73,.59,.72,.7,1.2,.99,.44,.27,.51,.21,.85,.46,.49,.36,.44,.54,.88,.86,.29,.21,.57,.3,1.13,.48,.49,.17,.57,.14,1.19,.33,.44,.13,.74,.21,1.09,.37,.28,.12,.88,.39,1.43,.9,.51,.48,.76,.98,.89,1.25,.55,1.09,1.59,3.06,2.92,5.65-.68-1.67-1.23-2.94-1.72-3.99,0,0-.37-.79-.87-2.86-.04-.17-.11-.45-.05-.79,.07-.39,.27-.65,.72-1.22,.39-.49,.6-.74,.81-.99,.8-.98,1.21-1.49,1.41-2.16,.1-.37,.04-.37,.18-.88,.23-.8,.42-.86,.51-1.4,.12-.65-.12-.67,.01-1.34,.11-.62,.33-.7,.32-1.2-.01-.42-.17-.48-.25-.97-.1-.61,.11-.73,.12-1.38,0-.69-.24-.63-.46-1.82-.13-.7-.08-.89-.28-1.37-.07-.18-.21-.41-.48-.87-.3-.52-.46-.79-.69-1.06-.09-.11-.32-.39-.67-.67-.15-.13-.76-.62-1.7-.93-.32-.1-1.3-.41-2.49-.21-1.93,.32-3.04,1.75-3.3,2.12-.42-1.44-.79-3.09-1.03-4.94-.06-.46-.11-.9-.14-1.34,1.78-.73,3.57-1.46,5.34-2.22l4.04-1.7,2.02-.86,1.98-.94,7.93-3.75c5.34-2.4,10.44-5.3,15.63-8,1.29-.7,2.61-1.35,3.87-2.09l3.79-2.23,7.58-4.47c2.51-1.53,4.93-3.2,7.4-4.79l3.68-2.41,1.84-1.22,1.79-1.29,7.14-5.18,1.79-1.3,1.73-1.37,3.44-2.76c4.68-3.59,9.03-7.59,13.47-11.48,8.63-8.06,16.8-16.66,24.26-25.88,6.2-7.67,11.92-15.74,17.06-24.21,.75,1.37,1.49,2.82,2.22,4.35,1.93,4.1,3.32,7.96,4.35,11.42-1.02-.39-5.15-1.86-9.5-.01-2.7,1.15-4.3,3.07-4.81,3.69-1.52,1.86-2.12,3.66-2.27,4.11-.33,1.04-.45,1.91-.49,2.24-.1,.87-.07,1.61-.02,3.07,.05,1.3,.08,1.96,.16,2.42,.23,1.24,.58,1.56,1.22,3.14,1.12,2.73,.55,2.91,1.45,4.31,.85,1.33,1.45,1.29,2.04,2.67,.48,1.12,.22,1.44,.75,2.31,.63,1.02,1.19,.92,2.23,2.02,1.14,1.21,.67,1.56,1.75,2.73,.91,.98,1.37,.86,2.88,2.2,.95,.84,.83,.94,1.52,1.54,1.28,1.12,2.77,1.62,5.71,2.58,.74,.24,1.5,.47,2.94,.96,1.66,.57,2.41,.85,3.06,1.56,.57,.61,.79,1.25,.93,1.66,1.68,4.88,1.96,6.97,1.96,6.97,.38,2.8,.91,6.1,1.7,10.4-.67-7.03-1.13-12.41-1.43-15.35-.07-.72-.22-2.07,.2-3.72,.44-1.74,1.33-3.08,1.74-3.7,.51-.77,1-1.34,1.73-2.17,1.02-1.19,1.22-1.26,2.02-2.23,.9-1.11,1.35-1.66,1.67-2.47,.47-1.2,.14-1.52,.66-2.88,.38-.98,.59-.94,1.14-2.06,.6-1.22,.43-1.43,1.15-3.59,.42-1.28,.51-1.31,1.2-3.3,.7-2.03,.72-2.35,.72-2.59,.01-1.39-.67-1.6-.92-3.19-.2-1.27,.21-1.29,.26-3.42,.03-1.25,.07-2.5-.44-3.9-.39-1.07-.62-.91-1.4-2.49-1.19-2.38-.75-2.89-1.63-3.67-.95-.83-1.76-.5-2.76-1.61-.49-.55-.45-.8-.88-1.36-.93-1.24-2.37-1.64-3.11-1.85-3.27-.92-6.58,.89-8.51,1.95-1.05,.57-2.5,1.49-4.03,2.92-1.13-3.45-2.26-6.25-3.13-8.28-1.24-2.88-2.74-5.99-3.7-7.93,.93-1.53,1.84-3.08,2.72-4.65,5.91-10.38,10.75-21.25,15.4-31.94,4.65-10.7,9.28-21.23,14.38-31.56,1.23-2.61,2.59-5.15,3.87-7.72l1.96-3.84,2.03-3.81,4.09-7.61,1.44-2.56c.07,.22,.15,.45,.24,.73,.88,2.81,.29,2.95,1.07,4.42,.74,1.4,1.34,1.41,1.82,2.84,.38,1.15,.09,1.44,.55,2.36,.54,1.07,1.11,1.01,2.05,2.2,1.03,1.3,.53,1.61,1.51,2.86,.83,1.06,1.29,.98,2.68,2.44,.88,.92,.75,1.01,1.39,1.67,1.18,1.22,2.62,1.85,5.47,3.05,.71,.31,1.45,.6,2.85,1.21,1.6,.7,2.32,1.05,2.91,1.81,.51,.66,.68,1.32,.79,1.73,1.25,5.01,1.36,7.12,1.36,7.12,.14,2.82,.39,6.15,.81,10.5-.07-7.06-.07-12.46-.12-15.41,0-.73-.04-2.08,.52-3.69,.58-1.7,1.58-2.96,2.04-3.54,.58-.73,1.11-1.25,1.9-2.02,1.13-1.1,1.33-1.14,2.21-2.05,.99-1.03,1.48-1.54,1.87-2.32,.57-1.16,.27-1.5,.91-2.82,.45-.93,.66-.88,1.31-1.95,.69-1.16,.54-1.38,1.44-3.48,.53-1.23,.63-1.26,1.48-3.18,.87-1.97,.92-2.28,.94-2.52,.13-1.38-.53-1.65-.65-3.26-.09-1.28,.32-1.27,.55-3.39,.14-1.24,.28-2.48-.11-3.92-.3-1.1-.54-.96-1.18-2.6-.99-2.47-.5-2.94-1.31-3.79-.88-.91-1.72-.65-2.62-1.84-.44-.59-.38-.83-.76-1.43-.83-1.32-2.22-1.84-2.94-2.11-3.18-1.19-6.63,.33-8.65,1.22-1.09,.48-2.62,1.28-4.26,2.57-.84-3.53-1.72-6.42-2.42-8.52-.11-.33-.22-.66-.34-1,3.38-5.51,6.82-10.98,10.33-16.41,.68,.29,1.37,.6,2.08,.94,2.69,1.3,5.02,2.7,6.98,4.05-.68,.22-3.41,1.19-4.87,3.95-.91,1.71-.93,3.36-.93,3.89-.01,1.59,.43,2.76,.55,3.06,.26,.67,.56,1.17,.68,1.35,.31,.49,.63,.86,1.27,1.58,.56,.65,.85,.98,1.09,1.18,.63,.54,.94,.56,1.93,1.1,1.71,.94,1.49,1.27,2.54,1.61,.99,.33,1.28,.06,2.16,.52,.71,.37,.71,.64,1.34,.87,.75,.26,1-.03,1.99,.11,1.09,.14,.99,.52,2.03,.67,.88,.12,1.06-.13,2.39-.07,.84,.03,.82,.13,1.43,.16,1.12,.04,2.09-.33,4-1.06,.48-.18,.97-.38,1.91-.73,1.09-.4,1.59-.57,2.22-.48,.54,.08,.93,.32,1.17,.47,2.89,1.8,3.91,2.76,3.91,2.76,1.35,1.28,3,2.75,5.2,4.62-3.27-3.33-5.75-5.89-7.13-7.28-.34-.34-.97-.97-1.44-1.99-.5-1.07-.61-2.13-.66-2.62-.05-.61-.04-1.1-.01-1.83,.03-1.04,.1-1.16,.1-1.99,.01-.94,.01-1.41-.17-1.96-.25-.81-.55-.84-.86-1.76-.21-.65-.09-.72-.27-1.53-.2-.87-.37-.9-.91-2.31-.31-.83-.28-.89-.75-2.2-.49-1.33-.61-1.5-.71-1.63-.57-.71-1.01-.54-1.8-1.25-.63-.57-.44-.75-1.3-1.86-.5-.66-1-1.31-1.85-1.82-.64-.39-.69-.21-1.75-.69-1.61-.73-1.59-1.18-2.36-1.21-.84-.03-1.12,.48-2.09,.33-.48-.08-.57-.22-1.02-.34-1-.24-1.9,.15-2.37,.35-2.06,.89-3,3.2-3.55,4.55-.3,.73-.66,1.8-.85,3.17-2.02-1.29-3.76-2.26-5.06-2.94-1.37-.72-2.87-1.44-4.08-2.01,4.52-6.99,9.14-13.92,13.85-20.78,13.05-19,26.93-37.39,41.82-54.72,7.48-8.66,15.18-16.96,23.31-24.96,2.54-2.51,5.11-4.98,7.7-7.43,19.67-4.96,39.17-11.09,58.24-18.66,29.66-11.73,58.19-27.1,84.39-45.92,.74-.53,1.47-1.06,2.2-1.59v-56.14c-8.7,8.4-17.87,16.33-27.5,23.72Zm-1225.38,37.39c.34-.18,.69-.35,1.05-.52,1.47-.72,3.11-1.43,4.91-2.08-1.99,.86-3.97,1.73-5.96,2.6Zm268.27-54.58c.47-.93,.97-2.08,1.38-3.47,2.19,1.91,4.15,3.46,5.76,4.68-2.36-.46-4.75-.86-7.14-1.21Zm-40.52,105.64c-.91,.3-2.02,.69-3.3,1.2-.64,.25-1.31,.52-2.02,.83,.02-.82-.04-1.54-.13-2.15,2.67-.24,5.34-.47,8.02-.68-.85,.25-1.73,.52-2.57,.8Zm287.25,17.91c-.3,.74-.66,1.81-.85,3.18-2.02-1.3-3.76-2.27-5.06-2.94-.01-.01-.03-.02-.05-.03,2.23-.64,4.46-1.26,6.7-1.84-.31,.59-.55,1.17-.74,1.63ZM504.67,1199.7c-.07,.07-.14,.13-.21,.2-.66,.64-1.35,1.32-1.99,1.98-.66,.68-1.47,1.55-2.37,2.59-.45,.51-.92,1.07-1.4,1.67-.35-.72-.73-1.3-1.08-1.8,2.47-1.64,4.93-3.28,7.38-4.95-.12,.1-.22,.2-.33,.31Zm579.41-537.47l-10.38,7.2c.61-1.85,.67-3.81,.71-5.17,.03-1.2-.03-2.91-.49-4.95,3.55,.76,6.53,1.2,8.73,1.47,1,.13,2.03,.24,3.05,.34l-1.62,1.11Zm324.48-170.76c-.3,.73-.66,1.81-.85,3.18-2.02-1.3-3.76-2.27-5.06-2.95-.15-.08-.31-.16-.47-.24,1.73-.66,3.47-1.31,5.23-1.92,.89-.33,1.79-.64,2.69-.96-.75,.97-1.22,2.09-1.54,2.89Zm150.31,265.95c-.81,1.01-1.89,2.4-3.06,4.16-.64-1.04-1.31-1.78-1.81-2.27-.9-.88-2.42-2.36-4.35-2.42,4.29-1.17,8.56-2.38,12.81-3.64-.79,.88-2.31,2.58-3.59,4.17Zm249.27-239.28c-.81-.39-3.66-1.69-7.16-1.3,1.56-2.61,3.13-5.21,4.71-7.81,1.08,3.25,1.88,6.32,2.45,9.11Z"/><g><ellipse class="cls-1" cx="1024" cy="1802" rx="778.05" ry="165"/><g class="cls-3"><rect class="cls-2" x="245.67" y="1802" width="1556" height="233"/></g></g><path class="cls-5" d="M1454.86,1697.36c-.03-1.27-.11-2.54-.21-3.81,0,0,0-.01,0-.02-.15-1.77-.38-3.53-.68-5.3-1.11-4.19-2.15-8.41-3.39-12.57-4.47-13.1-14.21-22.2-23.92-31.31-7.42-5.73-16.03-9.04-24.81-12-1.38-.45-2.8-.73-4.24-.93-13.5-2.19-27.01-2.26-40.54-.39-6.24,.87-11.01,.14-13.88-2.72-3.33-3.3-2.51-7.81-2.97-12.43-1.66-16.82-19.62-29.48-31.9-38.12-10.26-7.23-12.63-6.29-17.66-12.24-5.14-6.08-8.03-13.4-10.41-27.49-2.92-17.24-2.18-30.49-2.66-37.28-1.82-25.56-3.65-51.14-6.26-76.64-1.33-12.96-2.87-25.89-4.71-38.78-1.03-7.19-.93-14.54-2.5-21.65-1.3-5.9-4.39-10.22-6.97-15.59-5.11-10.65-8.11-22.49-15.68-31.81-8.8-10.82-21.91-14.35-35.3-15.66-13.22-1.29-25.49-2.16-38.3-6.22-19.56-6.2-42.1-6.2-62.41-8.47-5.63-.63-11.36-1.29-16.59-3.47-.04-.02-.08-.03-.12-.05-.89-1.02-1.71-2.09-2.45-3.22-3.08-4.72-4.65-10.13-5.77-15.63-1.16-5.71-1.01-10.25-.95-13.37,.13-7.23,.63-17.46,2.19-30.24,.88,7.21,2.98,18.11,8.64,30.07,6.51,13.76,17.56,28.58,21.18,26.93,1.78-.81,2.45-5.66,1.2-9.55-1.58-4.96-3.22-9.98-3.53-15.19-.35-5.85,1-11.65,2.4-17.33,1.41-5.74,2.9-11.47,4.46-17.17,2.24-8.2,4.61-16.36,6.98-24.52,4.15-14.26,9.07-35.6,1.72-40.49-2.32-1.54-3.8-.06-5.78-1.62-5.78-4.57,2.87-20.45,4.51-37.26,1.89-19.4-5.9-35.14-10.85-44.57-8.49-16.14-22.98-29.48-33.46-44.4-3.68-5.23-6.03-11.39-9.47-16.78-2.69-4.22-7.04-8.38-6.56-13.84,1.35-15.41,2.34-28.63-3.03-43.74-2.19-6.15-5.11-12.09-6.46-18.49-.55-2.6-1.32-4.53-1.97-7.29-3.48-14.74-1.06-17.94-4.86-25.32-1.4-2.72-1.55-4.47-4.43-8.1-2.07-2.61-2.2-5.75-3.16-8.64-2.23-5.2-1.92-10.92-3.09-16.34-.8-2.36-1.22-4.82-1.7-7.27v-13.32c0-5.88-4.72-10.68-10.5-10.68s-10.5,4.8-10.5,10.68v13.32c-.48,2.45-.9,4.91-1.7,7.27-1.18,5.42-.86,11.14-3.09,16.34-.96,2.9-1.09,6.03-3.16,8.64-2.88,3.63-3.03,5.38-4.43,8.1-3.8,7.38-1.38,10.58-4.86,25.32-.65,2.76-1.43,4.69-1.97,7.29-1.35,6.4-4.27,12.33-6.46,18.49-5.38,15.11-4.39,28.34-3.03,43.74,.48,5.46-3.87,9.62-6.56,13.84-3.44,5.39-5.8,11.55-9.47,16.78-10.48,14.92-24.98,28.26-33.46,44.4-4.96,9.43-12.74,25.17-10.85,44.57,1.64,16.8,10.29,32.68,4.51,37.26-1.97,1.56-3.46,.08-5.78,1.62-7.35,4.89-2.43,26.23,1.72,40.49,2.37,8.16,4.75,16.32,6.98,24.52,1.56,5.7,3.04,11.43,4.46,17.17,1.41,5.69,2.75,11.49,2.4,17.33-.31,5.21-1.95,10.23-3.53,15.19-1.24,3.89-.57,8.74,1.2,9.55,3.62,1.65,14.67-13.17,21.18-26.93,5.66-11.97,7.75-22.86,8.64-30.07,1.56,12.78,2.06,23.01,2.19,30.24,.06,3.12,.21,7.66-.95,13.37-1.12,5.5-2.68,10.91-5.77,15.63-.74,1.13-1.56,2.2-2.45,3.22-.04,.02-.08,.03-.12,.05-5.23,2.19-10.96,2.84-16.59,3.47-20.31,2.27-42.85,2.27-62.41,8.47-12.81,4.06-25.08,4.93-38.3,6.22-13.39,1.31-26.5,4.84-35.3,15.66-7.57,9.31-10.57,21.16-15.68,31.81-2.58,5.37-5.67,9.69-6.97,15.59-1.56,7.11-1.47,14.46-2.5,21.65-1.84,12.89-3.38,25.83-4.71,38.78-2.62,25.5-4.44,51.07-6.26,76.64-.48,6.79,.26,20.03-2.66,37.28-2.39,14.09-5.28,21.41-10.42,27.49-5.03,5.95-7.39,5-17.66,12.24-12.27,8.64-30.24,21.29-31.9,38.12-.45,4.61,.36,9.13-2.97,12.43-2.87,2.85-7.63,3.58-13.88,2.72-13.53-1.87-27.05-1.8-40.54,.39-1.44,.19-2.85,.48-4.24,.93-8.78,2.96-17.38,6.26-24.81,12-9.71,9.12-19.45,18.21-23.92,31.31-1.24,4.16-2.28,8.38-3.39,12.57-.3,1.77-.53,3.53-.68,5.3,0,0,0,.01,0,.02-.11,1.27-.18,2.54-.21,3.81-.12,4.42,.21,8.84,.98,13.26,.62,2.39,1.15,4.82,1.69,7.24,.74,3.33,1.51,6.66,2.57,9.89,0,0,0,0,0,.02,.18,.45,3.2,7.69,9.15,13.84,17.16,17.71,107.17,28.34,140.91,32.59,.88,.11,1.77,.22,2.66,.33,74.31,9.01,169.34,14.43,272.89,14.43s198.58-5.41,272.89-14.43c.89-.11,1.77-.21,2.66-.33,94.47-11.92,118.59-13.1,140.91-32.59,1.11-.97,2.82-2.51,4.82-4.53,3.85-5.91,5.43-12.55,6.91-19.22,.54-2.42,1.07-4.85,1.69-7.24,.77-4.42,1.1-8.84,.98-13.26Zm-554.88-182.37c-19.13,72.41-90.74,112.44-95.11,108.39-2.49-2.31,17.57-18.3,29.99-53.98,11.06-31.78,4.85-46.93,9.43-86.11,4.26-36.57,17.93-94.2,31.7-94.25,14.7-.06,39.96,65.48,23.99,125.96Zm305.42-194.18s0,.02,0,.03c0,0-.02-.02-.03-.03,0,0,.02,0,.03,0Zm-3.2-11.82c.03,.06,.06,.11,.09,.17-.09,0-.17-.01-.26-.02,.06-.05,.11-.1,.17-.15Zm40.91,314.39c-4.37,4.05-75.98-35.98-95.11-108.39-15.97-60.47,9.29-126.01,23.99-125.96,13.77,.05,27.44,57.69,31.7,94.25,4.57,39.19-1.64,54.34,9.43,86.11,12.42,35.68,32.48,51.67,29.99,53.98Z"/><g><path class="cls-5" d="M1283.94,1002.25c-.1,.09-.19,.19-.29,.28-.06,.06-.12,.12-.18,.18-.11,.11-.23,.22-.34,.34-.1,.11-.21,.21-.31,.32-.01,.01-.02,.02-.03,.04-.1,.1-.19,.2-.29,.3,0,0-.01,.01-.02,.02-.06,.06-.12,.13-.17,.19-.03,.04-.07,.07-.1,.11-.06,.06-.11,.13-.17,.19-.08,.09-.16,.18-.24,.27-.07,.07-.13,.15-.2,.22-.02,.02-.04,.05-.06,.07-.06,.07-.12,.14-.18,.21-.16,.19-.32,.39-.48,.58-.12,.15-.24,.3-.36,.45-.07,.09-.14,.17-.2,.26-.07,.09-.13,.17-.2,.26-.07,.09-.14,.18-.2,.27-.06,.07-.11,.15-.17,.22-.18,.24-.36,.49-.53,.73-.06,.09-.12,.18-.18,.26-.1,.14-.19,.28-.29,.42-.04,.06-.08,.12-.12,.18-.06,.09-.12,.18-.18,.28-.04,.06-.08,.12-.12,.18-.2,.31-.4,.63-.59,.95-.04,.06-.08,.13-.12,.2-.12,.21-.25,.41-.37,.62-.03,.06-.07,.11-.1,.17-.23,.39-.44,.79-.65,1.18-.07,.13-.14,.26-.21,.39,0,0,0,0,0,0-.07,.13-.14,.27-.21,.4-.06,.12-.12,.24-.18,.36-.01,.03-.03,.06-.04,.09-.06,.12-.12,.23-.17,.35-.07,.13-.13,.27-.19,.4-.06,.13-.12,.26-.18,.38-.06,.13-.12,.26-.18,.39-.56,1.24-1.04,2.44-1.45,3.57-1.1-.47-2.3-.95-3.59-1.39h0s-.04-.02-.07-.03c-.11-.04-.23-.08-.34-.11-.14-.05-.27-.09-.41-.14-.11-.03-.21-.07-.32-.1-.03,0-.07-.02-.1-.03-.14-.04-.28-.09-.42-.13,0,0-.02,0-.03,0-.13-.04-.27-.08-.4-.12-.14-.04-.29-.08-.43-.12h0c-.14-.04-.29-.08-.43-.12-.13-.04-.26-.07-.4-.11-.59-.15-1.19-.3-1.8-.43-.07-.02-.15-.03-.22-.05-.36-.08-.73-.15-1.1-.22-.07-.01-.14-.03-.21-.04-.11-.02-.22-.04-.33-.06-.07-.01-.14-.02-.21-.04-.17-.03-.34-.05-.51-.08-.11-.02-.21-.03-.32-.05-.3-.04-.59-.08-.9-.12-.09-.01-.18-.02-.27-.03-.11-.01-.22-.03-.34-.04-.11-.01-.22-.02-.33-.03-.11-.01-.22-.02-.33-.03-.19-.02-.38-.03-.58-.04-.25-.02-.5-.03-.75-.04-.09,0-.19,0-.28-.01-.03,0-.07,0-.1,0-.1,0-.2,0-.3-.01-.12,0-.24,0-.36,0-.08,0-.17,0-.25,0-.05,0-.1,0-.15,0-.08,0-.17,0-.25,0-.01,0-.02,0-.03,0-.14,0-.28,0-.42,0-.02,0-.03,0-.05,0-.15,0-.3,0-.45,0-.16,0-.32,0-.48,.01-.09,0-.17,0-.26,.01-.13,0-.27,.01-.4,.02-14.6,.81-23.52,10.47-27.79,16.57,9.17-6.06,24.83-13.15,43.71-6.59,1.37,.48,2.72,1.01,4.03,1.59,1.67,.74,3.28,.04,3.89-1.68,.48-1.36,1.01-2.7,1.6-4.03,8.2-18.35,24.23-24.87,34.93-27.37-7.36-1.08-20.55-1.22-31.17,8.89Z"/><path class="cls-5" d="M1546.8,963.24c-.13,.02-.27,.04-.4,.06-.08,.01-.17,.03-.25,.04-.16,.03-.31,.05-.47,.08-.15,.03-.29,.06-.44,.08-.02,0-.03,0-.05,0-.14,.03-.27,.05-.41,.08,0,0-.02,0-.03,0-.08,.02-.17,.04-.25,.05-.05,.01-.1,.02-.15,.03-.08,.02-.17,.04-.25,.06-.12,.03-.24,.05-.35,.08-.1,.02-.19,.05-.29,.07-.03,0-.06,.02-.09,.02-.09,.02-.18,.05-.27,.07-.24,.06-.49,.13-.73,.2-.19,.05-.37,.11-.56,.16-.11,.03-.21,.06-.32,.1-.1,.03-.21,.06-.31,.1-.11,.03-.22,.07-.32,.1-.09,.03-.18,.06-.26,.09-.29,.1-.57,.2-.85,.3-.1,.04-.2,.07-.3,.11-.16,.06-.32,.12-.48,.18-.07,.03-.13,.05-.2,.08-.1,.04-.21,.08-.31,.12-.07,.03-.13,.05-.2,.08-.35,.14-.69,.29-1.03,.44-.07,.03-.14,.06-.21,.09-.22,.1-.44,.2-.66,.3-.06,.03-.12,.06-.18,.08-.41,.19-.82,.39-1.21,.59-.13,.07-.27,.14-.4,.2h0c-.13,.07-.27,.14-.4,.21-.12,.06-.24,.13-.35,.19-.03,.02-.06,.03-.09,.05-.11,.06-.23,.13-.34,.19-.13,.07-.26,.15-.39,.22-.12,.07-.25,.14-.37,.21-.12,.07-.25,.14-.37,.22-1.17,.7-2.25,1.41-3.23,2.1-.63-1.02-1.34-2.09-2.14-3.19h0s-.03-.04-.04-.06c-.07-.1-.14-.19-.21-.29-.09-.12-.17-.23-.26-.35-.07-.09-.13-.18-.2-.27-.02-.03-.04-.05-.06-.08-.09-.12-.18-.23-.27-.35,0,0-.01-.01-.02-.02-.09-.11-.17-.22-.26-.33-.09-.12-.19-.23-.28-.35,0,0,0,0,0,0-.09-.11-.19-.23-.29-.35-.09-.1-.18-.21-.27-.31-.39-.46-.8-.93-1.23-1.38-.05-.06-.1-.11-.16-.17-.25-.27-.51-.54-.78-.81-.05-.05-.1-.1-.15-.15-.08-.08-.16-.16-.24-.23-.05-.05-.1-.1-.15-.15-.12-.12-.24-.24-.37-.35-.08-.07-.16-.15-.24-.22-.22-.2-.44-.41-.67-.61-.07-.06-.14-.12-.21-.18-.08-.08-.17-.15-.26-.22-.08-.07-.17-.14-.25-.21-.08-.07-.17-.14-.25-.21-.15-.12-.3-.25-.45-.37-.2-.16-.39-.31-.59-.47-.07-.06-.15-.11-.22-.17-.03-.02-.05-.04-.08-.06-.08-.06-.16-.12-.24-.18-.1-.07-.19-.14-.29-.22-.07-.05-.14-.1-.21-.15-.04-.03-.08-.06-.12-.09-.07-.05-.14-.1-.21-.15,0,0-.02-.01-.03-.02-.11-.08-.23-.16-.34-.24-.01-.01-.03-.02-.04-.03-.12-.08-.25-.17-.37-.25-.13-.09-.27-.17-.4-.26-.07-.05-.14-.09-.22-.14-.11-.07-.23-.14-.34-.21-12.44-7.7-25.28-4.9-32.27-2.34,10.99,.28,27.89,3.44,39.6,19.63,.85,1.18,1.65,2.39,2.39,3.62,.94,1.56,2.67,1.91,4.15,.85,1.17-.84,2.37-1.64,3.62-2.39,17.24-10.35,34.11-6.51,44.31-2.42-5.41-5.1-16.14-12.77-30.64-10.57Z"/><path class="cls-5" d="M1368.34,1087.6c-.07,.01-.14,.02-.21,.03-.05,0-.09,.01-.14,.02-.08,.01-.17,.03-.25,.05-.08,.01-.16,.03-.24,.05,0,0-.02,0-.03,0-.07,.01-.15,.03-.22,.05,0,0-.01,0-.02,0-.05,0-.09,.02-.13,.03-.03,0-.05,.01-.08,.02-.04,0-.09,.02-.13,.03-.06,.01-.13,.03-.19,.05-.05,.01-.1,.03-.16,.04-.02,0-.03,0-.05,.01-.05,.01-.1,.02-.15,.04-.13,.03-.26,.07-.39,.11-.1,.03-.2,.06-.3,.09-.06,.02-.11,.03-.17,.05-.06,.02-.11,.03-.17,.05-.06,.02-.12,.04-.17,.06-.05,.01-.09,.03-.14,.05-.15,.05-.31,.11-.46,.16-.05,.02-.11,.04-.16,.06-.09,.03-.17,.06-.26,.1-.04,.01-.07,.03-.11,.04-.06,.02-.11,.04-.17,.07-.04,.01-.07,.03-.11,.04-.19,.08-.37,.15-.56,.24-.04,.02-.08,.03-.11,.05-.12,.05-.24,.11-.35,.16-.03,.01-.06,.03-.1,.05-.22,.1-.44,.21-.65,.32-.07,.04-.14,.07-.21,.11,0,0,0,0,0,0-.07,.04-.14,.08-.22,.11-.06,.03-.13,.07-.19,.1-.02,0-.03,.02-.05,.02-.06,.03-.12,.07-.18,.1-.07,.04-.14,.08-.21,.12-.07,.04-.13,.08-.2,.11-.07,.04-.13,.08-.2,.12-.63,.38-1.21,.76-1.74,1.13-.34-.55-.72-1.13-1.16-1.72h0s-.01-.02-.02-.03c-.04-.05-.08-.1-.11-.16-.05-.06-.09-.12-.14-.19-.04-.05-.07-.1-.11-.14-.01-.01-.02-.03-.03-.04-.05-.06-.1-.13-.15-.19,0,0,0,0,0-.01-.05-.06-.09-.12-.14-.18-.05-.06-.1-.13-.15-.19,0,0,0,0,0,0-.05-.06-.1-.12-.16-.19-.05-.06-.09-.11-.14-.17-.21-.25-.43-.5-.66-.75-.03-.03-.06-.06-.08-.09-.14-.15-.28-.29-.42-.43-.03-.03-.05-.05-.08-.08-.04-.04-.08-.08-.13-.13-.03-.03-.05-.05-.08-.08-.07-.06-.13-.13-.2-.19-.04-.04-.08-.08-.13-.12-.12-.11-.24-.22-.36-.33-.04-.03-.07-.07-.11-.1-.05-.04-.09-.08-.14-.12-.04-.04-.09-.08-.14-.12-.05-.04-.09-.08-.14-.11-.08-.07-.16-.13-.24-.2-.11-.09-.21-.17-.32-.25-.04-.03-.08-.06-.12-.09-.01-.01-.03-.02-.04-.03-.04-.03-.09-.06-.13-.1-.05-.04-.1-.08-.16-.12-.04-.03-.07-.05-.11-.08-.02-.02-.04-.03-.07-.05-.04-.03-.07-.05-.11-.08,0,0,0,0-.01,0-.06-.04-.12-.09-.19-.13,0,0-.01-.01-.02-.02-.07-.05-.13-.09-.2-.13-.07-.05-.14-.09-.22-.14-.04-.03-.08-.05-.12-.07-.06-.04-.12-.08-.18-.12-6.71-4.15-13.64-2.64-17.42-1.26,5.93,.15,15.05,1.86,21.37,10.6,.46,.64,.89,1.29,1.29,1.95,.51,.84,1.44,1.03,2.24,.46,.63-.45,1.28-.88,1.96-1.29,9.3-5.58,18.41-3.51,23.92-1.31-2.92-2.75-8.71-6.89-16.54-5.71Z"/></g></g></svg>