<?xml version="1.0" encoding="UTF-8"?><svg id="Layer_2" xmlns="http://www.w3.org/2000/svg" viewBox="0 0 614.68 543.76"><defs><style>.cls-1{fill:#fff;}.cls-2{fill:#ffa3a1;}.cls-3{fill:#999;}.cls-4{fill:#9cdcff;}.cls-5{fill:#a5a5a5;}.cls-6{fill:#d6d6d6;}</style></defs><g id="_ÉåÉCÉÑÅ__1"><g><path class="cls-5" d="M348.03,33.97c-1.27,0-2.55-.49-3.52-1.46l-20.5-20.5-20.5,20.5c-1.94,1.94-5.09,1.94-7.04,0-1.94-1.94-1.94-5.09,0-7.04L320.49,1.46c1.94-1.94,5.09-1.94,7.04,0l24.02,24.02c1.94,1.94,1.94,5.09,0,7.04-.97,.97-2.25,1.46-3.52,1.46h0Z"/><g><rect class="cls-1" x="38.34" y="52.64" width="570.36" height="486.11"/><path class="cls-5" d="M608.7,543.76H38.34c-2.76,0-5-2.24-5-5V52.64c0-2.76,2.24-5,5-5H608.7c2.76,0,5,2.24,5,5v486.11c0,2.76-2.24,5-5,5h0Zm-565.36-9.99H603.71V57.65H43.34v476.12h0Z"/></g><g><g><path class="cls-1" d="M576.1,522.84c-190.36,0-380.73,0-571.1,0C28.51,366.34,39.71,209.14,38.5,52.64c190.38,0,380.74,0,571.1,0,1.21,156.5-9.99,313.71-33.5,470.2Z"/><path class="cls-5" d="M5,527.84c-1.46,0-2.84-.63-3.79-1.73-.95-1.11-1.37-2.57-1.16-4C23.46,366.36,34.71,208.42,33.5,52.68c0-1.33,.51-2.61,1.45-3.56,.94-.94,2.22-1.48,3.55-1.48H609.6c2.75,0,4.98,2.21,5,4.95,1.21,156.28-10.08,314.74-33.54,470.98-.37,2.45-2.47,4.26-4.95,4.26H5ZM43.53,57.65c.92,152.71-10.08,307.48-32.73,460.21H571.79c22.71-152.71,33.75-307.49,32.83-460.22H43.53Z"/></g><path class="cls-6" d="M356.11,128.59c-.12,18.22-13.9,30.91-33.16,30.72-19.29,.18-32.26-12.49-31.73-30.72,.11-18.24,13.55-30.9,32.83-30.71,19.27-.19,32.56,12.47,32.06,30.71Z"/><g><path class="cls-6" d="M107.24,159.31c-6.51,.09-10.86-5.06-10.6-12.46,.12-7.4,4.71-12.54,11.21-12.45,6.47-.08,10.91,5.05,10.66,12.45-.13,7.39-4.78,12.55-11.27,12.46Z"/><path class="cls-6" d="M132.63,159.31c-6.51,.09-10.85-5.06-10.61-12.46,.13-7.4,4.7-12.54,11.22-12.45,6.5-.08,10.89,5.05,10.66,12.45-.14,7.39-4.77,12.55-11.27,12.46Z"/><path class="cls-6" d="M158.02,159.31c-6.49,.09-10.86-5.06-10.61-12.46,.12-7.4,4.71-12.54,11.22-12.45,6.48-.08,10.9,5.05,10.66,12.45-.13,7.39-4.78,12.55-11.27,12.46Z"/><path class="cls-6" d="M183.41,159.31c-6.51,.09-10.85-5.06-10.62-12.46,.13-7.4,4.71-12.54,11.23-12.45,6.49-.08,10.9,5.05,10.65,12.45-.13,7.39-4.76,12.55-11.26,12.46Z"/></g><path class="cls-2" d="M158.66,218.68H93.84c.6-12.37,1.13-24.74,1.56-37.1h64.81c-.45,12.36-.96,24.73-1.56,37.1Z"/><path class="cls-6" d="M223.48,218.68h-64.82c.6-12.37,1.12-24.74,1.56-37.1h64.8c-.44,12.36-.94,24.73-1.55,37.1Z"/><path class="cls-6" d="M549.78,159.3h-89.11c.24-9.07,.47-18.14,.64-27.21h89.1c-.16,9.07-.39,18.14-.63,27.21Z"/><path class="cls-6" d="M288.28,218.67c-21.59,0-43.2,0-64.79,0,.6-12.37,1.11-24.74,1.55-37.1h64.81c-.45,12.36-.95,24.72-1.56,37.1Z"/><path class="cls-6" d="M353.09,218.67h-64.81c.61-12.37,1.12-24.74,1.56-37.1,21.61,0,43.21,0,64.8,0-.44,12.36-.94,24.73-1.56,37.1Z"/><path class="cls-6" d="M417.9,218.67h-64.81c.61-12.37,1.12-24.74,1.56-37.1h64.82c-.44,12.36-.95,24.73-1.56,37.1Z"/><path class="cls-6" d="M482.72,218.67h-64.81c.61-12.37,1.13-24.74,1.56-37.1h64.81c-.45,12.36-.96,24.73-1.57,37.1Z"/><path class="cls-4" d="M547.48,218.67h-64.79c.58-12.37,1.11-24.74,1.55-37.1h64.81c-.45,12.36-.96,24.73-1.57,37.1Z"/><polygon class="cls-3" points="528.35 446.32 74.7 446.32 74.7 438.54 528.35 438.54 528.35 446.32 528.35 446.32"/><polygon class="cls-3" points="81.06 390.41 81.06 382.63 534.71 382.62 534.71 390.4 81.06 390.41 81.06 390.41"/><polygon class="cls-3" points="540.03 334.46 86.37 334.46 86.37 326.68 540.03 326.68 540.03 334.46 540.03 334.46"/><polygon class="cls-3" points="90.64 278.52 90.64 270.74 544.3 270.73 544.3 278.51 90.64 278.52 90.64 278.52"/><polygon class="cls-3" points="93.84 222.57 93.84 214.79 547.49 214.79 547.49 222.56 93.84 222.57 93.84 222.57"/><path class="cls-3" d="M459.98,498.85l-7.7-1.09c14.88-104.8,24.32-211.23,28.06-316.32l7.78,.27c-3.76,105.37-13.23,212.07-28.14,317.14h0Z"/><path class="cls-3" d="M395.2,498.85l-7.7-1.09c14.89-104.83,24.34-211.26,28.08-316.32l7.78,.27c-3.76,105.34-13.23,212.05-28.16,317.14h0Z"/><path class="cls-3" d="M330.44,498.85l-7.7-1.09c14.88-104.82,24.33-211.25,28.08-316.33l7.78,.28c-3.77,105.35-13.24,212.05-28.16,317.13h0Z"/><path class="cls-3" d="M265.49,498.85l-7.7-1.09c14.88-104.75,24.32-211.18,28.08-316.32l7.77,.28c-3.77,105.41-13.23,212.1-28.15,317.13h0Z"/><path class="cls-3" d="M200.73,498.85l-7.7-1.09c14.88-104.82,24.33-211.25,28.09-316.32l7.77,.28c-3.76,105.35-13.24,212.05-28.15,317.13h0Z"/><path class="cls-3" d="M135.95,498.85l-7.7-1.09c14.88-104.82,24.33-211.25,28.09-316.32l7.77,.28c-3.76,105.35-13.23,212.05-28.15,317.13h0Z"/></g><g><rect class="cls-5" x="38.34" y="27.99" width="571.34" height="24.65"/><path class="cls-5" d="M609.68,57.62H38.34c-2.75,0-4.98-2.23-4.98-4.98V27.99c0-2.75,2.23-4.98,4.98-4.98H609.68c2.75,0,4.98,2.23,4.98,4.98v24.65c0,2.75-2.23,4.98-4.98,4.98h0ZM43.32,47.67H604.71v-14.7H43.32v14.7h0Z"/></g></g></g></svg>