<?xml version="1.0" encoding="UTF-8"?><svg id="_1" xmlns="http://www.w3.org/2000/svg" viewBox="0 0 239.82 198.65"><defs><style>.cls-1{fill:#fbd11a;}.cls-2,.cls-3,.cls-4{fill:#fff;}.cls-5{fill:#842a2e;}.cls-3{opacity:.4;}.cls-6{opacity:.6;}.cls-7{fill:#f1e6dc;}.cls-8{fill:#bde0ef;}.cls-9{fill:#1c4ed8;}.cls-10{fill:#d6c5bf;}.cls-11{fill:#b9522a;}.cls-12{fill:#afd5e2;}.cls-13{fill:#953b16;}.cls-14{fill:#d89b39;}.cls-15{fill:#e59515;}.cls-16{fill:#9aa7c1;}.cls-17{fill:#e5d6ca;}.cls-18{fill:#b79c91;}.cls-4{opacity:.2;}.cls-19{fill:#a3867c;}.cls-20{fill:#1a1a1a;}.cls-21{opacity:.71;}</style></defs><rect class="cls-2" width="239.82" height="197.99"/><g><path class="cls-8" d="M238.78,77.47c-5.91,31.01-34.87,60-27.75,71.62,2.49,4.06,4.89,6.59,7.09,8.28,6.66,5.08,11.56,2.43,11.93,11.08,.5,11.51-10.51,29.54-10.51,29.54H27.64c-.17-.69-5.26-15.8-11.03-35.66-1.16-3.99-2.35-8.18-3.53-12.48-3.33-12.14-6.61-25.18-9.05-37.34-4.91-24.47-6.44-45.4,1.75-48.35,20.86-7.51,52.9,3.5,47.89-18.02-.5-2.16-1.15-4.32-1.88-6.48-2.81-8.32-6.81-16.47-8.19-23.16-1.84-8.85,.91-15.15,17.08-15.92,31.54-1.5,138-3.34,169.87,39.05,1.18,1.58,2.24,3.16,3.17,4.76,6.35,10.83,7.15,22.08,5.06,33.08Z"/><path class="cls-12" d="M46.77,179.59s9.84-23.03,11.35-22.69c1.5,.33,3.67,5.17,6.51,5.34s5.67-16.69,8.68-17.35c3-.67,6.34,.33,7.51-3.34,1.17-3.67,29.2-98.12,35.54-98.62s24.03,51.73,27.03,50.56c3-1.17,4.84-12.01,8.51-12.35,3.67-.33,28.87,61.57,31.54,61.24,2.67-.33,5.84-8.84,8.01-7.51,2.17,1.33,28.6,59.95,28.6,59.95l-169.44-2.55-3.84-12.68Z"/><path class="cls-2" d="M181.76,176.26s24.67,0,21.27-3.44-9.26-4.31-5.85-5.78c3.41-1.47,24.16-4.9,16.29-7.13-12.35-3.5-66.85-3.87-64.23,1.81,2.61,5.68,18.62,6.34,16.84,9.53s3.33,6.02,15.69,5.01Z"/><g><path class="cls-10" d="M228.57,198.65l-112.6-.38-29.57-.1-63.94-.22c-1.59-2.15,.02-5.34,2.29-6.76,2.27-1.42,5.04-1.83,7.37-3.14,1.79-1,3.21-2.46,4.55-4.02,1.18-1.37,2.3-2.82,3.56-4.11,2.68-2.76,6.87-4.91,10.29-3.13,1.27,.66,2.25,1.78,3.53,2.41,1.96,.96,4.27,.63,6.42,.28,.19-.03,.39-.06,.58-.1,3.08-.5,6.16-1,9.23-1.51,1.89-.31,3.84-.64,5.41-1.73,.12-.09,.24-.18,.36-.27,1.37-1.14,2.22-3.02,1.6-4.67-.65-1.73-2.73-3.53-1.53-4.94,.42-.49,1.1-.64,1.69-.9,2.08-.93,3.06-3.37,3.26-5.65,.19-2.27-.19-4.58,.12-6.83,.72-5.27,5.18-9.42,10.16-11.29,4.98-1.87,11.51-.18,16.82-.06,14.86,.33,28.62-.33,43.38,1.4,1.56,.18,3.18,.4,4.46,1.3,.08,.06,.16,.12,.24,.18,1.33,1.07,2.04,2.75,2.68,4.35,1.56,3.88,3.12,7.77,4.68,11.65,4.44-.79,9.25,1.35,11.64,5.17,1.03,1.64,1.64,3.54,2.86,5.05,2.61,3.24,7.21,3.83,11.22,4.96,4.01,1.12,8.43,3.97,8.17,8.13-.09,1.37-.7,2.73-.39,4.07,.41,1.76,2.31,2.81,4.12,2.97,1.8,.15,3.59-.35,5.39-.56,7.97-.94,15.37,3.86,21.96,8.45Z"/><path class="cls-18" d="M228.57,198.65l-112.6-.38c-.29-.15-.57-.33-.83-.55-1.08-.87-1.78-2.19-2.97-2.9-2.22-1.32-5.01-.05-7.58,.13-2.58,.18-5.73-2.61-3.97-4.5-4.56-2.33-10.02,3.37-14.86,1.69-2.31-.8-5.37-2.94-6.58-.81-.83,1.47,.75,3.19,2.33,3.78s3.48,.82,4.47,2.18c.2,.27,.34,.57,.43,.88l-63.94-.22c-1.59-2.15,.02-5.34,2.29-6.76,2.27-1.42,5.04-1.83,7.37-3.14,1.79-1,3.21-2.46,4.55-4.02,2.09-.24,4.19-.35,6.3-.33-.62,1.91,.88,3.99,2.74,4.74,1.87,.75,3.96,.52,5.96,.28,3.57-.43,7.14-.86,10.71-1.28,.71-.09,1.44-.18,2.06-.53,2.02-1.13,1.7-4.4-.03-5.94-.95-.84-2.12-1.31-3.37-1.6,3.08-.5,6.16-1,9.23-1.51,1.89-.31,3.84-.64,5.41-1.73,.12-.09,.24-.18,.36-.27,3,.1,5.99,.49,8.9,1.18,2.07,.49,4.17,1.13,6.28,.89,1.86-.2,3.64-1.08,5.52-1.01,3.56,.13,6.3,4.37,4.94,7.66,4.41-1.13,8.82-2.26,13.23-3.39,.34-2.77-.29-5.61,.16-8.37,.45-2.76,2.63-5.63,5.4-5.33,1.49,.16,2.84,1.21,4.33,1.07,1.02-.1,1.9-.75,2.72-1.37,2.09-1.6,4.23-3.25,5.85-5.34,1.9-2.44,2.38-4.54,2.39-7.55,0-.35,0-.71-.14-1.03-.17-.39-.53-.66-.9-.88-2.94-1.81-6.66-1.4-10.09-1.86-1.58-.21-3.14-.62-4.73-.7-1.37-.07-2.74,.1-4.1,.28-1.82,.23-3.63,.46-5.45,.7-.89,.11-1.81,.23-2.68-.01-.54-.15-1.04-.43-1.57-.61-1.95-.66-4.28,.21-5.41,1.94-.25,.39-.47,.83-.85,1.1-.31,.21-.69,.29-1.06,.35-.74,.14-1.51,.27-2.23,.06s-1.37-.86-1.31-1.61c.04-.44,.31-.84,.3-1.27-.01-.51-.39-.93-.66-1.36s-.43-1.07-.05-1.41c-2.39,.18-4.84-.78-6.47-2.54,4.82,1.17,9.75,1.9,14.69,2.29,2.6,.2,5.21,.32,7.81,.41,13.86,.48,28.15,1.48,41.67-1.98,1.88-.48,2.81-.67,3.67-1.73,1.33,1.07,2.04,2.75,2.68,4.35,1.56,3.88,3.12,7.77,4.68,11.65,4.44-.79,9.25,1.35,11.64,5.17,1.03,1.64,1.64,3.54,2.86,5.05,2.61,3.24,7.21,3.83,11.22,4.96,4.01,1.12,8.43,3.97,8.17,8.13-.09,1.37-.7,2.73-.39,4.07,.41,1.76,2.31,2.81,4.12,2.97,1.8,.15,3.59-.35,5.39-.56,7.97-.94,15.37,3.86,21.96,8.45Z"/><path class="cls-10" d="M156.63,163.2c-1.31,.66-2.65,1.36-3.57,2.5-.91,1.14-1.27,2.87-.44,4.07,.6,.86,1.68,1.3,2.25,2.19,1.07,1.67-.16,3.97,.53,5.82,.65,1.74,2.77,2.46,4.63,2.47,1.86,0,3.74-.46,5.57-.13,2.01,.37,3.73,1.66,5.68,2.23,3.93,1.14,8.42-.7,12.13,1.03-2.61,.74-5.25,1.49-7.95,1.59-2.71,.1-5.54-.51-7.64-2.23-.6-.49-1.15-1.08-1.85-1.42-.7-.35-1.51-.42-2.29-.4-4.53,.17-8.33,3.65-12.82,4.28-3.39,.48-7.44-.53-9.81,1.94-.71,.74-1.14,1.69-1.74,2.52-2,2.76-5.62,3.83-9.02,4.1-.56,.04-1.17,.09-1.62,.43-.45,.34-.61,1.12-.16,1.46,.35-2.15,.7-4.31,1.05-6.46,.11-.66,.22-1.35,.57-1.92,.66-1.1,1.98-1.57,3.21-1.96,5.17-1.62,10.4-3.08,15.66-4.38,1.25-.31,2.69-.77,3.11-1.99,.61-1.79-1.47-3.27-3.2-4.03s-3.82-2.23-3.22-4.02c.56-1.66,3.16-2.16,3.31-3.91,.11-1.36-1.42-2.41-1.37-3.77,.05-1.51,1.87-2.19,3.35-2.5,3.06-.63,6.11-1.26,9.17-1.89,.8-.16,1.66-.32,2.39,.03,3.34,1.61-4.84,3.81-5.91,4.36Z"/></g><path class="cls-2" d="M64.29,144.22c-2.6,3.95-30.9,5.35-51.21,5.63-3.33-12.14-6.61-25.18-9.05-37.34,6.52-.27,40.62-.13,37.2,5.16-3.72,5.75-20.98,9.64-12.01,13.54,8.97,3.89,38.96,7.1,35.07,13.02Z"/><path class="cls-2" d="M238.78,77.47c-11.64,.08-31.81-.13-34.6-2.49-7.11-6.01,12.96-6.95,12.17-10.59-.79-3.63-76.32,.32-76.64-5.69-.32-6.01,53.25-4.43,56.89-7.27,3.63-2.84-7.74-1.58-8.06-4.43-.31-2.79,33.66-2.73,45.18-2.63,6.35,10.83,7.15,22.08,5.06,33.08Z"/><path class="cls-2" d="M72.01,37.21c.21,1.92-15.27,2.36-20.21,2.45-2.81-8.32-6.81-16.47-8.19-23.16,7.53,.07,16.28,.43,17.77,1.69,4.84,4.08-8.81,4.73-8.27,7.2,.54,2.47,33.17,.39,33.38,4.47,.22,4.08-17.48,2.41-19.95,4.34-2.47,1.94,5.27,1.07,5.48,3.01Z"/><g><path class="cls-19" d="M149.4,143.76c0,1.71-9.3,2.09-28.09,2.09-15.51,0-28.09-.19-28.09-2.09,0-1.15,12.01-1.33,27.52-1.33s28.66,.18,28.66,1.33Z"/><g><g><path class="cls-5" d="M113.36,83.88s-.7-.17-.7-.87c0,0-1.57,.35-1.75-1.22-.17-1.57,.87-1.75,.87-1.75,0,0-2.8-.52-2.1-2.97,.7-2.45,2.45-1.75,2.45-1.75,0,0-1.92-1.57-.17-3.67s3.32-.52,3.32-.52c0,0-.17-.7,.7-.35,0,0-.52-1.4,1.05-1.92,1.57-.52,1.92,.87,1.92,.87,0,0,.17-1.22,1.05-.7,.87,.52,.7,1.05,.7,1.05,0,0,.7-.7,1.22,0,0,0,1.05-2.1,3.32-1.22s1.57,3.15,1.57,3.15c0,0,.52,0,.52,.7,0,0,1.4-.52,2.1,1.4s-.52,2.62-.52,2.62c0,0,1.22,.17,1.22,1.92s-1.57,1.57-1.57,1.57c0,0,1.05,.7,.52,1.75-.52,1.05-1.75,1.05-1.75,1.05,0,0,0,.52-1.05,.7s-12.94,.17-12.94,.17Z"/><path class="cls-11" d="M128.75,96.55s-7.5,12.31-11.47,11.41c-3.98-.9-5.72-11.48-5.72-11.48,.66-.33,1.13-.64,1.75-1.05,.52-.34,1.21-.77,1.67-1.18,.42-.37,.85-.8,1.07-1.33,.17-.43,.3-.93,.33-1.4,.03-.43-.01-.8,0-1.26,0-.26-.02-.29-.02-.53,.02-.92,.02-1.64,.02-1.64l6.86-.18s-.02,.64-.01,1.52c0,.2,0,.41,0,.62,0,.01,0,.03,0,.04,0,.32,.02,.65,.04,.98h0c.03,.51,.07,1.01,.13,1.46,0,.03,0,.05,.01,.08,0,.04,0,.08,.02,.11,.04,.25,.08,.48,.13,.69,.1,.4,.23,.7,.4,.83,.1,.09,.24,.18,.42,.28,1.34,.74,4.37,2.04,4.37,2.04Z"/><path class="cls-20" d="M117.52,90.95l5.71-.87c0,.32,.02,.65,.04,.98h0c0,1.39-4.2,3.49-5.75-.11Z"/><g><path class="cls-11" d="M125.46,80.88c-.4-.39-.63-.93-.62-1.52-.27-.04-.53-.12-.76-.3-.23-.18-.36-.41-.44-.67-.6,.19-1.26,.05-1.64-.41-.66,.18-1.38,.17-1.89-.24-.4,.43-1,.76-1.54,.69-.18,1.4-1.81,2.45-3.09,1.92-.2,.28-.43,.54-.7,.73,.01,.4-.11,.76-.34,1.1,.15,2.28,.81,5.99,1.82,7.47,1.1,1.61,2.97,2.8,5.77,1.75,2.73-1.02,3.71-6.57,3.71-7.83,0-.48,0-1.09,0-1.67-.24-.28-.35-.64-.29-1.02Z"/><path class="cls-13" d="M121.1,88.15c-.72,.2-1.4,.11-2.1-.12-.43-.14-.31,.33,.05,.57,.81,.52,1.42,.29,2.22,0,.42-.15,.29-.58-.17-.45Z"/></g><path class="cls-11" d="M114.52,82.85s-1-.36-1.41,.72c-.42,1.08,.74,3.46,1.82,3.46s-.41-4.18-.41-4.18Z"/><g class="cls-6"><path class="cls-13" d="M120.98,86.41c-.02-.15-.17-.26-.32-.24-.15,.02-.3,.04-.45,.06-.15,.02-.26,.17-.24,.32,.02,.15,.17,.26,.32,.24l.45-.06c.15-.02,.26-.17,.24-.32Z"/></g><path class="cls-5" d="M122.32,81.6c-.09-.07-.15-.18-.13-.29,.02-.15,.17-.24,.34-.2,.04,.01,.95,.26,1.73,.9,.13,.11,.16,.29,.07,.41-.1,.11-.28,.12-.41,0-.66-.54-1.46-.76-1.47-.77-.05-.01-.09-.03-.12-.06Z"/><path class="cls-5" d="M118.09,81.58c.09-.07,.14-.19,.12-.3-.03-.15-.18-.24-.34-.19-.04,.01-.95,.28-1.71,.93-.13,.11-.16,.29-.06,.41,.1,.11,.28,.12,.42,0,.65-.55,1.44-.79,1.45-.79,.05-.01,.09-.04,.12-.06Z"/><g class="cls-21"><path class="cls-13" d="M114.37,84.11c-.18,0-.36,.54-.36,.72s.54,.72,.54,.72c0,0,0-1.45-.18-1.45Z"/></g><path class="cls-11" d="M125.61,82.85s1-.36,1.41,.72c.42,1.08-.69,3.28-1.77,3.28s.36-4.01,.36-4.01Z"/><g class="cls-21"><path class="cls-13" d="M125.76,84.11c.18,0,.36,.54,.36,.72s-.54,.72-.54,.72c0,0,0-1.45,.18-1.45Z"/></g><path class="cls-20" d="M116.93,84.27c-.25,.13-.61-.05-.59-.3,.02-.29,.47-.58,.75-.67,.43-.14,.91-.14,1.13-.03,.38,.19,.44,.59,.19,.58-1.02-.03-1.31,.33-1.49,.42Z"/><path class="cls-20" d="M123.45,84.22c.26,.1,.6-.11,.56-.36-.05-.29-.52-.55-.81-.61-.44-.1-.92-.05-1.13,.07-.36,.22-.38,.64-.13,.61,1.01-.12,1.33,.22,1.52,.29Z"/></g><path class="cls-15" d="M115.1,86.98c-.11,.05-.23,.06-.34,.03,.15,.85,.33,2.53,.27,3.13-.03,.27-.05,.82-.2,1.06,0,.18-.06,.2-.15,.06-.02-.06-.05-.12-.07-.19-.06-.18-.11-.36-.16-.54-.17-.66-.26-1.34-.26-2.02,0-.35,.01-.7,.03-1.05,.02-.33,.09-.63,.22-.93,.04-.08,.19-.18,.12-.28-.05-.08-.18-.05-.25-.01-.16,.1-.22,.35-.26,.52-.07,.28-.09,.57-.12,.85-.03,.3-.05,.6-.05,.9,0,.91,.1,1.95,.47,2.8,.09,.2,.27,.48,.53,.41,.28-.07,.32-.53,.37-.75,.2-.87,.07-2.89-.13-4Z"/><path class="cls-15" d="M125.11,86.81c.11,.05,.23,.06,.34,.03-.15,.85-.33,2.53-.27,3.13,.03,.27,.05,.82,.2,1.06,0,.18,.06,.2,.15,.06,.02-.06,.05-.12,.07-.19,.06-.18,.11-.36,.16-.54,.17-.66,.26-1.34,.26-2.02,0-.35-.01-.7-.03-1.05-.02-.33-.09-.63-.22-.93-.04-.08-.19-.18-.12-.28,.05-.08,.18-.05,.25-.01,.16,.1,.22,.35,.26,.52,.07,.28,.09,.57,.12,.85,.03,.3,.05,.6,.05,.9,0,.91-.1,1.95-.47,2.8-.09,.2-.27,.48-.53,.41-.28-.07-.32-.53-.37-.75-.2-.87-.07-2.89,.13-4Z"/></g><g><path class="cls-1" d="M154.58,109.94s-2.62,2.8-3.85,5.07c-1.22,2.27-3.67,4.9-5.77,5.25-2.1,.35-5.42-.87-7.34-2.8-1.92-1.92-3.06-4.46-4.46-4.81-.68-.17-1.19-.55-1.56-.85-.36-.29-.58-.51-.68-.41-.01,0-.02,.02-.03,.04-.11,.22-.15,2.86-.29,5.01,0,.13-.02,.26-.03,.38-.08,1.14-.2,2.07-.38,2.3-.52,.7-20.2,.96-20.9,.26-.52-.52,.17-6.47-.35-8.39,0,0-.87,2.45-3.41,3.59-2.37,1.06-2.8,4.9-8.48,6.56-2.93,.86-7.26-3.24-11.8-9.88,0,0,4.55-8.39,4.63-8.31,0,0,6.12,8.04,6.3,8.04,.16,0,6.63-7.59,9.1-10.41,.1-.12,.2-.23,.29-.33,.16-.19,.3-.34,.41-.46,1.75-1.92,6.3-3.67,7.87-4.72,0,0,3.5,8.04,6.12,7.69s6.3-7.35,6.3-7.35c0,0,4.41,1.85,5.95,2.62,2.1,1.05,7,7.17,8.74,8.39,1.75,1.22,2.1,1.57,2.62,2.45,.4,.67,.87,1.22,1.05,1.05,.17-.17,5.91-9.14,5.91-9.14l4.06,9.14Z"/><g><path class="cls-20" d="M86.55,105.39s-2.45,5.77-1.05,6.12c1.4,.35,3.88-5.41,3.88-5.41l-2.83-.71Z"/><g><path class="cls-11" d="M89.86,102.93s-3.29-5.36-4.8-5.93c-1.51-.56-2.63,0-4.7-1.13-1.48-.81-1.98,.47-1.03,1.22,.94,.75,1.79,.85,2.16,1.22s-.38,2.07-.94,2.07-1.13-.56-1.32-.75-.38-1.13-.38-1.13c0,0,.94-1.69,.56-2.07s-2.45,1.88-2.26,2.45c.19,.56,.66,1.79,.66,1.79h-1.51s-2.26-1.13-2.63-.75,.19,.94,.19,.94c0,0-1.13,.56-.94,.94,.19,.38,3.01,.56,3.01,.56,0,0-.56,.56-.19,.94,.38,.38,4.05-.66,4.05-.66,0,0,.94,.19,1.51,.19s2.45-.19,2.82,.19,3.58,6.4,3.58,6.4c0,0,2.82-4.14,2.16-6.49Z"/><path class="cls-13" d="M86.1,98.98c-.8-.23-1.85-.25-2.63,0-.91,.29-1.69,.94-2.55,1.51-.79,.53-1.73,.7-2.66,.86-.81,.14-1.47,.31-2.13,.83-.14,.11-.12,.3,.03,.21,.76-.44,1.58-.57,2.43-.72,.75-.13,1.55-.29,2.24-.62,.76-.36,1.13-.76,1.88-1.13,.92-.45,2.06-.74,3.04-.52,.89,.21,.67-.33,.35-.42Z"/><path class="cls-13" d="M82.51,101.88c-.9,.3-1.82,.53-2.75,.69-.22,.04,.05,.27,.27,.24,.97-.15,1.71-.28,2.64-.6,.22-.08,.07-.4-.15-.33Z"/><path class="cls-13" d="M79.91,100.5c-.69,.02-5.32,.1-6,.22-.22,.04-.13,.37,.09,.33,.65-.11,5.25-.17,5.9-.2,.23,0,.24-.36,0-.36Z"/></g></g><g><path class="cls-20" d="M153.44,103.82s2.45,5.77,1.05,6.12c-1.4,.35-3.88-5.41-3.88-5.41l2.83-.71Z"/><g><path class="cls-11" d="M150.13,101.35s3.29-5.36,4.8-5.93,2.63,0,4.7-1.13c1.48-.81,1.98,.47,1.03,1.22-.94,.75-1.79,.85-2.16,1.22s.38,2.07,.94,2.07,1.13-.56,1.32-.75c.19-.19,.38-1.13,.38-1.13,0,0-.94-1.69-.56-2.07,.38-.38,2.45,1.88,2.26,2.45s-.66,1.79-.66,1.79h1.51s2.26-1.13,2.63-.75-.19,.94-.19,.94c0,0,1.13,.56,.94,.94-.19,.38-3.01,.56-3.01,.56,0,0,.56,.56,.19,.94s-4.05-.66-4.05-.66c0,0-.94,.19-1.51,.19s-2.45-.19-2.82,.19c-.38,.38-3.58,6.4-3.58,6.4,0,0-2.82-4.14-2.16-6.49Z"/><path class="cls-13" d="M153.89,97.4c.8-.23,1.85-.25,2.63,0,.91,.29,1.69,.94,2.55,1.51,.79,.53,1.73,.7,2.66,.86,.81,.14,1.47,.31,2.13,.83,.14,.11,.12,.3-.03,.21-.76-.45-1.58-.57-2.43-.72-.75-.13-1.55-.29-2.24-.62-.76-.36-1.13-.76-1.88-1.13-.92-.45-2.06-.74-3.04-.52-.89,.21-.67-.33-.35-.42Z"/><path class="cls-13" d="M157.48,100.3c.9,.3,1.82,.53,2.75,.69,.22,.04-.05,.27-.27,.24-.97-.15-1.71-.28-2.64-.6-.22-.08-.07-.4,.15-.33Z"/><path class="cls-13" d="M160.08,98.93c.69,.02,5.32,.1,6,.22,.22,.04,.13,.37-.09,.33-.65-.11-5.25-.17-5.9-.2-.23,0-.24-.36,0-.36Z"/></g></g><path class="cls-8" d="M98.83,113.15c-1.41-1.79-2.84-3.56-4.28-5.33-.26-.32-.71,.13-.46,.46,1.41,1.79,2.81,3.59,4.25,5.36,.28,.35,.75-.14,.48-.49Z"/><path class="cls-8" d="M146.3,105.6c-1.5,2.05-2.58,4.51-3.8,6.74-.2,.37,.36,.7,.56,.33,1.25-2.25,2.76-4.49,3.7-6.88,.11-.28-.3-.4-.46-.19Z"/><path class="cls-14" d="M108.56,109.11c-.13-.4-.75-.23-.63,.17,.35,1.15,.5,2.3,.51,3.5,0,.42,.64,.42,.65,0,.05-1.25-.15-2.48-.53-3.67Z"/><path class="cls-14" d="M131.76,109.35c-.05,.81-.1,1.63-.17,2.45-.36-.29-.58-.51-.68-.41,.08-.7,.18-1.39,.29-2.07,.06-.35,.59-.34,.56,.03Z"/><path class="cls-14" d="M132.83,98.46c-.19,2.96-.62,5.9-1.32,8.79-.05,.2,.26,.29,.31,.09,.69-2.83,1.15-5.72,1.33-8.63l-.32-.25Z"/><path class="cls-14" d="M107.54,107.14c-.93-1.83-1.84-4.25-2.28-6.56,.1-.12,.2-.23,.29-.33,.41,2.36,1.34,4.85,2.26,6.74,.09,.18-.18,.33-.27,.15Z"/><path class="cls-14" d="M130.59,116.43c0,.13-.02,.26-.03,.38-.99-.41-2.04-.66-3.13-.79-3.02-.36-6.04,.22-9.05,.42-2.99,.2-6.03-.14-8.91,.88-.2,.07-.27-.23-.09-.31,1.59-.64,3.33-.77,5.02-.81,1.56-.04,3.11-.03,4.66-.16,1.66-.14,3.31-.36,4.97-.44,2.18-.11,4.5,.01,6.55,.84Z"/><path class="cls-20" d="M113.48,118.86s-.59,.04-1.4,0c-.23-.01-.81-.07-1.24-.12-.29-.03-1.74,.16-1.61,.6,.44,1.47,9.93,.83,9.93,.83,0,0,10.67-.35,11.02-1.05,.35-.7-2.54-1.14-5.33-1.31-2.48-.15-7.26,1.14-7.26,1.14l-4.11-.09Z"/><path class="cls-11" d="M128.69,118.25c-.43-.13-2.99-.46-3.82-.47-1.63-.02-3.26,.07-4.89,.24-1.61,.17-3.21,.44-4.83,.62-1.44,.16-2.88,.14-4.32,.09-.03,.55-.11,1.4-.33,2.04-.35,1.05-.52,2.45-.52,2.45,3.15,3.15,19.76-.17,19.76-.17,0,0-.7-1.4-.87-2.1-.13-.53,.04-1.87-.18-2.71Z"/><path class="cls-13" d="M119.57,121.02c-.02-.08-.04-.17-.04-.25,0-.05,0-.09,.03-.14,.02,.07,.03,.14,.02,.21,0,.19,.3,.24,.34,.05,.04-.22,.03-.49-.2-.61-.18-.09-.38,0-.48,.16-.24,.42,.08,1.01,.39,1.3,.16,.15,.4-.09,.24-.24-.14-.14-.25-.3-.3-.49Z"/></g><g><path class="cls-9" d="M125.82,140.22l-17.95-8.02-2.05-5.79s.35-.7,1.23-.86c.87-.17,1.93-1.38,1.93-1.38,0,0-.15-3.15,.73-3.14,.87,0,6.64,.75,11.01,.44,4.37-.31,9.28-.8,9.62-.62,.35,.18,.68,2.63,.67,2.98,0,.27,2.28,2.25,3.55,3.2,.41,.31,.71,.51,.8,.51,.04,0,.1,0,.19-.02,.71-.07,2.51,.06,3.28,1.31,.86,1.41-13.02,11.4-13.02,11.4Z"/><path class="cls-7" d="M140.06,128.65c-1.63-.39-3.09-.28-4.65,.25-1.54,.52-3.01,1.26-4.37,2.16-2.81,1.87-5.2,4.93-7.07,7.73-.45,.67,1.11,.97,1.57,.35,1.8-2.41,3.98-4.06,6.47-5.77,2.34-1.61,4.9-4.35,7.82-3.91,.84,.13,1.1-.6,.22-.81Z"/><path class="cls-16" d="M113.7,129.57c-1.82-1.25-4.13-1.82-6.31-1.99-.4-.03-.39,.58,0,.62,2.18,.2,4.05,.95,6.01,1.89,.35,.17,.62-.3,.3-.52Z"/><path class="cls-16" d="M135.56,127.52c-2.1,.41-3.92,1.4-5.92,2.15-2.17,.81-4.49,1.04-6.57,2.09-.37,.19-.7-.35-.33-.56,2.01-1.19,4.41-1.36,6.58-2.14,1.73-.63,3.43-1.64,5.25-2.03,.41,.31,.71,.51,.8,.51,.04,0,.1,0,.19-.02Z"/><path class="cls-16" d="M130.6,123.77c-3.58,.34-7.16,.74-10.75,.99-3.54,.25-7.1,.23-10.56-.64-.2-.05-.28,.25-.08,.3,5.35,1.47,11.03,.68,16.46,.17,1.64-.16,3.29-.31,4.93-.47,.22-.02,.22-.37,0-.35Z"/><g><path class="cls-7" d="M121.77,122.92c-.34,.33-.69,.73-1.13,.88-.08-.08-.16-.15-.24-.21-.21-.15-.46-.27-.72-.25-.15,0-.3,.12-.44,.13,0,0-.01,0-.02,0-.14-.06-.29-.11-.46-.12-.14-.1-.23-.26-.32-.45-.2-.41-.83-.08-.7,.33,.04,.11,.07,.22,.12,.33-.3,.16-.58,.45-.77,.81-.44,.82-.3,1.83-.22,2.71,.11,1.2,.13,2.21-.34,3.34-.18,.43,.41,.95,.72,.5,.51-.73,.65-1.61,.65-2.49,0-1.07-.37-2.26-.09-3.31,.08-.3,.24-.61,.52-.76,.04-.02,.08-.04,.12-.05,.12,.08,.27,.13,.43,.15,.09,.01,.18,0,.27-.02,.04,.02,.08,.04,.13,.06,.34,.15,.64,.28,1,.29,.17,.28,.3,.64,.38,.87,.44,1.24,.6,2.56,.68,3.87,.04,.64,.14,1.34,.06,1.98-.06,.54-.12,1-.08,1.55,.04,.57,.82,.5,.86-.04,.1-1.21,.06-2.42,0-3.63-.05-1.28-.17-2.56-.55-3.79-.11-.34-.24-.7-.42-1.04,.51-.26,.92-.72,1.25-1.19,.28-.41-.36-.79-.68-.48Z"/><path class="cls-17" d="M119.11,123.35c-.35,.09-.64,.34-.8,.65-.11-.13-.21-.26-.28-.42-.07-.16-.34-.08-.27,.09,.12,.3,.31,.61,.58,.79,.14,.09,.25-.09,.18-.21,.13-.3,.37-.51,.68-.62,.18-.06,.09-.33-.09-.28Z"/><path class="cls-17" d="M121.18,124.43c-.26,.17-.48,.3-.8,.3-.19,0-.17,.28,.01,.29,.34,.01,.74-.11,.97-.38,.1-.12-.04-.31-.18-.21Z"/><path class="cls-17" d="M120.43,123.71c-.3,.07-.63,.03-.92,.15-.22,.09-.34,.29-.41,.5-.06,.17,.21,.26,.29,.11,.12-.26,.26-.34,.54-.37,.2-.03,.41-.04,.6-.11,.18-.06,.09-.32-.09-.28Z"/></g></g><g><path class="cls-11" d="M125.3,138.2s5.76-7.01,10.13-8.76c3.14-1.25,12.07-4.72,14.87-5.07,4.2-.52,9.45,5.91,6.3,11.09-3.15,5.18-31.29,2.74-31.29,2.74Z"/><path class="cls-13" d="M140.26,141.95c.18-.67-.02-1.25-.78-1.37-1.16-.18-2.43,0-3.59,.04-2.14,.09-4.37,.27-6.49-.08-2.1-.35-5.53-1.56-7.57-2.32-1.48,1.18-2.96,2.34-4.48,3.46-1.03,.76-2.07,1.48-3.16,2.15-.43,.27-.89,.53-1.32,.83,7.09,.5,12.67,.53,13.73,.43,1.22-.11,3.55-.09,4.76,.06,1.42,.17,2.84,.38,4.26,.6,.65,.1,1.7,.45,2.2-.14,.09-.1,.15-.23,.24-.33,.26-.29,.77-.38,.88-.76,.04-.13,.02-.28,.07-.4,.15-.36,.62-.4,.77-.81,.15-.4,.31-.83,.45-1.24,.01-.04,.02-.08,.03-.11Z"/><path class="cls-11" d="M125.92,137.96c-1.54,1.22-3.09,2.42-4.68,3.56-1.48,1.07-3.33,1.91-4.68,3.2-4.19-.35-8.41-.94-11.62-1.92-.84-.26-1.62-.54-2.31-.85,0,0-14.86-8.39-15.56-14.52-.1-.91-.05-1.73,.14-2.46,1.08-4.16,6.38-5.38,9.65-4.18,3.85,1.4,17.81,11.82,20.29,13.47,2.62,1.75,5.25,3.5,7.17,3.67,.34,.03,1.05-.17,1.05-.17,0,0,.15,.06,.42,.16,.04,.01,.08,.03,.13,.05Z"/><path class="cls-11" d="M156.94,129.44s-1.92-3.32-6.3-2.8c-4.37,.52-16.44,6.47-19.76,8.57-3.32,2.1-9.79,4.37-10.67,4.72-.02,0-.04,.02-.07,.02-.65,.17-1.41,.1-2.08,.08-1.15-.03-2.29-.11-3.44-.21-2.51-.23-4.88-1.08-7.37-1.34-.68-.07-1.39-.04-2.06-.21-.68-.17-1.67-.77-2.29-.24-.47,.4-.49,1.12-.08,1.58,.25,.29,.65,.47,.8,.83,.12,.3,.04,.66,.19,.94,.18,.35,.76,.55,.91,.91,.11,.27,.18,.64,.35,.87,.2,.28,.4,.15,.62,.41,.1,.12,.14,.29,.19,.44,.13,.37,.38,.62,.7,.83,.17,.11,.25,.14,.4,.3,.12,.14,.24,.37,.46,.37,.35,0,10.66-.04,11.89-.35,2.1-.52,4.37-1.4,7.69-1.75,3.32-.35,15.04-.7,22.56-3.5,7.52-2.8,8.92-5.77,7.35-10.49Z"/><path class="cls-13" d="M104.95,142.54c-.03-.38-.33-.64-.46-.98-.13-.36-.06-.74-.17-1.11-.19-.6-.82-.85-.97-1.44-.1-.39,.13-.7,.51-.79,.15-.03,.33,0,.46-.08,.14-.08,.19-.29,.1-.42-.07-.1-.19-.14-.3-.18-1.09-.39-2.35-.7-3.4-1.18-1.08-.5-2.82-1.15-3.87-1.71-.07-.04-.14-.08-.22-.12-2.42-1.29-10.25-5.17-9.37-9.54,0-.02,0-.02-.03-.01-.19,.73-.25,1.55-.14,2.46,.7,6.12,15.56,14.52,15.56,14.52,.69,.31,1.46,.6,2.31,.85,0-.09,.01-.17,0-.26Z"/><path class="cls-13" d="M151.78,126.16c-5.75,.21-10.77,3.16-15.65,5.91-3.64,2.05-7.46,3.73-11.25,5.45-1.72,.78-3.43,1.56-5.12,2.39-2.55,.07-5.05-.14-7.52-.86-1.22-.36-2.38-.8-3.66-.88-.96-.06-1.88-.1-2.81-.25-.18-.03-.36,.08-.4,.26,0,0,0,0,0,0-.05,.2,.08,.39,.28,.43,.8,.14,1.61,.21,2.44,.23,1.47,.04,2.73,.52,4.13,.92,2.58,.73,5.38,1.07,8.06,.8,.2-.02,.31-.18,.32-.34,1.74-.74,3.47-1.53,5.19-2.32,.77-.36,1.55-.71,2.33-1.06,2.59-1.18,5.16-2.38,7.65-3.77,5.01-2.8,10.11-6,16.02-6.22,.45-.02,.45-.71,0-.7Z"/></g></g><path class="cls-3" d="M54.35,73.62s-19,1.08-15.9,4.22c3.1,3.14,8.43,3.92,5.32,5.26-3.11,1.33-20.94,2.24-14.84,6.52,6.1,4.28,60.86,3.5,58.48-1.67-2.38-5.17-30.88-3.61-29.26-6.51s7.44-8.73-3.81-7.8Z"/><path class="cls-4" d="M154.52,16.9s-21.26,.14-19.61,2.76c1.66,2.62,8.42,2.35,7.73,3.59-.69,1.24-36.86,.69-35.48,4.14,1.38,3.45,48.19,0,48.88,1.24,.69,1.24-11.05,4-8.28,5.11,2.76,1.1,33.14,1.1,30.93-.69s-12.84-3.45-10.91-4.42,17.81-2.62,13.95-4.28c-3.87-1.66-34.24-.97-31.07-2.07,3.18-1.1,13.12-3.18,3.87-5.38Z"/></g></svg>