<?xml version="1.0" encoding="UTF-8"?><svg xmlns="http://www.w3.org/2000/svg" xmlns:xlink="http://www.w3.org/1999/xlink" viewBox="0 0 871.92 789.33"><defs><style>.cls-1{fill:url(#linear-gradient-2);}.cls-2{fill:#0a49a1;}.cls-3,.cls-4{fill:#fff;}.cls-5{fill:#fde466;}.cls-6{fill:#ae7f6e;}.cls-7{fill:url(#linear-gradient-6);}.cls-8{isolation:isolate;}.cls-9{fill:#e9a84a;}.cls-10{fill:#34eef7;}.cls-11{fill:#00becf;}.cls-12{fill:#da8438;}.cls-13{fill:url(#linear-gradient-11);}.cls-14{fill:#1b4d82;}.cls-15{fill:url(#linear-gradient-10);}.cls-16{fill:#3a6194;opacity:.35;}.cls-16,.cls-17,.cls-18,.cls-19{mix-blend-mode:multiply;}.cls-20{fill:#e0eff8;}.cls-21{fill:#23282c;}.cls-22{fill:#fdc25f;}.cls-23{fill:#a16058;}.cls-4{opacity:.64;}.cls-24{fill:#4d3d36;}.cls-25{fill:url(#linear-gradient-5);}.cls-26{fill:#2c64af;}.cls-27{fill:url(#linear-gradient-7);}.cls-17{fill:#525d68;opacity:.43;}.cls-28{fill:#c6807b;}.cls-29{fill:url(#linear-gradient-9);}.cls-30{fill:url(#linear-gradient-3);}.cls-31{fill:#4b4343;}.cls-32{fill:url(#linear-gradient);}.cls-18{opacity:.54;}.cls-18,.cls-19{fill:#99a6bc;}.cls-33{fill:#55423a;}.cls-19{opacity:.3;}.cls-34{fill:url(#linear-gradient-4);}.cls-35{fill:url(#linear-gradient-8);}</style><linearGradient id="linear-gradient" x1="383.53" y1="493.32" x2="459.39" y2="493.32" gradientUnits="userSpaceOnUse"><stop offset="0" stop-color="#f8a79a"/><stop offset="1" stop-color="#d88679"/></linearGradient><linearGradient id="linear-gradient-2" x1="467.61" y1="665.23" x2="432.38" y2="415.53" gradientUnits="userSpaceOnUse"><stop offset="0" stop-color="#7f7878"/><stop offset="1" stop-color="#433f3f"/></linearGradient><linearGradient id="linear-gradient-3" x1="574.16" y1="650.2" x2="538.94" y2="400.5" xlink:href="#linear-gradient-2"/><linearGradient id="linear-gradient-4" x1="615.45" y1="231.72" x2="694.81" y2="231.72" gradientTransform="translate(-112.86 174.32) rotate(7.89)" xlink:href="#linear-gradient"/><linearGradient id="linear-gradient-5" x1="194.4" y1="397.65" x2="260.45" y2="397.65" xlink:href="#linear-gradient"/><linearGradient id="linear-gradient-6" x1="470.99" y1="149.82" x2="489.4" y2="145.02" xlink:href="#linear-gradient"/><linearGradient id="linear-gradient-7" x1="-2869.41" y1="379.35" x2="-2851" y2="374.55" gradientTransform="translate(-2491.23 146.89) rotate(172.55) scale(1 -1)" xlink:href="#linear-gradient"/><linearGradient id="linear-gradient-8" x1="443.38" y1="174.27" x2="442.86" y2="215.21" xlink:href="#linear-gradient"/><linearGradient id="linear-gradient-9" x1="437.3" y1="89.42" x2="440.17" y2="390.25" xlink:href="#linear-gradient"/><linearGradient id="linear-gradient-10" x1="385.91" y1="676.75" x2="350.69" y2="427.06" xlink:href="#linear-gradient-2"/><linearGradient id="linear-gradient-11" x1="628.29" y1="397.65" x2="694.34" y2="397.65" xlink:href="#linear-gradient"/></defs><g class="cls-8"><g id="Layer_1"><g><ellipse class="cls-18" cx="435.96" cy="776.87" rx="435.96" ry="12.47"/><g><g><polygon class="cls-21" points="106.45 514.65 15.09 776.87 28.29 776.87 139.68 521.4 106.45 514.65"/><polygon class="cls-21" points="768.27 514.65 859.63 776.87 846.43 776.87 735.04 521.4 768.27 514.65"/><rect class="cls-6" x="77.39" y="489.13" width="719.94" height="41.03"/><path class="cls-21" d="M768.25,539.93l-23.72,3.22-323.61,43.87-293.88-36.59-22.38-2.78-1.71,13.69,18.34,2.28,246.19,30.64-275.87,37.41-19.86,2.69,1.85,13.67,11.57-1.56,335.83-45.53,368.75,45.9,17.91,2.23-39.4-109.13Zm-293.8,53.76l275.81-37.41,8.81-1.19,27.97,77.5-3.71-.46-308.88-38.44Z"/></g><polygon class="cls-22" points="194.64 437.5 194.64 457.68 91.48 462.73 82.75 463.15 66.81 463.93 66.81 436.1 82.75 436.28 91.48 436.37 194.64 437.5"/><polygon class="cls-12" points="91.48 436.37 91.48 462.73 82.75 463.15 82.75 436.28 91.48 436.37"/><path class="cls-10" d="M209.93,453.61v35.52H54.79v-25.97c7.73,0,79.27-4.59,122.45-7.41,3.89-.25,7.56-.49,10.92-.71,13.16-.87,21.76-1.43,21.76-1.43Z"/><rect class="cls-5" x="59.79" y="416.13" width="125.41" height="21.37"/><path class="cls-11" d="M188.17,455.04v34.09h-10.92v-33.38c3.89-.25,7.56-.49,10.92-.71Z"/><rect class="cls-9" x="163.23" y="416.13" width="8.6" height="21.37"/><rect class="cls-3" x="104.32" y="377.47" width="33.78" height="38.66"/><path class="cls-3" d="M141.51,410.19h-10.79v-6.08h10.79c2.47,0,4.47-2.01,4.47-4.47v-7.37c0-2.47-2.01-4.47-4.47-4.47h-6.28v-6.08h6.28c5.82,0,10.55,4.73,10.55,10.55v7.37c0,5.82-4.73,10.55-10.55,10.55Z"/><path class="cls-4" d="M126.15,365.06c.34-.55,.53-1.15,.53-1.79,0-1.78-1.48-3.32-3.61-4.05,.85-.54,1.38-1.31,1.38-2.18,0-1.62-1.86-2.93-4.16-2.93s-4.16,1.31-4.16,2.93c0,.87,.54,1.64,1.38,2.18-2.14,.73-3.61,2.27-3.61,4.05s1.35,3.19,3.35,3.96c-1.08,.82-1.71,1.82-1.71,2.9,0,2.82,4.3,5.1,9.6,5.1s9.6-2.29,9.6-5.1c0-2.64-3.76-4.8-8.58-5.08Z"/><polygon class="cls-10" points="724.77 366.61 724.77 489.13 706.62 489.13 706.27 477.3 705.95 466.54 702.99 366.61 724.77 366.61"/><polygon class="cls-22" points="752.6 356.22 747.57 466.54 747.08 477.3 746.55 489.13 724.77 489.13 724.77 356.22 752.6 356.22"/><polygon class="cls-10" points="801.93 366.62 798.43 466.54 798.16 474.31 798.05 477.3 797.64 489.13 779.49 489.13 779.14 477.34 779.14 477.3 778.82 466.54 778.82 466.51 775.85 366.62 801.93 366.62"/><polygon class="cls-5" points="781.24 489.13 746.55 489.13 746.71 477.34 746.86 466.5 748.6 339.86 779.85 339.86 781.03 466.5 781.13 477.34 781.24 489.13"/><path class="cls-11" d="M731.27,477.3h-25l-.32-10.75h24.62c.25,3.83,.48,7.44,.7,10.75Z"/><path class="cls-26" d="M798.16,474.31l-.1,2.99h-24.7l-.31-10.76h24.61c.17,2.71,.34,5.3,.5,7.77Z"/><polygon class="cls-11" points="798.43 466.54 798.16 474.31 798.05 477.3 779.81 477.3 779.49 466.54 798.43 466.54"/><path class="cls-12" d="M754.2,477.3h-29.43v-10.75h28.73c.25,3.83,.48,7.44,.7,10.75Z"/><polygon class="cls-9" points="781.13 477.34 746.71 477.34 746.86 466.5 781.03 466.5 781.13 477.34"/><path class="cls-19" d="M644.58,495.15c0,9.46-91.07,17.13-203.41,17.13s-203.41-7.67-203.41-17.13c0-2.12,4.55-4.14,12.9-6.02h381.02c8.34,1.88,12.9,3.9,12.9,6.02Z"/><g><path class="cls-32" d="M439.49,477.73c-2.49-1.21-5.16,1.11-7.01,3.17-2.29,2.55-4.68,5.02-7.15,7.39-1.88,1.8-3.88,3.6-6.32,4.5-2.23,.83-4.67,.86-7.04,1.03-9.57,.7-18.94,3.98-26.85,9.4-.58,.4-1.19,.85-1.45,1.5-.62,1.57,1.05,3.1,2.63,3.69,4.02,1.49,8.48,.64,12.68-.23,21.01-4.36,42.62-8.96,60.42-20.94l-19.9-9.52Z"/><polygon class="cls-1" points="305.27 431.12 423.03 405.34 528.82 418.16 563.67 429.52 472.43 488.43 421.96 477.59 327.37 448.76 305.27 431.12"/><path class="cls-17" d="M544.3,427.62s-29.17-4.55-92.93,38.07l-3.63,2.36,6.28,3.14,18.67-9.88,76.25-32.77-4.65-.93Z"/><path class="cls-30" d="M655.63,424.08c-.35,2.59-2.51,4.51-4.57,6.13-8.27,6.51-41.27,17.27-49.49,20.43-47.08,18.11-56.61,25.19-137.95,34.66-5.15,.6-9.94,3.46-15.11,3.07-5.17-.37-10.5-3.43-11.89-8.42-.25-.88-.36-1.85-.02-2.71,.44-1.12,1.55-1.8,2.59-2.41,2.5-1.48,4.99-2.95,7.48-4.43,25.26-14.95,44.85-21.43,68.4-32.43,16.21-7.57,29.23-10.36,27.35-10.4l-52.36-14.08c3.34-.78,6.84-1.55,10.45-2.3,38.65-8.12,91.42-14.89,128.1-13.77,3.88,.12,7.91,.32,11.33,2.14,3.34,1.76,5.74,4.87,7.85,7.99,2.33,3.44,4.43,7.02,6.31,10.73,.32,.63,.63,1.29,.89,1.95h0c.49,1.25,.8,2.54,.62,3.84Z"/><path class="cls-17" d="M349.16,434.2l1.34-1.08s41.37,10.34,58.9,17.46c30.43,12.35,64.03,30.75,64.03,30.75,0,0-16.08,8.81-16.56,8.1-4.8-7.14-31.68-6.68-31.68-6.68l-37.46-8.77-48.82-16.29,10.26-23.5Z"/><path class="cls-34" d="M469.45,480.58c5.7-2.18,11.88-3.65,17.91-2.68,6.03,.97,11.87,4.8,13.89,10.56,.54,1.55,.82,3.23,1.72,4.6,1.64,2.49,4.86,3.33,7.79,3.87,10.84,1.98,22.81,2.9,31.07,9.99,.73,.63,.61,1.85-.28,2.23-1.05,.46-2.38,.49-3.56,.45-4.46-.16-8.93-.33-13.39-.49-6.19-.23-12.41-.46-18.5-1.56-14.86-2.68-28.28-10.37-41.35-17.94l4.7-9.04Z"/><path class="cls-17" d="M655,420.24c-.51-.51-16.99-16.83-46.3-17.19-29.77-.37-108.12,9.21-108.12,9.21l-.06-1.06c38.65-8.12,91.42-14.89,128.1-13.77,3.88,.12,7.91,.32,11.33,2.14,3.34,1.76,5.74,4.87,7.85,7.99,2.33,3.44,4.43,7.02,6.31,10.73,.32,.63,.63,1.29,.89,1.95Z"/><path class="cls-25" d="M260.45,399.43c-8.7,6.44-19.18,9.92-29.51,13.17-11.27,3.56-23.11,7.01-34.74,4.91-.38-.07-.77-.15-1.09-.36-1.05-.69-.82-2.33-.15-3.39,2.1-3.32,6.54-4.02,10.43-4.57,9.36-1.33,18.59-3.62,27.49-6.83-5.42,.89-11.07,.35-16.22-1.55-3-1.11-6.17-3.12-6.63-6.29-.3-2.12,.72-4.19,1.8-6.04,1.23-2.12,2.62-4.21,4.52-5.75,1.39-1.13,3.16-1.97,4.94-1.73s3.43,1.86,3.21,3.64c-.12,1.04-.81,1.92-1.11,2.92-.61,2.08,.63,4.38,2.45,5.56,1.82,1.18,4.08,1.46,6.25,1.49,1.05,.01,2.14-.04,3.11-.44,2.68-1.11,3.52-5.16,1.5-7.25-1.01-1.04-2.45-1.53-3.7-2.26-1.26-.73-2.45-1.95-2.35-3.39,.08-1.13,.94-2.06,1.89-2.69,2.16-1.45,4.99-1.83,7.46-1.01,2.46,.82,4.5,2.84,5.35,5.29,1.04,2.98,.36,6.32,1.2,9.37,.34,1.21,1.02,2.46,2.2,2.88,.88,.32,1.86,.12,2.77-.09,2.9-.68,5.78-1.49,8.61-2.43l.29,6.84Z"/><path class="cls-7" d="M478.1,132.43c1.56-3.37,5.8-5.24,9.34-4.11,.68,.22,1.34,.54,1.8,1.08,1.17,1.36,.63,3.43,.08,5.14-1.45,4.56-2.46,9.25-3.02,14-.43,3.65-.61,7.4-1.92,10.84-1.3,3.44-4.02,6.62-7.64,7.28l1.36-34.23Z"/><path class="cls-27" d="M393.94,134.86c-1.98-3.14-6.43-4.45-9.79-2.87-.64,.3-1.26,.71-1.65,1.3-.98,1.5-.18,3.48,.58,5.11,2.03,4.33,3.64,8.85,4.81,13.49,.9,3.57,1.56,7.26,3.3,10.5,1.74,3.24,4.85,6.04,8.52,6.23l-5.78-33.76Z"/><path class="cls-24" d="M393.18,143.77c-2.36-7.09-3.85-14.46-4.42-21.89-1.73,2.06-3.13,4.39-4.12,6.88-8.18-6.08-7-17.14-4.34-26.81-3.69,3.26-6.7,7.26-8.79,11.67-3.66-8-.59-17.7,5.22-24.4,5.81-6.69,13.92-11.01,21.84-15.19-3.71-2.71-7.21-5.68-10.49-8.87,4.43-2.06,9.66-2.43,14.35-1.01-2.25-2.83-4.45-5.8-5.52-9.23-1.07-3.43-.83-7.43,1.47-10.22,2.33,5.9,19.03,19.04,19.03,19.04h0c-4.18-9.26-6.47-19.27-6.32-29.39,.04-2.91,.25-5.82,.63-8.72,.74-5.68,2.17-11.39,5.33-16.22,3.15-4.83,8.24-8.7,14.08-9.41-3.92,4.39-5.24,10.55-4.68,16.33,.56,5.78,2.81,11.28,5.35,16.54-1.62-6.16,3.27-13.16,9.76-13.96-4.93,7.5-4.5,17.97,1.01,25.07,.23-4.08,2.64-7.99,6.24-10.12-1.83,5.25-.39,11.45,3.58,15.42,.24-3.4,.49-6.86,1.78-10.03,1.28-3.17,3.79-6.06,7.16-6.98,.18,9.41,2.49,18.78,6.73,27.24,.95,1.9,1.89,4.04,3.72,5.16,16.29,10,16.32,22.46,16.74,30.26,.28,5.08,.2,10.46-2.24,14.99,1.95,.73,3.22,2.69,3.56,4.7,.34,2.01-.1,4.07-.75,6-1.63,4.91-4.56,9.41-8.42,12.95l-87.47,10.21Z"/><path class="cls-35" d="M456.31,204.85c-.58,10.77,1.43,21.68,5.82,31.53-6.18,.12-16.31,25.22-22.49,25.34-6.86,.14-9.76-24.7-16.61-24.57,1.65-12.51,2.39-25.14,2.21-37.76,4.6,.72,9.2,1.44,13.8,2.15,2.14,.33,4.3,.67,6.46,.63,3.33-.05,6.65-1,9.5-2.72-.87,2.33-1.35,4.8-1.43,7.28l2.74-1.89Z"/><path class="cls-29" d="M439.34,71.42c-16.02-3.59-33.94,4.63-41.68,19.11-3.75,7.03-5.2,15.07-5.69,23.02-.82,13.31,.88,26.64,2.75,39.84,1.31,9.27,2.77,18.72,7.02,27.06,8.2,16.1,21.02,24.86,37.04,33.22,1.5,.78,3.38,1.89,5.09,1.36,2.13-.66,4.44-2.99,6.24-4.29,9.09-6.55,14.76-11.31,21.38-20.58,6.14-8.58,11.95-21.09,11.46-31.62-.88-18.79,2.4-39.76-1.37-58.19-1.36-6.65-9.91-11.13-14.22-16.37-3.29-4.01-8.11-6.72-13.25-7.45l-14.79-5.12Z"/><path class="cls-15" d="M474.16,485.22c-1.39,4.99,.24,9.88-18.49,7.45-45.61-5.92-116.09-18.06-163.18-36.17-8.23-3.16-44.33-13.93-52.58-20.43-2.06-1.62-4.21-3.54-4.57-6.14-.27-2.01,.61-3.98,1.52-5.78,.74-1.46,1.51-2.9,2.33-4.33,1.23-2.18,2.57-4.32,3.97-6.4,2.11-3.13,4.52-6.23,7.85-7.99,.26-.14,.53-.26,.8-.37,3.25-1.46,6.95-1.66,10.54-1.77,25.39-.77,58.56,.27,89.4,3.44,14.01,1.44,27.54,3.32,39.64,5.67,3.34,.65,6.57,1.33,9.67,2.05l-49.43,18.98c12.8,8.16,28.44,12.1,41.96,17.13,23.75,8.83,46.78,17.09,78.01,29.53,1.12,.45,2.14,1.3,2.58,2.42,.34,.86,.23,1.83-.02,2.71Z"/><path class="cls-17" d="M391.98,412.84s-34.21-4.37-62.68-4.75c-34.36-.45-57.04,.62-71.52,4.12-6.7,1.62-13.7,4.52-18.59,7.6,1.23-2.18,2.57-4.32,3.97-6.4,2.11-3.13,4.52-6.23,7.85-7.99,3.43-1.82,7.58-1.18,11.34-2.14,25.39-.77,58.56,.27,89.4,3.44,14.01,1.44,27.54,3.32,39.64,5.67,.2,.14,.39,.29,.59,.44Z"/><path class="cls-13" d="M628.29,399.43c8.7,6.44,19.18,9.92,29.51,13.17,11.27,3.56,23.11,7.01,34.74,4.91,.38-.07,.77-.15,1.09-.36,1.05-.69,.82-2.33,.15-3.39-2.1-3.32-6.54-4.02-10.43-4.57-9.36-1.33-18.59-3.62-27.49-6.83,5.42,.89,11.07,.35,16.22-1.55,3-1.11,6.17-3.12,6.63-6.29,.3-2.12-.72-4.19-1.8-6.04-1.23-2.12-2.62-4.21-4.52-5.75-1.39-1.13-3.16-1.97-4.94-1.73-1.78,.24-3.43,1.86-3.21,3.64,.12,1.04,.81,1.92,1.11,2.92,.61,2.08-.63,4.38-2.45,5.56-1.82,1.18-4.08,1.46-6.25,1.49-1.05,.01-2.14-.04-3.11-.44-2.68-1.11-3.52-5.16-1.5-7.25,1.01-1.04,2.45-1.53,3.7-2.26,1.26-.73,2.45-1.95,2.35-3.39-.08-1.13-.94-2.06-1.89-2.69-2.16-1.45-4.99-1.83-7.46-1.01-2.46,.82-4.5,2.84-5.35,5.29-1.04,2.98-.36,6.32-1.2,9.37-.34,1.21-1.02,2.46-2.2,2.88-.88,.32-1.86,.12-2.77-.09-2.9-.68-5.78-1.49-8.61-2.43l-.29,6.84Z"/><path class="cls-17" d="M393.31,411.43l-1.33,1.41-3.69-.45s1.89,10.81,22.98,11.82c21.09,1.01,24.85-2.6,54.17-.72,29.32,1.88,40.54-11.88,40.54-11.88l-6.54,.81-18.83-5.1-41.75-3.18-31.06,7.29h-14.49Z"/><path class="cls-2" d="M638.94,388.95c-1.27,5.34-3.51,11.6-5.85,15.88-.37,.69-1.16,1.04-1.92,.85-5.36-1.3-10.5-3.26-15.55-5.53-7.41-3.32-14.59-7.3-21.94-10.78-12.7-6.03-26.02-10.62-39.16-15.62-2.22-.84-4.48-1.72-6.27-3.29-1.4-1.22-2.45-2.79-3.46-4.34-12.3-18.98-36.35-51.97-44.87-63.58-.87-1.19-2.78-.52-2.68,.97,.74,11.63,.47,24.09-1.08,35.66-.26,1.98-.56,3.93-.9,5.85-.09,.52-.2,1.05-.33,1.57h0c-.3,1.19-.81,2.3-1.87,3.06-.49,.36-.91,.83-1.16,1.38-1.72,3.8,6.18,4.33,5.14,7.83-.17,.58-.57,1.05-1.05,1.41l-7.73,5.71c-1.05,.78-.64,2.44,.66,2.64,2.11,.33,4.96-.33,6.49,1.21,.74,.74,.98,1.84,1.18,2.87,.36,1.83,.72,3.67,1.08,5.5,0,.02,0,.03,.02,.05,.41,2.06,.8,4.11,1.21,6.17,1.25,6.35,2.5,12.71,3.75,19.06,.2,1.06,.41,2.13,.62,3.19,.29,1.46,.52,3.14-.43,4.28-.56,.68-1.43,1.01-2.26,1.3-8.51,3.11-17.1,6.24-26.09,7.35-12.17,1.51-24.46-.74-36.72-.88-6.76-.09-20.51,2.07-27.25,1.4-6.73-.67-13.56-2.71-18.55-7.28-.52-.48-1.05-1.03-1.16-1.72-.12-.77,.3-1.51,.71-2.19,1.85-2.99,3.79-5.91,5.81-8.76,.02-.02,.02-.02,.02-.02,.15-.22,.3-.43,.45-.64,.49-.7,.3-1.65-.41-2.12-.69-.47-1.26-1.12-1.66-1.88h0c-.94-1.76-1.07-4.07-.15-5.88,1.32-2.6,4.11-4.11,7.02-4.6,.02,0,.03,0,.03,0,.55-.12,.67-.87,.17-1.15-2.28-1.26-4.99-1.97-6.2-4.09,0,0,0,0,0,0-.17-.3-.3-.62-.41-.97-.09-.3-.13-.61-.15-.92-.02-.16-.02-.31,0-.46,.1-3.13,.26-5.92,.43-8.48,.66-9.78,1.58-16.19,1.12-25.19-.55-10.52-2.6-20.92-5.36-31.09-.82-3.03-2.12-8.65-2.74-11.41-.16-.69-1.02-.94-1.51-.43-18.3,18.76-29.73,43.23-44.04,65.31-1.01,1.55-2.05,3.12-3.46,4.34-1.79,1.56-4.05,2.44-6.27,3.29-13.13,4.99-26.45,9.59-39.16,15.62-6.99,3.32-13.85,7.09-20.88,10.31-5.35,2.46-10.82,4.6-16.52,5.99-.8,.2-1.65-.18-2.04-.91-2.56-4.82-4.92-12.32-6.04-18.06-.31-1.58,1.32-2.83,2.77-2.13,1.11,.54,2.6,2.08,3.92,3.04,.87,.64,2.13,.2,2.39-.86,.57-2.33,1.85-6.24,4.01-6.03,.37,.04,.74,.12,1.1,.23,2.11,.66,3.75,2.58,4.14,4.74,.08,.41,.51,.62,.87,.41,17.56-10.21,34.84-20.92,51.8-32.09,5.16-3.4,10.38-6.91,14.27-11.71,3.82-4.72,6.18-10.43,8.34-16.12,2.97-7.8,5.67-15.72,8.09-23.72,4.35-14.35,7.86-29.12,14.81-42.41,1.02-1.96,2.15-3.92,3.82-5.37,1.81-1.58,4.11-2.45,6.35-3.29,12.85-4.79,25.71-9.58,38.56-14.37l21.1,11.5,14.13-.81,23.88-10.69c12.85,4.78,25.71,9.58,38.56,14.37,2.25,.84,4.54,1.71,6.35,3.29,1.66,1.45,2.79,3.41,3.82,5.37,6.95,13.29,10.47,28.06,14.81,42.41,2.42,8,5.12,15.91,8.09,23.72,2.15,5.68,4.51,11.39,8.34,16.12,3.89,4.8,9.12,8.31,14.27,11.71,17.21,11.34,34.75,22.2,52.57,32.55,0-.4,.06-.8,.16-1.18,.49-2.03,2.07-3.79,4.07-4.42,1.58-.49,3.33-.25,4.77,.55,1.2,.67,1.85,2.02,1.71,3.39,0,.03,0,.06,0,.09,0,.6,.56,1.08,1.17,.94l2.79-.59c2.15-.46,4.03,1.48,3.52,3.61Z"/><path class="cls-28" d="M434.86,163.85c1.44,1.04,3.41,1.29,5.15,1.33,1.73,.04,3.76-.25,5.33-1.01,.72-.35,1.68-1.09,1.68-1.96,0-1.04-.85-1.59-1.79-1.18-.17,.07-.27,.17-.42,.27,.05-.04,.14-.08-.08,.05-.04,.03-.35,.16-.21,.11-.36,.14-.73,.29-1.1,.41-.76,.25-1.56,.45-2.35,.56-.95,.12-1.92,.17-2.88,.12-.97-.06-1.94-.21-2.91-.22-.88-.01-1.04,1.09-.42,1.53h0Z"/><path class="cls-23" d="M432.86,179.1c.86,2.4,2.44,4.52,4.1,6.42,1.64,1.86,3.75,3.07,6.3,2.81,2.33-.24,4.42-1.5,5.85-3.34,1.01-1.3,3.26-4.98,.79-5.96-.44-.18-.86,.2-1.01,.57-.16,.42-.03,.78-.08,1.21-.05,.42-.24,.83-.44,1.19-.41,.75-.92,1.42-1.51,2.04-1.24,1.31-2.83,2.19-4.67,2.13-1.94-.07-3.25-1.43-4.45-2.8-1.38-1.57-2.7-3.23-4.27-4.62-.25-.22-.74-.01-.61,.36h0Z"/><path class="cls-24" d="M472.37,124.57c.18,.14,.45,.13,.61-.03,.67-.66,.77-1.77,.4-2.69-.43-1.05-1.33-1.88-2.25-2.62-3.53-2.83-7.74-4.89-12.16-6.01-2.19-.56-4.5-.89-6.65-.42-1.08,.24-2.12,.71-2.95,1.38-1.09,.88-1.74,3.62-1.74,3.62-.1,.64-.12,1.39,.39,1.86,.62,.57,1.6,.38,2.4,.17,3.82-1.01,7.87-1.6,11.88-.94,3.5,.58,8.8,4.66,10.08,5.68Z"/><path class="cls-24" d="M397.32,126.81c-.18,.15-.45,.13-.61-.03-.67-.66-.77-1.77-.4-2.69,.43-1.05,1.33-1.88,2.25-2.62,3.53-2.83,7.74-4.89,12.16-6.01,2.19-.56,4.5-.89,6.65-.42,1.08,.24,2.12,.71,2.95,1.38,1.09,.88,1.74,3.62,1.74,3.62,.1,.64,.12,1.39-.39,1.86-.62,.57-1.6,.38-2.4,.17-3.82-1.01-7.87-1.6-11.88-.94-3.5,.58-8.8,4.66-10.08,5.68Z"/><path class="cls-31" d="M424.06,140.09c-.55,.5-.83,1.34-1.14,2.01-.36,.78-.76,1.54-1.27,2.24-1,1.38-2.44,2.35-4.16,2.49-1.77,.14-3.46-.4-4.93-1.37-1.37-.9-2.7-2.12-3.17-3.72,0-.02,0-.04,0-.05,0-.47-.33-.78-.68-1.04-.74-.54-1.94,.18-1.86,1.07,.2,2.44,2.02,4.36,3.93,5.71,1.88,1.33,4.24,2.16,6.56,1.89,2.27-.27,4.22-1.4,5.54-3.27,.61-.86,1.05-1.83,1.43-2.81,.33-.87,.75-1.99,.55-2.92-.08-.38-.56-.45-.82-.22Z"/><path class="cls-31" d="M453.68,140.09c.55,.5,.83,1.34,1.14,2.01,.36,.78,.76,1.54,1.27,2.24,1,1.38,2.44,2.35,4.16,2.49,1.77,.14,3.46-.4,4.93-1.37,1.37-.9,2.7-2.12,3.17-3.72,0-.02,0-.04,0-.05,0-.47,.33-.78,.68-1.04,.74-.54,1.94,.18,1.86,1.07-.2,2.44-2.02,4.36-3.93,5.71-1.88,1.33-4.24,2.16-6.56,1.89-2.27-.27-4.22-1.4-5.54-3.27-.61-.86-1.05-1.83-1.43-2.81-.33-.87-.75-1.99-.55-2.92,.08-.38,.56-.45,.82-.22Z"/><path class="cls-31" d="M446.3,139.52c-.12,1-.22,2.01-.33,3.01-.31,.17-.61,.33-.92,.48-.15,.07-.3,.14-.44,.21-1.51,.68-3.08,1.08-4.66,1.27-2.38,.29-5.01,.08-7.36-1.01-.48-.22-.95-.48-1.4-.78-.08-.62-.15-1.23-.23-1.85,.48,.21,.96,.41,1.44,.57,2.36,.85,4.76,1.18,7.26,.84,1.63-.22,3.25-.74,4.78-1.52,.12-.06,.26-.13,.37-.21,.52-.29,1.01-.64,1.48-1.01Z"/><path class="cls-31" d="M432.12,145.43c0-.22,0-.44,0-.66,0-.69-.02-1.38-.03-2.07-.02-1.51-.05-3.02-.13-4.53-.05-.97-.42-1.87-1.51-2.21-.9-.27-2-.16-2.94-.19-1.25-.05-2.5-.1-3.74-.17-4.8-.25-9.6-.61-14.37-1.08-2.35-.24-4.71-.49-7.06-.79-1.84-.23-3.91-.76-5.73-.26-1.95,.54-2.57,2.21-2.69,3.94-.15,2.28-.23,4.58-.28,6.87-.04,2.07-.26,4.34,.32,6.37,.47,1.61,1.43,3.01,2.75,4.13,2.75,2.34,6.35,3.27,9.91,3.95,4.25,.81,8.55,1.33,12.86,.96,2.06-.18,4.08-.57,6.03-1.2,2.27-.73,4.03-1.8,5.13-2.91,.21-.22,.39-.47,.52-.74,1.34-2.78,.99-6.58,.94-9.42Zm-6.57,10.39c-1.5,.64-3.15,.95-4.79,1.21-3.27,.52-6.61,.37-9.89-.05-3.28-.42-6.74-.92-9.76-2.26-3.06-1.36-4.91-3.54-5-6.73-.06-2,0-4.01,.02-6.02,.02-1.02,.04-2.05,.07-3.07,.03-.84-.11-1.89,.24-2.67,.65-1.44,3.15-.8,4.42-.65,2.08,.23,4.15,.44,6.24,.62,4.18,.37,8.38,.65,12.58,.83,2.11,.09,4.24,.16,6.35,.21,.98,.02,1.95,.04,2.93,.05,.66,0,1.32-.06,1.5,.65,.18,.7,.1,1.54,.14,2.26,.04,.61,.06,1.23,.09,1.84,.03,.62,.06,1.24,.09,1.86,0,.21,.02,.42,.03,.63,.07,1.68,.22,3.36,.18,5.04-.1,4.08-1.9,4.77-5.44,6.28Z"/><path class="cls-20" d="M448.92,236.58c.63,5.6,.69,8.07-.55,13.15-.14,.56,.4,1.07,.95,.87,7.65-2.72,14.87-6.65,21.3-11.6,.54-.41,1.08-.85,1.39-1.46,.25-.5,.31-1.06,.37-1.62,.38-3.65,.71-7.57-.75-10.86-.28-.62-1.04-.86-1.63-.52-5.04,2.86-10.13,5.64-15.26,8.33-1.37,.72-5.58,2.27-5.74,2.95l-.04,.17c-.04,.19-.06,.38-.03,.58Z"/><path class="cls-20" d="M436.85,236.43c-.56,5.61-.58,8.07,.73,13.14,.15,.56-.39,1.07-.94,.89-7.69-2.62-14.96-6.45-21.46-11.31-.54-.41-1.1-.84-1.41-1.44-.26-.49-.33-1.06-.39-1.61-.43-3.64-.81-7.56,.61-10.87,.27-.62,1.03-.87,1.62-.54,5.08,2.79,10.21,5.5,15.37,8.12,1.38,.7,5.61,2.2,5.78,2.88l.04,.17c.05,.19,.06,.38,.04,.57Z"/><path class="cls-24" d="M393.22,142.07c-1.51-8.7-1.43-20.35,2.06-28.46,3.49-8.11,9.09-15.24,15.83-20.96,1.65-1.4,3.42-2.75,5.49-3.4,3.95-1.24,8.17,.25,12.15,1.39,6.12,1.75,12.47,2.7,18.83,2.81,3.97,.07,19.25,.29,22.03-2.54,1.72,10.56,6.03,17.71,9.6,29.95,3.45,11.84,1.12,17.12,3.82,19.09,.61-10.3,1.11-33.14,.42-43.44-.25-3.82-7.71-9.51-8.14-13.32-.43-3.81-1.66-7.69-4.38-10.39-1.64-1.63-3.74-2.73-5.89-3.58-3.92-1.54-8.09-2.3-12.25-2.93-4.72-.72-9.47-1.29-14.23-1.71-2.55-.23-5.13-.41-7.67-.12-2.76,.31-5.43,1.18-8.08,2.04-3.4,1.1-6.81,2.21-10.01,3.79-2.75,1.36-5.33,3.05-7.89,4.74-4.7,3.12-9.61,6.52-11.97,11.65-1.52,3.31-1.81,7.02-2.71,10.55-.79,3.1-2.05,6.07-2.74,9.2-.69,3.13-.75,6.55,.77,9.37l4.95,26.27Z"/><path class="cls-14" d="M441.57,251.93c-17.66,0-30.63-13.04-31.21-13.64-.7-.72-.69-1.87,.03-2.58,.72-.7,1.87-.69,2.58,.03,.17,.17,14.3,14.33,32.12,12.35,17.99-1.99,27.39-12.19,27.49-12.29,.67-.75,1.83-.8,2.57-.13,.75,.67,.81,1.82,.14,2.57-.41,.46-10.36,11.32-29.79,13.48-1.33,.15-2.63,.22-3.92,.22Z"/><path class="cls-16" d="M407.78,387.37c-6.3,1.8-12.17,6.33-12.03,8.12-.94-1.75-1.07-4.06-.15-5.87,1.32-2.6,4.11-4.11,7.02-4.6,.02,0,.03,0,.03,0,.55-.12,.67-.87,.17-1.15-2.28-1.26-4.99-1.97-6.2-4.09,0,0,0,0,0,0-.17-.3-.3-.62-.41-.97-.09-.3-.13-.61-.15-.92-.02-.16-.02-.31,0-.46,.1-3.13,.26-5.92,.43-8.48,1.56,3.29,3.77,7.58,6.56,9.4,5.11,3.32,7.14,3.15,9.79,3.32,2.64,.18,1.26,3.9-5.04,5.71Z"/><path class="cls-16" d="M502.84,410.95c-.56,.68-1.43,1.01-2.26,1.3-8.51,3.11-17.1,6.24-26.09,7.35-12.17,1.51-24.46-.74-36.72-.88-6.76-.09-20.51,2.07-27.25,1.4-6.73-.67-13.56-2.71-18.55-7.28-.52-.48-1.05-1.03-1.16-1.72-.12-.77,.3-1.51,.71-2.19,1.85-2.99,3.79-5.91,5.81-8.76-.25,.52-4.62,9.58,.35,12.69,5.12,3.2,16.25,5.92,31.74,3.76,15.48-2.16,28.1,1.31,38.78,.77,10.68-.53,32.9-5.57,34.34-13.5,.02-.14,.05-.28,.09-.41,.2,1.06,.41,2.13,.62,3.19,.29,1.46,.52,3.14-.43,4.28Z"/><path class="cls-16" d="M498.9,384.43c-.12,.24-.19,.42-.16,.55-2.64-9.76-15.75-11.07-18.63-15.31-2.89-4.24,10.54-7.92,6.88-11.12-3.65-3.2-2.24-7.3-.48-8.41,3.76-2.37,7.36-7.34,9.67-10.97-.26,1.98-.56,3.93-.9,5.85-.09,.52-.2,1.05-.33,1.57h0c-.3,1.19-.81,2.3-1.87,3.06-.49,.36-.91,.83-1.16,1.38-1.72,3.8,6.18,4.33,5.14,7.83-.17,.58-.57,1.05-1.05,1.41l-7.73,5.71c-1.05,.78-.64,2.44,.66,2.64,2.11,.33,4.96-.33,6.49,1.21,.74,.74,.98,1.84,1.18,2.87,.36,1.83,.72,3.67,1.08,5.5,0,.02,0,.03,.02,.05,.41,2.06,.8,4.11,1.21,6.17Z"/><path class="cls-33" d="M455.43,73.89c-4.16-3.54-8.59-8.38-9.4-13.45,0,0-5.1,8.37-2.65,13.95,0,0-10.9-10.76-12.29-19.93,0,0-7.77,11.36-1,23.31,0,0-21.18-1.99-33.9,13.75-12.72,15.74-1.8,30.27-1.8,30.27,0,0,5.78-27.68,24.13-28.47,18.35-.8,44.34,4.51,51.33-4.18,4.43-5.51,.57-7.91-2.85-8.92-4.26-1.26-8.19-3.44-11.57-6.32Z"/><path class="cls-33" d="M465.28,89.77s-7.23,4.25-6.52,9.21c0,0,3.83-3.97,8.36-4.6,0,0-4.53,4.75-2.13,9,0,0,1.77-6.23,5.56-6.8,0,0-1.52,8.5,2.45,16.01,0,0,8.23-10.62,6.47-19.74-1.59-8.22-7.82-11.35-11.69-12.36-3.86-1.01-6.05,5.32-6.05,5.32l-9.21,4.39,12.75-.43Z"/><path class="cls-31" d="M480.39,131.47c-1.83-.44-3.86,.16-5.67,.45-2.32,.37-4.63,.71-6.96,1.02-4.72,.62-9.45,1.14-14.2,1.55-1.23,.1-2.47,.2-3.7,.29-.93,.07-2.03-.02-2.9,.29-1.07,.38-1.4,1.29-1.42,2.26-.02,1.24,0,2.5,.02,3.75,.01,.89,.03,1.79,.05,2.69,0,.27,0,.55,.01,.82,.05,2.84-.16,6.65,1.25,9.38,.15,.27,.33,.51,.55,.72,1.13,1.08,2.91,2.08,5.18,2.74,1.95,.57,3.97,.88,6.01,1,4.29,.23,8.54-.43,12.72-1.38,3.5-.8,7.04-1.84,9.69-4.27,1.27-1.16,2.18-2.6,2.58-4.22,.52-2.05,.22-4.31,.1-6.37-.13-2.29-.28-4.58-.51-6.85-.17-1.73-.84-3.37-2.79-3.85Zm.6,5.39c.06,1.02,.12,2.04,.17,3.07,.09,2.01,.22,4.02,.23,6.02,.02,3.19-1.74,5.43-4.73,6.89-2.94,1.44-6.35,2.06-9.59,2.58-3.23,.53-6.53,.79-9.79,.37-1.63-.2-3.27-.46-4.79-1.05-3.56-1.39-5.37-2.02-5.6-6.1-.1-1.68-.01-3.36,0-5.04,0-.22,0-.45,0-.67,0-1,.02-2.02,.04-3.02,0-.21,.01-.43,.01-.64,.01-.72-.09-1.55,.06-2.26,.15-.71,.81-.66,1.46-.69,.97-.05,1.94-.09,2.9-.14,2.1-.12,4.19-.26,6.29-.42,4.16-.32,8.3-.74,12.44-1.25,2.05-.25,4.1-.53,6.15-.83,1.26-.19,3.71-.91,4.41,.51,.37,.77,.28,1.83,.33,2.66Z"/><path class="cls-16" d="M274.17,399.68c-5.35,2.46-10.82,4.6-16.52,5.99-.8,.2-1.65-.18-2.04-.91-2.56-4.82-4.92-12.32-6.04-18.06-.31-1.58,1.32-2.83,2.77-2.13,1.11,.54,2.6,2.08,3.92,3.04,.87,.64,2.13,.2,2.39-.86,.57-2.33,1.85-6.24,4.01-6.03,.37,.04,.74,.12,1.1,.23,2.11,.66,3.75,2.58,4.14,4.74,.08,.41-.24,8.19,6.27,13.99Z"/><path class="cls-16" d="M638.94,388.95c-1.27,5.34-3.51,11.6-5.85,15.88-.37,.69-1.16,1.04-1.92,.85-5.36-1.3-10.5-3.26-15.55-5.53,.23-.25,4.34-4.93,5.12-13.6,.04-.41,.09-.8,.16-1.18,.49-2.03,2.07-3.79,4.07-4.42,1.58-.49,3.33-.25,4.77,.55,1.2,.67,1.85,2.02,1.71,3.39,0,.03,0,.06,0,.09,0,.6,.56,1.08,1.17,.94l2.79-.59c2.15-.46,4.03,1.48,3.52,3.61Z"/></g></g></g></g></g></svg>