<?xml version="1.0" encoding="UTF-8"?><svg id="_1" xmlns="http://www.w3.org/2000/svg" viewBox="0 0 178.44 254.54"><defs><style>.cls-1{fill:#f6cdab;}.cls-2{fill:#c45046;}.cls-3{fill:#854e23;}.cls-4{fill:#5c332c;}.cls-5{fill:#007783;}.cls-6{fill:#744431;}.cls-7{fill:#e5e5e4;}.cls-8{fill:#d05f1c;}.cls-9{fill:#c77e42;}.cls-10{fill:#0063af;}.cls-11{fill:#4f2a24;}.cls-12{fill:#a9632c;}.cls-13{fill:#11499e;}.cls-14{fill:#ffc609;}</style></defs><path class="cls-7" d="M178.44,235.1c0,10.73-39.95,19.44-89.22,19.44S0,245.83,0,235.1s39.95-19.44,89.22-19.44,89.22,8.7,89.22,19.44Z"/><g><path class="cls-5" d="M66.56,207.91c-2.58,5.64,4.46,18.09,27.02,18.09s32.18-12.45,32.18-18.09h-59.2Z"/><g><path class="cls-9" d="M94.14,233.61c-2.17,1.24-9.61,2.12-14.01,5.56-2.02,1.58-6.2,5.61-9.7,8.82-1.47,1.35-3.47,1.99-3.01,.02-1.07,.95-2.03-.04-1.29-1.29-1.52,.79-2.34-.81-1.17-2.12-1.74,.55-2.74-1.29-.82-2.83-3.61,.32-3.92-4.93,3.68-8.17,7.25-3.09,7.14-7.4,13.79-6.79,2.59,.24,7.79-.77,8.93-1.25,1.92,4.33,3.61,8.04,3.61,8.04Z"/><path class="cls-1" d="M64.09,241.44s-.57-.88-1.02-2.12c1.2-1.22,2.25-.7,2.34-.13,.2,1.21-1.32,2.25-1.32,2.25Z"/><path class="cls-1" d="M64.73,244.29s-.35-.55-.64-1.32c.74-.76,1.39-.44,1.45-.08,.13,.75-.81,1.4-.81,1.4Z"/><path class="cls-1" d="M65.87,246.62s-.32-.5-.58-1.21c.68-.7,1.27-.4,1.33-.07,.12,.68-.75,1.28-.75,1.28Z"/><path class="cls-1" d="M66.96,248.05s-.28-.43-.51-1.04c.59-.6,1.1-.35,1.16-.07,.1,.59-.65,1.11-.65,1.11Z"/><path class="cls-1" d="M68.39,249.06s-.22-.34-.4-.81c.46-.47,.86-.27,.9-.05,.08,.46-.5,.86-.5,.86Z"/></g><g><path class="cls-9" d="M76.85,141.58l11.6-.99v-8.57h6.97v8.58l11.39,.98c.83,15.65-13.97,16.47-14.95,16.5h0s-.01,0-.03,0c-.01,0-.02,0-.02,0h0c-.98-.04-15.78-.86-14.96-16.5Z"/><path class="cls-12" d="M91.83,140.41c-1.26,0-2.37,.52-2.99,1.3v-3.59h5.98v3.59c-.62-.78-1.73-1.3-2.99-1.3Z"/></g><g><path class="cls-14" d="M74.3,141.71c.09,13.29,8.8,18.21,17.56,16.97v-.02s.04,0,.06,0c.02,0,.04,0,.06,0v.02c8.76,1.24,17.48-3.68,17.56-16.97,3.78,0,25.17,6.55,30.59,25.76-2.49,2.26-16.95,6.78-18.83,6.4,.08,10.29,2.46,30.18,1.93,34.74,0,0-12.16,2.57-31.26,2.78h0s-.04,0-.06,0h-.06c-19.1-.21-31.26-2.78-31.26-2.78-.53-4.57,1.91-23.62,2-33.91-3.84,.78-13.56-2.94-19.44-4.75,2.04-19.44,27.36-28.25,31.14-28.25Z"/><path class="cls-8" d="M62.49,178.9s-14.32-1.77-21.22-7.77c.7-2.41,1.96-5.34,1.96-5.34,0,0,10.87,5.43,21.36,7.07-1.13,3.58-2.09,6.05-2.09,6.05Z"/><path class="cls-8" d="M70.31,142.12s4.65-.8,7.22-1.78c1.4,8.03,4.86,14.83,14.55,15.03,9.69-.19,13.15-7,14.56-15.03,2.57,.98,7.22,1.78,7.22,1.78,0,0-1.53,20.29-21.6,20.24h0c-.06,0-.12,0-.18,0s-.12,0-.18,0h0c-20.07,.05-21.6-20.24-21.6-20.24Z"/></g><path class="cls-8" d="M121.11,178.9s14.33-1.77,21.22-7.77c-.7-2.41-1.96-5.34-1.96-5.34,0,0-10.87,5.43-21.35,7.07,1.13,3.58,2.09,6.05,2.09,6.05Z"/><g><g><path class="cls-9" d="M62.07,178.96s17.13,6.22,18.57,5.11c1.44-1.11,3.23-2.83,4.61-5.24,2.09-3.66,3.01-17.35,5.62-17.09,1.6,.16,.51,9.11,.87,16.45,.36,7.34-.15,9.47-1.58,11.14-.99,1.15-1.93,3.57-7.88,3.23-8.51-.48-27.05-2.62-33.14-7.45-5.49-4.36-1.07-10.02-1.07-10.02l14.01,3.87Z"/><path class="cls-12" d="M86.83,191.36c5.21-2.27,5.18-7.53,4.9-13.17-.36-7.34,.73-16.18-.87-16.1-.77,.04-1.34,1.55-1.48,2.54,1.1,.46,.92,7.66,.6,14.25-.24,5.04,.03,9.84-3.15,12.48Z"/></g><path class="cls-9" d="M121.01,178.96s-17.13,6.22-18.57,5.11c-1.44-1.11-3.23-2.83-4.61-5.24-2.09-3.66-3.01-17.35-5.62-17.09-1.6,.16-.51,9.11-.87,16.45-.36,7.34,.15,9.47,1.58,11.14,.99,1.15,1.93,3.57,7.88,3.23,8.51-.48,27.05-2.62,33.14-7.45,5.49-4.36,1.07-9.64,1.07-9.64l-14.01,3.49Z"/></g><path class="cls-13" d="M121.95,207.72c16.36-5.69,26.07,15.45,5.4,21.4-25.96,7.47-41.07,10.61-41.07,10.61,0,0-6.16-5.57-5.96-14.7,13.62-5.62,33.49-14.48,41.62-17.31Z"/><g><path class="cls-9" d="M92.93,234.08c2.17,1.24,9.62,2.12,14.01,5.56,2.02,1.58,6.2,5.61,9.7,8.82,1.47,1.35,3.47,1.99,3.01,.02,1.07,.95,2.03-.04,1.29-1.29,1.52,.79,2.34-.81,1.17-2.12,1.74,.55,2.74-1.29,.82-2.83,3.61,.32,3.92-4.93-3.68-8.17-7.25-3.09-7.14-7.4-13.79-6.79-2.59,.24-7.79-.77-8.93-1.25-1.92,4.33-3.61,8.05-3.61,8.05Z"/><path class="cls-1" d="M122.98,241.91s.57-.88,1.02-2.12c-1.2-1.22-2.25-.7-2.34-.13-.2,1.21,1.32,2.25,1.32,2.25Z"/><path class="cls-1" d="M122.34,244.76s.35-.55,.64-1.32c-.74-.76-1.39-.44-1.45-.08-.13,.75,.81,1.4,.81,1.4Z"/><path class="cls-1" d="M121.2,247.09s.32-.5,.58-1.2c-.68-.7-1.27-.4-1.33-.07-.12,.68,.75,1.28,.75,1.28Z"/><path class="cls-1" d="M120.11,248.52s.28-.43,.51-1.04c-.59-.6-1.1-.35-1.16-.07-.1,.59,.65,1.11,.65,1.11Z"/><path class="cls-1" d="M118.68,249.53s.22-.34,.4-.81c-.46-.47-.86-.27-.9-.05-.08,.46,.5,.86,.5,.86Z"/></g><path class="cls-10" d="M65.67,207.72c-16.36-5.69-26.07,15.45-5.4,21.4,25.96,7.47,41.07,10.61,41.07,10.61,0,0,6.16-5.57,5.96-14.7-13.62-5.62-33.49-14.48-41.62-17.31Z"/><g><g><path class="cls-11" d="M147.72,32.08C127.23,.88,82.82-10.92,53.02,11.9c-21.78,16.67-12.19,25.57-12.19,25.57,0,0-18.31-2.75-21.95,19.81-1.2,7.43,4.51,34.53,18.8,34.32,0,0,33.64-1.38,52.74-2.89,19.09,1.51,56.54,2.89,56.54,2.89,18.15-26.6,7.99-48.5,.76-59.51Z"/><path class="cls-11" d="M39.04,39.31c-10.3-.69-14.74-.27-14.56-3.51,.28-5.19,11.83-.99,11.83-.99,0,0-11.49-8.4-8.46-11.98,3.02-3.58,15.01,7.19,15.01,7.19,0,0,4,9.81-3.81,9.29Z"/><path class="cls-9" d="M37.98,89.74c0,29.76,23.24,49.57,51.9,49.57,28.66,0,51.89-19.82,51.88-49.59,0-29.76-23.24-52.81-51.9-52.81-28.66,0-51.88,23.07-51.88,52.83Z"/><g><g><path class="cls-9" d="M40.05,89.96s-.7-6.05-7.99-7.1c-7.69-1.1-11.04,8.94-7.06,15.1,3.98,6.14,12.57,6.48,15.37,1.82l-.32-9.82Z"/><path class="cls-3" d="M30.48,85.46c5.05-.7,8.78,8.27,1.82,12.61,3.1-6.13,.55-8.37-3.16-5.52,.12-2.03,1.41-3.27,4.43-2.94-.14-2.7-3.09-4.15-3.09-4.15Z"/></g><g><path class="cls-9" d="M140.01,89.96s.7-6.05,7.99-7.1c7.69-1.11,11.04,8.94,7.07,15.09-3.98,6.14-12.57,6.48-15.37,1.82l.31-9.82Z"/><path class="cls-3" d="M149.58,85.46c-5.05-.7-8.78,8.27-1.81,12.61-3.1-6.13-.56-8.37,3.15-5.52-.11-2.03-1.41-3.27-4.43-2.94,.14-2.7,3.08-4.15,3.08-4.15Z"/></g></g><path class="cls-2" d="M86.99,87.35c.5,3.12,8.59,6.71,5.59,10.49-1.85,2.34-6.1,1.75-6.1-2.97,0-2.74,.51-7.52,.51-7.52Z"/><g><path class="cls-11" d="M113.53,71.11c1.51-5.12,11.12-4.55,14.24,4.24-4.26-4.64-14.24-4.24-14.24-4.24Z"/><path class="cls-11" d="M66.21,71.11c-1.51-5.12-11.12-4.55-14.24,4.24,4.26-4.64,14.24-4.24,14.24-4.24Z"/></g><g><path class="cls-2" d="M63.68,103.7c0,3.06-4.63,5.54-10.35,5.54s-10.35-2.48-10.35-5.54,4.63-5.54,10.35-5.54,10.35,2.48,10.35,5.54Z"/><path class="cls-2" d="M134.96,103.7c0,3.06-4.63,5.54-10.35,5.54s-10.35-2.48-10.35-5.54,4.63-5.54,10.35-5.54,10.35,2.48,10.35,5.54Z"/></g><path class="cls-6" d="M114.41,92.13c-6.52-.25-9.08-7.98-9.09-7.63-.2,5.23,3.84,9.64,9.01,9.84,5.17,.2,9.54-3.89,9.74-9.11,.01-.35-2.68,7.17-9.66,6.9Z"/><path class="cls-6" d="M63.93,92.13c-6.52-.25-9.08-7.98-9.1-7.62-.2,5.23,3.84,9.64,9.01,9.84,5.17,.2,9.54-3.89,9.74-9.11,.02-.35-2.68,7.17-9.65,6.9Z"/><path class="cls-4" d="M88.42,118.61c11.58,.29,21.87-6.89,24.49-17.07,.08-.3-.1-.6-.4-.68-.3-.07-.6,.1-.68,.4-2.49,9.69-12.32,16.52-23.38,16.24-10.59-.27-19.74-6.93-22.25-16.21-.08-.3-.39-.47-.68-.39-.3,.08-.47,.39-.39,.68,2.64,9.75,12.22,16.75,23.3,17.03Z"/></g><path class="cls-11" d="M37.36,84.73s17.75-13.61,14.77-31.69c31.63,15.37,76.34-26.24,90.09,32.02,6.52-36.79-58.37-70.7-98.89-34.84-10.71,11.18-5.97,34.51-5.97,34.51Z"/></g></g></svg>