<?xml version="1.0" encoding="UTF-8"?><svg id="Layer_2" xmlns="http://www.w3.org/2000/svg" viewBox="0 0 192.47 161.42"><defs><style>.cls-1{fill:#fff;}.cls-2{fill:#e2e2e5;}.cls-3{fill:#fbd11a;}.cls-4{fill:#1e243a;}.cls-5{fill:#70c05e;}.cls-6{fill:#4f91cd;}</style></defs><g id="Layer_1-2"><g><rect class="cls-2" x="37.6" y="91.75" width="106.74" height="68.73"/><polygon class="cls-2" points="37.6 91.75 144.47 160.35 161.59 143.23 161.59 74.5 144.85 91.75 161.59 74.5 54.09 74.5 37.6 91.75"/></g><polygon class="cls-3" points="60.69 144.74 43.51 144.74 43.51 156.2 74.35 156.2 74.35 144.74 69.48 144.74 60.69 144.74"/><path class="cls-3" d="M32.77,19.03l-3.54,4.31-3-4.5-18.63-.54C3.46,23.15,.97,29.43,.97,36.3c0,15.33,12.43,27.76,27.76,27.76s27.76-12.43,27.76-27.76c0-6.29-2.09-12.1-5.63-16.75l-18.09-.52Z"/><path class="cls-6" d="M90.99,114.35h-.11c-.94-12.97-28.05-9.24-20.67,11.07,6.55,12.99,20.73,20.08,20.73,20.08,0,0,14.18-7.09,20.73-20.08,7.38-20.32-19.73-24.04-20.67-11.07Z"/><circle class="cls-5" cx="158.25" cy="31.01" r="27.5"/><path class="cls-1" d="M112.94,119.38c12.26-2.98,14.19-9.73,14.92-16.93-4.59,4.68-10.96,7.05-18.79,7.49l3.88,9.44Z"/><path class="cls-1" d="M109.1,131.02c10.83,.55,15.36-7.34,18.76-16.74-3.86,2.68-9.06,4.58-14.92,6.11l-3.84,10.64Z"/><path class="cls-1" d="M107.61,131.73l-5.19,5.58c8.95,.37,14.06-4.28,18.63-9.19-3.69,1.97-8.17,4.26-13.44,3.6Z"/><path class="cls-1" d="M68.75,119.37l3.82-9.46c-7.84-.39-14.22-2.72-18.84-7.37,.78,7.19,2.75,13.94,15.03,16.83Z"/><path class="cls-1" d="M53.8,114.36c3.46,9.38,8.03,17.24,18.86,16.62l-3.91-10.61c-5.87-1.48-11.08-3.36-14.96-6.01Z"/><path class="cls-1" d="M60.69,128.17c4.61,4.88,9.74,9.49,18.69,9.07l-5.22-5.55c-5.26,.69-9.76-1.57-13.47-3.52Z"/><g><path class="cls-2" d="M4.47,13.26L38.94,54.21l9.04-7.3L10.38,.97c-3.52,2.36-5.47,6.48-5.91,12.29Z"/><polygon class="cls-2" points="9.85 46.02 18.6 53.66 28.77 42.5 20.89 33.55 9.85 46.02"/><path class="cls-2" d="M49.21,1.58L29.51,23.82l7.82,9.28L54.64,14.09c.13-5.03-1.62-9.22-5.43-12.51Z"/><line class="cls-2" x1="10.28" y1="1.12" x2="49.05" y2="1.37"/><line class="cls-2" x1="35.32" y1="43.49" x2="39.23" y2="48.07"/><line class="cls-2" x1="10.28" y1="14.21" x2="32.3" y2="39.97"/></g><rect class="cls-2" x="10.47" y="1.05" width="38.52" height="8.81"/><g><path class="cls-4" d="M107.37,35.86c-.66,.23-1,.95-.77,1.6,.18,.52,.67,.84,1.19,.84,.14,0,.28-.02,.42-.07,.66-.23,1-.95,.77-1.6-.23-.66-.95-1-1.6-.77Z"/><path class="cls-4" d="M118.47,34.6c-.69-.08-1.31,.42-1.39,1.11-.08,.69,.42,1.31,1.11,1.39,.05,0,.09,0,.14,0,.63,0,1.18-.48,1.25-1.12,.08-.69-.42-1.31-1.11-1.39Z"/><path class="cls-4" d="M115.88,32.29c.25,.25,.57,.37,.89,.37s.64-.12,.89-.37c.49-.49,.49-1.29,0-1.78,0,0,0,0,0,0,0,0,0,0,0,0-.49-.49-1.29-.49-1.78,0-.49,.49-.49,1.28,0,1.77,0,0,.01,.01,.01,.02Z"/><path class="cls-4" d="M108.97,31.29c-.59-.37-1.37-.19-1.73,.4-.37,.59-.19,1.37,.4,1.73,.21,.13,.44,.19,.67,.19,.42,0,.83-.21,1.07-.59,.37-.59,.19-1.37-.4-1.74Z"/><path class="cls-4" d="M115.15,38.79h0c-.59,.37-.76,1.15-.39,1.74,.24,.38,.65,.59,1.07,.59,.23,0,.46-.06,.67-.2,.59-.37,.76-1.15,.39-1.74-.37-.59-1.15-.76-1.74-.39Z"/><path class="cls-4" d="M111.54,39.2c-.66-.23-1.37,.12-1.6,.78-.23,.66,.12,1.37,.78,1.6,.14,.05,.28,.07,.41,.07,.52,0,1.01-.32,1.19-.84,.23-.66-.12-1.37-.78-1.6Z"/><path class="cls-4" d="M112.16,28.59c-.69,.08-1.19,.7-1.11,1.39,.07,.64,.62,1.12,1.25,1.12,.05,0,.1,0,.15,0,.69-.08,1.19-.7,1.11-1.39-.08-.69-.7-1.19-1.39-1.11Z"/></g><g><path class="cls-4" d="M168.17,83.7c-.66,.23-1,.95-.77,1.6,.18,.52,.67,.84,1.19,.84,.14,0,.28-.02,.42-.07,.66-.23,1-.95,.77-1.6-.23-.66-.95-1-1.6-.77Z"/><path class="cls-4" d="M176.68,80.12c.25,.24,.57,.37,.88,.37s.64-.12,.89-.37c.49-.49,.49-1.29,0-1.78,0,0-.01,0-.01-.01h0c-.49-.49-1.29-.49-1.78,0-.49,.49-.49,1.29,0,1.78,0,0,0,0,.01,.01Z"/><path class="cls-4" d="M172.34,87.03c-.66-.23-1.37,.12-1.6,.78-.23,.66,.12,1.37,.78,1.6,.14,.05,.28,.07,.41,.07,.52,0,1.01-.33,1.19-.84,.23-.66-.12-1.37-.78-1.6Z"/><path class="cls-4" d="M169.77,79.12c-.59-.37-1.37-.19-1.73,.4-.37,.59-.19,1.37,.4,1.73,.21,.13,.44,.19,.67,.19,.42,0,.83-.21,1.07-.59,.37-.59,.19-1.37-.4-1.74Z"/><path class="cls-4" d="M179.27,82.43c-.69-.08-1.31,.42-1.39,1.11-.08,.69,.42,1.31,1.11,1.39,.05,0,.09,0,.14,0,.63,0,1.18-.48,1.25-1.12,.08-.69-.42-1.31-1.11-1.39Z"/><path class="cls-4" d="M172.95,76.42c-.69,.08-1.19,.7-1.11,1.39,.07,.64,.62,1.12,1.25,1.12,.05,0,.1,0,.15,0,.69-.08,1.19-.7,1.11-1.39-.08-.69-.7-1.19-1.39-1.11Z"/><path class="cls-4" d="M175.95,86.62c-.59,.37-.76,1.15-.39,1.74,.24,.38,.65,.59,1.07,.59,.23,0,.46-.06,.67-.19,.59-.37,.76-1.15,.39-1.74-.37-.59-1.15-.76-1.74-.39Z"/></g><g><path class="cls-4" d="M181.86,120.03c-.59-.37-1.37-.19-1.73,.4-.37,.59-.19,1.37,.4,1.73,.21,.13,.44,.19,.67,.19,.42,0,.83-.21,1.07-.59,.37-.59,.19-1.37-.4-1.74Z"/><path class="cls-4" d="M184.43,127.94c-.66-.23-1.37,.12-1.6,.78-.23,.66,.12,1.37,.78,1.6,.14,.05,.28,.07,.41,.07,.52,0,1.01-.32,1.19-.84,.23-.66-.12-1.37-.78-1.6Z"/><path class="cls-4" d="M180.25,124.61c-.66,.23-1,.95-.77,1.6h0c.18,.52,.67,.84,1.19,.84,.14,0,.28-.02,.42-.07,.66-.23,1-.95,.77-1.6-.23-.66-.95-1-1.6-.77Z"/><path class="cls-4" d="M188.76,121.02s0,0,0,0c.25,.25,.57,.37,.89,.37s.64-.12,.89-.37c.49-.49,.49-1.29,0-1.78h0s-.01-.01-.02-.02c-.49-.49-1.29-.49-1.78,0-.49,.49-.49,1.29,0,1.78,0,0,0,0,0,0Z"/><path class="cls-4" d="M185.04,117.33c-.69,.08-1.19,.7-1.11,1.39,.07,.64,.62,1.12,1.25,1.12,.05,0,.1,0,.14,0,.69-.08,1.19-.7,1.11-1.39-.08-.69-.7-1.19-1.39-1.11Z"/><path class="cls-4" d="M191.35,123.34c-.69-.08-1.31,.42-1.39,1.11-.08,.69,.42,1.31,1.11,1.39,.05,0,.1,0,.14,0,.63,0,1.18-.48,1.25-1.12,.08-.69-.42-1.31-1.11-1.39Z"/><path class="cls-4" d="M188.03,127.53c-.59,.37-.76,1.15-.39,1.74,.24,.38,.65,.59,1.07,.59,.23,0,.46-.06,.67-.19,.59-.37,.76-1.15,.39-1.74-.37-.59-1.15-.76-1.74-.39Z"/></g><g><path class="cls-4" d="M70.46,16.44c-.59-.37-1.37-.19-1.73,.4-.37,.59-.19,1.37,.4,1.73,.21,.13,.44,.19,.67,.19,.42,0,.83-.21,1.07-.59,.37-.59,.19-1.37-.4-1.74Z"/><path class="cls-4" d="M77.36,17.43s0,0,0,0c.25,.25,.57,.37,.89,.37,.32,0,.64-.12,.89-.37,.49-.49,.49-1.29,0-1.78,0,0-.01,0-.01-.01h0c-.49-.49-1.29-.49-1.78,0-.49,.49-.49,1.29,0,1.78,0,0,0,0,0,0Z"/><path class="cls-4" d="M73.03,24.34c-.66-.23-1.37,.12-1.6,.78-.23,.66,.12,1.37,.78,1.6,.14,.05,.28,.07,.41,.07,.52,0,1.01-.32,1.19-.84,.23-.66-.12-1.37-.78-1.6Z"/><path class="cls-4" d="M70.46,21.78c-.23-.66-.95-1-1.6-.77-.66,.23-1,.95-.77,1.6,.18,.52,.67,.84,1.19,.84,.14,0,.28-.02,.42-.07,.66-.23,1-.95,.77-1.6h0Z"/><path class="cls-4" d="M79.95,19.75c-.69-.08-1.31,.42-1.39,1.11-.08,.69,.42,1.31,1.11,1.39,.05,0,.09,0,.14,0,.63,0,1.18-.48,1.25-1.12,.08-.69-.42-1.31-1.11-1.39Z"/><path class="cls-4" d="M73.64,13.73c-.69,.08-1.19,.7-1.11,1.39,.07,.64,.62,1.12,1.25,1.12,.05,0,.1,0,.15,0,.69-.08,1.19-.7,1.11-1.39-.08-.69-.7-1.19-1.39-1.11Z"/><path class="cls-4" d="M76.63,23.93c-.59,.37-.76,1.15-.39,1.74,.24,.38,.65,.59,1.07,.59,.23,0,.46-.06,.67-.2,.59-.37,.76-1.15,.39-1.74-.37-.59-1.15-.76-1.74-.39Z"/></g><g><path class="cls-4" d="M68.82,54.58c-.59-.37-1.37-.19-1.73,.4-.37,.59-.19,1.37,.4,1.73,.21,.13,.44,.19,.67,.19,.42,0,.83-.21,1.07-.59,.37-.59,.19-1.37-.4-1.74Z"/><path class="cls-4" d="M71.39,62.48c-.66-.23-1.37,.12-1.6,.78-.23,.66,.12,1.37,.78,1.6,.14,.05,.28,.07,.41,.07,.52,0,1.01-.32,1.19-.84,.23-.66-.12-1.37-.78-1.6Z"/><path class="cls-4" d="M67.21,59.15c-.66,.23-1,.95-.77,1.6,.18,.52,.67,.84,1.19,.84,.14,0,.28-.02,.42-.07,.66-.23,1-.95,.77-1.6-.23-.66-.95-1-1.6-.77Z"/><path class="cls-4" d="M75.72,55.57s0,0,0,0c.25,.25,.57,.37,.89,.37s.64-.12,.89-.37c.49-.49,.49-1.29,0-1.78,0,0,0,0,0,0,0,0,0,0,0-.01-.49-.49-1.29-.49-1.78,0-.49,.49-.49,1.29,0,1.78,0,0,0,0,0,0Z"/><path class="cls-4" d="M72,51.87c-.69,.08-1.19,.7-1.11,1.39,.07,.64,.62,1.12,1.25,1.12,.05,0,.1,0,.14,0,.69-.08,1.19-.7,1.11-1.39-.08-.69-.7-1.19-1.39-1.11Z"/><path class="cls-4" d="M78.32,57.89c-.69-.08-1.31,.42-1.39,1.11-.08,.69,.42,1.31,1.11,1.39,.05,0,.09,0,.14,0,.63,0,1.18-.48,1.25-1.12,.08-.69-.42-1.31-1.11-1.39Z"/><path class="cls-4" d="M75,62.07h0c-.59,.37-.76,1.15-.39,1.74,.24,.38,.65,.59,1.07,.59,.23,0,.46-.06,.67-.2,.59-.37,.76-1.15,.39-1.74-.37-.59-1.15-.76-1.74-.39Z"/></g><g><path class="cls-4" d="M20.99,94.98c-.59-.37-1.37-.19-1.73,.4-.37,.59-.19,1.37,.4,1.73,.21,.13,.44,.19,.67,.19,.42,0,.83-.21,1.07-.59,.37-.59,.19-1.37-.4-1.74Z"/><path class="cls-4" d="M27.89,95.97s0,0,0,0c.25,.25,.57,.37,.89,.37s.64-.12,.89-.37c.49-.49,.49-1.29,0-1.78,0,0-.01,0-.01-.01h0c-.49-.49-1.29-.49-1.78,0-.49,.49-.49,1.29,0,1.78,0,0,0,0,0,0Z"/><path class="cls-4" d="M19.38,99.56c-.66,.23-1,.95-.77,1.6,.18,.52,.67,.84,1.19,.84,.14,0,.28-.02,.42-.07,.66-.23,1-.95,.77-1.6-.23-.66-.95-1-1.6-.77Z"/><path class="cls-4" d="M23.55,102.89c-.66-.23-1.37,.12-1.6,.78-.23,.66,.12,1.37,.78,1.6,.14,.05,.28,.07,.41,.07,.52,0,1.01-.33,1.19-.84,.23-.66-.12-1.37-.78-1.6Z"/><path class="cls-4" d="M30.48,98.29c-.69-.08-1.31,.42-1.39,1.11-.08,.69,.42,1.31,1.11,1.39,.05,0,.09,0,.14,0,.63,0,1.18-.48,1.25-1.12,.08-.69-.42-1.31-1.11-1.39Z"/><path class="cls-4" d="M24.17,92.28c-.69,.08-1.19,.7-1.11,1.39,.07,.64,.62,1.12,1.25,1.12,.05,0,.1,0,.14,0,.69-.08,1.19-.7,1.11-1.39-.08-.69-.7-1.19-1.39-1.11Z"/><path class="cls-4" d="M27.16,102.48c-.59,.37-.76,1.15-.39,1.74,.24,.38,.65,.59,1.07,.59,.23,0,.46-.06,.67-.2,.59-.37,.76-1.15,.39-1.74-.37-.59-1.15-.76-1.74-.39Z"/></g><g><path class="cls-4" d="M7.06,149.47c-.66-.23-1.37,.12-1.6,.78-.23,.66,.12,1.37,.78,1.6,.14,.05,.28,.07,.41,.07,.52,0,1.01-.32,1.19-.84,.23-.66-.12-1.37-.78-1.6Z"/><path class="cls-4" d="M4.5,141.56c-.59-.37-1.37-.19-1.74,.4h0c-.37,.59-.19,1.37,.4,1.73,.21,.13,.44,.19,.67,.19,.42,0,.83-.21,1.07-.59,.37-.59,.19-1.37-.4-1.74Z"/><path class="cls-4" d="M4.5,146.9c-.23-.66-.95-1-1.6-.77-.66,.23-1,.95-.77,1.6,.18,.52,.67,.84,1.19,.84,.14,0,.28-.02,.42-.07,.66-.23,1-.95,.77-1.6h0Z"/><path class="cls-4" d="M11.4,142.55s0,0,0,0c.25,.25,.57,.37,.89,.37s.64-.12,.89-.37c.49-.49,.49-1.29,0-1.78,0,0-.01-.01-.01-.02-.49-.49-1.29-.49-1.78,0-.49,.49-.49,1.29,0,1.78,0,0,0,0,0,0Z"/><path class="cls-4" d="M7.68,138.86c-.69,.08-1.19,.7-1.11,1.39,.07,.64,.62,1.12,1.25,1.12,.05,0,.1,0,.14,0,.69-.08,1.19-.7,1.11-1.39-.08-.69-.7-1.19-1.39-1.11Z"/><path class="cls-4" d="M13.99,144.87c-.69-.08-1.31,.42-1.39,1.11-.08,.69,.42,1.31,1.11,1.39,.05,0,.09,0,.14,0,.63,0,1.18-.48,1.25-1.12,.08-.69-.42-1.31-1.11-1.39Z"/><path class="cls-4" d="M10.67,149.06h0c-.59,.37-.76,1.15-.39,1.74,.24,.38,.65,.59,1.07,.59,.23,0,.46-.06,.67-.2,.59-.37,.76-1.15,.39-1.74-.37-.59-1.15-.76-1.74-.39Z"/></g><g><path class="cls-4" d="M115.64,4.26c-.52,0-.94,.42-.94,.94v6.04c0,.52,.42,.94,.94,.94s.94-.42,.94-.94V5.21c0-.52-.42-.94-.94-.94Z"/><path class="cls-4" d="M118.73,7.35h-6.04c-.52,0-.94,.42-.94,.94s.42,.94,.94,.94h6.04c.52,0,.94-.42,.94-.94s-.42-.94-.94-.94Z"/></g><g><path class="cls-4" d="M26.14,142.98c-.52,0-.94,.42-.94,.94v6.04c0,.52,.42,.94,.94,.94s.94-.42,.94-.94v-6.04c0-.52-.42-.94-.94-.94Z"/><path class="cls-4" d="M29.23,146.07h-6.04c-.52,0-.94,.42-.94,.94s.42,.94,.94,.94h6.04c.52,0,.94-.42,.94-.94s-.42-.94-.94-.94Z"/></g><g><path class="cls-4" d="M91.22,35.99c-.52,0-.94,.42-.94,.94v6.04c0,.52,.42,.94,.94,.94s.94-.42,.94-.94v-6.04c0-.52-.42-.94-.94-.94Z"/><path class="cls-4" d="M94.31,39.07h-6.04c-.52,0-.94,.42-.94,.94s.42,.94,.94,.94h6.04c.52,0,.94-.42,.94-.94s-.42-.94-.94-.94Z"/></g><g><path class="cls-4" d="M124.08,56.38c-.52,0-.94,.42-.94,.94v6.04c0,.52,.42,.94,.94,.94s.94-.42,.94-.94v-6.04c0-.52-.42-.94-.94-.94Z"/><path class="cls-4" d="M127.16,59.46h-6.04c-.52,0-.94,.42-.94,.94s.42,.94,.94,.94h6.04c.52,0,.94-.42,.94-.94s-.42-.94-.94-.94Z"/></g><g><path class="cls-4" d="M158.25,2.54c-7.61,0-14.76,2.96-20.13,8.34s-8.34,12.53-8.34,20.13,2.96,14.76,8.34,20.13,12.53,8.34,20.13,8.34,14.76-2.96,20.13-8.34c5.38-5.38,8.34-12.53,8.34-20.13s-2.96-14.76-8.34-20.13c-5.38-5.38-12.53-8.34-20.13-8.34Zm0,55.01c-14.63,0-26.54-11.9-26.54-26.54s11.9-26.54,26.54-26.54,26.54,11.9,26.54,26.54-11.9,26.54-26.54,26.54Z"/><path class="cls-4" d="M145.35,30.91c.08-8.64,4.62-17.37,13.51-25.95,.38-.37,.4-.98,.02-1.37-.37-.38-.98-.4-1.37-.02-4.63,4.46-8.16,9.02-10.5,13.54-2.35,4.55-3.56,9.18-3.6,13.78-.04,4.7,1.14,9.48,3.51,14.2,2.34,4.66,5.9,9.39,10.58,14.07,.19,.19,.44,.28,.68,.28s.5-.09,.68-.28c.38-.38,.38-.99,0-1.37-9.05-9.04-13.6-18.08-13.52-26.88Z"/><path class="cls-4" d="M158.88,3.59c-.37-.38-.99-.39-1.37-.02-.38,.37-.39,.99-.02,1.37,9.14,9.39,13.54,18.77,13.07,27.87-.42,8.31-4.7,16.49-13.07,24.98-.38,.38-.37,.99,.01,1.37,.19,.19,.43,.28,.68,.28s.5-.1,.69-.29c4.17-4.23,7.41-8.5,9.66-12.69,2.4-4.49,3.74-9.05,3.97-13.55,.24-4.75-.74-9.57-2.91-14.34-2.25-4.95-5.85-9.98-10.71-14.98Z"/><path class="cls-4" d="M185.3,28.89c-18,8.88-36.21,8.88-54.12,0-.48-.24-1.06-.04-1.3,.44-.24,.48-.04,1.06,.44,1.3,9.23,4.58,18.62,6.9,27.89,6.9h.02c9.26,0,18.66-2.32,27.93-6.9,.48-.24,.68-.82,.44-1.3-.24-.48-.82-.68-1.3-.44Z"/></g><g><g><path class="cls-4" d="M144.34,90.81H37.6c-.52,0-.94,.42-.94,.94v68.73c0,.52,.42,.94,.94,.94h106.74c.52,0,.94-.42,.94-.94V91.75c0-.52-.42-.94-.94-.94Zm-.94,68.73H38.54V92.69h104.86v66.84Z"/><path class="cls-4" d="M161.94,73.63c-.36-.14-.76-.06-1.03,.22l-16.74,17.25c-.36,.37-.35,.97,.02,1.33,.37,.36,.97,.35,1.33-.02l15.12-15.58v66.01l-16.84,16.84c-.37,.37-.37,.97,0,1.34,.18,.18,.43,.28,.67,.28s.48-.09,.67-.28l17.12-17.12c.18-.18,.28-.42,.28-.67V74.5c0-.38-.23-.73-.59-.87Z"/><path class="cls-4" d="M161.59,73.56H54.09c-.26,0-.5,.11-.68,.29l-16.49,17.25c-.36,.38-.35,.97,.03,1.33,.18,.17,.42,.26,.65,.26,.25,0,.5-.1,.68-.29l16.21-16.95h107.1c.52,0,.94-.42,.94-.94s-.42-.94-.94-.94Z"/></g><path class="cls-4" d="M95.92,106.62c-2.3,.86-4.01,2.38-4.99,4.34-.97-1.96-2.69-3.48-4.99-4.34-4.69-1.76-10.71-.44-14.33,3.14-2.23,2.2-5.49,7.21-2.3,15.99,.01,.04,.03,.07,.04,.1,3.46,6.87,9.03,12.08,13.09,15.23,4.39,3.41,7.92,5.19,8.06,5.27,.13,.07,.28,.1,.42,.1s.29-.03,.42-.1c.15-.07,3.68-1.85,8.06-5.27,4.06-3.16,9.62-8.36,13.09-15.23,.02-.03,.03-.07,.04-.1,3.19-8.78-.07-13.78-2.3-15.99-3.62-3.58-9.65-4.9-14.33-3.14Zm14.88,18.43c-3.3,6.52-8.62,11.49-12.5,14.52-3.39,2.64-6.3,4.3-7.36,4.87-2.37-1.29-14.14-8.09-19.86-19.39-2.07-5.75-1.41-10.7,1.87-13.95,3.12-3.09,8.31-4.23,12.34-2.71,2.79,1.05,4.45,3.19,4.65,6.03,.04,.49,.45,.88,.94,.88h.11c.49,0,.91-.38,.94-.88,.21-2.84,1.86-4.98,4.65-6.03,4.03-1.51,9.22-.37,12.34,2.71,3.28,3.25,3.95,8.2,1.87,13.95Z"/><path class="cls-4" d="M128.25,101.59c-.36-.17-.79-.09-1.07,.19-4.26,4.35-10.38,6.77-18.17,7.21-.52,.03-.92,.48-.89,1,.03,.52,.48,.92,1,.89,7.18-.4,13.05-2.43,17.48-6.02-.93,5.85-3.46,11.06-13.88,13.6-.51,.12-.82,.63-.69,1.14,.1,.43,.49,.72,.92,.72,.07,0,.15,0,.22-.03,5.83-1.42,9.86-3.79,12.33-7.25,2.3-3.23,2.95-6.96,3.31-10.5,.04-.4-.18-.78-.54-.95Z"/><path class="cls-4" d="M128.43,113.53c-.33-.25-.78-.26-1.11-.03-3.37,2.34-8.15,4.29-14.62,5.97-.5,.13-.81,.65-.68,1.15,.13,.5,.65,.81,1.15,.68,5.29-1.37,9.51-2.94,12.81-4.75-3.46,8.56-7.92,13.99-16.83,13.53-.52-.03-.96,.37-.99,.89-.03,.52,.37,.96,.89,.99,.38,.02,.75,.03,1.11,.03,10.78,0,15.31-8.33,18.58-17.39,.14-.39,.01-.82-.31-1.07Z"/><path class="cls-4" d="M120.61,127.3c-3.28,1.75-7.76,4.14-12.88,3.5-.52-.06-.99,.3-1.05,.82-.06,.52,.3,.99,.82,1.05,3.28,.41,6.26-.26,8.87-1.26-3.56,3.05-7.76,5.22-13.9,4.96-.52-.02-.96,.38-.98,.9-.02,.52,.38,.96,.9,.98,.35,.01,.69,.02,1.03,.02,8.72,0,13.83-4.69,18.33-9.51,.31-.34,.34-.85,.06-1.22-.28-.37-.79-.47-1.19-.26Z"/><path class="cls-4" d="M72.61,108.96c-7.8-.39-13.93-2.78-18.22-7.09-.28-.28-.71-.36-1.08-.19-.36,.17-.58,.55-.53,.95,.38,3.54,1.05,7.26,3.37,10.48,2.49,3.45,6.53,5.79,12.37,7.17,.07,.02,.15,.03,.22,.03,.43,0,.82-.29,.92-.73,.12-.51-.19-1.02-.7-1.14-10.44-2.47-13-7.66-13.97-13.51,4.46,3.56,10.34,5.55,17.52,5.91,.52,.03,.96-.38,.99-.9,.03-.52-.38-.96-.9-.99Z"/><path class="cls-4" d="M72.61,130.04c-8.91,.51-13.4-4.89-16.92-13.43,3.31,1.8,7.54,3.33,12.84,4.67,.51,.13,1.02-.18,1.15-.68,.13-.51-.18-1.02-.68-1.15-6.47-1.64-11.27-3.56-14.65-5.87-.34-.23-.79-.22-1.11,.03-.32,.25-.45,.69-.31,1.07,3.32,9,7.88,17.27,18.56,17.27,.41,0,.82-.01,1.24-.04,.52-.03,.92-.48,.89-1-.03-.52-.48-.92-1-.89Z"/><path class="cls-4" d="M79.33,136.29c-6.13,.29-10.35-1.85-13.93-4.87,2.61,.98,5.59,1.63,8.87,1.2,.52-.07,.88-.54,.81-1.06-.07-.52-.54-.88-1.06-.81-5.11,.67-9.62-1.69-12.9-3.42-.41-.21-.91-.1-1.19,.27-.28,.37-.25,.88,.07,1.22,4.5,4.77,9.61,9.39,18.23,9.39,.39,0,.78,0,1.19-.03,.52-.02,.92-.47,.9-.99-.02-.52-.47-.92-.99-.9Z"/><path class="cls-4" d="M90.55,139.52c-6.47-3.65-11.17-8.16-13.98-13.41-.25-.46-.82-.63-1.28-.39-.46,.25-.63,.82-.39,1.28,2.98,5.57,7.94,10.33,14.72,14.16,.15,.08,.31,.12,.46,.12,.33,0,.65-.17,.82-.48,.26-.45,.1-1.03-.36-1.29Z"/><path class="cls-4" d="M73.65,117.29c-.08-.52-.56-.87-1.08-.79-.52,.08-.87,.56-.79,1.08,.21,1.36,.51,2.71,.89,4,.12,.41,.5,.68,.9,.68,.09,0,.18-.01,.27-.04,.5-.15,.79-.67,.64-1.17-.36-1.21-.64-2.47-.84-3.75Z"/><path class="cls-4" d="M74.35,143.8h-4.87c-.52,0-.94,.42-.94,.94s.42,.94,.94,.94h3.93v9.57h-28.95v-9.57h16.23c.52,0,.94-.42,.94-.94s-.42-.94-.94-.94h-17.17c-.52,0-.94,.42-.94,.94v11.45c0,.52,.42,.94,.94,.94h30.84c.52,0,.94-.42,.94-.94v-11.45c0-.52-.42-.94-.94-.94Z"/><path class="cls-4" d="M71.08,77.19h-15.23c-.27,0-.52,.11-.7,.3l-9.82,10.32c-.37,.39-.35,1,.03,1.37,.19,.18,.43,.27,.67,.27,.26,0,.51-.1,.7-.3l9.53-10.02h14.82c.53,0,.97-.43,.97-.97s-.43-.97-.97-.97Z"/><path class="cls-4" d="M84.17,77.19h-8.18c-.53,0-.97,.43-.97,.97s.43,.97,.97,.97h8.18c.53,0,.97-.43,.97-.97s-.43-.97-.97-.97Z"/></g><g><g><path class="cls-4" d="M11.13,.35c-.32-.39-.87-.47-1.29-.19C6.1,2.67,3.97,7.05,3.51,13.19c-.02,.25,.06,.5,.22,.7L38.2,54.83c.19,.23,.46,.34,.74,.34,.21,0,.43-.07,.61-.21l9.04-7.3c.2-.16,.33-.4,.35-.65,.03-.26-.05-.51-.21-.71L11.13,.35Zm27.94,52.51L5.47,12.94c.44-4.9,2.03-8.47,4.75-10.65L46.62,46.77l-7.55,6.09Z"/><path class="cls-4" d="M28.05,41.85l-9.53,10.46-7.3-6.38,10.39-11.74c.35-.4,.32-1.01-.08-1.37-.4-.35-1.01-.32-1.37,.08l-11.04,12.47c-.17,.19-.26,.45-.24,.7,.02,.26,.14,.5,.33,.67l8.75,7.64c.18,.16,.41,.24,.64,.24,.26,0,.53-.11,.72-.32l10.17-11.16c.36-.4,.33-1.01-.06-1.37-.4-.36-1.01-.33-1.37,.06Z"/><path class="cls-4" d="M49.85,.84c-.4-.35-1.01-.31-1.36,.09L28.79,23.18c-.35,.4-.32,1.01,.08,1.37,.4,.35,1.01,.32,1.37-.08L49.29,2.95c2.99,2.89,4.43,6.42,4.4,10.76l-17.07,18.74c-.36,.4-.33,1.01,.06,1.37,.19,.17,.42,.25,.65,.25,.26,0,.52-.11,.72-.32L55.36,14.74c.16-.17,.25-.39,.25-.63,.14-5.37-1.8-9.84-5.77-13.27Z"/><path class="cls-4" d="M49.06,.4L10.29,.15h0c-.53,0-.96,.43-.97,.96,0,.53,.43,.97,.96,.97l38.77,.25h0c.53,0,.96-.43,.97-.96,0-.53-.43-.97-.96-.97Z"/><path class="cls-4" d="M41.39,8.93H17.69c-.53,0-.97,.43-.97,.97s.43,.97,.97,.97h23.69c.53,0,.97-.43,.97-.97s-.43-.97-.97-.97Z"/><path class="cls-4" d="M36.05,42.86c-.35-.41-.96-.45-1.36-.11-.41,.35-.45,.96-.11,1.36l3.92,4.58c.19,.22,.46,.34,.74,.34,.22,0,.45-.08,.63-.23,.41-.35,.45-.96,.11-1.36l-3.92-4.58Z"/><path class="cls-4" d="M11.02,13.58c-.35-.41-.96-.45-1.36-.11-.41,.35-.45,.96-.11,1.36l22.02,25.76c.19,.22,.46,.34,.74,.34,.22,0,.45-.08,.63-.23,.41-.35,.45-.96,.11-1.36L11.02,13.58Z"/></g><path class="cls-4" d="M50.27,18.78c-.43,.32-.51,.93-.19,1.36,3.55,4.68,5.43,10.28,5.43,16.17,0,14.77-12.02,26.79-26.79,26.79S1.94,51.07,1.94,36.3c0-6.37,2.27-12.53,6.4-17.37,.35-.41,.3-1.02-.11-1.36-.41-.35-1.02-.3-1.36,.11C2.44,22.86,0,29.48,0,36.3c0,7.67,2.99,14.89,8.41,20.31,5.43,5.43,12.64,8.41,20.31,8.41s14.89-2.99,20.31-8.41c5.43-5.43,8.41-12.64,8.41-20.31,0-6.32-2.01-12.32-5.82-17.34-.32-.43-.93-.51-1.36-.19Z"/></g><g><path class="cls-4" d="M171.53,107.91c-.52,0-.94,.42-.94,.94v3.15c0,.52,.42,.94,.94,.94s.94-.42,.94-.94v-3.15c0-.52-.42-.94-.94-.94Z"/><path class="cls-4" d="M173.75,100.18c-.97,.7-1.77,1.63-2.32,2.7-.24,.46-.06,1.03,.41,1.27,.14,.07,.29,.1,.43,.1,.34,0,.67-.19,.84-.51,.41-.8,1.01-1.5,1.75-2.03,.42-.31,.52-.9,.21-1.32-.31-.42-.9-.52-1.32-.21Z"/><path class="cls-4" d="M168.43,64.4c.14,0,.28-.03,.41-.1,.47-.23,.66-.79,.44-1.26-.38-.78-.58-1.63-.58-2.51v-.13c0-.52-.42-.94-.94-.94s-.94,.42-.94,.94v.13c0,1.17,.26,2.29,.77,3.33,.16,.34,.5,.53,.85,.53Z"/><path class="cls-4" d="M175.78,66.26h-1.35c-.52,0-1.03-.07-1.52-.2-.5-.14-1.02,.16-1.16,.66-.14,.5,.16,1.02,.66,1.16,.66,.18,1.34,.27,2.03,.27h1.35c.52,0,.94-.42,.94-.94s-.42-.94-.94-.94Z"/><path class="cls-4" d="M167.97,124.63c-.76,.49-1.63,.8-2.52,.89-.52,.05-.9,.52-.84,1.03,.05,.49,.46,.85,.94,.85,.03,0,.06,0,.1,0,1.19-.12,2.35-.53,3.36-1.18,.44-.28,.56-.87,.28-1.31-.28-.44-.87-.56-1.31-.28Z"/><path class="cls-4" d="M171.53,116.72c-.52,0-.94,.42-.94,.94v2.16c0,.28-.02,.57-.06,.85-.08,.52,.28,1,.8,1.07,.05,0,.09,.01,.14,.01,.46,0,.86-.34,.93-.81,.05-.37,.08-.75,.08-1.12v-2.16c0-.52-.42-.94-.94-.94Z"/><path class="cls-4" d="M190.79,86.2c-.52,0-.94,.42-.94,.94v3.15c0,.52,.42,.94,.94,.94s.94-.42,.94-.94v-3.15c0-.52-.42-.94-.94-.94Z"/><path class="cls-4" d="M182.84,98.74h-3.15c-.52,0-.94,.42-.94,.94s.42,.94,.94,.94h3.15c.52,0,.94-.42,.94-.94s-.42-.94-.94-.94Z"/><path class="cls-4" d="M190.56,95.01c-.47-.22-1.03-.02-1.26,.45-.39,.81-.97,1.53-1.68,2.09-.41,.32-.49,.91-.17,1.32,.19,.24,.47,.37,.75,.37,.2,0,.4-.06,.58-.2,.95-.73,1.72-1.69,2.23-2.77,.22-.47,.02-1.03-.45-1.26Z"/><path class="cls-4" d="M190.79,77.39c-.52,0-.94,.42-.94,.94v3.15c0,.52,.42,.94,.94,.94s.94-.42,.94-.94v-3.15c0-.52-.42-.94-.94-.94Z"/><path class="cls-4" d="M184.65,66.28c-.18-.01-.36-.02-.53-.02h-2.68c-.52,0-.94,.42-.94,.94s.42,.94,.94,.94h2.68c.13,0,.27,0,.4,.01,.02,0,.04,0,.07,0,.49,0,.91-.38,.94-.88,.04-.52-.36-.97-.88-1.01Z"/><path class="cls-4" d="M189.76,72.85c.08,.46,.48,.78,.93,.78,.06,0,.11,0,.17-.02,.51-.09,.85-.58,.76-1.1-.21-1.18-.71-2.3-1.44-3.26-.32-.41-.91-.49-1.32-.18-.41,.32-.49,.91-.18,1.32,.55,.72,.92,1.56,1.08,2.45Z"/></g><g><path class="cls-4" d="M5.35,109.59c-.82-.36-1.56-.92-2.13-1.62-.33-.4-.93-.46-1.33-.13-.4,.33-.46,.93-.13,1.33,.76,.93,1.74,1.67,2.84,2.15,.12,.05,.25,.08,.38,.08,.36,0,.71-.21,.87-.57,.21-.48,0-1.03-.49-1.24Z"/><path class="cls-4" d="M13.34,84.13c.52,0,.94-.42,.94-.94s-.42-.94-.94-.94h-3.15c-.52,0-.94,.42-.94,.94s.42,.94,.94,.94h3.15Z"/><path class="cls-4" d="M1.91,103.26v-3.15c0-.52-.42-.94-.94-.94s-.94,.42-.94,.94v3.15c0,.52,.42,.94,.94,.94s.94-.42,.94-.94Z"/><path class="cls-4" d="M14,110.66c-.94-.4-1.93-.6-2.96-.6h-.48c-.52,0-.94,.42-.94,.94s.42,.94,.94,.94h.48c.77,0,1.52,.15,2.22,.45,.12,.05,.24,.07,.37,.07,.37,0,.72-.22,.87-.58,.2-.48-.02-1.03-.5-1.24Z"/><path class="cls-4" d="M1.7,86.68c.17,.12,.36,.18,.56,.18,.29,0,.58-.13,.76-.39,.53-.73,1.24-1.33,2.04-1.73,.47-.23,.65-.8,.42-1.27-.23-.47-.8-.65-1.27-.42-1.07,.54-2.01,1.33-2.72,2.3-.31,.42-.22,1.01,.2,1.32Z"/><path class="cls-4" d="M.97,95.39c.52,0,.94-.42,.94-.94v-3.15c0-.52-.42-.94-.94-.94s-.94,.42-.94,.94v3.15c0,.52,.42,.94,.94,.94Z"/><path class="cls-4" d="M30.08,79.33c.19-.48-.04-1.03-.53-1.23-.48-.19-1.03,.04-1.23,.53-.33,.83-.86,1.59-1.54,2.19-.39,.34-.43,.94-.08,1.33,.19,.21,.45,.32,.71,.32,.22,0,.44-.08,.62-.24,.9-.79,1.61-1.8,2.05-2.91Z"/><path class="cls-4" d="M29.67,69.28c-.52,0-.94,.42-.94,.94v3.15c0,.52,.42,.94,.94,.94s.94-.42,.94-.94v-3.15c0-.52-.42-.94-.94-.94Z"/><path class="cls-4" d="M29.67,132.47h-.56c-.52,0-.94,.42-.94,.94s.42,.94,.94,.94h.56c.52,0,.94-.42,.94-.94s-.42-.94-.94-.94Z"/><path class="cls-4" d="M16.77,118.67c0,.52,.42,.94,.94,.94s.94-.42,.94-.94v-.99c0-.83-.13-1.64-.39-2.42-.17-.49-.7-.76-1.19-.6-.49,.17-.76,.7-.6,1.19,.2,.58,.29,1.2,.29,1.82v.99Z"/><path class="cls-4" d="M23.58,132.42c-.89-.12-1.75-.46-2.49-.98-.43-.3-1.02-.2-1.32,.23-.3,.43-.2,1.02,.23,1.32,.98,.69,2.13,1.14,3.31,1.31,.04,0,.09,0,.13,0,.46,0,.87-.34,.93-.81,.07-.52-.29-.99-.8-1.07Z"/><path class="cls-4" d="M23.09,83.19c0-.52-.42-.94-.94-.94h-3.15c-.52,0-.94,.42-.94,.94s.42,.94,.94,.94h3.15c.52,0,.94-.42,.94-.94Z"/><path class="cls-4" d="M18.65,126.74v-2.41c0-.52-.42-.94-.94-.94s-.94,.42-.94,.94v2.41c0,.28,.02,.56,.05,.84,.05,.48,.46,.84,.94,.84,.03,0,.07,0,.1,0,.52-.06,.89-.52,.84-1.04-.02-.21-.03-.42-.03-.63Z"/></g></g></svg>