<?xml version="1.0" encoding="UTF-8"?><svg id="Layer_2" xmlns="http://www.w3.org/2000/svg" viewBox="0 0 202.66 162.69"><defs><style>.cls-1{fill:#e2e2e5;}.cls-2{fill:#fbd11a;}.cls-3{fill:#1e243a;}.cls-4{fill:#70c05e;}.cls-5{fill:#4f91cd;}</style></defs><g id="Layer_1-2"><path class="cls-5" d="M136.6,75.23h-8.84c-1.19,0-2.16,.96-2.16,2.16v40.08c0,.3,.24,.54,.54,.54l6.06-9.83,6,9.83c.3,0,.54-.24,.54-.54v-40.08c0-1.19-.96-2.16-2.16-2.16Z"/><path class="cls-2" d="M140.59,86.31c-.16,0-.32,.01-.48,.04-.1-.27-.21-.54-.33-.8,.13-.09,.25-.19,.36-.31,1.12-1.12,1.11-2.94,0-4.05-1.12-1.12-2.94-1.11-4.05,0-.11,.11-.21,.23-.3,.35-.26-.12-.52-.23-.79-.33,.02-.15,.04-.3,.04-.46,0-1.58-1.28-2.87-2.87-2.87s-2.87,1.28-2.87,2.87c0,.16,.01,.31,.04,.46-.28,.1-.54,.21-.8,.34-.09-.12-.19-.24-.3-.35-1.12-1.12-2.93-1.12-4.05,0-1.12,1.12-1.12,2.93,0,4.05,.11,.11,.24,.22,.36,.31-.12,.25-.23,.52-.32,.79-.15-.03-.31-.04-.48-.04-1.58,0-2.87,1.28-2.87,2.87s1.28,2.87,2.87,2.87c.17,0,.33-.02,.5-.04,.1,.27,.21,.54,.33,.79-.13,.09-.26,.2-.38,.32-1.12,1.12-1.11,2.94,0,4.05,1.12,1.12,2.94,1.11,4.05,0,.12-.12,.23-.26,.33-.4,.25,.12,.5,.22,.77,.32-.03,.17-.05,.34-.05,.51,0,1.58,1.28,2.87,2.87,2.87s2.87-1.28,2.87-2.87c0-.18-.02-.35-.05-.51,.27-.1,.53-.2,.78-.32,.1,.14,.21,.27,.33,.4,1.12,1.12,2.93,1.12,4.05,0,1.12-1.12,1.12-2.93,0-4.05-.12-.12-.25-.23-.38-.32,.12-.25,.23-.51,.32-.77,.16,.03,.33,.04,.5,.04,1.58,0,2.87-1.28,2.87-2.87s-1.28-2.87-2.87-2.87Z"/><g><path class="cls-2" d="M121.75,43.76c-1.48-1.46-3.92-1.2-5.06,.54l-15.39,23.48h10.73l19.03-8.52c2.11-.95,2.61-3.72,.97-5.34l-10.28-10.15Z"/><path class="cls-2" d="M80.96,43.76l-10.28,10.15c-1.65,1.63-1.14,4.4,.97,5.34l19.03,8.52h10.73l-15.39-23.48c-1.14-1.74-3.58-2-5.06-.54Z"/></g><rect class="cls-5" x="91.12" y="67.77" width="20.46" height="82.56"/><g><path class="cls-4" d="M169.21,.97s-6.05,8.94-3.96,17.62c2.09,8.68,11.53,13.81,11.53,13.81,0,0,6.05-8.94,3.96-17.62-2.09-8.68-11.53-13.81-11.53-13.81Z"/><path class="cls-4" d="M172.59,42.25c-6.63-5.91-17.28-4.65-17.28-4.65,0,0,.1,10.83,6.73,16.74,6.63,5.91,17.28,4.65,17.28,4.65,0,0-.1-10.83-6.73-16.74Z"/><path class="cls-4" d="M157.41,73.94s-2.88,10.43,1.86,17.97,15.31,9.32,15.31,9.32c0,0,2.88-10.43-1.86-17.97-4.74-7.54-15.31-9.32-15.31-9.32Z"/><path class="cls-4" d="M143.62,102.99s-4.5,9.83-1.02,18.04c3.49,8.21,13.64,11.68,13.64,11.68,0,0,4.5-9.83,1.02-18.04-3.49-8.21-13.64-11.68-13.64-11.68Z"/><path class="cls-4" d="M184.79,60.01c-6.15,6.41-5.42,17.21-5.42,17.21,0,0,10.71,.41,16.87-6,6.15-6.41,5.42-17.21,5.42-17.21,0,0-10.71-.41-16.87,6Z"/><path class="cls-4" d="M179.48,107.24c-8.16,3.43-11.72,13.65-11.72,13.65,0,0,9.68,4.66,17.84,1.23,8.16-3.43,11.72-13.65,11.72-13.65,0,0-9.68-4.66-17.84-1.23Z"/><path class="cls-4" d="M152.88,144.4c-8.77-1.15-16.9,5.91-16.9,5.91,0,0,6.08,8.92,14.85,10.06,8.77,1.15,16.9-5.91,16.9-5.91,0,0-6.08-8.92-14.85-10.06Z"/></g><path class="cls-4" d="M21.91,15.16c-2.09,8.68,3.96,17.62,3.96,17.62,0,0,9.44-5.13,11.53-13.81,2.09-8.68-3.96-17.62-3.96-17.62,0,0-9.44,5.13-11.53,13.81Z"/><path class="cls-4" d="M30.06,42.63c-6.63,5.91-6.73,16.74-6.73,16.74,0,0,10.65,1.25,17.28-4.65,6.63-5.91,6.73-16.74,6.73-16.74,0,0-10.65-1.25-17.28,4.65Z"/><path class="cls-4" d="M29.94,83.65c-4.74,7.54-1.86,17.97-1.86,17.97,0,0,10.57-1.79,15.31-9.32,4.74-7.54,1.86-17.97,1.86-17.97,0,0-10.57,1.79-15.31,9.32Z"/><path class="cls-4" d="M45.4,115.06c-3.49,8.21,1.02,18.04,1.02,18.04,0,0,10.15-3.48,13.64-11.68,3.49-8.21-1.02-18.04-1.02-18.04,0,0-10.15,3.48-13.64,11.68Z"/><path class="cls-4" d="M1,54.4s-.73,10.8,5.42,17.21c6.15,6.41,16.87,6,16.87,6,0,0,.73-10.8-5.42-17.21C11.71,53.99,1,54.4,1,54.4Z"/><path class="cls-4" d="M23.18,107.63c-8.16-3.43-17.84,1.23-17.84,1.23,0,0,3.56,10.22,11.72,13.65,8.16,3.43,17.84-1.23,17.84-1.23,0,0-3.56-10.22-11.72-13.65Z"/><path class="cls-4" d="M49.77,144.79c-8.77,1.15-14.85,10.06-14.85,10.06,0,0,8.13,7.06,16.9,5.91,8.77-1.15,14.85-10.06,14.85-10.06,0,0-8.13-7.06-16.9-5.91Z"/><circle class="cls-1" cx="132.18" cy="89.18" r="4"/><g><path class="cls-3" d="M143.69,10.89c-.67,.24-1.03,.97-.79,1.65h0c.19,.53,.69,.86,1.22,.86,.14,0,.29-.02,.43-.07,.67-.24,1.03-.97,.79-1.65-.24-.67-.97-1.03-1.65-.79Z"/><path class="cls-3" d="M147.97,14.31c-.67-.24-1.41,.12-1.64,.8-.24,.67,.12,1.41,.8,1.64,.14,.05,.28,.07,.42,.07,.53,0,1.03-.33,1.22-.87,.23-.67-.12-1.41-.8-1.64Z"/><path class="cls-3" d="M152.42,7.22c.25,.25,.58,.38,.91,.38s.66-.13,.91-.38c.5-.51,.5-1.32,0-1.83,0,0,0,0,0,0,0,0,0,0,0-.01-.51-.5-1.32-.5-1.83,0-.5,.51-.5,1.32,0,1.83,0,0,0,0,0,0Z"/><path class="cls-3" d="M145.33,6.2c-.6-.38-1.4-.2-1.78,.41-.38,.6-.2,1.4,.41,1.78,.21,.13,.45,.2,.68,.2,.43,0,.85-.21,1.1-.61,.38-.6,.2-1.4-.41-1.78Z"/><path class="cls-3" d="M155.08,9.6c-.71-.08-1.35,.43-1.43,1.14-.08,.71,.43,1.35,1.14,1.43,.05,0,.1,0,.15,0,.65,0,1.21-.49,1.28-1.15,.08-.71-.43-1.35-1.14-1.43Z"/><path class="cls-3" d="M151.67,13.89h0c-.6,.38-.78,1.18-.4,1.78,.25,.39,.67,.6,1.09,.6,.24,0,.47-.06,.69-.2,.6-.38,.78-1.18,.4-1.78-.38-.6-1.18-.78-1.78-.4Z"/><path class="cls-3" d="M148.6,3.42c-.71,.08-1.22,.72-1.14,1.43,.08,.66,.63,1.14,1.28,1.14,.05,0,.1,0,.15,0,.71-.08,1.22-.72,1.14-1.43-.08-.71-.72-1.22-1.43-1.14Z"/></g><g><path class="cls-3" d="M87.06,4.78c-.6-.38-1.4-.2-1.78,.41-.38,.6-.2,1.4,.41,1.78,.21,.13,.45,.2,.68,.2,.43,0,.85-.21,1.1-.61,.38-.6,.2-1.4-.41-1.78Z"/><path class="cls-3" d="M94.15,5.8c.25,.25,.58,.38,.91,.38s.66-.13,.91-.38c.5-.51,.5-1.32,0-1.83,0,0-.01,0-.01-.01-.51-.5-1.32-.5-1.83,0-.5,.51-.5,1.32,0,1.83,0,0,0,0,0,0Z"/><path class="cls-3" d="M85.42,9.47c-.67,.24-1.03,.97-.79,1.65,.19,.53,.69,.86,1.22,.86,.14,0,.29-.02,.43-.07,.67-.24,1.03-.97,.79-1.65-.24-.67-.97-1.03-1.65-.79Z"/><path class="cls-3" d="M90.33,2c-.71,.08-1.22,.72-1.14,1.43,.08,.66,.63,1.14,1.28,1.14,.05,0,.1,0,.15,0,.71-.08,1.22-.72,1.14-1.43-.08-.71-.72-1.22-1.43-1.14Z"/><path class="cls-3" d="M96.81,8.17c-.71-.08-1.35,.43-1.43,1.14-.08,.71,.43,1.35,1.14,1.43,.05,0,.1,0,.14,0,.65,0,1.21-.49,1.28-1.15,.08-.71-.43-1.35-1.14-1.43Z"/><path class="cls-3" d="M89.7,12.89c-.67-.24-1.41,.12-1.64,.8-.24,.67,.12,1.41,.8,1.64,.14,.05,.28,.07,.42,.07,.53,0,1.03-.33,1.22-.87,.23-.67-.12-1.41-.8-1.64Z"/><path class="cls-3" d="M93.4,12.47h0c-.6,.38-.78,1.18-.4,1.78,.25,.39,.67,.6,1.09,.6,.24,0,.47-.06,.69-.2,.6-.38,.78-1.18,.4-1.78-.38-.6-1.18-.78-1.78-.4Z"/></g><g><path class="cls-3" d="M116.78,23.12c-.6-.38-1.4-.2-1.78,.41-.38,.6-.2,1.4,.41,1.78,.21,.13,.45,.2,.68,.2,.43,0,.85-.21,1.1-.61,.38-.6,.2-1.4-.41-1.78Z"/><path class="cls-3" d="M115.13,27.82c-.67,.24-1.03,.97-.79,1.65h0c.19,.53,.69,.86,1.22,.86,.14,0,.29-.02,.43-.07,.67-.24,1.03-.97,.79-1.65-.24-.67-.97-1.03-1.65-.79Z"/><path class="cls-3" d="M123.86,24.14s0,0,0,0c.25,.25,.58,.38,.91,.38s.66-.13,.91-.38c.5-.51,.5-1.32,0-1.83,0,0,0,0,0,0,0,0,0,0,0-.01-.51-.5-1.32-.5-1.83,0-.5,.51-.5,1.32,0,1.83,0,0,0,0,0,0Z"/><path class="cls-3" d="M123.12,30.82c-.6,.38-.78,1.18-.4,1.78,.25,.39,.67,.6,1.09,.6,.24,0,.47-.06,.69-.2,.6-.38,.78-1.18,.4-1.78-.38-.6-1.18-.78-1.78-.4Z"/><path class="cls-3" d="M126.53,26.52c-.71-.08-1.35,.43-1.43,1.14-.08,.71,.43,1.35,1.14,1.43,.05,0,.1,0,.14,0,.65,0,1.21-.49,1.28-1.15,.08-.71-.43-1.35-1.14-1.43Z"/><path class="cls-3" d="M119.42,31.24c-.67-.24-1.41,.12-1.64,.8-.24,.67,.12,1.41,.8,1.64,.14,.05,.28,.07,.42,.07,.53,0,1.03-.33,1.22-.87,.23-.67-.12-1.41-.8-1.64Z"/><path class="cls-3" d="M120.05,20.35c-.71,.08-1.22,.72-1.14,1.43,.08,.66,.63,1.14,1.28,1.14,.05,0,.1,0,.15,0,.71-.08,1.22-.72,1.14-1.43-.08-.71-.72-1.22-1.43-1.14Z"/></g><g><path class="cls-3" d="M48.98,38.15c-.67,.24-1.03,.97-.79,1.65h0c.19,.53,.69,.86,1.22,.86,.14,0,.29-.02,.43-.07,.67-.24,1.03-.97,.79-1.65-.24-.67-.97-1.03-1.65-.79Z"/><path class="cls-3" d="M57.72,34.48c.25,.25,.58,.38,.91,.38s.66-.13,.91-.38c.5-.51,.5-1.32,0-1.83h0s0,0,0,0c0,0,0,0,0-.01-.51-.5-1.32-.5-1.83,0-.5,.51-.5,1.32,0,1.82,0,0,.01,.01,.01,.02Z"/><path class="cls-3" d="M50.63,33.46c-.6-.38-1.4-.2-1.78,.41-.38,.6-.2,1.4,.41,1.78,.21,.13,.45,.2,.68,.2,.43,0,.85-.21,1.1-.61,.38-.6,.2-1.4-.41-1.78Z"/><path class="cls-3" d="M60.38,36.86c-.71-.08-1.35,.43-1.43,1.14-.08,.71,.43,1.35,1.14,1.43,.05,0,.1,0,.14,0,.65,0,1.21-.49,1.28-1.15,.08-.71-.43-1.35-1.14-1.43Z"/><path class="cls-3" d="M56.97,41.15c-.6,.38-.78,1.18-.4,1.78,.25,.39,.67,.6,1.09,.6,.24,0,.47-.06,.69-.2,.6-.38,.78-1.18,.4-1.78-.38-.6-1.18-.78-1.78-.4Z"/><path class="cls-3" d="M53.9,30.68c-.71,.08-1.22,.72-1.14,1.43,.08,.66,.63,1.14,1.28,1.14,.05,0,.1,0,.15,0,.71-.08,1.22-.72,1.14-1.43-.08-.71-.72-1.22-1.43-1.14Z"/><path class="cls-3" d="M53.27,41.57c-.67-.24-1.41,.12-1.64,.8-.24,.67,.12,1.41,.8,1.64,.14,.05,.28,.07,.42,.07,.53,0,1.03-.33,1.22-.87,.23-.67-.12-1.41-.8-1.64Z"/></g><g><path class="cls-3" d="M6.44,28.29c-.6-.38-1.4-.2-1.78,.41-.38,.6-.2,1.4,.41,1.78,.21,.13,.45,.2,.68,.2,.43,0,.85-.21,1.1-.61,.38-.6,.2-1.4-.41-1.78Z"/><path class="cls-3" d="M13.53,29.31s0,0,0,0c0,0,0,0,0,0,.25,.25,.58,.37,.91,.37,.33,0,.66-.13,.91-.38,.5-.51,.5-1.32,0-1.83,0,0,0,0,0,0,0,0,0,0,0-.01-.51-.5-1.32-.5-1.83,0-.5,.51-.5,1.32,0,1.83,0,0,0,0,0,0Z"/><path class="cls-3" d="M9.08,36.41c-.67-.24-1.41,.12-1.64,.8-.24,.67,.12,1.41,.8,1.64,.14,.05,.28,.07,.42,.07,.53,0,1.03-.33,1.22-.87,.23-.67-.12-1.41-.8-1.64Z"/><path class="cls-3" d="M4.8,32.98c-.67,.24-1.03,.97-.79,1.65,.19,.53,.69,.86,1.22,.86,.14,0,.29-.02,.43-.07,.67-.24,1.03-.97,.79-1.65-.24-.67-.97-1.03-1.65-.79Z"/><path class="cls-3" d="M16.19,31.69c-.71-.08-1.35,.43-1.43,1.14-.08,.71,.43,1.35,1.14,1.43,.05,0,.1,0,.14,0,.65,0,1.21-.49,1.28-1.15,.08-.71-.43-1.35-1.14-1.43Z"/><path class="cls-3" d="M9.71,25.52c-.71,.08-1.22,.72-1.14,1.43,.08,.66,.63,1.14,1.28,1.14,.05,0,.1,0,.15,0,.71-.08,1.22-.72,1.14-1.43-.08-.71-.72-1.22-1.43-1.14Z"/><path class="cls-3" d="M12.78,35.99c-.6,.38-.78,1.18-.4,1.78,.25,.39,.67,.6,1.09,.6,.24,0,.47-.06,.69-.2,.6-.38,.78-1.18,.4-1.78-.38-.6-1.18-.78-1.78-.4Z"/></g><g><path class="cls-3" d="M4.8,139.57c-.67,.24-1.03,.97-.79,1.65,.19,.53,.69,.87,1.22,.87,.14,0,.29-.02,.43-.07,.67-.24,1.03-.97,.79-1.65-.24-.67-.97-1.03-1.65-.79Z"/><path class="cls-3" d="M6.44,134.88c-.6-.38-1.4-.2-1.78,.41-.38,.6-.2,1.4,.41,1.78,.21,.13,.45,.2,.68,.2,.43,0,.85-.21,1.1-.61,.38-.6,.2-1.4-.41-1.78Z"/><path class="cls-3" d="M13.53,135.9s0,0,0,0c0,0,0,0,0,0,.25,.25,.58,.37,.91,.37s.66-.13,.91-.38c.5-.51,.5-1.32,0-1.83h0l-.02-.02c-.51-.5-1.32-.5-1.83,0-.5,.51-.5,1.32,0,1.83,0,0,0,0,0,0Z"/><path class="cls-3" d="M16.19,138.28c-.71-.08-1.35,.43-1.43,1.14-.08,.71,.43,1.35,1.14,1.43,.05,0,.1,0,.14,0,.65,0,1.21-.49,1.28-1.15,.08-.71-.43-1.35-1.14-1.43Z"/><path class="cls-3" d="M12.78,142.58h0c-.6,.38-.78,1.18-.4,1.78,.25,.39,.67,.6,1.09,.6,.24,0,.47-.06,.69-.2,.6-.38,.78-1.18,.4-1.78-.38-.6-1.18-.78-1.78-.4Z"/><path class="cls-3" d="M9.08,143c-.67-.24-1.41,.12-1.64,.8-.24,.67,.12,1.41,.8,1.64,.14,.05,.28,.07,.42,.07,.53,0,1.03-.33,1.22-.87,.23-.67-.12-1.41-.8-1.64Z"/><path class="cls-3" d="M9.71,132.11c-.71,.08-1.22,.72-1.14,1.43,.08,.66,.63,1.14,1.28,1.14,.05,0,.1,0,.15,0,.71-.08,1.22-.72,1.14-1.43-.08-.71-.72-1.22-1.43-1.14Z"/></g><g><path class="cls-3" d="M187.64,160.18c-.67-.24-1.41,.12-1.64,.8-.23,.67,.12,1.41,.8,1.64,.14,.05,.28,.07,.43,.07,.53,0,1.03-.33,1.22-.87,.23-.67-.12-1.41-.8-1.64Z"/><path class="cls-3" d="M192.09,153.09c.25,.25,.58,.38,.91,.38s.66-.13,.91-.38c.51-.51,.51-1.32,0-1.83h0s0,0-.01-.01c-.51-.5-1.32-.5-1.83,0-.5,.51-.5,1.32,0,1.83,0,0,0,0,0,0Z"/><path class="cls-3" d="M185,157.55c-.24-.67-.97-1.03-1.65-.79-.67,.24-1.03,.97-.79,1.65,.19,.53,.69,.86,1.22,.86,.14,0,.29-.02,.43-.07,.67-.24,1.03-.97,.79-1.65h0Z"/><path class="cls-3" d="M185,152.06c-.6-.38-1.4-.2-1.78,.41-.38,.6-.2,1.4,.41,1.78,.21,.13,.45,.2,.68,.2,.43,0,.85-.21,1.1-.61,.38-.6,.2-1.4-.41-1.78Z"/><path class="cls-3" d="M194.75,155.46c-.71-.08-1.35,.43-1.43,1.14h0c-.08,.71,.43,1.35,1.14,1.43,.05,0,.1,0,.14,0,.65,0,1.21-.49,1.28-1.15,.08-.71-.43-1.35-1.14-1.43Z"/><path class="cls-3" d="M188.26,149.29c-.71,.08-1.22,.72-1.14,1.43,.08,.66,.63,1.14,1.28,1.14,.05,0,.1,0,.15,0,.71-.08,1.22-.72,1.14-1.43-.08-.71-.72-1.22-1.43-1.14Z"/><path class="cls-3" d="M191.34,159.76h0c-.6,.38-.78,1.18-.4,1.78,.25,.39,.67,.6,1.09,.6,.24,0,.47-.06,.69-.2,.6-.38,.78-1.18,.4-1.78-.38-.6-1.18-.78-1.78-.4Z"/></g><g><path class="cls-3" d="M167.33,136.34c-.67,.24-1.03,.97-.79,1.65,.19,.53,.69,.86,1.22,.86,.14,0,.29-.02,.43-.07,.67-.24,1.03-.97,.79-1.65-.24-.67-.97-1.03-1.65-.79Z"/><path class="cls-3" d="M168.98,131.65c-.6-.38-1.4-.2-1.78,.41-.38,.6-.2,1.4,.41,1.78,.21,.13,.45,.2,.68,.2,.43,0,.85-.21,1.1-.61,.38-.6,.2-1.4-.41-1.78Z"/><path class="cls-3" d="M176.06,132.67s0,0,0,0c.25,.25,.58,.38,.91,.38s.66-.13,.91-.38c.5-.51,.5-1.32,0-1.83,0,0,0,0,0,0,0,0,0,0,0-.01-.51-.5-1.32-.5-1.83,0-.5,.51-.5,1.32,0,1.83,0,0,0,0,0,0Z"/><path class="cls-3" d="M172.24,128.88c-.71,.08-1.22,.72-1.14,1.43,.08,.66,.63,1.14,1.28,1.14,.05,0,.1,0,.15,0,.71-.08,1.22-.72,1.14-1.43-.08-.71-.72-1.22-1.43-1.14Z"/><path class="cls-3" d="M171.61,139.77c-.67-.24-1.41,.12-1.64,.8-.24,.67,.12,1.41,.8,1.64,.14,.05,.28,.07,.42,.07,.53,0,1.03-.33,1.22-.87,.23-.67-.12-1.41-.8-1.64Z"/><path class="cls-3" d="M178.72,135.05c-.71-.08-1.35,.43-1.43,1.14-.08,.71,.43,1.35,1.14,1.43,.05,0,.1,0,.14,0,.65,0,1.21-.49,1.28-1.15,.08-.71-.43-1.35-1.14-1.43Z"/><path class="cls-3" d="M175.32,139.35c-.6,.38-.78,1.18-.4,1.78,.25,.39,.67,.6,1.09,.6,.24,0,.47-.06,.69-.2,.6-.38,.78-1.18,.4-1.78-.38-.6-1.18-.78-1.78-.4Z"/></g><g><path class="cls-3" d="M186.42,84.23c-.6-.38-1.4-.2-1.78,.41-.38,.6-.2,1.4,.41,1.78,.21,.13,.45,.2,.68,.2,.43,0,.85-.21,1.1-.61,.38-.6,.2-1.4-.41-1.78Z"/><path class="cls-3" d="M184.77,88.93c-.67,.24-1.03,.97-.79,1.65h0c.19,.53,.69,.87,1.22,.87,.14,0,.29-.02,.43-.07,.67-.24,1.03-.97,.79-1.65-.24-.67-.97-1.03-1.65-.79Z"/><path class="cls-3" d="M193.5,85.25s0,0,0,0h0c.25,.25,.58,.38,.91,.38s.66-.13,.91-.38c.51-.51,.51-1.32,0-1.83h0s0,0,0,0c0,0,0,0,0,0h0c-.51-.5-1.32-.5-1.83,0-.5,.51-.5,1.32,0,1.83,0,0,0,0,0,0Z"/><path class="cls-3" d="M189.68,81.46c-.71,.08-1.22,.72-1.14,1.43,.08,.66,.63,1.14,1.28,1.14,.05,0,.1,0,.15,0,.71-.08,1.22-.72,1.14-1.43-.08-.71-.72-1.22-1.43-1.14Z"/><path class="cls-3" d="M196.17,87.63c-.71-.08-1.35,.43-1.43,1.14-.08,.71,.43,1.35,1.14,1.43,.05,0,.1,0,.14,0,.65,0,1.21-.49,1.28-1.15,.08-.71-.43-1.35-1.14-1.43Z"/><path class="cls-3" d="M189.06,92.35c-.67-.24-1.41,.12-1.64,.8-.24,.67,.12,1.41,.8,1.64,.14,.05,.28,.07,.42,.07,.53,0,1.03-.33,1.22-.87,.23-.67-.12-1.41-.8-1.64Z"/><path class="cls-3" d="M192.76,91.93c-.6,.38-.78,1.18-.4,1.78,.25,.39,.67,.6,1.09,.6,.24,0,.47-.06,.69-.2,.6-.38,.78-1.18,.4-1.78-.38-.6-1.18-.78-1.78-.4Z"/></g><g><path class="cls-3" d="M188.78,40.48c-.67,.24-1.03,.97-.79,1.65h0c.19,.53,.69,.86,1.22,.86,.14,0,.29-.02,.43-.07,.67-.24,1.03-.97,.79-1.65-.24-.67-.97-1.03-1.65-.79Z"/><path class="cls-3" d="M197.51,36.81c.25,.25,.58,.38,.91,.38s.66-.13,.91-.38c.5-.51,.5-1.32,0-1.83,0,0,0,0,0,0,0,0,0,0,0-.01-.51-.5-1.32-.5-1.83,0-.5,.51-.5,1.32,0,1.83,0,0,0,0,0,0Z"/><path class="cls-3" d="M190.42,35.78c-.6-.38-1.4-.2-1.78,.41-.38,.6-.2,1.4,.41,1.78,.21,.13,.45,.2,.68,.2,.43,0,.85-.21,1.1-.61,.38-.6,.2-1.4-.41-1.78Z"/><path class="cls-3" d="M200.17,39.18c-.71-.08-1.35,.43-1.43,1.14-.08,.71,.43,1.35,1.14,1.43,.05,0,.1,0,.14,0,.65,0,1.21-.49,1.28-1.15,.08-.71-.43-1.35-1.14-1.43Z"/><path class="cls-3" d="M193.06,43.9c-.67-.24-1.41,.12-1.64,.8-.24,.67,.12,1.41,.8,1.64,.14,.05,.28,.07,.42,.07,.53,0,1.03-.33,1.22-.87,.23-.67-.12-1.41-.8-1.64Z"/><path class="cls-3" d="M196.76,43.48h0c-.6,.38-.78,1.18-.4,1.78,.25,.39,.67,.6,1.09,.6,.24,0,.47-.06,.69-.2,.6-.38,.78-1.18,.4-1.78-.38-.6-1.18-.78-1.78-.4Z"/><path class="cls-3" d="M193.69,33.01c-.71,.08-1.22,.72-1.14,1.43,.08,.66,.63,1.14,1.28,1.14,.05,0,.1,0,.15,0,.71-.08,1.22-.72,1.14-1.43-.08-.71-.72-1.22-1.43-1.14Z"/></g><g><path class="cls-3" d="M141.84,27.04c-.54,0-.97,.43-.97,.97v6.2c0,.54,.43,.97,.97,.97s.97-.43,.97-.97v-6.2c0-.54-.43-.97-.97-.97Z"/><path class="cls-3" d="M145.01,30.2h-6.2c-.54,0-.97,.43-.97,.97s.43,.97,.97,.97h6.2c.54,0,.97-.43,.97-.97s-.43-.97-.97-.97Z"/></g><g><path class="cls-3" d="M97.14,32.08c-.54,0-.97,.43-.97,.97v6.2c0,.54,.43,.97,.97,.97s.97-.43,.97-.97v-6.2c0-.54-.43-.97-.97-.97Z"/><path class="cls-3" d="M100.3,35.24h-6.2c-.54,0-.97,.43-.97,.97s.43,.97,.97,.97h6.2c.54,0,.97-.43,.97-.97s-.43-.97-.97-.97Z"/></g><g><path class="cls-3" d="M120.14,4.82c-.54,0-.97,.43-.97,.97v6.2c0,.54,.43,.97,.97,.97s.97-.43,.97-.97V5.79c0-.54-.43-.97-.97-.97Z"/><path class="cls-3" d="M123.3,7.98h-6.2c-.54,0-.97,.43-.97,.97s.43,.97,.97,.97h6.2c.54,0,.97-.43,.97-.97s-.43-.97-.97-.97Z"/></g><g><path class="cls-3" d="M193.52,125.49c-.54,0-.97,.43-.97,.97v6.2c0,.54,.43,.97,.97,.97s.97-.43,.97-.97v-6.2c0-.54-.43-.97-.97-.97Z"/><path class="cls-3" d="M196.69,128.65h-6.2c-.54,0-.97,.43-.97,.97s.43,.97,.97,.97h6.2c.54,0,.97-.43,.97-.97s-.43-.97-.97-.97Z"/></g><g><path class="cls-3" d="M21.43,152.1c-.54,0-.97,.43-.97,.97v6.2c0,.54,.43,.97,.97,.97s.97-.43,.97-.97v-6.2c0-.54-.43-.97-.97-.97Z"/><path class="cls-3" d="M24.59,155.27h-6.2c-.54,0-.97,.43-.97,.97s.43,.97,.97,.97h6.2c.54,0,.97-.43,.97-.97s-.43-.97-.97-.97Z"/></g><g><path class="cls-3" d="M12.13,85.05c-.54,0-.97,.43-.97,.97v6.2c0,.54,.43,.97,.97,.97s.97-.43,.97-.97v-6.2c0-.54-.43-.97-.97-.97Z"/><path class="cls-3" d="M15.29,88.21h-6.2c-.54,0-.97,.43-.97,.97s.43,.97,.97,.97h6.2c.54,0,.97-.43,.97-.97s-.43-.97-.97-.97Z"/></g><g><path class="cls-3" d="M62.51,7.92c-.54,0-.97,.43-.97,.97v6.2c0,.54,.43,.97,.97,.97s.97-.43,.97-.97v-6.2c0-.54-.43-.97-.97-.97Z"/><path class="cls-3" d="M65.68,11.08h-6.2c-.54,0-.97,.43-.97,.97s.43,.97,.97,.97h6.2c.54,0,.97-.43,.97-.97s-.43-.97-.97-.97Z"/></g><g><path class="cls-3" d="M190.42,3.65c-.54,0-.97,.43-.97,.97v6.2c0,.54,.43,.97,.97,.97s.97-.43,.97-.97V4.62c0-.54-.43-.97-.97-.97Z"/><path class="cls-3" d="M193.59,6.82h-6.2c-.54,0-.97,.43-.97,.97s.43,.97,.97,.97h6.2c.54,0,.97-.43,.97-.97s-.43-.97-.97-.97Z"/></g><g><path class="cls-3" d="M135.29,113.15c-.54,0-.97,.43-.97,.97v35.24H68.38V85.04c0-.54-.43-.97-.97-.97s-.97,.43-.97,.97v65.29c0,.54,.43,.97,.97,.97h67.88c.54,0,.97-.43,.97-.97v-36.21c0-.54-.43-.97-.97-.97Z"/><path class="cls-3" d="M144.23,66.8H58.48c-.54,0-.97,.43-.97,.97v17.27c0,.54,.43,.97,.97,.97H123.15c.54,0,.97-.43,.97-.97s-.43-.97-.97-.97H59.45v-15.33h83.82v15.33h-1.99c-.54,0-.97,.43-.97,.97s.43,.97,.97,.97h2.96c.54,0,.97-.43,.97-.97v-17.27c0-.54-.43-.97-.97-.97Z"/><g><path class="cls-3" d="M91.12,66.8c-.54,0-.97,.43-.97,.97v82.56c0,.54,.43,.97,.97,.97s.97-.43,.97-.97V67.77c0-.54-.43-.97-.97-.97Z"/><path class="cls-3" d="M111.59,66.8c-.54,0-.97,.43-.97,.97v82.56c0,.54,.43,.97,.97,.97s.97-.43,.97-.97V67.77c0-.54-.43-.97-.97-.97Z"/></g><path class="cls-3" d="M70.72,70.23h-8.18c-.54,0-.97,.43-.97,.97v5.73c0,.54,.43,.97,.97,.97s.97-.43,.97-.97v-4.76h7.21c.54,0,.97-.43,.97-.97s-.43-.97-.97-.97Z"/><path class="cls-3" d="M80.13,70.23h-5.01c-.54,0-.97,.43-.97,.97s.43,.97,.97,.97h5.01c.54,0,.97-.43,.97-.97s-.43-.97-.97-.97Z"/><path class="cls-3" d="M71.95,90.57c-.54,0-.97,.43-.97,.97v4.91c0,.54,.43,.97,.97,.97s.97-.43,.97-.97v-4.91c0-.54-.43-.97-.97-.97Z"/><path class="cls-3" d="M78.49,144.86h-5.57v-43.2c0-.54-.43-.97-.97-.97s-.97,.43-.97,.97v44.17c0,.54,.43,.97,.97,.97h6.54c.54,0,.97-.43,.97-.97s-.43-.97-.97-.97Z"/><g><path class="cls-3" d="M122.43,43.07c-.91-.9-2.17-1.34-3.44-1.21-1.28,.14-2.41,.83-3.11,1.9l-15.39,23.48c-.29,.45-.17,1.05,.28,1.34,.45,.29,1.05,.17,1.34-.28l15.39-23.48c.38-.58,1-.96,1.7-1.04,.7-.07,1.38,.17,1.88,.66l10.28,10.15c.55,.55,.79,1.3,.65,2.07-.14,.77-.63,1.39-1.34,1.7l-19.03,8.52c-.49,.22-.71,.79-.49,1.28,.16,.36,.51,.57,.89,.57,.13,0,.27-.03,.4-.08l19.03-8.52c1.28-.57,2.2-1.74,2.45-3.13,.25-1.38-.2-2.8-1.2-3.79l-10.28-10.15Z"/><path class="cls-3" d="M86.84,43.76c-.7-1.07-1.84-1.77-3.11-1.9-1.28-.13-2.53,.3-3.44,1.21l-10.28,10.15c-1,.99-1.45,2.41-1.2,3.79,.25,1.38,1.17,2.55,2.45,3.13l19.03,8.52c.13,.06,.26,.08,.4,.08,.37,0,.72-.21,.89-.57,.22-.49,0-1.06-.49-1.28l-19.03-8.52c-.71-.32-1.2-.94-1.34-1.71-.14-.77,.1-1.52,.65-2.07l10.28-10.15c.5-.49,1.18-.73,1.88-.66s1.31,.45,1.7,1.04l15.39,23.48c.29,.45,.89,.57,1.34,.28,.45-.29,.57-.89,.28-1.34l-15.39-23.48Z"/></g><path class="cls-3" d="M90.04,54.91c-.3-.44-.9-.56-1.35-.26-.44,.3-.56,.9-.26,1.35l5.4,7.97c.19,.28,.49,.43,.8,.43,.19,0,.38-.05,.54-.17,.44-.3,.56-.9,.26-1.35l-5.4-7.97Z"/><path class="cls-3" d="M85.12,47.65c-.3-.44-.9-.56-1.35-.26-.44,.3-.56,.9-.26,1.35l1.85,2.73c.19,.28,.49,.43,.8,.43,.19,0,.38-.05,.54-.17,.44-.3,.56-.9,.26-1.35l-1.85-2.73Z"/></g><g><g><path class="cls-3" d="M169.68,.12c-.44-.24-.99-.1-1.27,.31-.26,.38-6.27,9.4-4.1,18.39,2.17,8.99,11.61,14.21,12.01,14.43,.15,.08,.31,.12,.46,.12,.31,0,.62-.15,.8-.43,.26-.38,6.27-9.4,4.1-18.39-2.17-8.99-11.61-14.21-12.01-14.43Zm6.78,30.95c-2.25-1.42-8.64-5.98-10.27-12.71-1.62-6.72,2-13.76,3.34-16.07,2.25,1.42,8.64,5.98,10.27,12.71,1.62,6.72-2,13.76-3.34,16.07Z"/><path class="cls-3" d="M173.24,41.52c-6.88-6.13-17.58-4.94-18.04-4.89-.49,.06-.86,.48-.86,.97,0,.46,.19,11.33,7.06,17.45,4.89,4.35,11.71,5.02,15.41,5.02,1.51,0,2.5-.11,2.63-.13,.49-.06,.86-.48,.86-.97,0-.46-.19-11.33-7.06-17.45Zm-10.54,12.08c-5.14-4.58-6.16-12.46-6.36-15.12,2.64-.13,10.47-.1,15.62,4.48,5.14,4.58,6.16,12.46,6.36,15.12-2.64,.13-10.47,.1-15.62-4.48Z"/><path class="cls-3" d="M157.57,72.98c-.49-.08-.96,.22-1.1,.7-.12,.44-2.94,10.93,1.97,18.74,4.92,7.81,15.52,9.69,15.97,9.76,.05,0,.11,.01,.16,.01,.43,0,.82-.29,.93-.71,.12-.44,2.94-10.93-1.97-18.74-4.92-7.81-15.52-9.69-15.97-9.76Zm16.28,27.1c-2.58-.62-10.1-2.86-13.77-8.69-3.68-5.84-2.49-13.69-1.95-16.3,2.58,.62,10.1,2.86,13.77,8.69,3.68,5.84,2.49,13.69,1.95,16.3Z"/><path class="cls-3" d="M143.93,102.07c-.47-.16-.99,.06-1.19,.51-.19,.42-4.64,10.32-1.03,18.82,3.61,8.51,13.78,12.07,14.22,12.22,.1,.04,.21,.05,.31,.05,.37,0,.72-.21,.88-.57,.19-.42,4.64-10.32,1.03-18.82-3.61-8.51-13.78-12.07-14.22-12.22Zm11.77,29.39c-2.45-1.02-9.51-4.45-12.21-10.81-2.7-6.36-.29-13.91,.66-16.41,2.45,1.02,9.51,4.45,12.21,10.81,2.7,6.36,.29,13.91-.66,16.41Z"/><path class="cls-3" d="M201.69,53.04c-.46-.02-11.22-.35-17.6,6.3-6.38,6.64-5.72,17.49-5.69,17.95,.03,.49,.43,.88,.93,.9,.05,0,.22,0,.5,0,2.25,0,11.42-.38,17.11-6.3,6.38-6.64,5.72-17.49,5.69-17.95-.03-.49-.43-.88-.93-.9Zm-6.16,17.51l.7,.67-.7-.67c-4.76,4.96-12.58,5.62-15.22,5.7,0-2.67,.4-10.6,5.18-15.57,4.76-4.96,12.58-5.62,15.22-5.7,0,2.67-.39,10.59-5.18,15.57Z"/><path class="cls-3" d="M197.74,107.59c-.41-.2-10.17-4.81-18.63-1.25-8.46,3.56-12.11,13.79-12.26,14.22-.16,.47,.05,.98,.49,1.19,.3,.14,5.48,2.59,11.53,2.59,2.32,0,4.76-.36,7.1-1.34,8.46-3.56,12.11-13.79,12.26-14.22,.16-.47-.05-.98-.49-1.19Zm-12.14,14.52h0Zm-.38-.89c-6.32,2.66-13.76,.13-16.22-.85,1.04-2.45,4.51-9.57,10.84-12.23,6.32-2.66,13.76-.13,16.22,.85-1.04,2.45-4.52,9.57-10.84,12.23Z"/><path class="cls-3" d="M153.01,143.44c-9.09-1.19-17.31,5.84-17.66,6.14-.37,.32-.44,.87-.17,1.28,.26,.38,6.43,9.29,15.52,10.48,.71,.09,1.41,.14,2.1,.14,8.22,0,15.23-6,15.55-6.28,.37-.32,.44-.87,.17-1.28-.26-.38-6.43-9.29-15.52-10.48Zm-.22,16.09c-.61,0-1.22-.04-1.83-.12-6.8-.89-12-6.84-13.64-8.93,2.11-1.6,8.64-6.01,15.43-5.12,6.8,.89,12,6.85,13.64,8.93-1.91,1.45-7.48,5.24-13.6,5.24Z"/></g><g><path class="cls-3" d="M176.73,31.4c-.53,.08-.9,.57-.82,1.1,5.27,36.68,2,65.92-9.74,86.91-12.27,21.95-34.19,35.53-65.16,40.36-30.93-4.83-52.74-18.34-64.84-40.17-11.53-20.81-14.7-49.99-9.42-86.72,.08-.53-.29-1.02-.82-1.1-.53-.08-1.02,.29-1.1,.82-2.63,18.31-3.21,34.9-1.7,49.29,1.55,14.86,5.37,27.87,11.34,38.65,6.15,11.09,14.76,20.17,25.61,26.97,11.03,6.92,24.69,11.68,40.61,14.17,.09,.03,.19,.04,.28,.04h.06c.1,0,.19-.01,.28-.04,15.92-2.49,29.61-7.27,40.71-14.23,10.91-6.84,19.6-15.96,25.82-27.1,6.06-10.84,9.95-23.89,11.56-38.78,1.57-14.46,1.03-31.07-1.6-49.35-.08-.53-.57-.9-1.1-.82Z"/><path class="cls-3" d="M32.98,.51c-.4,.22-9.84,5.44-12.01,14.43-2.17,8.99,3.84,18.01,4.1,18.39,.19,.27,.49,.43,.8,.43,.16,0,.32-.04,.46-.12,.4-.22,9.84-5.44,12.01-14.43,2.17-8.99-3.84-18.01-4.1-18.39-.28-.41-.83-.55-1.27-.31Zm-11.07,14.66h0Zm14.55,3.58c-1.62,6.71-8.02,11.28-10.27,12.71-1.35-2.31-4.96-9.34-3.34-16.06,1.62-6.71,8.02-11.28,10.27-12.71,1.35,2.31,4.96,9.34,3.34,16.06Z"/><path class="cls-3" d="M47.46,37.02c-.45-.05-11.16-1.23-18.04,4.89-6.87,6.12-7.05,16.99-7.06,17.45,0,.49,.36,.91,.86,.97,.13,.02,1.12,.13,2.63,.13,3.7,0,10.52-.66,15.41-5.02,6.87-6.12,7.05-16.99,7.06-17.45,0-.49-.36-.91-.86-.97Zm-7.49,16.97c-5.13,4.57-12.97,4.61-15.62,4.48,.2-2.66,1.22-10.54,6.36-15.12,5.13-4.57,12.98-4.61,15.62-4.48-.2,2.66-1.22,10.54-6.36,15.12Z"/><path class="cls-3" d="M45.09,73.37c-.45,.08-11.06,1.95-15.97,9.76-4.91,7.81-2.1,18.3-1.97,18.74,.12,.43,.5,.71,.93,.71,.05,0,.11,0,.16-.01,.45-.08,11.06-1.95,15.97-9.76,4.91-7.81,2.1-18.3,1.97-18.74-.13-.48-.61-.78-1.1-.7Zm-2.52,18.41c-3.67,5.83-11.19,8.08-13.77,8.69-.54-2.61-1.73-10.45,1.95-16.3,3.67-5.83,11.19-8.08,13.77-8.69,.54,2.61,1.73,10.45-1.95,16.3Z"/><path class="cls-3" d="M58.73,102.46c-.43,.15-10.6,3.72-14.22,12.22-3.61,8.5,.84,18.4,1.03,18.82,.16,.35,.51,.57,.88,.57,.1,0,.21-.02,.31-.05,.43-.15,10.6-3.72,14.22-12.22,3.61-8.5-.84-18.4-1.03-18.82-.21-.45-.72-.67-1.19-.51Zm-13.32,12.6h0Zm13.76,5.97c-2.7,6.35-9.76,9.78-12.21,10.81-.95-2.49-3.37-10.03-.66-16.41,2.7-6.35,9.76-9.78,12.21-10.81,.95,2.49,3.37,10.03,.66,16.41Z"/><path class="cls-3" d="M.96,53.43c-.5,.02-.9,.41-.93,.9-.03,.46-.69,11.31,5.69,17.95,5.69,5.92,14.86,6.3,17.11,6.3,.28,0,.45,0,.5,0,.5-.02,.9-.41,.93-.9,.03-.46,.69-11.31-5.69-17.95-6.38-6.65-17.15-6.31-17.6-6.3Zm6.16,17.51h0c-4.77-4.97-5.18-12.9-5.18-15.57,2.64,.07,10.45,.72,15.22,5.7,4.77,4.97,5.18,12.9,5.18,15.57-2.65-.08-10.46-.74-15.22-5.7Z"/><path class="cls-3" d="M23.55,106.73c-8.47-3.56-18.22,1.05-18.64,1.25-.44,.21-.66,.73-.49,1.19,.15,.43,3.79,10.67,12.26,14.22,2.34,.99,4.79,1.34,7.1,1.34,6.05,0,11.23-2.45,11.53-2.59,.44-.21,.66-.73,.49-1.19-.15-.43-3.79-10.67-12.26-14.22Zm.18,16.05c-2.08,0-4.25-.32-6.3-1.18-6.33-2.66-9.81-9.79-10.84-12.23,2.45-.99,9.88-3.51,16.22-.85,6.33,2.66,9.81,9.79,10.84,12.23-1.66,.66-5.59,2.03-9.91,2.03Z"/><path class="cls-3" d="M67.31,149.97c-.35-.3-8.56-7.33-17.66-6.14-9.09,1.19-15.27,10.1-15.52,10.48-.28,.41-.21,.96,.17,1.28,.32,.28,7.33,6.28,15.55,6.28,.69,0,1.4-.04,2.1-.14,9.09-1.19,15.27-10.1,15.52-10.48,.28-.41,.21-.96-.17-1.28Zm-15.61,9.83c-.61,.08-1.22,.12-1.82,.12-6.11,0-11.69-3.79-13.61-5.24,1.63-2.09,6.83-8.04,13.64-8.93,6.79-.89,13.33,3.53,15.43,5.13-1.63,2.09-6.83,8.04-13.64,8.93Z"/></g></g><g><path class="cls-3" d="M141.27,85.4c1.04-1.5,.89-3.57-.44-4.9-1.33-1.32-3.39-1.47-4.88-.44-.33-1.78-1.9-3.13-3.77-3.13s-3.45,1.36-3.77,3.15c-1.5-1.04-3.57-.89-4.9,.44-.72,.72-1.12,1.69-1.12,2.71,0,.79,.24,1.54,.68,2.17-1.78,.33-3.13,1.9-3.13,3.77s1.36,3.45,3.16,3.77c-.44,.64-.68,1.4-.68,2.19,0,1.02,.4,1.99,1.13,2.71,.73,.72,1.68,1.12,2.71,1.12,.79,0,1.53-.24,2.17-.67,.33,1.78,1.9,3.13,3.77,3.13s3.45-1.36,3.77-3.15c1.5,1.04,3.57,.89,4.9-.44,.72-.72,1.12-1.69,1.12-2.71,0-.79-.24-1.54-.68-2.17,1.78-.33,3.13-1.9,3.13-3.77s-1.36-3.45-3.16-3.77Zm-.68,5.67c-.11,0-.22,0-.33-.03-.46-.08-.92,.18-1.08,.63-.08,.23-.18,.46-.29,.68-.2,.43-.07,.94,.32,1.21,.09,.07,.18,.14,.26,.21,.36,.36,.56,.83,.56,1.34s-.2,.98-.55,1.34c-.74,.74-1.94,.74-2.68,0-.08-.08-.15-.17-.22-.26-.27-.39-.78-.53-1.21-.32-.22,.11-.46,.2-.69,.29-.45,.16-.71,.62-.63,1.09,.02,.11,.03,.23,.03,.34,0,1.05-.85,1.9-1.9,1.9s-1.9-.85-1.9-1.9c0-.11,.01-.23,.03-.34,.08-.47-.18-.93-.63-1.09-.23-.08-.46-.18-.68-.28-.13-.06-.27-.09-.41-.09-.31,0-.61,.15-.8,.42-.07,.1-.14,.18-.22,.26-.36,.36-.83,.56-1.34,.56h0c-.51,0-.98-.2-1.34-.55-.36-.36-.56-.83-.56-1.34,0-.51,.2-.98,.55-1.34,.08-.08,.16-.15,.25-.21,.39-.27,.52-.79,.32-1.21-.11-.23-.21-.46-.29-.7-.16-.44-.61-.71-1.08-.63-.11,.02-.22,.03-.33,.03-1.05,0-1.9-.85-1.9-1.9,0-1.15,1.03-2.07,2.21-1.87,.46,.08,.92-.19,1.07-.63,.08-.24,.18-.47,.28-.69,.2-.42,.07-.93-.31-1.2-.09-.06-.17-.13-.24-.2-.36-.36-.56-.83-.56-1.34,0-.51,.2-.98,.55-1.34,.36-.36,.83-.56,1.34-.56h0c.51,0,.98,.2,1.34,.55,.07,.07,.14,.15,.2,.23,.27,.38,.78,.51,1.2,.31,.23-.11,.47-.21,.71-.3,.44-.16,.7-.61,.63-1.07-.02-.1-.02-.2-.02-.3,0-1.05,.85-1.9,1.9-1.9s1.9,.85,1.9,1.9c0,.1,0,.2-.02,.3-.07,.46,.19,.91,.63,1.07,.24,.08,.47,.18,.7,.29,.42,.2,.93,.07,1.2-.31,.06-.08,.13-.16,.2-.23,.74-.74,1.94-.74,2.68,0,.74,.74,.74,1.94,0,2.68-.07,.07-.15,.14-.24,.2-.38,.27-.51,.78-.31,1.2,.11,.23,.21,.47,.29,.71,.16,.44,.61,.71,1.07,.63,1.18-.2,2.21,.72,2.21,1.87,0,1.05-.85,1.9-1.9,1.9Z"/><path class="cls-3" d="M132.18,84.21c-2.74,0-4.97,2.23-4.97,4.97s2.23,4.97,4.97,4.97,4.97-2.23,4.97-4.97-2.23-4.97-4.97-4.97Zm0,7.99c-1.67,0-3.03-1.36-3.03-3.03s1.36-3.03,3.03-3.03,3.03,1.36,3.03,3.03-1.36,3.03-3.03,3.03Z"/><path class="cls-3" d="M138.75,97.33c-.54,0-.97,.43-.97,.97v17.14l-4.75-7.78c-.18-.29-.49-.46-.82-.46h0c-.34,0-.65,.17-.82,.46l-4.81,7.81v-17.53c0-.54-.43-.97-.97-.97s-.97,.43-.97,.97v19.53c0,.83,.68,1.51,1.51,1.51,.34,0,.65-.17,.82-.46l5.23-8.49,5.18,8.49c.18,.29,.49,.46,.83,.46,.83,0,1.51-.68,1.51-1.51v-19.15c0-.54-.43-.97-.97-.97Z"/><path class="cls-3" d="M136.6,74.26h-8.84c-1.72,0-3.12,1.4-3.12,3.12v3.05c0,.54,.43,.97,.97,.97s.97-.43,.97-.97v-3.05c0-.65,.53-1.19,1.19-1.19h8.84c.65,0,1.19,.53,1.19,1.19v2.76c0,.54,.43,.97,.97,.97s.97-.43,.97-.97v-2.76c0-1.72-1.4-3.12-3.12-3.12Z"/></g></g></svg>