<?xml version="1.0" encoding="UTF-8"?><svg id="Layer_1" xmlns="http://www.w3.org/2000/svg" viewBox="0 0 466 390.16"><defs><style>.cls-1{fill:#e2e2e5;}.cls-2{fill:#fbd11a;}.cls-3{fill:#70c05e;}.cls-4{fill:#1e243a;}.cls-5{fill:#4f91cd;}</style></defs><path class="cls-1" d="M449.81,87.76c-11.15-15.15-28.09-25.78-47.56-28.6l-70.4,31.49c-7.54,11.37-11.93,25.02-11.93,39.69,0,39.72,32.2,71.92,71.92,71.92s71.92-32.2,71.92-71.92c0-11.91-2.9-23.15-8.02-33.04l-5.93-9.53Z"/><path class="cls-2" d="M433.91,2.25l-104.11,87.87,62.66,16.61-45.47,69.73c54.23-37.97,80.62-60.42,114.14-85.07l-73.14-14.62L433.91,2.25Z"/><g><path class="cls-2" d="M233,121.1l17.97,.84c-5.74-1-11.78-1.31-17.97-.84Z"/><path class="cls-2" d="M250.97,121.94l-17.97-.84c6.19-.47,12.23-.16,17.97,.84l7.37,.35c3.01-4.04,4.78-8.97,4.78-14.3,0-13.71-11.74-24.83-26.22-24.83s-26.22,9.72-26.22,23.43l-13.64,24.77c-17.3,10.61-30.1,30.29-23.97,54.96l-10.59,.18c1.87,11.3,8.82,15.77,19.53,15.19,25.52,3.15,69.58-25.93,69.58-36.71,6.29,7.34,33.66,49.74,41.26,27.62,12.94-37.68-9.85-65.07-41.87-70.66Z"/></g><path class="cls-5" d="M226.67,110.16c-1.55-1.55-4.92-.51-6.97-1.36-1.98-.82-3.61-3.96-5.89-3.96s-3.91,3.14-5.89,3.96c-2.05,.85-5.42-.18-6.97,1.36-1.55,1.55-.51,4.92-1.36,6.97-.82,1.98-3.96,3.61-3.96,5.89s3.14,3.91,3.96,5.89c.85,2.05-.18,5.42,1.36,6.97,1.55,1.55,4.92,.51,6.97,1.36,1.98,.82,3.61,3.96,5.89,3.96s3.91-3.14,5.89-3.96c2.05-.85,5.42,.18,6.97-1.36,1.55-1.55,.51-4.92,1.36-6.97,.82-1.98,3.96-3.61,3.96-5.89s-3.14-3.91-3.96-5.89c-.85-2.05,.18-5.42-1.36-6.97Z"/><path class="cls-5" d="M19.77,103.63S2.25,120.98,2.25,134.63s7.84,18.42,17.52,18.42,17.52-4.77,17.52-18.42-17.52-31-17.52-31Z"/><path class="cls-3" d="M306.63,307.35h-26.89c-13.73,3.77-27.72,32.97-40.98,32.92-12.98-.05-25.23-29.29-37.77-32.92h-32.37c-21.18,0-38.36,15.91-38.36,35.54v44.87h214.72v-44.87c0-19.63-17.17-35.54-38.36-35.54Z"/><path class="cls-1" d="M88,69.79c-.1,0-.2,0-.3,0,2,2.19,3.22,5.1,3.22,8.29,0,6.79-5.5,12.29-12.29,12.29-2.58,0-4.97-.79-6.94-2.15,.99,8.14,7.91,14.44,16.32,14.44,9.08,0,16.44-7.36,16.44-16.44s-7.36-16.44-16.44-16.44Z"/><path class="cls-2" d="M189.42,222.14h3.89v-22.16h-10.48c-.28,7.79,1.91,15.17,6.59,22.16Z"/><polygon class="cls-2" points="283.76 220.05 289.45 216.45 291.55 196.69 283.76 196.69 283.76 220.05"/><g><path class="cls-4" d="M327.42,30.93c-1.56,.55-2.38,2.26-1.84,3.82,.43,1.23,1.59,2.01,2.83,2.01,.33,0,.66-.06,.99-.17,1.56-.55,2.38-2.26,1.83-3.82-.55-1.56-2.26-2.38-3.82-1.83Z"/><path class="cls-4" d="M347.66,22.4s0,0,.01,.01c.59,.58,1.35,.87,2.12,.87s1.53-.29,2.12-.87c1.17-1.17,1.17-3.07,0-4.24,0,0,0,0-.01-.01,0,0-.02-.01-.02-.02-1.17-1.17-3.07-1.16-4.23,.01-1.17,1.17-1.16,3.07,0,4.24,0,0,0,0,0,0Z"/><path class="cls-4" d="M331.24,20.05c-1.4-.88-3.25-.45-4.13,.95-.88,1.4-.46,3.25,.95,4.13,.49,.31,1.05,.46,1.59,.46,1,0,1.97-.5,2.54-1.4,.88-1.4,.46-3.25-.95-4.13Z"/><path class="cls-4" d="M345.93,37.88c-1.4,.88-1.82,2.73-.93,4.13,.57,.9,1.54,1.4,2.54,1.4,.55,0,1.1-.15,1.59-.46,1.4-.88,1.82-2.73,.94-4.13-.88-1.4-2.73-1.82-4.13-.93Z"/><path class="cls-4" d="M353.83,27.92c-1.64-.18-3.12,1-3.31,2.64-.18,1.65,1,3.13,2.64,3.31,.11,.01,.22,.02,.34,.02,1.51,0,2.8-1.13,2.97-2.67,.18-1.64-1-3.12-2.64-3.31Z"/><path class="cls-4" d="M338.81,13.61c-1.64,.19-2.82,1.67-2.64,3.32,.18,1.53,1.47,2.65,2.97,2.65,.11,0,.23,0,.34-.02,1.64-.19,2.82-1.67,2.63-3.32-.19-1.64-1.67-2.82-3.32-2.63Z"/><path class="cls-4" d="M337.35,38.86c-1.56-.55-3.27,.28-3.81,1.84-.55,1.56,.28,3.27,1.84,3.81,.33,.11,.66,.16,.98,.16,1.24,0,2.4-.77,2.83-2.01,.54-1.56-.28-3.27-1.84-3.81Z"/></g><g><path class="cls-4" d="M300.09,273.41c-1.4-.88-3.25-.45-4.13,.95-.88,1.4-.46,3.25,.95,4.13,.49,.31,1.04,.46,1.59,.46,1,0,1.97-.5,2.54-1.4,.88-1.4,.46-3.25-.95-4.13Z"/><path class="cls-4" d="M316.52,275.78c.59,.58,1.35,.88,2.12,.88s1.53-.29,2.12-.88c1.17-1.17,1.17-3.07,0-4.24,0,0,0,0-.01-.01,0,0-.02-.01-.02-.02-1.17-1.17-3.07-1.16-4.24,.01-1.16,1.17-1.16,3.07,.01,4.24,0,0,.01,.01,.02,.02Z"/><path class="cls-4" d="M306.2,292.22h0c-1.56-.55-3.27,.28-3.81,1.84-.55,1.56,.28,3.27,1.84,3.81,.32,.11,.66,.16,.98,.16,1.24,0,2.4-.77,2.83-2.01,.54-1.56-.28-3.27-1.85-3.81Z"/><path class="cls-4" d="M296.27,284.29c-1.56,.55-2.38,2.26-1.84,3.82,.43,1.23,1.59,2.01,2.83,2.01,.33,0,.66-.06,.99-.17,1.56-.55,2.38-2.26,1.83-3.82-.55-1.56-2.26-2.38-3.82-1.83Z"/><path class="cls-4" d="M322.69,281.29c-1.64-.19-3.12,1-3.31,2.64-.18,1.64,1,3.12,2.64,3.31,.11,.01,.22,.02,.34,.02,1.5,0,2.8-1.13,2.97-2.67,.18-1.64-1-3.12-2.64-3.31Z"/><path class="cls-4" d="M314.79,291.25c-1.4,.88-1.82,2.73-.93,4.13,.57,.9,1.54,1.4,2.54,1.4,.55,0,1.1-.15,1.59-.46,1.4-.88,1.82-2.73,.94-4.13-.88-1.4-2.73-1.82-4.13-.93Z"/><path class="cls-4" d="M307.66,266.98c-1.64,.19-2.82,1.67-2.64,3.32,.18,1.53,1.47,2.65,2.97,2.65,.11,0,.23,0,.34-.02,1.64-.19,2.82-1.67,2.63-3.32-.19-1.64-1.67-2.82-3.32-2.63Z"/></g><g><path class="cls-4" d="M437.68,235.32c-1.56-.55-3.27,.28-3.81,1.84-.55,1.56,.28,3.27,1.84,3.81,.33,.11,.66,.16,.98,.16,1.24,0,2.4-.78,2.83-2.01,.54-1.56-.28-3.27-1.84-3.81Z"/><path class="cls-4" d="M431.57,216.51c-1.4-.88-3.25-.45-4.13,.95-.88,1.4-.46,3.25,.95,4.13,.49,.31,1.05,.46,1.59,.46,1,0,1.97-.5,2.54-1.4,.88-1.4,.46-3.25-.95-4.13Z"/><path class="cls-4" d="M448,218.88c.59,.58,1.35,.87,2.12,.87s1.53-.29,2.12-.87c1.17-1.17,1.17-3.07,0-4.24,0,0,0,0-.01,0,0,0-.02-.02-.02-.02-1.17-1.17-3.07-1.16-4.24,.01-1.16,1.17-1.16,3.07,.01,4.23,0,0,.01,.01,.02,.02Z"/><path class="cls-4" d="M427.75,227.39c-1.56,.55-2.38,2.26-1.84,3.82,.43,1.23,1.59,2,2.83,2,.33,0,.66-.06,.99-.17,1.56-.55,2.38-2.26,1.83-3.82-.55-1.56-2.26-2.38-3.82-1.83Z"/><path class="cls-4" d="M454.16,224.39c-1.64-.19-3.12,1-3.31,2.64-.18,1.64,1,3.12,2.64,3.31,.11,.01,.23,.02,.34,.02,1.5,0,2.8-1.13,2.97-2.67,.18-1.64-1-3.12-2.64-3.31Z"/><path class="cls-4" d="M439.14,210.08c-1.64,.19-2.82,1.67-2.64,3.32,.18,1.53,1.47,2.65,2.97,2.65,.11,0,.23,0,.34-.02,1.64-.19,2.82-1.67,2.63-3.32-.19-1.64-1.67-2.82-3.32-2.63Z"/><path class="cls-4" d="M446.26,234.35c-1.4,.88-1.82,2.73-.93,4.13,.57,.9,1.54,1.4,2.54,1.4,.55,0,1.1-.15,1.59-.46,1.4-.88,1.82-2.73,.94-4.13-.88-1.4-2.73-1.82-4.13-.93Z"/></g><g><path class="cls-4" d="M427.75,358.26c-1.56,.55-2.38,2.26-1.84,3.82,.43,1.23,1.59,2.01,2.83,2.01,.33,0,.66-.06,.99-.17,1.56-.55,2.38-2.26,1.83-3.82-.55-1.56-2.26-2.38-3.82-1.83Z"/><path class="cls-4" d="M431.57,347.38c-1.4-.88-3.25-.45-4.13,.95-.88,1.4-.46,3.25,.95,4.13,.49,.31,1.05,.46,1.59,.46,1,0,1.97-.5,2.54-1.4,.88-1.4,.46-3.25-.95-4.13Z"/><path class="cls-4" d="M448,349.75c.59,.58,1.35,.88,2.12,.88s1.53-.29,2.12-.88c1.16-1.16,1.17-3.04,.02-4.21,0,0-.02-.02-.02-.03,0,0,0,0-.01,0,0,0-.02-.02-.02-.02-1.17-1.17-3.07-1.16-4.24,.01-1.16,1.17-1.16,3.07,.01,4.24,0,0,.01,.01,.02,.02Z"/><path class="cls-4" d="M454.16,355.26c-1.64-.18-3.12,1-3.31,2.64-.18,1.64,1,3.12,2.64,3.31,.11,.01,.22,.02,.34,.02,1.51,0,2.8-1.13,2.97-2.66,.18-1.64-1-3.13-2.64-3.31Z"/><path class="cls-4" d="M446.26,365.22h0c-1.4,.88-1.82,2.73-.93,4.13,.57,.9,1.54,1.4,2.54,1.4,.55,0,1.1-.15,1.59-.46,1.4-.88,1.82-2.73,.94-4.13-.88-1.4-2.73-1.82-4.13-.94Z"/><path class="cls-4" d="M439.14,340.95c-1.64,.19-2.82,1.67-2.64,3.32,.18,1.53,1.47,2.65,2.97,2.65,.11,0,.23,0,.35-.02,1.64-.19,2.82-1.67,2.63-3.32-.19-1.64-1.67-2.82-3.32-2.63Z"/><path class="cls-4" d="M437.68,366.2c-1.56-.55-3.27,.28-3.81,1.84-.55,1.56,.28,3.27,1.84,3.81,.33,.11,.66,.16,.99,.16,1.24,0,2.4-.77,2.83-2.01,.54-1.56-.28-3.27-1.84-3.81Z"/></g><g><path class="cls-4" d="M173.41,263.23c-1.4-.88-3.25-.45-4.13,.95-.88,1.4-.46,3.25,.95,4.13,.49,.31,1.04,.46,1.59,.46,1,0,1.97-.5,2.54-1.4,.88-1.4,.46-3.25-.95-4.13Z"/><path class="cls-4" d="M189.83,265.59s0,0,.01,.01c.59,.58,1.35,.88,2.12,.88s1.53-.29,2.12-.88c1.17-1.17,1.17-3.07,0-4.24,0,0,0,0-.01,0,0,0-.02-.02-.02-.02-1.17-1.17-3.07-1.16-4.24,.01-1.16,1.17-1.16,3.07,.01,4.24,0,0,0,0,0,0Z"/><path class="cls-4" d="M179.52,282.04c-1.56-.55-3.27,.28-3.81,1.84-.55,1.56,.28,3.27,1.84,3.81,.33,.11,.66,.16,.98,.16,1.24,0,2.4-.78,2.83-2.01,.54-1.56-.28-3.27-1.84-3.81Z"/><path class="cls-4" d="M169.59,274.11c-1.56,.55-2.38,2.26-1.84,3.82,.43,1.23,1.59,2,2.83,2,.33,0,.66-.06,.99-.17,1.56-.55,2.38-2.26,1.83-3.82-.55-1.56-2.26-2.38-3.82-1.83Z"/><path class="cls-4" d="M180.98,256.8c-1.64,.19-2.82,1.67-2.64,3.32,.18,1.53,1.47,2.65,2.97,2.65,.11,0,.23,0,.35-.02,1.64-.19,2.82-1.67,2.63-3.32-.19-1.64-1.67-2.82-3.32-2.63Z"/><path class="cls-4" d="M196,271.11c-1.64-.18-3.12,1-3.31,2.64-.18,1.64,1,3.12,2.64,3.31,.11,.01,.22,.02,.34,.02,1.51,0,2.8-1.13,2.97-2.67,.18-1.64-1-3.12-2.64-3.31Z"/><path class="cls-4" d="M188.1,281.06h0c-1.4,.88-1.82,2.73-.93,4.13,.57,.9,1.54,1.4,2.54,1.4,.55,0,1.1-.15,1.59-.46,1.4-.88,1.82-2.73,.94-4.13-.88-1.4-2.73-1.82-4.13-.94Z"/></g><g><path class="cls-4" d="M77.35,262.73c-1.56,.55-2.38,2.26-1.84,3.82,.43,1.23,1.59,2.01,2.83,2.01,.33,0,.66-.06,.99-.17,1.56-.55,2.38-2.26,1.84-3.82-.55-1.56-2.26-2.38-3.82-1.83Z"/><path class="cls-4" d="M81.17,251.85c-1.4-.88-3.25-.45-4.13,.95-.88,1.4-.45,3.25,.95,4.13,.49,.31,1.05,.46,1.59,.46,1,0,1.97-.5,2.54-1.4,.88-1.4,.46-3.25-.95-4.13Z"/><path class="cls-4" d="M97.6,254.22c.59,.58,1.35,.87,2.12,.87s1.53-.29,2.12-.87c1.17-1.17,1.17-3.07,0-4.23h0s0,0-.01-.01c0,0-.02-.02-.02-.02-1.17-1.17-3.07-1.16-4.24,.01-1.16,1.17-1.16,3.05,0,4.21,.01,.02,.03,.03,.04,.04Z"/><path class="cls-4" d="M103.76,259.72c-1.64-.18-3.12,1-3.31,2.64-.18,1.64,1,3.12,2.64,3.31,.11,.01,.22,.02,.34,.02,1.51,0,2.8-1.13,2.97-2.67,.18-1.64-1-3.12-2.64-3.31Z"/><path class="cls-4" d="M95.86,269.68c-1.4,.88-1.82,2.73-.93,4.13,.57,.9,1.54,1.4,2.54,1.4,.55,0,1.1-.15,1.59-.46,1.4-.88,1.82-2.73,.94-4.13-.88-1.4-2.73-1.82-4.13-.94Z"/><path class="cls-4" d="M88.74,245.42c-1.64,.19-2.82,1.67-2.64,3.32,.18,1.53,1.47,2.65,2.97,2.65,.11,0,.23,0,.34-.02,1.64-.19,2.82-1.67,2.63-3.32-.19-1.64-1.67-2.82-3.32-2.63Z"/><path class="cls-4" d="M87.28,270.66c-1.56-.55-3.27,.28-3.81,1.84-.55,1.56,.28,3.27,1.84,3.81,.33,.11,.66,.16,.98,.16,1.24,0,2.4-.77,2.83-2.01,.54-1.56-.28-3.27-1.84-3.81Z"/></g><g><path class="cls-4" d="M9.07,195.05c-1.56,.55-2.38,2.26-1.84,3.82,.43,1.23,1.59,2.01,2.83,2.01,.33,0,.66-.06,.99-.17,1.56-.55,2.38-2.26,1.84-3.82-.55-1.56-2.26-2.38-3.82-1.83Z"/><path class="cls-4" d="M12.89,184.16c-1.4-.88-3.25-.45-4.13,.95-.88,1.4-.46,3.25,.95,4.13,.49,.31,1.05,.46,1.59,.46,1,0,1.97-.5,2.54-1.4,.88-1.4,.46-3.25-.95-4.13Z"/><path class="cls-4" d="M29.32,186.53c.59,.58,1.35,.88,2.12,.88s1.53-.29,2.12-.88c1.17-1.17,1.17-3.07,0-4.24,0,0,0,0-.01,0,0,0-.02-.02-.02-.02-1.17-1.17-3.07-1.16-4.23,0-1.17,1.17-1.16,3.07,0,4.24,0,0,.01,.01,.02,.02Z"/><path class="cls-4" d="M19,202.98c-1.56-.55-3.27,.28-3.81,1.84-.55,1.56,.28,3.27,1.84,3.81,.32,.11,.66,.16,.98,.16,1.24,0,2.4-.77,2.83-2.01,.54-1.56-.28-3.27-1.84-3.81Z"/><path class="cls-4" d="M35.48,192.04c-1.64-.19-3.12,1-3.31,2.64-.18,1.64,1,3.12,2.64,3.31,.11,.01,.22,.02,.34,.02,1.51,0,2.8-1.13,2.97-2.67,.18-1.64-1-3.12-2.64-3.31Z"/><path class="cls-4" d="M27.58,202c-1.4,.88-1.82,2.73-.93,4.13,.57,.9,1.54,1.4,2.54,1.4,.55,0,1.1-.15,1.59-.46,1.4-.88,1.82-2.73,.94-4.13-.88-1.4-2.73-1.82-4.13-.93Z"/><path class="cls-4" d="M20.45,177.73c-1.64,.19-2.82,1.67-2.64,3.32,.18,1.53,1.47,2.65,2.97,2.65,.11,0,.23,0,.34-.02,1.64-.19,2.82-1.67,2.63-3.32-.19-1.64-1.67-2.82-3.32-2.63Z"/></g><g><path class="cls-4" d="M6.9,350.68c-1.4-.88-3.25-.45-4.13,.95-.88,1.4-.46,3.25,.95,4.13,.49,.31,1.04,.46,1.59,.46,1,0,1.97-.5,2.54-1.4,.88-1.4,.46-3.25-.95-4.13Z"/><path class="cls-4" d="M3.08,361.56c-1.56,.55-2.38,2.26-1.84,3.82,.43,1.23,1.59,2,2.83,2,.33,0,.66-.06,.99-.17,1.56-.55,2.38-2.26,1.83-3.82-.55-1.56-2.26-2.38-3.82-1.83Z"/><path class="cls-4" d="M23.31,353.03s0,0,.01,.01c.58,.58,1.35,.87,2.11,.87s1.53-.29,2.12-.87c1.17-1.17,1.17-3.07,0-4.24-.01,0-.02-.02-.03-.03-1.17-1.17-3.07-1.16-4.24,.01-1.16,1.17-1.16,3.07,.01,4.23,0,0,0,0,0,0Z"/><path class="cls-4" d="M13.01,369.49c-1.56-.55-3.27,.28-3.81,1.84-.55,1.56,.28,3.27,1.84,3.81,.33,.11,.66,.16,.98,.16,1.24,0,2.4-.77,2.83-2.01,.54-1.56-.28-3.27-1.84-3.81Z"/><path class="cls-4" d="M14.46,344.25c-1.64,.19-2.82,1.67-2.64,3.32,.18,1.53,1.47,2.65,2.97,2.65,.11,0,.23,0,.34-.02h0c1.64-.19,2.82-1.67,2.63-3.32-.19-1.64-1.67-2.82-3.32-2.63Z"/><path class="cls-4" d="M29.49,358.56c-1.64-.19-3.12,1-3.31,2.64-.18,1.64,1,3.13,2.64,3.31,.11,.01,.22,.02,.34,.02,1.5,0,2.8-1.13,2.97-2.67,.18-1.64-1-3.12-2.64-3.31Z"/><path class="cls-4" d="M21.59,368.51h0c-1.4,.88-1.82,2.73-.93,4.13,.57,.9,1.54,1.4,2.54,1.4,.55,0,1.1-.15,1.59-.46,1.4-.88,1.82-2.73,.94-4.13-.88-1.4-2.73-1.82-4.13-.94Z"/></g><g><path class="cls-4" d="M217.55,35.86h0c-1.56-.55-3.27,.28-3.81,1.84-.55,1.56,.28,3.27,1.84,3.81,.32,.11,.66,.16,.98,.16,1.24,0,2.4-.77,2.83-2.01,.54-1.56-.28-3.27-1.85-3.81Z"/><path class="cls-4" d="M227.86,19.41s0,0,.01,.01c0,0,.01,.01,.02,.02,.58,.57,1.34,.86,2.1,.86s1.53-.29,2.11-.88c1.17-1.17,1.17-3.07,0-4.24-.01,0-.02-.02-.03-.03-1.17-1.17-3.07-1.16-4.23,.01-1.17,1.17-1.16,3.07,0,4.24,0,0,0,0,0,0Z"/><path class="cls-4" d="M207.63,27.93c-1.56,.55-2.38,2.26-1.84,3.82,.43,1.23,1.59,2.01,2.83,2.01,.33,0,.66-.06,.99-.17,1.56-.55,2.38-2.26,1.83-3.82-.55-1.56-2.26-2.38-3.82-1.83Z"/><path class="cls-4" d="M211.44,17.05c-1.4-.88-3.25-.45-4.13,.95-.88,1.4-.46,3.25,.95,4.13,.49,.31,1.04,.46,1.59,.46,1,0,1.97-.5,2.54-1.4,.88-1.4,.46-3.25-.95-4.13Z"/><path class="cls-4" d="M234.04,24.93c-1.64-.19-3.12,1-3.31,2.64-.18,1.64,1,3.13,2.64,3.31,.11,.01,.22,.02,.34,.02,1.5,0,2.8-1.13,2.97-2.67,.18-1.64-1-3.12-2.64-3.31Z"/><path class="cls-4" d="M219.01,10.62c-1.64,.19-2.82,1.67-2.64,3.32,.18,1.53,1.47,2.65,2.97,2.65,.11,0,.23,0,.34-.02,1.64-.19,2.82-1.67,2.63-3.32-.19-1.64-1.67-2.82-3.32-2.63Z"/><path class="cls-4" d="M226.14,34.89h0c-1.4,.88-1.82,2.73-.93,4.13,.57,.9,1.54,1.4,2.54,1.4,.55,0,1.1-.15,1.59-.46,1.4-.88,1.82-2.73,.93-4.13-.88-1.4-2.73-1.82-4.13-.94Z"/></g><g><path class="cls-4" d="M287.21,67.37c-1.4-.88-3.25-.45-4.13,.95-.88,1.4-.46,3.25,.95,4.13,.49,.31,1.05,.46,1.59,.46,1,0,1.97-.5,2.54-1.4,.88-1.4,.46-3.25-.95-4.13Z"/><path class="cls-4" d="M283.4,78.25c-1.56,.55-2.38,2.26-1.84,3.82,.43,1.23,1.59,2,2.83,2,.33,0,.66-.06,.99-.17,1.56-.55,2.38-2.26,1.84-3.82-.55-1.56-2.26-2.38-3.82-1.83Z"/><path class="cls-4" d="M303.63,69.72s0,0,.01,.01c.59,.58,1.35,.88,2.12,.88s1.53-.29,2.12-.88c1.16-1.16,1.17-3.04,.02-4.21-.02-.02-.04-.04-.05-.06-1.17-1.17-3.07-1.16-4.24,.01-1.16,1.17-1.16,3.07,.01,4.23t0,0Z"/><path class="cls-4" d="M301.91,85.2c-1.4,.88-1.82,2.73-.93,4.13,.57,.9,1.54,1.4,2.54,1.4,.55,0,1.1-.15,1.59-.46,1.4-.88,1.82-2.73,.94-4.13-.88-1.4-2.73-1.82-4.13-.94Z"/><path class="cls-4" d="M309.81,75.24c-1.64-.18-3.12,1-3.31,2.64-.18,1.65,1,3.13,2.64,3.31,.11,.01,.22,.02,.34,.02,1.51,0,2.8-1.13,2.97-2.67,.18-1.64-1-3.12-2.64-3.31Z"/><path class="cls-4" d="M293.33,86.18c-1.56-.55-3.27,.28-3.81,1.84-.55,1.56,.28,3.27,1.84,3.81,.33,.11,.66,.16,.98,.16,1.24,0,2.4-.77,2.83-2.01,.54-1.56-.28-3.27-1.84-3.81Z"/><path class="cls-4" d="M294.78,60.93c-1.64,.19-2.82,1.67-2.64,3.32,.18,1.53,1.47,2.65,2.97,2.65,.11,0,.23,0,.35-.02,1.64-.19,2.82-1.67,2.63-3.32-.19-1.64-1.67-2.82-3.32-2.63Z"/></g><g><path class="cls-4" d="M272.83,16.84c-1.24,0-2.25,1.01-2.25,2.25v14.38c0,1.24,1.01,2.25,2.25,2.25s2.25-1.01,2.25-2.25v-14.38c0-1.24-1.01-2.25-2.25-2.25Z"/><path class="cls-4" d="M280.17,24.18h-14.38c-1.24,0-2.25,1.01-2.25,2.25s1.01,2.25,2.25,2.25h14.38c1.24,0,2.25-1.01,2.25-2.25s-1.01-2.25-2.25-2.25Z"/></g><g><path class="cls-4" d="M319.85,209.11c-1.24,0-2.25,1.01-2.25,2.25v14.38c0,1.24,1.01,2.25,2.25,2.25s2.25-1.01,2.25-2.25v-14.38c0-1.24-1.01-2.25-2.25-2.25Z"/><path class="cls-4" d="M327.19,216.45h-14.38c-1.24,0-2.25,1.01-2.25,2.25s1.01,2.25,2.25,2.25h14.38c1.24,0,2.25-1.01,2.25-2.25s-1.01-2.25-2.25-2.25Z"/></g><g><path class="cls-4" d="M366.57,304.05c-1.24,0-2.25,1.01-2.25,2.25v14.38c0,1.24,1.01,2.25,2.25,2.25s2.25-1.01,2.25-2.25v-14.38c0-1.24-1.01-2.25-2.25-2.25Z"/><path class="cls-4" d="M373.91,311.39h-14.38c-1.24,0-2.25,1.01-2.25,2.25s1.01,2.25,2.25,2.25h14.38c1.24,0,2.25-1.01,2.25-2.25s-1.01-2.25-2.25-2.25Z"/></g><g><path class="cls-4" d="M129.98,270.51c-1.24,0-2.25,1.01-2.25,2.25v14.38c0,1.24,1.01,2.25,2.25,2.25s2.25-1.01,2.25-2.25v-14.38c0-1.24-1.01-2.25-2.25-2.25Z"/><path class="cls-4" d="M137.31,277.85h-14.38c-1.24,0-2.25,1.01-2.25,2.25s1.01,2.25,2.25,2.25h14.38c1.24,0,2.25-1.01,2.25-2.25s-1.01-2.25-2.25-2.25Z"/></g><g><path class="cls-4" d="M22.16,275.9c-1.24,0-2.25,1.01-2.25,2.25v14.38c0,1.24,1.01,2.25,2.25,2.25s2.25-1.01,2.25-2.25v-14.38c0-1.24-1.01-2.25-2.25-2.25Z"/><path class="cls-4" d="M29.5,283.24H15.12c-1.24,0-2.25,1.01-2.25,2.25s1.01,2.25,2.25,2.25h14.38c1.24,0,2.25-1.01,2.25-2.25s-1.01-2.25-2.25-2.25Z"/></g><g><path class="cls-4" d="M87.15,180.96c-1.24,0-2.25,1.01-2.25,2.25v14.38c0,1.24,1.01,2.25,2.25,2.25s2.25-1.01,2.25-2.25v-14.38c0-1.24-1.01-2.25-2.25-2.25Z"/><path class="cls-4" d="M94.49,188.3h-14.38c-1.24,0-2.25,1.01-2.25,2.25s1.01,2.25,2.25,2.25h14.38c1.24,0,2.25-1.01,2.25-2.25s-1.01-2.25-2.25-2.25Z"/></g><g><path class="cls-4" d="M191.67,60.27c-1.24,0-2.25,1.01-2.25,2.25v14.38c0,1.24,1.01,2.25,2.25,2.25s2.25-1.01,2.25-2.25v-14.38c0-1.24-1.01-2.25-2.25-2.25Z"/><path class="cls-4" d="M199.01,67.61h-14.38c-1.24,0-2.25,1.01-2.25,2.25s1.01,2.25,2.25,2.25h14.38c1.24,0,2.25-1.01,2.25-2.25s-1.01-2.25-2.25-2.25Z"/></g><g><g><path class="cls-4" d="M209.26,261.95c-1.23,.19-2.07,1.34-1.88,2.56,3.97,25.72-3.63,34.58-11.59,39.86-1.03,.69-1.32,2.08-.63,3.11,.43,.65,1.15,1.01,1.87,1.01,.43,0,.86-.12,1.24-.37,6.04-4,9.93-8.79,12.24-15.08,2.76-7.48,3.18-17.04,1.31-29.21-.19-1.23-1.34-2.07-2.56-1.88Z"/><path class="cls-4" d="M281.19,304.37c-11.24-7.45-15.17-21.02-12.01-41.49,.19-1.23-.65-2.37-1.88-2.56-1.23-.19-2.37,.65-2.56,1.88-3.46,22.38,1.11,37.41,13.97,45.92,.38,.25,.81,.37,1.24,.37,.73,0,1.44-.35,1.87-1.01,.68-1.03,.4-2.43-.63-3.11Z"/><path class="cls-4" d="M283.81,196.3c-1.25-.02-2.27,.95-2.3,2.19l-.87,32.92s0,.04,0,.06c0,4.99-1.05,9.7-3.13,14.01-6.16,12.79-19.63,21.77-36.96,24.62-1.52,.25-3.08,.2-4.64-.14-19.09-4.22-31.15-11.71-36.86-22.9-2.24-4.39-3.43-9.46-3.43-14.62l.17-31.08c0-1.24-.99-2.25-2.23-2.26h-.01c-1.23,0-2.24,1-2.25,2.23l-.17,31.09c0,5.89,1.36,11.65,3.92,16.68,6.36,12.46,19.41,20.72,39.9,25.24,1.22,.27,2.44,.4,3.66,.4,.9,0,1.79-.07,2.67-.22,18.79-3.09,33.47-12.97,40.28-27.1,2.33-4.85,3.57-10.35,3.57-15.93l.87-32.89c.03-1.24-.95-2.27-2.19-2.31Z"/><path class="cls-4" d="M195.86,129.45c-9.58,5.88-17.05,13.87-21.61,23.13-5.17,10.49-6.33,22.35-3.36,34.29,.25,1.02,1.17,1.71,2.18,1.71,.18,0,.36-.02,.54-.07,1.2-.3,1.94-1.52,1.64-2.72-5.19-20.87,3.4-40.5,22.96-52.51,1.06-.65,1.39-2.03,.74-3.09-.65-1.06-2.03-1.39-3.09-.74Z"/><path class="cls-4" d="M264.66,123.46c-9.69-3.85-20.69-5.44-31.83-4.6-1.24,.09-2.16,1.17-2.07,2.41,.09,1.24,1.16,2.16,2.41,2.07,21.31-1.6,40.67,6.02,51.77,20.41,9.96,12.89,12.01,29.99,5.78,48.13-1,2.9-2.35,4.5-4.01,4.76-1.74,.27-5.88-.54-14.04-9.06-5.61-5.86-11.06-13.13-15.04-18.45-1.85-2.48-3.32-4.43-4.33-5.61-.61-.71-1.6-.97-2.48-.64-.88,.33-1.47,1.17-1.47,2.11,0,1.59-2,5.06-7.61,10.03-13.23,11.7-41.25,26.7-59.45,24.46-1.23-.15-2.35,.72-2.5,1.95-.15,1.23,.72,2.35,1.95,2.5,1.42,.18,2.87,.26,4.34,.26,10.18,0,21.25-3.9,29.19-7.42,10.9-4.85,21.91-11.72,29.45-18.39,3.65-3.23,6.22-6.15,7.68-8.73,.5,.67,1.05,1.4,1.64,2.19,11.18,14.93,23.92,30.74,33.38,29.25,3.44-.54,5.99-3.15,7.57-7.74,6.74-19.62,4.44-38.21-6.47-52.33-5.88-7.61-14.12-13.68-23.84-17.54Z"/><path class="cls-4" d="M254.6,143.82c-1.24,.11-2.15,1.2-2.03,2.44,.55,6.13-.56,12.28-3.3,18.29-.52,1.13-.02,2.46,1.11,2.98,.3,.14,.62,.2,.93,.2,.85,0,1.67-.49,2.04-1.31,3.07-6.73,4.32-13.65,3.69-20.56-.11-1.24-1.21-2.14-2.44-2.03Z"/><path class="cls-4" d="M192.4,222.52c-4.6-7.48-7.65-12.43-7.46-20.07,.03-1.24-.95-2.27-2.19-2.3-.02,0-.04,0-.06,0-1.21,0-2.21,.97-2.24,2.19-.22,8.98,3.28,14.66,8.12,22.54,.42,.69,.86,1.39,1.3,2.12,.42,.69,1.16,1.08,1.92,1.08,.4,0,.8-.11,1.17-.33,1.06-.65,1.39-2.03,.75-3.09-.45-.73-.88-1.44-1.31-2.13Z"/><path class="cls-4" d="M236.89,80.91c-7.65,0-14.76,2.53-20.02,7.13-5.45,4.76-8.45,11.34-8.45,18.55,0,1.24,1.01,2.25,2.25,2.25s2.25-1.01,2.25-2.25c0-12.07,10.31-21.18,23.98-21.18s23.98,10.13,23.98,22.58c0,4.67-1.5,9.15-4.34,12.96-.74,.99-.54,2.4,.46,3.14,.4,.3,.87,.45,1.34,.45,.68,0,1.36-.31,1.8-.9,3.42-4.59,5.23-10,5.23-15.64,0-14.93-12.77-27.07-28.47-27.07Z"/><path class="cls-4" d="M292.65,190.36c-1.24,.1-2.15,1.19-2.05,2.42,1.09,13.03-1.83,22.58-7.99,26.2-1.07,.63-1.43,2-.8,3.07,.42,.71,1.17,1.11,1.94,1.11,.39,0,.78-.1,1.14-.31,7.83-4.6,11.44-15.41,10.19-30.45-.1-1.24-1.19-2.15-2.42-2.05Z"/><path class="cls-4" d="M230.11,116.27c-.2-.48-.22-1.42-.23-2.25-.04-1.74-.08-3.91-1.61-5.44s-3.7-1.58-5.44-1.61c-.83-.02-1.78-.04-2.25-.23-.42-.18-1.07-.81-1.65-1.36-1.27-1.24-2.86-2.77-5.1-2.77s-3.83,1.54-5.1,2.77c-.57,.56-1.22,1.19-1.65,1.36-.48,.2-1.42,.22-2.25,.23-1.74,.04-3.91,.08-5.44,1.61-1.53,1.53-1.58,3.7-1.61,5.44-.02,.83-.04,1.78-.23,2.25-.18,.42-.81,1.07-1.36,1.65-1.24,1.27-2.77,2.86-2.77,5.1s1.54,3.83,2.77,5.1c.56,.57,1.19,1.22,1.36,1.64,.2,.48,.22,1.42,.23,2.25,.04,1.74,.08,3.91,1.61,5.44,1.53,1.53,3.7,1.58,5.44,1.61,.83,.02,1.78,.04,2.25,.23,.42,.18,1.07,.81,1.65,1.36,1.27,1.24,2.86,2.77,5.1,2.77s3.83-1.54,5.1-2.77c.57-.56,1.22-1.19,1.65-1.36,.48-.2,1.42-.22,2.25-.23,1.74-.04,3.91-.08,5.44-1.61,1.53-1.53,1.58-3.7,1.61-5.44,.02-.83,.04-1.78,.23-2.25,.18-.42,.81-1.07,1.36-1.64,1.24-1.27,2.77-2.86,2.77-5.1s-1.54-3.83-2.77-5.1c-.56-.57-1.19-1.22-1.36-1.65Zm-1.86,8.72c-.84,.86-1.78,1.84-2.29,3.05-.52,1.26-.55,2.65-.58,3.88-.02,.74-.04,2.11-.3,2.36-.26,.25-1.62,.28-2.36,.3-1.23,.03-2.62,.05-3.88,.58-1.21,.5-2.19,1.45-3.05,2.29-.62,.6-1.55,1.51-1.98,1.51s-1.36-.91-1.98-1.51c-.86-.84-1.84-1.78-3.05-2.29-1.26-.52-2.65-.55-3.88-.58-.74-.02-2.11-.04-2.36-.3-.26-.25-.28-1.62-.3-2.36-.03-1.23-.05-2.62-.58-3.88-.5-1.21-1.45-2.19-2.29-3.05-.6-.62-1.51-1.55-1.51-1.98s.91-1.36,1.51-1.98c.84-.86,1.78-1.84,2.29-3.05,.52-1.26,.55-2.65,.58-3.88,.02-.74,.04-2.11,.3-2.36,.25-.25,1.62-.28,2.36-.3,1.23-.03,2.62-.05,3.88-.58,1.21-.5,2.19-1.45,3.05-2.29,.62-.6,1.55-1.51,1.98-1.51s1.36,.91,1.98,1.51c.86,.84,1.84,1.78,3.05,2.29,1.26,.52,2.65,.55,3.88,.58,.74,.02,2.11,.04,2.36,.3s.28,1.62,.3,2.36c.03,1.23,.05,2.62,.58,3.88,.5,1.21,1.45,2.19,2.29,3.05,.6,.62,1.51,1.55,1.51,1.98s-.91,1.36-1.51,1.98Z"/><path class="cls-4" d="M213.82,116.23c-3.75,0-6.79,3.05-6.79,6.79s3.05,6.79,6.79,6.79,6.79-3.05,6.79-6.79-3.05-6.79-6.79-6.79Zm0,9.09c-1.27,0-2.3-1.03-2.3-2.3s1.03-2.3,2.3-2.3,2.3,1.03,2.3,2.3-1.03,2.3-2.3,2.3Z"/><path class="cls-4" d="M186.37,182.97c-5.86,4.45-12.85,4.16-22.66-.97-.62-.33-1.37-.34-2-.04-.64,.3-1.09,.88-1.24,1.57-1.06,5.08,.37,10.21,3.9,14.05,3.7,4.02,9.29,6.2,15.69,6.2,1.17,0,2.38-.07,3.6-.22,1.23-.15,2.11-1.27,1.96-2.5-.15-1.23-1.27-2.11-2.5-1.96-6.42,.78-12.05-.88-15.44-4.56-1.84-2-2.89-4.48-3.04-7.09,6.96,3.16,16.09,5.44,24.44-.92,.99-.75,1.18-2.16,.43-3.15-.75-.99-2.16-1.18-3.15-.43Z"/><path class="cls-4" d="M306.63,305.11h-26.89c-.2,0-.4,.03-.59,.08-7.09,1.94-13.9,9.67-20.49,17.14-6.81,7.72-13.85,15.7-19.86,15.7h-.03c-5.89-.02-12.39-8.14-18.68-15.99-6.16-7.69-11.98-14.95-18.47-16.83-.2-.06-.41-.09-.62-.09h-32.37c-22.39,0-40.6,16.95-40.6,37.78v44.87c0,1.24,1.01,2.25,2.25,2.25h214.72c1.24,0,2.25-1.01,2.25-2.25v-44.87c0-20.83-18.21-37.78-40.6-37.78Zm36.11,80.4H132.51v-42.62c0-18.36,16.2-33.29,36.11-33.29h32.03c5.05,1.66,10.58,8.56,15.93,15.24,6.95,8.67,14.13,17.64,22.17,17.68h.05c8.04,0,15.41-8.37,23.22-17.22,6.05-6.86,12.31-13.96,18.03-15.7h26.57c19.91,0,36.11,14.93,36.11,33.29v42.62Z"/></g><g><path class="cls-4" d="M227.28,205.02c-4.38,2.98-8.46,2.98-12.84,0-1.03-.7-2.42-.43-3.12,.59-.7,1.03-.43,2.42,.59,3.12,2.93,1.99,5.94,2.99,8.95,2.99s6.02-1,8.95-2.99c1.03-.7,1.29-2.09,.59-3.12-.7-1.03-2.1-1.29-3.12-.59Z"/><path class="cls-4" d="M263.55,205.02c-4.38,2.98-8.46,2.98-12.84,0-1.03-.7-2.42-.43-3.12,.59-.7,1.03-.43,2.42,.59,3.12,2.93,1.99,5.94,2.99,8.95,2.99s6.02-1,8.95-2.99c1.03-.7,1.29-2.09,.59-3.12s-2.09-1.29-3.12-.59Z"/></g><path class="cls-4" d="M224.38,241.39c9.23,5.67,19.02,5.35,29.09-.96,1.05-.66,1.37-2.04,.71-3.1-.44-.7-1.21-1.08-1.99-1.05-.38,.01-.76,.12-1.11,.34-8.62,5.4-16.59,5.71-24.36,.94-1.06-.65-2.44-.32-3.09,.74-.65,1.06-.32,2.44,.74,3.09Z"/></g><path class="cls-4" d="M238.76,338.02c-1.24,0-2.25,1.01-2.25,2.25v47.49c0,1.24,1.01,2.25,2.25,2.25s2.25-1.01,2.25-2.25v-47.49c0-1.24-1.01-2.25-2.25-2.25Z"/><path class="cls-4" d="M246.45,347.24c-1.24,0-2.25,1.01-2.25,2.25v21.21c0,1.24,1.01,2.25,2.25,2.25s2.25-1.01,2.25-2.25v-21.21c0-1.24-1.01-2.25-2.25-2.25Z"/><path class="cls-4" d="M230.16,361.69c-1.24,0-2.25,1.01-2.25,2.25v23.82c0,1.24,1.01,2.25,2.25,2.25s2.25-1.01,2.25-2.25v-23.82c0-1.24-1.01-2.25-2.25-2.25Z"/><g><path class="cls-4" d="M21.35,102.04c-.88-.87-2.29-.87-3.16,0-.74,.74-18.19,18.18-18.19,32.59,0,7.05,1.97,12.43,5.86,15.98,3.4,3.11,8.07,4.68,13.9,4.68s10.51-1.57,13.9-4.68c3.89-3.56,5.86-8.93,5.86-15.98,0-14.42-17.44-31.86-18.19-32.59Zm-1.58,48.76c-10.13,0-15.27-5.44-15.27-16.17s11.08-23.2,15.27-27.74c4.19,4.54,15.27,17.52,15.27,27.74,0,10.73-5.14,16.17-15.27,16.17Z"/><g><path class="cls-4" d="M139.14,67.08c-11.91-8.06-30.44-17.68-51.14-17.68s-39.23,9.61-51.14,17.68c-12.84,8.69-20.73,17.27-21.06,17.63-.78,.86-.78,2.17,0,3.03,.33,.36,8.22,8.94,21.06,17.63,11.91,8.06,30.44,17.68,51.14,17.68s39.23-9.61,51.14-17.68c12.84-8.69,20.73-17.27,21.06-17.63,.78-.86,.78-2.17,0-3.03-.33-.36-8.22-8.94-21.06-17.63Zm-2.52,34.58c-11.39,7.71-29.06,16.9-48.62,16.9s-37.16-9.16-48.53-16.84c-9.32-6.3-16.06-12.67-18.89-15.49,2.81-2.82,9.51-9.14,18.79-15.43,11.39-7.71,29.06-16.9,48.62-16.9s37.16,9.16,48.53,16.84c9.32,6.3,16.06,12.67,18.89,15.49-2.81,2.82-9.51,9.14-18.79,15.43Z"/><path class="cls-4" d="M88,56.78c-16.24,0-29.45,13.21-29.45,29.45s13.21,29.45,29.45,29.45,29.45-13.21,29.45-29.45-13.21-29.45-29.45-29.45Zm0,54.4c-13.76,0-24.96-11.2-24.96-24.96s11.2-24.96,24.96-24.96,24.96,11.2,24.96,24.96-11.2,24.96-24.96,24.96Z"/><path class="cls-4" d="M88,67.54c-.09,0-.17,0-.25,0h-.08c-.88,.02-1.67,.55-2.02,1.36-.35,.81-.19,1.75,.41,2.4,1.7,1.86,2.63,4.26,2.63,6.78,0,5.54-4.51,10.05-10.05,10.05-2.04,0-4-.61-5.67-1.76-.73-.5-1.68-.53-2.44-.07-.75,.46-1.17,1.31-1.06,2.19,1.14,9.36,9.11,16.42,18.55,16.42,10.31,0,18.69-8.38,18.69-18.69s-8.38-18.69-18.69-18.69Zm0,32.89c-5.65,0-10.62-3.33-12.88-8.23,1.14,.28,2.32,.43,3.51,.43,8.02,0,14.54-6.52,14.54-14.54,0-1.89-.36-3.73-1.06-5.45,5.83,1.77,10.09,7.19,10.09,13.59,0,7.83-6.37,14.2-14.2,14.2Z"/></g><path class="cls-4" d="M87.39,6.99c-21.99,0-42.66,8.56-58.21,24.11C13.63,46.65,5.07,67.32,5.07,89.31c0,8.23,1.21,16.36,3.6,24.16,.36,1.19,1.62,1.85,2.81,1.49,1.19-.36,1.85-1.62,1.49-2.81-2.26-7.37-3.41-15.06-3.41-22.84C9.56,46.39,44.47,11.48,87.39,11.48s77.82,34.91,77.82,77.82-34.91,77.82-77.82,77.82c-19.24,0-37.71-7.08-52-19.93-.92-.83-2.34-.75-3.17,.17-.83,.92-.75,2.34,.17,3.17,15.12,13.59,34.66,21.08,55.01,21.08,21.99,0,42.66-8.56,58.2-24.11,15.55-15.55,24.11-36.22,24.11-58.21s-8.56-42.66-24.11-58.21c-15.55-15.55-36.22-24.11-58.2-24.11Z"/></g><g><path class="cls-4" d="M461.58,89.18l-69.98-13.99L435.83,3.42c.58-.94,.39-2.16-.45-2.88-.84-.72-2.07-.73-2.91-.01l-104.11,87.87c-.64,.54-.93,1.39-.74,2.21,.18,.82,.81,1.46,1.62,1.68l59.66,15.81-43.77,67.13c-.59,.9-.45,2.09,.32,2.84,.43,.42,1,.63,1.56,.63,.45,0,.9-.13,1.29-.41,34.89-24.43,58.55-42.66,79.43-58.74,11.72-9.03,22.8-17.56,34.75-26.35,.72-.53,1.05-1.43,.86-2.3-.19-.87-.88-1.54-1.75-1.72Zm-36.6,26.81c-18.87,14.54-40.02,30.83-69.7,51.88l39.07-59.93c.39-.6,.47-1.36,.22-2.03-.26-.67-.82-1.18-1.52-1.37l-58.49-15.5L424.64,13.01l-38.56,62.58c-.39,.63-.44,1.4-.15,2.08,.29,.67,.9,1.16,1.62,1.31l68.17,13.62c-10.46,7.77-20.35,15.38-30.75,23.4Z"/><path class="cls-4" d="M430.31,66.92c-8.54-5.19-17.87-8.55-27.75-9.98-1.23-.18-2.37,.67-2.55,1.9-.18,1.23,.67,2.37,1.9,2.55,18.28,2.65,35.07,12.75,46.08,27.71,.44,.6,1.12,.92,1.81,.92,.46,0,.93-.14,1.33-.44,1-.74,1.21-2.14,.48-3.14-5.79-7.87-12.96-14.44-21.3-19.51Z"/><path class="cls-4" d="M454.7,95.3c-1.1,.57-1.53,1.93-.96,3.03,5.16,9.95,7.77,20.72,7.77,32.01,0,38.42-31.26,69.68-69.68,69.68s-69.68-31.26-69.68-69.68c0-13.75,4-27.04,11.56-38.45,.69-1.03,.4-2.43-.63-3.11-1.03-.69-2.43-.4-3.11,.63-8.05,12.14-12.31,26.3-12.31,40.93,0,19.81,7.71,38.44,21.72,52.45,14.01,14.01,32.63,21.72,52.45,21.72s38.44-7.71,52.45-21.72c14.01-14.01,21.72-32.63,21.72-52.45,0-11.84-2.86-23.63-8.27-34.07-.57-1.1-1.93-1.53-3.03-.96Z"/></g><path class="cls-4" d="M421.34,385.66h-19.06c-1.24,0-2.25,1.01-2.25,2.25s1.01,2.25,2.25,2.25h19.06c1.24,0,2.25-1.01,2.25-2.25s-1.01-2.25-2.25-2.25Z"/><path class="cls-4" d="M380.77,385.66h-50.96c-1.24,0-2.25,1.01-2.25,2.25s1.01,2.25,2.25,2.25h50.96c1.24,0,2.25-1.01,2.25-2.25s-1.01-2.25-2.25-2.25Z"/><path class="cls-4" d="M144.54,385.66H56.8c-1.24,0-2.25,1.01-2.25,2.25s1.01,2.25,2.25,2.25h87.73c1.24,0,2.25-1.01,2.25-2.25s-1.01-2.25-2.25-2.25Z"/><g><path class="cls-4" d="M387.11,356.27c-1.08,.23-2.2,.34-3.32,.34h-3.68c-1.24,0-2.25,1.01-2.25,2.25s1.01,2.25,2.25,2.25h3.68c1.43,0,2.85-.15,4.24-.44,1.21-.25,1.99-1.44,1.74-2.66-.25-1.21-1.44-1.99-2.66-1.74Z"/><path class="cls-4" d="M366.63,356.61h-.06c-1.24,0-2.25,1.01-2.25,2.25s1.01,2.25,2.25,2.25h.06c1.24,0,2.25-1.01,2.25-2.25s-1.01-2.25-2.25-2.25Z"/><path class="cls-4" d="M355.19,237.42c1.24,0,2.25-1.01,2.25-2.25v-7.49c0-1.24-1.01-2.25-2.25-2.25s-2.25,1.01-2.25,2.25v7.49c0,1.24,1.01,2.25,2.25,2.25Z"/><path class="cls-4" d="M355.19,216.45c1.24,0,2.25-1.01,2.25-2.25v-7.49c0-1.24-1.01-2.25-2.25-2.25s-2.25,1.01-2.25,2.25v7.49c0,1.24,1.01,2.25,2.25,2.25Z"/><path class="cls-4" d="M400.97,262.42c0-1.24-1.01-2.25-2.25-2.25h-7.49c-1.24,0-2.25,1.01-2.25,2.25s1.01,2.25,2.25,2.25h7.49c1.24,0,2.25-1.01,2.25-2.25Z"/><path class="cls-4" d="M357.94,248.04c-.31-1.2-1.53-1.93-2.73-1.62-1.2,.31-1.93,1.53-1.62,2.73,.7,2.73,1.94,5.25,3.67,7.49,.44,.57,1.11,.87,1.78,.87,.48,0,.96-.15,1.37-.47,.98-.76,1.16-2.17,.4-3.15-1.36-1.75-2.32-3.72-2.87-5.86Z"/><path class="cls-4" d="M380.01,262.42c0-1.24-1.01-2.25-2.25-2.25h-4.15c-.98,0-1.96-.09-2.91-.26-1.22-.22-2.39,.59-2.61,1.81-.22,1.22,.59,2.39,1.81,2.61,1.22,.22,2.47,.33,3.72,.33h4.15c1.24,0,2.25-1.01,2.25-2.25Z"/><path class="cls-4" d="M431.33,267.34c1.85,1.22,3.4,2.77,4.62,4.62,.43,.66,1.15,1.01,1.88,1.01,.42,0,.85-.12,1.23-.37,1.04-.68,1.32-2.08,.64-3.11-1.55-2.36-3.54-4.34-5.89-5.9-1.04-.68-2.43-.4-3.11,.64-.68,1.04-.4,2.43,.64,3.11Z"/><path class="cls-4" d="M402.25,342.38c-1.21-.28-2.41,.48-2.69,1.69-.49,2.15-1.41,4.14-2.72,5.93-.73,1-.52,2.41,.48,3.14,.4,.29,.87,.44,1.33,.44,.69,0,1.37-.32,1.81-.92,1.68-2.28,2.85-4.83,3.48-7.58,.28-1.21-.48-2.41-1.69-2.69Z"/><path class="cls-4" d="M440.84,281.36c-1.24,0-2.25,1.01-2.25,2.25v7.49c0,1.24,1.01,2.25,2.25,2.25s2.25-1.01,2.25-2.25v-7.49c0-1.24-1.01-2.25-2.25-2.25Z"/><path class="cls-4" d="M439.13,302.11c-1.04-.67-2.43-.37-3.11,.67-1.2,1.86-2.74,3.43-4.57,4.66-1.03,.69-1.3,2.09-.61,3.12,.43,.64,1.14,.99,1.86,.99,.43,0,.87-.12,1.25-.38,2.34-1.58,4.31-3.58,5.84-5.95,.67-1.04,.37-2.43-.67-3.11Z"/><path class="cls-4" d="M419.77,310.21c-2.83,.12-5.55,.8-8.09,2.02-1.12,.54-1.59,1.88-1.05,3,.39,.8,1.19,1.27,2.03,1.27,.33,0,.66-.07,.97-.22,1.99-.96,4.11-1.49,6.33-1.58,1.24-.05,2.2-1.1,2.15-2.34-.05-1.24-1.1-2.21-2.34-2.15Z"/><path class="cls-4" d="M404.45,321.75c-1.15-.47-2.46,.07-2.93,1.22-1.03,2.5-1.56,5.15-1.56,7.88v.28c0,1.24,1.01,2.25,2.25,2.25s2.25-1.01,2.25-2.25v-.28c0-2.14,.41-4.21,1.22-6.17,.47-1.15-.07-2.46-1.22-2.93Z"/><path class="cls-4" d="M412.2,264.67h7.49c1.24,0,2.25-1.01,2.25-2.25s-1.01-2.25-2.25-2.25h-7.49c-1.24,0-2.25,1.01-2.25,2.25s1.01,2.25,2.25,2.25Z"/></g><g><path class="cls-4" d="M93.55,312.1c1.18-.38,1.83-1.64,1.46-2.82-.86-2.69-2.24-5.13-4.1-7.27-.82-.94-2.23-1.03-3.17-.22-.94,.81-1.03,2.23-.22,3.17,1.46,1.67,2.54,3.58,3.21,5.68,.31,.95,1.19,1.56,2.14,1.56,.23,0,.46-.03,.68-.11Z"/><path class="cls-4" d="M59.33,281.16c-.18-1.23-1.33-2.07-2.55-1.89-1.23,.18-2.07,1.33-1.89,2.55,.42,2.79,1.39,5.43,2.88,7.83,.43,.68,1.16,1.06,1.91,1.06,.41,0,.82-.11,1.19-.34,1.05-.66,1.37-2.04,.72-3.09-1.17-1.88-1.93-3.94-2.25-6.12Z"/><path class="cls-4" d="M77.86,295.07c-.84-.1-1.69-.15-2.54-.15-1.54,0-3.06-.22-4.52-.64-1.19-.35-2.44,.34-2.78,1.53-.35,1.19,.34,2.44,1.53,2.78,1.87,.54,3.81,.82,5.77,.82,.66,0,1.33,.04,1.99,.12,.09,.01,.18,.02,.28,.02,1.12,0,2.09-.83,2.23-1.97,.15-1.23-.73-2.35-1.96-2.5Z"/><path class="cls-4" d="M56.77,249.3c.08,0,.17,.01,.25,.01,1.13,0,2.1-.85,2.23-2,.24-2.2,.92-4.28,2.01-6.2,.61-1.08,.24-2.45-.84-3.06-1.08-.61-2.45-.24-3.06,.84-1.4,2.46-2.26,5.13-2.57,7.94-.14,1.23,.76,2.34,1.99,2.48Z"/><path class="cls-4" d="M90.34,232.92h7.49c1.24,0,2.25-1.01,2.25-2.25s-1.01-2.25-2.25-2.25h-7.49c-1.24,0-2.25,1.01-2.25,2.25s1.01,2.25,2.25,2.25Z"/><path class="cls-4" d="M56.9,270.27c1.24,0,2.25-1.01,2.25-2.25v-7.49c0-1.24-1.01-2.25-2.25-2.25s-2.25,1.01-2.25,2.25v7.49c0,1.24,1.01,2.25,2.25,2.25Z"/><path class="cls-4" d="M70.19,233.75c1.65-.55,3.38-.83,5.13-.83h1.54c1.24,0,2.25-1.01,2.25-2.25s-1.01-2.25-2.25-2.25h-1.54c-2.24,0-4.45,.36-6.56,1.06-1.18,.39-1.81,1.67-1.42,2.84,.31,.94,1.19,1.53,2.13,1.53,.24,0,.48-.04,.71-.12Z"/><path class="cls-4" d="M116.3,224.62c-1.69,1.43-3.62,2.48-5.73,3.12-1.19,.36-1.86,1.61-1.5,2.8,.29,.97,1.19,1.59,2.15,1.59,.22,0,.44-.03,.65-.1,2.7-.82,5.16-2.16,7.33-3.99,.95-.8,1.07-2.22,.27-3.17-.8-.95-2.22-1.07-3.17-.27Z"/><path class="cls-4" d="M124.29,205.07c-1.24,0-2.25,1.01-2.25,2.25v4.94c0,.75-.05,1.5-.15,2.23-.17,1.23,.69,2.36,1.92,2.53,.1,.01,.21,.02,.31,.02,1.1,0,2.07-.81,2.22-1.94,.13-.94,.19-1.89,.19-2.84v-4.94c0-1.24-1.01-2.25-2.25-2.25Z"/><path class="cls-4" d="M124.29,184.11c-1.24,0-2.25,1.01-2.25,2.25v7.49c0,1.24,1.01,2.25,2.25,2.25s2.25-1.01,2.25-2.25v-7.49c0-1.24-1.01-2.25-2.25-2.25Z"/><path class="cls-4" d="M95.99,330.84v-7.49c0-1.24-1.01-2.25-2.25-2.25s-2.25,1.01-2.25,2.25v7.49c0,1.24,1.01,2.25,2.25,2.25s2.25-1.01,2.25-2.25Z"/><path class="cls-4" d="M115.3,354.52h-3.15c-.59,0-1.18-.03-1.76-.09-1.23-.13-2.34,.76-2.47,1.99-.13,1.23,.76,2.34,1.99,2.47,.74,.08,1.49,.12,2.24,.12h3.15c1.24,0,2.25-1.01,2.25-2.25s-1.01-2.25-2.25-2.25Z"/><path class="cls-4" d="M96.82,343.49c-.39-1.18-1.67-1.81-2.84-1.41-1.18,.39-1.81,1.67-1.41,2.84,.9,2.67,2.31,5.1,4.2,7.21,.44,.5,1.06,.75,1.67,.75,.53,0,1.07-.19,1.5-.57,.92-.83,1-2.25,.17-3.17-1.48-1.65-2.59-3.55-3.29-5.64Z"/></g></svg>