<?xml version="1.0" encoding="UTF-8"?><svg id="Layer_1" xmlns="http://www.w3.org/2000/svg" viewBox="0 0 270.14 220.91"><defs><style>.cls-1{fill:#e2e2e5;}.cls-2{fill:#fbd11a;}.cls-3{fill:#70c05e;}.cls-4{fill:#1e243a;}.cls-5{fill:#4f91cd;}</style></defs><path class="cls-5" d="M39.73,16.17l5.1-5.1-5.53-5.53-5.14,5.14c-1.54-.95-3.25-1.66-5.07-2.08V1.31h-7.83v7.28c-1.82,.42-3.52,1.13-5.07,2.08l-5.14-5.14-5.53,5.53,5.1,5.1c-.98,1.55-1.72,3.27-2.16,5.1H1.31v7.83h7.1c.42,1.87,1.14,3.63,2.12,5.21l-4.99,4.99,5.53,5.53,4.96-4.96c1.59,1,3.36,1.76,5.25,2.19v6.99h7.83v-6.99c1.89-.44,3.65-1.19,5.25-2.19l4.96,4.96,5.53-5.53-4.99-4.99c.97-1.59,1.7-3.34,2.12-5.21h7.1v-7.83h-7.17c-.44-1.83-1.18-3.55-2.16-5.1Zm-14.55,19.01c-5.44,0-9.85-4.41-9.85-9.85s4.41-9.85,9.85-9.85,9.85,4.41,9.85,9.85-4.41,9.85-9.85,9.85Z"/><path class="cls-5" d="M63.24,72.03l6.35-6.35-6.89-6.89-6.39,6.39c-1.92-1.18-4.05-2.07-6.31-2.59v-9.06h-9.74v9.06c-2.26,.53-4.39,1.41-6.31,2.59l-6.39-6.39-6.89,6.89,6.35,6.35c-1.22,1.93-2.14,4.07-2.69,6.35H15.41v9.74h8.84c.52,2.33,1.42,4.52,2.63,6.49l-6.21,6.21,6.89,6.89,6.17-6.17c1.98,1.25,4.18,2.18,6.53,2.73v8.7h9.74v-8.7c2.35-.55,4.55-1.48,6.53-2.73l6.17,6.17,6.89-6.89-6.21-6.21c1.21-1.97,2.11-4.16,2.63-6.49h8.84v-9.74h-8.93c-.55-2.28-1.47-4.42-2.69-6.35Zm-18.11,23.66c-6.77,0-12.26-5.49-12.26-12.26s5.49-12.26,12.26-12.26,12.26,5.49,12.26,12.26-5.49,12.26-12.26,12.26Z"/><g><path class="cls-1" d="M129.6,91.06c0-8.8-33.44-12.08-38.22,.17-1.49-.58-3.17-.9-4.95-.9-6.01,0-9.41,6.92-9.41,11.46,0,1.44,.49,2.78,1.34,3.96-3.17,3.86-5.73,8.34-7.52,13.26-5.21,1.48-9.03,6.3-9.03,12.02,0,4.59,2.47,8.61,6.14,10.78v5.94c0,.8,.01,1.6,.04,2.4-2.28,1.7-4.18,4.65-4.18,7.92,0,4.38,3.1,7.99,6.77,9.08,1.76,6.31,4.37,12.22,7.67,17.56,.34,4.35,2.56,9.36,6.37,13.55,4.38,4.82,9.74,7.33,14.05,7.04,5.29,3.25,9.86,6.65,15.99,8.01,3.83,7.05,5.91,6.68,8.67,5.73,4.01-1.37,6.41-10.87,6.27-13.11V91.06Z"/><path class="cls-1" d="M93.7,106.49l-15.35-.73c5.13,3.7,10.24,3.5,15.35,.73Z"/><path class="cls-1" d="M84.22,142.19h-15.88c3.74,2,8.89,2.37,15.88,0Z"/><path class="cls-1" d="M67.94,150.12l13.88,3.09c-3.24-4.48-8.3-5.47-13.88-3.09Z"/><path class="cls-1" d="M98.63,205.21c4.49-3.35,6.37-7.8,6.27-13.08l-6.27,13.08Z"/><path class="cls-1" d="M78.21,184.64l10.68-8.08c-6.35-.11-9.65,2.84-10.68,8.08Z"/><path class="cls-1" d="M114.65,213.29l7.21-13.08c-4.84,2.3-7.24,6.66-7.21,13.08Z"/></g><g><path class="cls-1" d="M190.83,141.8c3.67-2.17,6.14-6.18,6.14-10.78,0-5.72-3.82-10.54-9.03-12.02-1.79-4.91-4.35-9.39-7.52-13.26,.85-1.17,1.34-2.52,1.34-3.96,0-4.54-3.4-11.46-9.41-11.46-1.78,0-3.47,.33-4.95,.9-4.78-12.25-38.22-8.96-38.22-.17v114.85c-.13,2.24,2.26,11.74,6.27,13.11,2.77,.95,4.84,1.32,8.67-5.73,6.13-1.36,10.7-4.76,15.99-8.01,4.3,.29,9.67-2.22,14.05-7.04,3.81-4.19,6.03-9.2,6.37-13.55,3.3-5.35,5.9-11.25,7.67-17.56,3.67-1.08,6.77-4.7,6.77-9.08,0-3.26-1.9-6.21-4.18-7.92,.03-.8,.04-1.59,.04-2.4v-5.94Z"/><path class="cls-1" d="M180.42,105.75l-15.35,.73c5.1,2.77,10.22,2.96,15.35-.73Z"/><path class="cls-1" d="M190.43,142.19h-15.88c7,2.37,12.14,2,15.88,0Z"/><path class="cls-1" d="M176.95,153.21l13.88-3.09c-5.58-2.38-10.64-1.4-13.88,3.09Z"/><path class="cls-1" d="M160.14,205.21l-6.27-13.08c-.1,5.28,1.78,9.72,6.27,13.08Z"/><path class="cls-1" d="M169.88,176.56l10.68,8.08c-1.03-5.24-4.33-8.19-10.68-8.08Z"/><path class="cls-1" d="M136.91,200.22l7.21,13.08c.04-6.42-2.37-10.77-7.21-13.08Z"/></g><circle class="cls-2" cx="218.88" cy="81.38" r="49.87"/><g><g><rect class="cls-3" x="133.12" y="24.46" width="49.37" height="12.13" transform="translate(35.22 134.48) rotate(-51.24)"/><polygon class="cls-3" points="132.12 34.15 141.24 41.47 164.36 11.52 155.8 4.66 132.12 34.15"/><rect class="cls-3" x="126.44" y="11.44" width="26.71" height="9.24" transform="translate(39.76 115.02) rotate(-51.24)"/></g><g><rect class="cls-3" x="196.39" y="75.24" width="49.37" height="12.13" transform="translate(19.28 202.81) rotate(-51.24)"/><polygon class="cls-3" points="213.97 99.85 223.09 107.17 246.76 77.68 238.21 70.81 213.97 99.85"/><rect class="cls-3" x="225.74" y="91.15" width="26.71" height="9.24" transform="translate(14.74 222.27) rotate(-51.24)"/></g><rect class="cls-1" x="183.99" y="21.41" width="10.9" height="69.01" transform="translate(27.25 168.65) rotate(-51.24)"/></g><g><path class="cls-4" d="M252.45,7.32s0,0,0,0c.34,.34,.79,.51,1.23,.51s.89-.17,1.23-.51c.68-.68,.68-1.78,0-2.46,0,0-.01-.01-.02-.02-.68-.68-1.78-.67-2.46,0-.68,.68-.67,1.78,0,2.46,0,0,0,0,0,0Z"/><path class="cls-4" d="M246.46,16.89c-.91-.32-1.9,.16-2.22,1.07-.32,.91,.16,1.9,1.07,2.22,.19,.06,.38,.1,.57,.1,.72,0,1.39-.45,1.65-1.17,.32-.91-.17-1.9-1.07-2.22Z"/><path class="cls-4" d="M240.68,12.28c-.91,.32-1.39,1.31-1.07,2.22,.25,.72,.92,1.16,1.64,1.16,.19,0,.38-.03,.58-.1,.91-.32,1.38-1.31,1.07-2.22-.32-.91-1.31-1.38-2.22-1.07Z"/><path class="cls-4" d="M242.9,5.95c-.81-.51-1.89-.26-2.4,.55-.51,.81-.26,1.89,.55,2.4,.29,.18,.61,.27,.92,.27,.58,0,1.15-.29,1.48-.82,.51-.81,.26-1.89-.55-2.4Z"/><path class="cls-4" d="M247.3,2.21c-.96,.11-1.64,.97-1.53,1.93,.1,.89,.85,1.54,1.73,1.54,.07,0,.13,0,.2-.01,.95-.11,1.64-.97,1.53-1.93-.11-.95-.97-1.64-1.93-1.53Z"/><path class="cls-4" d="M256.04,10.53c-.96-.11-1.82,.58-1.92,1.54-.11,.95,.58,1.82,1.54,1.92,.07,0,.13,.01,.19,.01,.88,0,1.63-.66,1.73-1.55,.11-.96-.58-1.82-1.54-1.92Z"/><path class="cls-4" d="M251.44,16.32h0c-.81,.51-1.06,1.59-.54,2.4,.33,.52,.9,.81,1.47,.81,.32,0,.64-.09,.93-.27,.81-.51,1.06-1.59,.54-2.4-.51-.81-1.59-1.06-2.4-.54Z"/></g><g><path class="cls-4" d="M118.44,57.13c-.81-.51-1.89-.26-2.4,.55-.51,.81-.26,1.89,.55,2.4,.29,.18,.61,.27,.92,.27,.58,0,1.15-.29,1.48-.82,.51-.81,.26-1.89-.55-2.4Z"/><path class="cls-4" d="M116.22,63.46c-.91,.32-1.39,1.31-1.07,2.22,.25,.72,.92,1.16,1.64,1.16,.19,0,.38-.03,.58-.1,.91-.32,1.38-1.31,1.07-2.22-.32-.91-1.31-1.38-2.22-1.07Z"/><path class="cls-4" d="M121.99,68.07c-.91-.32-1.9,.16-2.22,1.07-.32,.91,.16,1.9,1.07,2.22,.19,.06,.38,.1,.57,.1,.72,0,1.39-.45,1.65-1.17,.32-.91-.17-1.9-1.07-2.22Z"/><path class="cls-4" d="M127.98,58.5s0,0,0,0h0c.34,.34,.79,.51,1.23,.51s.89-.17,1.23-.51c.68-.68,.68-1.78,0-2.46,0,0-.01-.01-.02-.02-.68-.68-1.78-.67-2.46,0-.68,.68-.67,1.78,0,2.46,0,0,0,0,0,0Z"/><path class="cls-4" d="M131.57,61.71c-.96-.11-1.82,.58-1.92,1.54-.11,.95,.58,1.82,1.54,1.92,.07,0,.13,.01,.19,.01,.88,0,1.63-.66,1.73-1.55,.11-.96-.58-1.82-1.54-1.92Z"/><path class="cls-4" d="M122.83,53.39c-.96,.11-1.64,.97-1.53,1.93,.1,.89,.85,1.54,1.73,1.54,.07,0,.13,0,.2-.01,.95-.11,1.64-.97,1.53-1.93-.11-.95-.97-1.64-1.93-1.53Z"/><path class="cls-4" d="M126.98,67.5c-.81,.51-1.06,1.59-.54,2.4,.33,.52,.9,.81,1.47,.81,.32,0,.64-.09,.93-.27,.81-.51,1.06-1.59,.54-2.4-.51-.81-1.59-1.06-2.4-.54Z"/></g><g><path class="cls-4" d="M74.35,18.3c-.84,.47-1.13,1.53-.67,2.37,.32,.57,.91,.89,1.52,.89,.29,0,.58-.07,.85-.22,.84-.47,1.14-1.53,.66-2.37-.47-.84-1.53-1.14-2.37-.66Z"/><path class="cls-4" d="M74.13,14.91c.21,.09,.44,.13,.65,.13,.69,0,1.34-.41,1.61-1.09,.36-.89-.07-1.91-.96-2.27-.89-.36-1.91,.07-2.27,.96-.36,.89,.07,1.91,.96,2.27Z"/><path class="cls-4" d="M80.11,10.57c.92-.27,1.44-1.24,1.17-2.16-.27-.92-1.24-1.45-2.17-1.17-.92,.28-1.45,1.24-1.17,2.17,.22,.76,.92,1.24,1.67,1.24,.16,0,.33-.02,.5-.07Z"/><path class="cls-4" d="M87.51,10.95c.55-.79,.36-1.87-.43-2.42,0,0,0,0,0,0,0,0-.01,0-.02-.01-.79-.55-1.87-.35-2.42,.44-.55,.79-.36,1.87,.44,2.42t0,0s0,0,.01,0c.3,.21,.65,.32,1,.32,.55,0,1.09-.26,1.43-.74Z"/><path class="cls-4" d="M80.84,21.83c-.95-.15-1.84,.49-1.99,1.44-.15,.95,.49,1.84,1.44,1.99,.09,.02,.19,.02,.28,.02,.84,0,1.58-.61,1.72-1.46,.15-.95-.49-1.84-1.44-2Z"/><path class="cls-4" d="M89.17,13.91c-.96,.06-1.69,.89-1.63,1.85,.06,.92,.83,1.63,1.74,1.63,.04,0,.07,0,.11,0,.96-.06,1.69-.89,1.63-1.85-.06-.96-.89-1.69-1.85-1.63Z"/><path class="cls-4" d="M85.65,20.41c-.71,.65-.76,1.75-.12,2.46,.34,.38,.81,.57,1.29,.57,.42,0,.84-.15,1.17-.45h0c.71-.65,.76-1.75,.12-2.46-.65-.71-1.75-.76-2.46-.12Z"/></g><g><path class="cls-4" d="M212.1,178.68c-.95-.15-1.84,.49-1.99,1.44-.15,.95,.49,1.84,1.44,1.99,.09,.02,.19,.02,.28,.02,.84,0,1.58-.61,1.72-1.47,.15-.95-.49-1.84-1.44-1.99Z"/><path class="cls-4" d="M205.39,171.76c.21,.09,.44,.13,.65,.13,.69,0,1.34-.41,1.61-1.09,.36-.89-.07-1.91-.96-2.27-.89-.36-1.91,.07-2.27,.96h0c-.36,.89,.07,1.91,.96,2.27Z"/><path class="cls-4" d="M205.61,175.15c-.84,.47-1.14,1.53-.66,2.37,.32,.57,.91,.89,1.52,.89,.29,0,.58-.07,.85-.22,.84-.47,1.14-1.53,.66-2.37-.47-.84-1.53-1.14-2.37-.66Z"/><path class="cls-4" d="M211.37,167.42c.92-.28,1.44-1.24,1.17-2.17-.27-.92-1.24-1.45-2.17-1.17-.92,.27-1.45,1.24-1.17,2.16,.22,.76,.92,1.24,1.67,1.24,.17,0,.33-.02,.5-.07Z"/><path class="cls-4" d="M220.43,170.75c-.96,.06-1.69,.89-1.63,1.85h0c.06,.92,.83,1.63,1.74,1.63,.04,0,.07,0,.11,0,.96-.06,1.69-.89,1.63-1.85-.06-.96-.89-1.69-1.85-1.63Z"/><path class="cls-4" d="M216.91,177.25c-.71,.65-.76,1.75-.12,2.46,.34,.38,.81,.57,1.29,.57,.42,0,.84-.15,1.17-.45,.71-.65,.76-1.75,.12-2.46-.65-.71-1.75-.76-2.46-.12Z"/><path class="cls-4" d="M218.77,167.8c.55-.79,.36-1.87-.43-2.42,0,0-.02-.01-.02-.02-.79-.55-1.87-.35-2.42,.44-.55,.79-.36,1.87,.44,2.42,0,0,.01,0,.01,0,.3,.21,.65,.32,1,.32,.55,0,1.09-.26,1.43-.74Z"/></g><g><path class="cls-4" d="M251.74,188.03c-.84,.47-1.13,1.53-.67,2.37,.32,.57,.91,.89,1.52,.89,.29,0,.58-.07,.85-.22,.84-.47,1.14-1.53,.66-2.37-.47-.84-1.53-1.14-2.37-.66Z"/><path class="cls-4" d="M257.5,180.3c.92-.27,1.45-1.24,1.17-2.16-.27-.92-1.24-1.45-2.17-1.17-.92,.27-1.45,1.24-1.17,2.16,.22,.76,.92,1.24,1.67,1.24,.16,0,.33-.02,.5-.07Z"/><path class="cls-4" d="M251.52,184.64c.21,.09,.44,.13,.65,.13,.69,0,1.34-.41,1.61-1.09,.36-.89-.07-1.91-.96-2.27-.89-.36-1.91,.07-2.27,.96h0c-.36,.89,.07,1.91,.96,2.27Z"/><path class="cls-4" d="M263.04,190.14c-.71,.65-.76,1.75-.12,2.46,.34,.38,.81,.57,1.29,.57,.42,0,.84-.15,1.17-.45h0c.71-.65,.76-1.75,.12-2.46-.65-.71-1.75-.76-2.46-.12Z"/><path class="cls-4" d="M266.56,183.64c-.96,.06-1.69,.89-1.63,1.85,.06,.92,.83,1.63,1.74,1.63,.04,0,.07,0,.11,0,.96-.06,1.69-.89,1.63-1.85-.06-.96-.89-1.69-1.85-1.63Z"/><path class="cls-4" d="M264.9,180.68c.55-.79,.36-1.87-.43-2.42h0s-.01,0-.02-.01c0,0,0,0,0,0-.79-.55-1.87-.36-2.42,.44-.55,.79-.36,1.87,.43,2.42,0,0,.01,0,.02,.01,.3,.21,.65,.32,1,.32,.55,0,1.09-.26,1.43-.74Z"/><path class="cls-4" d="M258.23,191.56c-.95-.15-1.84,.49-1.99,1.44-.15,.95,.49,1.84,1.44,1.99,.09,.02,.19,.02,.28,.02,.84,0,1.58-.61,1.72-1.46,.15-.95-.49-1.84-1.44-2Z"/></g><g><path class="cls-4" d="M16.26,214.89c-.95-.15-1.84,.49-1.99,1.44-.15,.95,.49,1.84,1.44,1.99,.09,.02,.19,.02,.28,.02,.84,0,1.58-.61,1.72-1.46,.15-.95-.49-1.84-1.44-2Z"/><path class="cls-4" d="M9.77,211.36c-.84,.47-1.13,1.53-.67,2.37,.32,.57,.91,.89,1.52,.89,.29,0,.58-.07,.85-.22,.84-.47,1.14-1.53,.66-2.37-.47-.84-1.53-1.14-2.37-.66Z"/><path class="cls-4" d="M9.55,207.97c.21,.09,.44,.13,.65,.13,.69,0,1.34-.41,1.61-1.09h0c.36-.89-.07-1.9-.96-2.27-.89-.36-1.91,.07-2.27,.96-.36,.89,.07,1.91,.96,2.27Z"/><path class="cls-4" d="M15.53,203.63c.92-.27,1.45-1.24,1.17-2.16-.27-.92-1.24-1.45-2.17-1.17-.92,.27-1.45,1.24-1.17,2.16,.22,.76,.92,1.24,1.67,1.24,.16,0,.33-.02,.5-.07Z"/><path class="cls-4" d="M24.58,206.96c-.96,.06-1.69,.89-1.63,1.85,.06,.92,.83,1.63,1.74,1.63,.04,0,.07,0,.11,0,.96-.06,1.69-.89,1.63-1.85-.06-.96-.89-1.69-1.85-1.63Z"/><path class="cls-4" d="M22.92,204.01c.55-.79,.36-1.87-.43-2.42,0,0-.02-.01-.02-.02-.79-.55-1.87-.35-2.42,.44-.55,.79-.36,1.87,.44,2.42,0,0,0,0,.01,0,.3,.21,.65,.32,1,.32,.55,0,1.09-.26,1.43-.74Z"/><path class="cls-4" d="M21.07,213.46c-.71,.65-.76,1.75-.12,2.46,.34,.38,.81,.57,1.29,.57,.42,0,.84-.15,1.17-.45h0c.71-.65,.76-1.75,.12-2.46-.65-.71-1.75-.76-2.46-.12Z"/></g><g><path class="cls-4" d="M42.51,155.41c.92-.27,1.45-1.24,1.17-2.16-.27-.92-1.24-1.45-2.17-1.17-.92,.28-1.44,1.24-1.17,2.17,.22,.76,.92,1.24,1.67,1.24,.16,0,.33-.02,.5-.07Z"/><path class="cls-4" d="M36.75,163.14c-.84,.47-1.13,1.53-.66,2.37,.32,.57,.91,.89,1.52,.89,.29,0,.58-.07,.85-.22,.84-.47,1.14-1.53,.66-2.37-.47-.84-1.53-1.14-2.37-.66Z"/><path class="cls-4" d="M36.53,159.75c.21,.09,.44,.13,.65,.13,.69,0,1.34-.41,1.61-1.09,.36-.89-.07-1.9-.96-2.27-.89-.36-1.91,.07-2.27,.96-.36,.89,.07,1.9,.96,2.27Z"/><path class="cls-4" d="M43.24,166.67c-.95-.15-1.84,.49-1.99,1.44-.15,.95,.49,1.84,1.44,1.99,.09,.02,.19,.02,.28,.02,.84,0,1.58-.61,1.72-1.46,.15-.95-.49-1.84-1.44-2Z"/><path class="cls-4" d="M48.05,165.24c-.71,.65-.76,1.75-.12,2.46,.34,.38,.81,.57,1.29,.57,.42,0,.84-.15,1.17-.45,.71-.65,.76-1.75,.12-2.46-.65-.71-1.75-.76-2.46-.12Z"/><path class="cls-4" d="M49.91,155.79c.55-.79,.36-1.87-.43-2.42,0,0-.02-.01-.02-.01-.79-.55-1.87-.36-2.42,.44-.55,.79-.36,1.87,.44,2.42,0,0,.01,0,.01,0,.3,.21,.65,.32,1,.32,.55,0,1.09-.26,1.43-.74Z"/><path class="cls-4" d="M51.57,158.74c-.96,.06-1.69,.89-1.63,1.85,.06,.92,.82,1.63,1.73,1.63,.04,0,.07,0,.11,0,.96-.06,1.69-.89,1.63-1.85-.06-.96-.89-1.69-1.85-1.63Z"/></g><g><path class="cls-4" d="M14.52,133.59c-.95-.15-1.84,.49-1.99,1.44-.15,.95,.49,1.84,1.44,1.99,.09,.02,.19,.02,.28,.02,.84,0,1.58-.61,1.72-1.46,.15-.95-.49-1.84-1.44-2Z"/><path class="cls-4" d="M8.03,130.06c-.84,.47-1.14,1.53-.67,2.37,.32,.57,.91,.89,1.52,.89,.29,0,.58-.07,.85-.22,.84-.47,1.14-1.53,.66-2.37-.47-.84-1.53-1.14-2.37-.66Z"/><path class="cls-4" d="M7.81,126.67c.21,.09,.44,.13,.65,.13,.69,0,1.34-.41,1.61-1.09,.36-.89-.07-1.91-.96-2.27-.89-.36-1.91,.07-2.27,.96-.36,.89,.07,1.91,.96,2.27Z"/><path class="cls-4" d="M13.79,122.33c.92-.27,1.45-1.24,1.17-2.16-.27-.92-1.24-1.45-2.17-1.17-.92,.28-1.45,1.24-1.17,2.17,.22,.76,.92,1.24,1.67,1.24,.16,0,.33-.02,.5-.07Z"/><path class="cls-4" d="M22.84,125.67c-.96,.06-1.69,.89-1.63,1.85,.06,.92,.83,1.63,1.74,1.63,.04,0,.07,0,.11,0,.96-.06,1.69-.89,1.63-1.85-.06-.96-.89-1.69-1.85-1.63Z"/><path class="cls-4" d="M21.18,122.71c.55-.79,.36-1.87-.43-2.42,0,0,0,0,0,0,0,0-.01,0-.02-.01-.79-.55-1.87-.35-2.42,.44-.55,.79-.35,1.87,.44,2.42,0,0,0,0,.01,0,.3,.21,.65,.32,1,.32,.55,0,1.09-.26,1.43-.74Z"/><path class="cls-4" d="M19.33,132.17c-.71,.65-.76,1.75-.12,2.46,.34,.38,.81,.57,1.29,.57,.42,0,.84-.15,1.17-.45h0c.71-.65,.76-1.75,.12-2.46-.65-.71-1.75-.76-2.46-.12Z"/></g><g><path class="cls-4" d="M248.3,202.54c-.72,0-1.31,.58-1.31,1.31v8.36c0,.72,.58,1.31,1.31,1.31s1.31-.58,1.31-1.31v-8.36c0-.72-.58-1.31-1.31-1.31Z"/><path class="cls-4" d="M252.56,206.81h-8.36c-.72,0-1.31,.58-1.31,1.31s.58,1.31,1.31,1.31h8.36c.72,0,1.31-.58,1.31-1.31s-.58-1.31-1.31-1.31Z"/></g><g><path class="cls-4" d="M48.97,178.35c-.72,0-1.31,.58-1.31,1.31v8.36c0,.72,.58,1.31,1.31,1.31s1.31-.58,1.31-1.31v-8.36c0-.72-.58-1.31-1.31-1.31Z"/><path class="cls-4" d="M53.24,182.61h-8.36c-.72,0-1.31,.58-1.31,1.31s.58,1.31,1.31,1.31h8.36c.72,0,1.31-.58,1.31-1.31s-.58-1.31-1.31-1.31Z"/></g><g><path class="cls-4" d="M255.26,132.04c-.72,0-1.31,.58-1.31,1.31v8.36c0,.72,.58,1.31,1.31,1.31s1.31-.58,1.31-1.31v-8.36c0-.72-.58-1.31-1.31-1.31Z"/><path class="cls-4" d="M259.52,136.31h-8.36c-.72,0-1.31,.58-1.31,1.31s.58,1.31,1.31,1.31h8.36c.72,0,1.31-.58,1.31-1.31s-.58-1.31-1.31-1.31Z"/></g><g><path class="cls-4" d="M103.46,19.76c-.72,0-1.31,.58-1.31,1.31v8.36c0,.72,.58,1.31,1.31,1.31s1.31-.58,1.31-1.31v-8.36c0-.72-.58-1.31-1.31-1.31Z"/><path class="cls-4" d="M107.73,24.02h-8.36c-.72,0-1.31,.58-1.31,1.31s.58,1.31,1.31,1.31h8.36c.72,0,1.31-.58,1.31-1.31s-.58-1.31-1.31-1.31Z"/></g><g><path class="cls-4" d="M88.84,57.19c-.72,0-1.31,.58-1.31,1.31v8.36c0,.72,.58,1.31,1.31,1.31s1.31-.58,1.31-1.31v-8.36c0-.72-.58-1.31-1.31-1.31Z"/><path class="cls-4" d="M93.1,61.45h-8.36c-.72,0-1.31,.58-1.31,1.31s.58,1.31,1.31,1.31h8.36c.72,0,1.31-.58,1.31-1.31s-.58-1.31-1.31-1.31Z"/></g><g><g><path class="cls-4" d="M130.9,91.06c0-3.81-4.59-6.95-12.29-8.4-5.56-1.05-11.66-1.01-16.73,.1-5.53,1.21-9.37,3.57-11.19,6.86-1.36-.4-2.79-.6-4.27-.6-3.12,0-5.97,1.63-8.03,4.58-1.66,2.38-2.69,5.51-2.69,8.18,0,1.34,.36,2.66,1.04,3.87-2.89,3.68-5.22,7.81-6.92,12.29-5.53,1.87-9.34,7.15-9.34,13.07,0,4.62,2.33,8.95,6.14,11.5v5.22c0,.58,0,1.18,.02,1.78-2.1,1.79-4.16,4.83-4.16,8.53,0,4.42,2.91,8.55,7.01,10.1,1.74,6.01,4.25,11.71,7.46,16.97,.46,4.74,2.88,9.83,6.68,14,4.35,4.79,9.93,7.62,14.67,7.49,.76,.47,1.51,.94,2.24,1.41,4.2,2.66,8.18,5.18,13.23,6.42,1.82,3.25,3.38,5.08,5.02,5.89,.75,.37,1.47,.52,2.16,.52,.95,0,1.87-.27,2.78-.59,4.87-1.67,7.27-11.87,7.16-14.38V91.06Zm-8,126.72c-2.19,.75-3.64,1.25-7.11-5.12-.18-.33-.5-.57-.86-.65-4.88-1.08-8.81-3.57-12.98-6.21-.85-.54-1.72-1.09-2.61-1.64-.21-.13-.44-.19-.68-.19-.03,0-.06,0-.09,0-4.06,.27-9.04-2.26-12.99-6.62-3.45-3.8-5.7-8.57-6.03-12.77-.02-.21-.08-.41-.19-.58-3.28-5.31-5.81-11.11-7.52-17.23-.12-.43-.46-.77-.89-.9-2.9-.86-5.84-3.82-5.84-7.83,0-3.05,1.89-5.55,3.65-6.87,.34-.26,.54-.66,.52-1.09-.03-.8-.04-1.59-.04-2.35v-5.94c0-.46-.24-.89-.64-1.12-3.39-2-5.5-5.7-5.5-9.65,0-4.99,3.32-9.41,8.08-10.76,.4-.11,.73-.42,.87-.81,1.73-4.74,4.19-9.07,7.31-12.88,.38-.46,.4-1.12,.05-1.6-.72-1-1.09-2.07-1.09-3.19,0-4.14,3.16-10.15,8.1-10.15,1.58,0,3.09,.27,4.48,.81,.67,.26,1.43-.07,1.69-.74,2.53-6.49,15.23-8.42,25.54-6.48,6.08,1.14,10.16,3.49,10.16,5.84v114.85s0,.05,0,.08c.13,2.18-2.31,10.74-5.39,11.8Z"/><path class="cls-4" d="M93.07,105.34c-5.02,2.72-9.59,2.51-13.96-.65-.58-.42-1.4-.29-1.82,.3-.42,.58-.29,1.4,.3,1.82,2.8,2.02,5.73,3.03,8.77,3.03,2.59,0,5.25-.74,7.97-2.21,.63-.34,.87-1.14,.53-1.77-.34-.63-1.14-.87-1.77-.53Z"/><path class="cls-4" d="M83.8,140.95c-6.1,2.07-11.1,2.1-14.85,.09-.64-.34-1.43-.1-1.77,.53-.34,.64-.1,1.43,.53,1.77,2.23,1.2,4.79,1.8,7.66,1.8s5.89-.57,9.26-1.71c.68-.23,1.05-.97,.82-1.66-.23-.68-.97-1.05-1.66-.82Z"/><path class="cls-4" d="M67.43,148.92c-.66,.28-.97,1.05-.69,1.71,.28,.66,1.05,.97,1.71,.69,5.13-2.19,9.5-1.25,12.31,2.65,.26,.35,.65,.54,1.06,.54,.26,0,.53-.08,.76-.25,.58-.42,.72-1.24,.29-1.82-3.55-4.91-9.18-6.2-15.45-3.52Z"/><path class="cls-4" d="M104.88,190.83c-.72,.01-1.29,.61-1.28,1.33,.09,5.12-1.79,9.05-5.75,12-.58,.43-.7,1.25-.27,1.83,.26,.34,.65,.53,1.05,.53,.27,0,.55-.08,.78-.26,4.62-3.44,6.91-8.2,6.8-14.15-.01-.72-.61-1.3-1.33-1.28Z"/><path class="cls-4" d="M88.91,175.26c-3.4-.06-6.14,.72-8.17,2.31-1.94,1.54-3.23,3.83-3.82,6.82-.14,.71,.32,1.39,1.03,1.53,.09,.02,.17,.02,.25,.02,.61,0,1.16-.43,1.28-1.05,.96-4.89,3.93-7.13,9.37-7.03,0,0,.02,0,.02,0,.71,0,1.29-.57,1.3-1.28,.01-.72-.56-1.32-1.28-1.33Z"/><path class="cls-4" d="M121.29,199.04c-5.32,2.53-7.99,7.33-7.95,14.26,0,.72,.59,1.3,1.31,1.3h0c.72,0,1.3-.59,1.3-1.31-.03-5.92,2.08-9.81,6.46-11.89,.65-.31,.93-1.09,.62-1.74-.31-.65-1.09-.93-1.74-.62Z"/></g><path class="cls-4" d="M113.18,125.85l-.85,.87c-3.66,3.76-9.2,4.07-13.19,.75l-8.21-6.86c-.55-.46-1.38-.39-1.84,.17-.46,.55-.39,1.38,.17,1.84l8.21,6.86c2.26,1.89,5.03,2.9,7.86,2.9,.22,0,.44,0,.67-.02,3.06-.17,5.97-1.53,8.2-3.82l.85-.87c.5-.52,.49-1.34-.03-1.85-.52-.5-1.34-.49-1.85,.03Z"/><path class="cls-4" d="M115.41,142.57l-1.48,.52c-3.04,1.08-6.26-.47-7.67-3.67l-3.89-9.63c-.27-.67-1.03-.99-1.7-.72-.67,.27-.99,1.03-.72,1.7l3.89,9.64s0,.02,.01,.03c1.52,3.48,4.75,5.59,8.15,5.59,.93,0,1.86-.16,2.78-.48l1.48-.52c.68-.24,1.04-.99,.79-1.67-.24-.68-.99-1.04-1.67-.79Z"/><path class="cls-4" d="M122.67,156.34c-.6-.41-1.41-.25-1.81,.35l-6.18,9.08c-3.73,5.48-3.33,13.07,.94,18.05l.8,.93c.26,.3,.62,.46,.99,.46,.3,0,.6-.1,.85-.31,.55-.47,.61-1.29,.14-1.84l-.8-.93c-3.52-4.1-3.84-10.36-.77-14.88l6.18-9.08c.41-.6,.25-1.41-.35-1.81Z"/><path class="cls-4" d="M113.55,168.5l-8.74,4.35s-.02,.01-.04,.02c-3.97,2.14-5.94,7.21-4.57,11.79l.49,1.63c.17,.57,.69,.93,1.25,.93,.12,0,.25-.02,.37-.06,.69-.21,1.08-.93,.88-1.62l-.49-1.63c-1.02-3.42,.39-7.17,3.29-8.74l8.72-4.34c.65-.32,.91-1.1,.59-1.75-.32-.65-1.1-.91-1.75-.59Z"/><path class="cls-4" d="M119.82,101.97l-.64,.6c-2.61,2.45-6.41,2.48-9.05,.07l-5.73-5.23c-.53-.49-1.36-.45-1.84,.08-.49,.53-.45,1.36,.08,1.84l5.73,5.23c1.82,1.66,4.03,2.49,6.25,2.49s4.52-.86,6.35-2.59l.64-.6c.53-.49,.55-1.32,.06-1.85-.49-.53-1.32-.55-1.85-.06Z"/><path class="cls-4" d="M121.11,114.03l-1.08,.33c-2.04,.62-4.13-.52-4.99-2.7l-2.53-7.08c-.24-.68-.99-1.03-1.67-.79-.68,.24-1.03,.99-.79,1.67l2.53,7.1s0,.02,.01,.03c1.09,2.81,3.64,4.55,6.34,4.55,.61,0,1.23-.09,1.84-.27l1.08-.33c.69-.21,1.08-.94,.87-1.63-.21-.69-.94-1.08-1.63-.87Z"/><path class="cls-4" d="M99.63,143.38c-.72,.04-1.27,.65-1.24,1.37,.32,6.04-2.07,7.67-5.1,9.74-2.87,1.96-6.13,4.18-7.16,10.25-.12,.71,.36,1.39,1.07,1.51,.07,.01,.15,.02,.22,.02,.62,0,1.18-.45,1.29-1.09,.85-4.97,3.38-6.7,6.06-8.53,3.26-2.22,6.63-4.52,6.24-12.03-.04-.72-.65-1.27-1.37-1.24Z"/><g><path class="cls-4" d="M192.55,142.52c3.81-2.54,6.14-6.88,6.14-11.5,0-1.78-.33-3.52-.99-5.16-.27-.67-1.03-.99-1.7-.73-.67,.27-.99,1.03-.73,1.7,.53,1.33,.8,2.74,.8,4.19,0,3.95-2.11,7.65-5.5,9.65-.4,.23-.64,.66-.64,1.12v5.94c0,.77-.01,1.56-.04,2.35-.01,.43,.18,.83,.52,1.09,1.77,1.32,3.65,3.82,3.65,6.87,0,4.01-2.94,6.97-5.84,7.83-.43,.13-.77,.47-.89,.9-1.71,6.12-4.24,11.92-7.52,17.23-.11,.18-.17,.38-.19,.58-.33,4.2-2.59,8.98-6.03,12.77-3.96,4.36-8.93,6.89-12.99,6.62-.27-.02-.54,.05-.77,.19-.89,.55-1.76,1.1-2.61,1.64-4.16,2.64-8.1,5.13-12.98,6.21-.37,.08-.68,.32-.86,.65-3.46,6.36-4.91,5.87-7.11,5.12-3.08-1.05-5.52-9.61-5.39-11.8,.04-.72-.51-1.34-1.23-1.38-.72-.04-1.34,.51-1.38,1.23-.14,2.43,2.25,12.75,7.15,14.42,.92,.31,1.83,.59,2.78,.59,.69,0,1.41-.14,2.16-.52,1.64-.82,3.2-2.64,5.02-5.89,5.05-1.24,9.03-3.76,13.23-6.42,.73-.46,1.48-.94,2.24-1.41,.11,0,.22,0,.33,0,4.67,0,10.1-2.81,14.34-7.49,3.8-4.18,6.22-9.26,6.68-14,3.21-5.26,5.72-10.96,7.46-16.97,4.1-1.54,7.01-5.68,7.01-10.1,0-3.7-2.06-6.74-4.16-8.53,.01-.6,.02-1.2,.02-1.78v-5.22Z"/><path class="cls-4" d="M169.32,89.41c-.28,.06-.56,.14-.83,.22-1.82-3.29-5.65-5.65-11.19-6.86-5.07-1.11-11.17-1.14-16.73-.1-7.7,1.45-12.29,4.59-12.29,8.4,0,.72,.58,1.31,1.31,1.31s1.31-.58,1.31-1.31c0-2.35,4.08-4.69,10.16-5.84,10.31-1.94,23-.01,25.54,6.48,.2,.52,.69,.83,1.22,.83,.16,0,.32-.03,.47-.09,.52-.2,1.07-.37,1.63-.5,.7-.16,1.14-.86,.98-1.56s-.86-1.14-1.56-.98Z"/><path class="cls-4" d="M175.75,106.84c-3.05,.85-6.21,.36-9.65-1.5-.63-.34-1.43-.11-1.77,.53-.34,.63-.11,1.43,.53,1.77,2.72,1.48,5.39,2.22,7.99,2.22,1.22,0,2.42-.16,3.61-.49,.69-.19,1.1-.91,.91-1.61-.19-.69-.91-1.1-1.61-.91Z"/><path class="cls-4" d="M190.22,141.04c-3.75,2.01-8.74,1.98-14.85-.09-.68-.23-1.42,.13-1.66,.82-.23,.68,.13,1.42,.82,1.66,3.37,1.14,6.46,1.71,9.26,1.71s5.43-.6,7.66-1.8c.64-.34,.87-1.13,.53-1.77-.34-.64-1.13-.87-1.77-.53Z"/><path class="cls-4" d="M191.75,148.92c-6.27-2.67-11.9-1.39-15.45,3.52-.42,.58-.29,1.4,.29,1.82,.23,.17,.5,.25,.76,.25,.4,0,.8-.19,1.06-.54,2.81-3.89,7.18-4.83,12.31-2.65,.66,.28,1.43-.03,1.71-.69,.28-.66-.03-1.43-.69-1.71Z"/><path class="cls-4" d="M161.33,204.17c-3.96-2.95-5.84-6.88-5.75-12,.01-.72-.56-1.32-1.28-1.33-.72-.02-1.32,.56-1.33,1.28-.11,5.94,2.18,10.7,6.8,14.15,.23,.17,.51,.26,.78,.26,.4,0,.79-.18,1.05-.53,.43-.58,.31-1.4-.27-1.83Z"/><path class="cls-4" d="M178.43,177.57c-2.02-1.6-4.77-2.37-8.17-2.31-.72,.01-1.3,.61-1.28,1.33,.01,.72,.61,1.29,1.33,1.28,5.44-.1,8.41,2.14,9.37,7.03,.12,.62,.67,1.05,1.28,1.05,.08,0,.17,0,.25-.02,.71-.14,1.17-.83,1.03-1.53-.59-2.99-1.87-5.28-3.82-6.82Z"/><path class="cls-4" d="M137.88,199.04c-.65-.31-1.43-.03-1.74,.62-.31,.65-.03,1.43,.62,1.74,4.38,2.08,6.5,5.97,6.46,11.89,0,.72,.58,1.31,1.3,1.31h0c.72,0,1.3-.58,1.31-1.3,.04-6.94-2.64-11.73-7.95-14.26Z"/></g><path class="cls-4" d="M168.25,120.62l-8.21,6.86c-3.98,3.32-9.53,3.01-13.19-.75l-.85-.87c-.5-.52-1.33-.53-1.85-.03-.52,.5-.53,1.33-.03,1.85l.85,.87c2.23,2.29,5.14,3.65,8.2,3.82,.22,.01,.44,.02,.67,.02,2.84,0,5.61-1.02,7.86-2.9l8.21-6.86c.55-.46,.63-1.29,.17-1.84-.46-.55-1.29-.63-1.84-.17Z"/><path class="cls-4" d="M158.5,129.08c-.67-.27-1.43,.05-1.7,.72l-3.89,9.63c-1.41,3.2-4.63,4.75-7.67,3.67l-1.48-.52c-.68-.24-1.43,.11-1.67,.79-.24,.68,.11,1.43,.79,1.67l1.48,.52c.92,.33,1.86,.48,2.78,.48,3.4,0,6.63-2.1,8.15-5.59,0-.01,0-.02,.01-.03l3.89-9.64c.27-.67-.05-1.43-.72-1.7Z"/><path class="cls-4" d="M138.32,156.69c-.41-.6-1.22-.75-1.81-.35-.6,.41-.75,1.22-.35,1.81l6.18,9.08c3.07,4.52,2.75,10.78-.77,14.88l-.8,.93c-.47,.55-.41,1.37,.14,1.84,.25,.21,.55,.31,.85,.31,.37,0,.73-.15,.99-.46l.8-.93c4.27-4.98,4.67-12.57,.94-18.05l-6.18-9.08Z"/><path class="cls-4" d="M154.41,172.86s-.02-.01-.04-.02l-8.74-4.35c-.65-.32-1.43-.06-1.75,.59-.32,.65-.06,1.43,.59,1.75l8.72,4.34c2.89,1.57,4.31,5.32,3.29,8.74l-.49,1.63c-.21,.69,.19,1.42,.88,1.62,.12,.04,.25,.06,.37,.06,.56,0,1.08-.37,1.25-.93l.49-1.63c1.37-4.59-.6-9.66-4.57-11.79Z"/><path class="cls-4" d="M154.77,97.41l-5.73,5.23c-2.64,2.41-6.44,2.38-9.05-.07l-.64-.6c-.52-.49-1.35-.47-1.85,.06-.49,.53-.47,1.35,.06,1.85l.64,.6c1.83,1.72,4.09,2.59,6.35,2.59s4.43-.83,6.25-2.49l5.73-5.23c.53-.49,.57-1.31,.08-1.84-.49-.53-1.31-.57-1.84-.08Z"/><path class="cls-4" d="M148.34,103.78c-.68-.24-1.43,.11-1.67,.79l-2.53,7.08c-.86,2.18-2.95,3.32-4.99,2.7l-1.08-.33c-.69-.21-1.42,.18-1.63,.87-.21,.69,.18,1.42,.87,1.63l1.08,.33c.61,.19,1.23,.27,1.84,.27,2.71,0,5.25-1.74,6.34-4.55,0-.01,0-.02,.01-.03l2.53-7.1c.24-.68-.11-1.43-.79-1.67Z"/><path class="cls-4" d="M165.88,154.49c-3.03-2.06-5.42-3.69-5.1-9.74,.04-.72-.52-1.33-1.24-1.37-.71-.04-1.33,.52-1.37,1.24-.39,7.51,2.98,9.81,6.24,12.03,2.68,1.83,5.21,3.55,6.06,8.53,.11,.64,.66,1.09,1.29,1.09,.07,0,.15,0,.22-.02,.71-.12,1.19-.8,1.07-1.51-1.03-6.07-4.29-8.29-7.16-10.25Z"/></g><g><g><path class="cls-4" d="M49.06,19.96h-6.17c-.38-1.25-.88-2.45-1.52-3.59l4.39-4.39c.51-.51,.51-1.34,0-1.85l-5.53-5.53c-.51-.51-1.34-.51-1.85,0l-4.43,4.43c-1.13-.61-2.32-1.1-3.55-1.46V1.31c0-.72-.58-1.31-1.31-1.31h-7.83c-.72,0-1.31,.58-1.31,1.31V7.58c-1.23,.36-2.42,.85-3.55,1.46l-4.43-4.43c-.24-.24-.58-.38-.92-.38s-.68,.14-.92,.38l-5.53,5.53c-.51,.51-.51,1.34,0,1.85l4.39,4.39c-.63,1.14-1.14,2.34-1.52,3.59H1.31c-.72,0-1.31,.58-1.31,1.31v7.83c0,.72,.58,1.31,1.31,1.31H7.39c.36,1.28,.87,2.52,1.5,3.69l-4.28,4.28c-.24,.24-.38,.58-.38,.92s.14,.68,.38,.92l5.53,5.53c.24,.24,.58,.38,.92,.38s.68-.14,.92-.38l4.24-4.24c1.19,.66,2.44,1.18,3.73,1.56v5.98c0,.72,.58,1.31,1.31,1.31h7.83c.72,0,1.31-.58,1.31-1.31v-5.98c1.3-.38,2.55-.9,3.73-1.56l4.24,4.24c.51,.51,1.34,.51,1.85,0l5.53-5.53c.24-.24,.38-.58,.38-.92s-.14-.68-.38-.92l-4.28-4.28c.63-1.17,1.14-2.41,1.5-3.69h6.09c.72,0,1.31-.58,1.31-1.31v-7.83c0-.72-.58-1.31-1.31-1.31Zm-1.31,7.83h-5.8c-.61,0-1.14,.42-1.27,1.02-.38,1.7-1.04,3.32-1.95,4.81-.32,.51-.24,1.18,.19,1.61l4.07,4.07-3.69,3.69-4.03-4.03c-.43-.43-1.1-.51-1.62-.18-1.5,.95-3.13,1.63-4.85,2.03-.59,.14-1.01,.66-1.01,1.27v5.68h-5.21v-5.68c0-.61-.42-1.13-1.01-1.27-1.72-.4-3.35-1.08-4.85-2.03-.52-.33-1.19-.25-1.62,.18l-4.03,4.03-3.69-3.69,4.07-4.07c.43-.43,.51-1.09,.19-1.61-.92-1.49-1.57-3.11-1.95-4.81-.13-.6-.66-1.02-1.27-1.02H2.61v-5.21h5.86c.6,0,1.13-.41,1.27-1,.4-1.67,1.07-3.25,1.99-4.71,.33-.52,.25-1.19-.18-1.62l-4.18-4.18,3.69-3.69,4.21,4.21c.43,.43,1.09,.51,1.61,.19,1.45-.89,3.03-1.54,4.68-1.92,.59-.14,1.01-.66,1.01-1.27V2.61h5.21v5.97c0,.61,.42,1.13,1.01,1.27,1.65,.38,3.23,1.03,4.68,1.92,.52,.32,1.18,.24,1.61-.19l4.21-4.21,3.69,3.69-4.18,4.18c-.43,.43-.51,1.1-.18,1.62,.92,1.46,1.59,3.04,1.99,4.71,.14,.59,.67,1,1.27,1h5.86v5.21Z"/><path class="cls-4" d="M25.18,14.17c-6.15,0-11.15,5-11.15,11.15s5,11.15,11.15,11.15,11.15-5,11.15-11.15-5-11.15-11.15-11.15Zm0,19.7c-4.71,0-8.54-3.83-8.54-8.54s3.83-8.54,8.54-8.54,8.54,3.83,8.54,8.54-3.83,8.54-8.54,8.54Z"/></g><g><path class="cls-4" d="M45.13,69.87c-7.48,0-13.57,6.09-13.57,13.57s6.09,13.57,13.57,13.57,13.57-6.09,13.57-13.57-6.09-13.57-13.57-13.57Zm0,24.52c-6.04,0-10.96-4.91-10.96-10.96s4.91-10.96,10.96-10.96,10.96,4.91,10.96,10.96-4.91,10.96-10.96,10.96Z"/><path class="cls-4" d="M74.85,77.08h-7.92c-.49-1.69-1.18-3.31-2.05-4.84l5.63-5.63c.24-.24,.38-.58,.38-.92s-.14-.68-.38-.92l-6.89-6.89c-.24-.24-.58-.38-.92-.38s-.68,.14-.92,.38l-5.68,5.68c-1.52-.84-3.12-1.5-4.79-1.97v-8.05c0-.72-.58-1.31-1.31-1.31h-9.74c-.72,0-1.31,.58-1.31,1.31v8.05c-1.67,.47-3.27,1.13-4.79,1.97l-5.68-5.68c-.24-.24-.58-.38-.92-.38s-.68,.14-.92,.38l-6.89,6.89c-.24,.24-.38,.58-.38,.92s.14,.68,.38,.92l5.63,5.63c-.87,1.53-1.56,3.15-2.05,4.84h-7.92c-.72,0-1.31,.58-1.31,1.31v9.74c0,.72,.58,1.31,1.31,1.31h7.82c.47,1.73,1.15,3.4,2.02,4.97l-5.5,5.5c-.24,.24-.38,.58-.38,.92s.14,.68,.38,.92l6.89,6.89c.24,.24,.58,.38,.92,.38s.68-.14,.92-.38l5.45-5.45c1.59,.9,3.27,1.61,5.02,2.1v7.69c0,.72,.58,1.31,1.31,1.31h9.74c.72,0,1.31-.58,1.31-1.31v-7.69c1.75-.49,3.44-1.2,5.02-2.1l5.45,5.45c.24,.24,.58,.38,.92,.38s.68-.14,.92-.38l6.89-6.89c.24-.24,.38-.58,.38-.92s-.14-.68-.38-.92l-5.5-5.5c.87-1.57,1.55-3.24,2.02-4.97h7.82c.72,0,1.31-.58,1.31-1.31v-9.74c0-.72-.58-1.31-1.31-1.31Zm-1.31,9.74h-7.54c-.61,0-1.14,.42-1.27,1.02-.48,2.16-1.31,4.21-2.47,6.09-.32,.51-.24,1.18,.19,1.61l5.29,5.29-5.04,5.04-5.25-5.25c-.43-.43-1.1-.51-1.62-.18-1.9,1.2-3.96,2.06-6.13,2.56-.59,.14-1.01,.66-1.01,1.27v7.4h-7.13v-7.4c0-.61-.42-1.13-1.01-1.27-2.17-.51-4.24-1.37-6.13-2.56-.52-.33-1.19-.25-1.62,.18l-5.25,5.25-5.04-5.04,5.29-5.29c.43-.43,.51-1.09,.19-1.61-1.16-1.89-1.99-3.94-2.47-6.09-.13-.6-.66-1.02-1.27-1.02h-7.54v-7.13h7.62c.6,0,1.13-.41,1.27-1,.51-2.11,1.36-4.12,2.52-5.96,.33-.52,.25-1.19-.18-1.62l-5.43-5.43,5.04-5.04,5.47,5.47c.43,.43,1.09,.51,1.61,.19,1.84-1.13,3.83-1.95,5.92-2.43,.59-.14,1.01-.66,1.01-1.27v-7.76h7.13v7.76c0,.61,.42,1.13,1.01,1.27,2.09,.49,4.08,1.31,5.92,2.43,.52,.32,1.18,.24,1.61-.19l5.47-5.47,5.04,5.04-5.43,5.43c-.43,.43-.51,1.1-.18,1.62,1.16,1.84,2.01,3.85,2.52,5.96,.14,.59,.67,1,1.27,1h7.62v7.13Z"/></g></g><g><g><path class="cls-4" d="M208.95,4.09c-.72,0-1.31,.58-1.31,1.31V13.75c0,.72,.58,1.31,1.31,1.31s1.31-.58,1.31-1.31V5.4c0-.72-.58-1.31-1.31-1.31Z"/><path class="cls-4" d="M213.22,8.36h-8.36c-.72,0-1.31,.58-1.31,1.31s.58,1.31,1.31,1.31h8.36c.72,0,1.31-.58,1.31-1.31s-.58-1.31-1.31-1.31Z"/></g><g><g><path class="cls-4" d="M178.81,14.05l-9.46-7.59c-.27-.22-.62-.32-.96-.28-.34,.04-.66,.21-.88,.48l-30.91,38.5c-.45,.56-.36,1.38,.2,1.84l9.46,7.59c.23,.19,.52,.29,.82,.29,.05,0,.09,0,.14,0,.34-.04,.66-.21,.88-.48l30.91-38.5c.45-.56,.36-1.38-.2-1.84Zm-31.92,37.68l-7.42-5.96,29.27-36.47,7.42,5.96-29.27,36.47Z"/><path class="cls-4" d="M165.17,10.51l-8.56-6.87c-.27-.22-.62-.32-.96-.28-.34,.04-.66,.21-.88,.48l-23.68,29.5c-.45,.56-.36,1.38,.2,1.84l9.12,7.32c.24,.19,.53,.29,.82,.29,.38,0,.76-.17,1.02-.49,.45-.56,.36-1.38-.2-1.84l-8.1-6.5,22.04-27.46,7.54,6.05c.56,.45,1.38,.36,1.84-.2,.45-.56,.36-1.38-.2-1.84Z"/><path class="cls-4" d="M152.58,7.52l-7.21-5.78c-.27-.22-.62-.32-.96-.28-.34,.04-.66,.21-.88,.48l-16.72,20.83c-.45,.56-.36,1.38,.2,1.84l7.2,5.78c.24,.19,.53,.29,.82,.29,.38,0,.76-.17,1.02-.49,.45-.56,.36-1.38-.2-1.84l-6.19-4.97,15.08-18.79,6.19,4.97c.56,.45,1.38,.36,1.84-.2,.45-.56,.36-1.38-.2-1.84Z"/></g><g><path class="cls-4" d="M242.08,64.83l-9.46-7.59c-.27-.22-.62-.32-.96-.28-.34,.04-.66,.21-.88,.48l-30.91,38.5c-.45,.56-.36,1.38,.2,1.84l9.46,7.59c.24,.19,.53,.29,.82,.29,.38,0,.76-.17,1.02-.49l30.91-38.5c.45-.56,.36-1.38-.2-1.84Zm-31.92,37.68l-7.42-5.96,29.27-36.47,7.42,5.96-29.27,36.47Z"/><path class="cls-4" d="M247.58,76.66l-8.56-6.87c-.56-.45-1.38-.36-1.84,.2-.45,.56-.36,1.38,.2,1.84l7.54,6.05-22.04,27.46-8.1-6.5c-.56-.45-1.38-.36-1.84,.2-.45,.56-.36,1.38,.2,1.84l9.12,7.32c.23,.19,.52,.29,.82,.29,.05,0,.09,0,.14,0,.34-.04,.66-.21,.88-.48l23.68-29.5c.22-.27,.32-.62,.28-.96-.04-.34-.21-.66-.48-.88Z"/><path class="cls-4" d="M251.87,87.23l-7.2-5.78c-.56-.45-1.38-.36-1.84,.2-.45,.56-.36,1.38,.2,1.84l6.19,4.97-15.08,18.79-6.19-4.97c-.56-.45-1.38-.36-1.84,.2-.45,.56-.36,1.38,.2,1.84l7.21,5.78c.23,.19,.52,.29,.82,.29,.05,0,.09,0,.14,0,.34-.04,.66-.21,.88-.48l16.72-20.83c.45-.56,.36-1.38-.2-1.84Z"/></g><g><path class="cls-4" d="M220.58,72.24l-53.81-43.2c-.56-.45-1.38-.36-1.84,.2-.45,.56-.36,1.38,.2,1.84l53.81,43.2c.24,.19,.53,.29,.82,.29,.38,0,.76-.17,1.02-.49,.45-.56,.36-1.38-.2-1.84Z"/><path class="cls-4" d="M213.76,80.74l-53.81-43.2c-.56-.45-1.38-.36-1.84,.2-.45,.56-.36,1.38,.2,1.84l53.81,43.2c.24,.19,.53,.29,.82,.29,.38,0,.76-.17,1.02-.49,.45-.56,.36-1.38-.2-1.84Z"/></g></g><path class="cls-4" d="M235.16,126.65c-5.11,1.78-10.47,2.69-15.93,2.69-26.64,0-48.31-21.67-48.31-48.31,0-9.55,2.78-18.78,8.04-26.7,.4-.6,.24-1.41-.36-1.81-.6-.4-1.41-.24-1.81,.36-5.55,8.35-8.48,18.08-8.48,28.14,0,13.6,5.3,26.39,14.91,36.01,9.62,9.62,22.4,14.91,36.01,14.91,5.76,0,11.41-.95,16.8-2.84,.68-.24,1.04-.98,.8-1.66-.24-.68-.98-1.04-1.66-.8Z"/><path class="cls-4" d="M235.73,32.85c-.68-.23-1.42,.13-1.66,.81-.23,.68,.13,1.42,.81,1.66,19.53,6.69,32.65,25.06,32.65,45.71,0,16.07-7.96,31.05-21.3,40.06-.6,.4-.75,1.22-.35,1.81,.25,.37,.66,.57,1.08,.57,.25,0,.51-.07,.73-.22,14.06-9.5,22.45-25.28,22.45-42.22,0-21.77-13.83-41.14-34.42-48.18Z"/><path class="cls-4" d="M209.48,31.05c-9.26,1.79-17.84,6.14-24.8,12.58-.53,.49-.56,1.32-.07,1.85,.26,.28,.61,.42,.96,.42,.32,0,.63-.11,.89-.35,6.61-6.1,14.74-10.23,23.52-11.93,.71-.14,1.17-.82,1.03-1.53-.14-.71-.82-1.17-1.53-1.03Z"/></g><path class="cls-4" d="M206.69,218.3h-25.76c-.72,0-1.31,.58-1.31,1.31s.58,1.31,1.31,1.31h25.76c.72,0,1.31-.58,1.31-1.31s-.58-1.31-1.31-1.31Z"/><path class="cls-4" d="M169.09,218.3H68.3c-.72,0-1.31,.58-1.31,1.31s.58,1.31,1.31,1.31h100.79c.72,0,1.31-.58,1.31-1.31s-.58-1.31-1.31-1.31Z"/><path class="cls-4" d="M53.15,218.3h-18.1c-.72,0-1.31,.58-1.31,1.31s.58,1.31,1.31,1.31h18.1c.72,0,1.31-.58,1.31-1.31s-.58-1.31-1.31-1.31Z"/><path class="cls-4" d="M15.37,111.59H7.19c-.72,0-1.31,.58-1.31,1.31s.58,1.31,1.31,1.31H15.37c.72,0,1.31-.58,1.31-1.31s-.58-1.31-1.31-1.31Z"/><path class="cls-4" d="M63.25,111.59H26.69c-.72,0-1.31,.58-1.31,1.31s.58,1.31,1.31,1.31H63.25c.72,0,1.31-.58,1.31-1.31s-.58-1.31-1.31-1.31Z"/><g><path class="cls-4" d="M195.47,203.85h-1.67c-.72,0-1.31,.58-1.31,1.31s.58,1.31,1.31,1.31h1.67c.72,0,1.31-.58,1.31-1.31s-.58-1.31-1.31-1.31Z"/><path class="cls-4" d="M230.19,198.31c-.67-.27-1.43,.05-1.7,.72-.47,1.15-1.22,2.18-2.17,2.98-.55,.47-.62,1.29-.15,1.84,.26,.3,.63,.46,1,.46,.3,0,.6-.1,.84-.31,1.27-1.08,2.27-2.46,2.9-3.99,.27-.67-.05-1.43-.72-1.7Z"/><path class="cls-4" d="M229.11,154.85c0-.72-.58-1.31-1.31-1.31h-4.35c-.72,0-1.31,.58-1.31,1.31s.58,1.31,1.31,1.31h4.35c.72,0,1.31-.58,1.31-1.31Z"/><path class="cls-4" d="M215.68,155.63c.54,0,1.04-.33,1.23-.87,.24-.68-.11-1.43-.79-1.67-1.17-.41-2.23-1.11-3.08-2.03-.49-.53-1.32-.56-1.85-.07-.53,.49-.56,1.32-.07,1.85,1.13,1.22,2.56,2.15,4.12,2.71,.14,.05,.29,.08,.44,.08Z"/><path class="cls-4" d="M210.96,140.4c0-.72-.58-1.31-1.31-1.31s-1.31,.58-1.31,1.31v4.35c0,.72,.58,1.31,1.31,1.31s1.31-.58,1.31-1.31v-4.35Z"/><path class="cls-4" d="M207.66,203.85h-4.35c-.72,0-1.31,.58-1.31,1.31s.58,1.31,1.31,1.31h4.35c.72,0,1.31-.58,1.31-1.31s-.58-1.31-1.31-1.31Z"/><path class="cls-4" d="M219.85,203.85h-4.35c-.72,0-1.31,.58-1.31,1.31s.58,1.31,1.31,1.31h4.35c.72,0,1.31-.58,1.31-1.31s-.58-1.31-1.31-1.31Z"/><path class="cls-4" d="M255,169.85c-.96,.8-2.1,1.36-3.31,1.62-.7,.15-1.15,.85-1,1.55,.13,.61,.67,1.03,1.27,1.03,.09,0,.18,0,.28-.03,1.62-.35,3.15-1.1,4.43-2.17,.55-.46,.63-1.29,.17-1.84-.46-.55-1.29-.63-1.84-.17Z"/><path class="cls-4" d="M252.16,156.4c.59,0,1.13-.4,1.27-1,.17-.7-.26-1.41-.97-1.57-.79-.19-1.6-.29-2.42-.29h-2.21c-.72,0-1.31,.58-1.31,1.31s.58,1.31,1.31,1.31h2.21c.61,0,1.22,.07,1.81,.21,.1,.02,.2,.04,.31,.04Z"/><path class="cls-4" d="M257.52,158.64c-.64,.33-.9,1.11-.57,1.76,.55,1.09,.84,2.27,.84,3.51v.09c0,.72,.57,1.31,1.29,1.32,0,0,0,0,.01,0,.71,0,1.3-.58,1.31-1.29v-.11c0-1.65-.38-3.23-1.12-4.69-.33-.64-1.11-.9-1.76-.57Z"/><path class="cls-4" d="M230.37,186.12c-.72,0-1.31,.58-1.31,1.31v4.35c0,.72,.58,1.31,1.31,1.31s1.31-.58,1.31-1.31v-4.35c0-.72-.58-1.31-1.31-1.31Z"/><path class="cls-4" d="M231.82,174.96c-1.13,1.22-1.96,2.71-2.39,4.31-.19,.7,.22,1.41,.92,1.6,.11,.03,.23,.05,.34,.05,.57,0,1.1-.38,1.26-.96,.32-1.19,.94-2.31,1.79-3.22,.49-.53,.46-1.35-.07-1.85-.53-.49-1.36-.46-1.85,.07Z"/><path class="cls-4" d="M244.14,171.64h-4.35c-.72,0-1.31,.58-1.31,1.31s.58,1.31,1.31,1.31h4.35c.72,0,1.31-.58,1.31-1.31s-.58-1.31-1.31-1.31Z"/><path class="cls-4" d="M241.3,154.85c0-.72-.58-1.31-1.31-1.31h-4.35c-.72,0-1.31,.58-1.31,1.31s.58,1.31,1.31,1.31h4.35c.72,0,1.31-.58,1.31-1.31Z"/></g><g><path class="cls-4" d="M19.53,175.3h-3.28c-.31,0-.61-.02-.91-.05-.72-.08-1.36,.43-1.45,1.14-.08,.72,.43,1.36,1.14,1.45,.4,.05,.81,.07,1.22,.07h3.28c.72,0,1.31-.58,1.31-1.31s-.58-1.31-1.31-1.31Z"/><path class="cls-4" d="M29.34,148.93c0-.72-.58-1.31-1.31-1.31h-4.35c-.72,0-1.31,.58-1.31,1.31s.58,1.31,1.31,1.31h4.35c.72,0,1.31-.58,1.31-1.31Z"/><path class="cls-4" d="M17.15,148.88c-.03-.72-.64-1.28-1.36-1.25-1.66,.07-3.3,.55-4.73,1.38-.62,.36-.84,1.16-.47,1.78,.24,.42,.68,.65,1.13,.65,.22,0,.45-.06,.65-.18,1.07-.62,2.3-.98,3.54-1.03,.72-.03,1.28-.64,1.25-1.36Z"/><path class="cls-4" d="M7.19,162c.72,0,1.31-.58,1.31-1.31v-2.71c0-.47,.04-.94,.13-1.4,.13-.71-.34-1.39-1.05-1.52-.71-.13-1.39,.34-1.52,1.05-.11,.61-.17,1.24-.17,1.86v2.71c0,.72,.58,1.31,1.31,1.31Z"/><path class="cls-4" d="M34.09,187.25c0-.72-.58-1.31-1.31-1.31s-1.31,.58-1.31,1.31v3.98c0,.14,0,.29,0,.43,.03,.7,.61,1.25,1.3,1.25,.02,0,.04,0,.05,0,.72-.03,1.28-.64,1.25-1.36,0-.11,0-.21,0-.32v-3.98Z"/><path class="cls-4" d="M8.54,168.38c-.08-.72-.72-1.24-1.44-1.16-.72,.08-1.24,.72-1.16,1.44,.18,1.65,.76,3.26,1.68,4.64,.25,.38,.67,.58,1.09,.58,.25,0,.5-.07,.72-.22,.6-.4,.76-1.21,.36-1.81-.69-1.03-1.12-2.23-1.25-3.46Z"/><path class="cls-4" d="M31.72,179.07c-1.06-1.28-2.42-2.3-3.95-2.95-.66-.28-1.43,.03-1.71,.69-.28,.66,.03,1.43,.69,1.71,1.14,.48,2.16,1.25,2.96,2.21,.26,.31,.63,.47,1.01,.47,.29,0,.59-.1,.83-.3,.56-.46,.64-1.28,.18-1.84Z"/><path class="cls-4" d="M52.36,198.98h-4.35c-.72,0-1.31,.58-1.31,1.31s.58,1.31,1.31,1.31h4.35c.72,0,1.31-.58,1.31-1.31s-.58-1.31-1.31-1.31Z"/><path class="cls-4" d="M63.25,198.98h-3.06c-.72,0-1.31,.58-1.31,1.31s.58,1.31,1.31,1.31h3.06c.72,0,1.31-.58,1.31-1.31s-.58-1.31-1.31-1.31Z"/><path class="cls-4" d="M41.14,120.29c-.72,0-1.31,.58-1.31,1.31v4.35c0,.72,.58,1.31,1.31,1.31s1.31-.58,1.31-1.31v-4.35c0-.72-.58-1.31-1.31-1.31Z"/><path class="cls-4" d="M40.42,198.85c-1.22-.23-2.38-.75-3.36-1.52-.57-.45-1.39-.35-1.83,.22-.45,.57-.35,1.39,.22,1.83,1.31,1.03,2.86,1.73,4.5,2.03,.08,.01,.16,.02,.24,.02,.62,0,1.17-.44,1.28-1.07,.13-.71-.34-1.39-1.05-1.52Z"/><path class="cls-4" d="M36.29,149.34c1.51-.67,2.86-1.72,3.9-3.01,.45-.56,.36-1.39-.21-1.83-.56-.45-1.39-.36-1.83,.21-.78,.97-1.79,1.75-2.92,2.26-.66,.29-.96,1.06-.66,1.72,.22,.49,.69,.78,1.19,.78,.18,0,.36-.04,.53-.11Z"/><path class="cls-4" d="M41.14,132.48c-.72,0-1.31,.58-1.31,1.31v4.35c0,.72,.58,1.31,1.31,1.31s1.31-.58,1.31-1.31v-4.35c0-.72-.58-1.31-1.31-1.31Z"/></g></svg>