<?xml version="1.0" encoding="UTF-8"?><svg id="Layer_1" xmlns="http://www.w3.org/2000/svg" xmlns:xlink="http://www.w3.org/1999/xlink" viewBox="0 0 341 341"><defs><style>.cls-1{fill:none;}.cls-2{clip-path:url(#clippath);}.cls-3{fill:#1c4ed8;}</style><clipPath id="clippath"><rect class="cls-1" width="341" height="341"/></clipPath></defs><g class="cls-2"><path class="cls-3" d="M238.74,.07c-3.48,0-6.96,.18-10.42,.54-3.46,.35-6.9,.89-10.31,1.6s-6.78,1.59-10.09,2.65c-3.32,1.06-6.58,2.28-9.78,3.67-3.19,1.39-6.31,2.94-9.34,4.65s-5.97,3.57-8.82,5.58c-2.84,2.01-5.58,4.16-8.2,6.45-2.63,2.29-5.13,4.71-7.51,7.26-10.98-2.71-22.14-4.04-33.46-3.97-60.5,0-108.39,40.68-119.24,101.35L.2,197.99c-.12,.82-.06,1.64,.17,2.44,.22,.8,.6,1.52,1.14,2.16,.54,.63,1.19,1.11,1.94,1.46,.75,.35,1.54,.52,2.38,.53h28.4v73.85c0,.37,.04,.74,.11,1.11,.07,.36,.18,.72,.32,1.06,.15,.34,.32,.67,.53,.98,.21,.31,.44,.59,.71,.86,.26,.27,.55,.5,.86,.71,.31,.2,.64,.38,.98,.52,.34,.15,.7,.26,1.06,.33,.37,.07,.73,.1,1.11,.1H125.12v51.13c0,.38,.04,.74,.11,1.11s.18,.72,.32,1.07c.15,.34,.32,.67,.53,.98,.21,.31,.44,.6,.71,.86,.26,.27,.55,.5,.86,.71s.64,.39,.98,.53c.34,.14,.7,.25,1.06,.32s.73,.11,1.11,.11h107.94c.38,0,.74-.04,1.11-.11s.72-.18,1.07-.32c.34-.14,.67-.32,.98-.53,.31-.21,.6-.44,.86-.71,.27-.26,.5-.55,.71-.86,.21-.31,.38-.64,.53-.98,.14-.35,.25-.7,.32-1.07s.11-.73,.11-1.11V204.3c53.74-2.96,96.58-47.49,96.58-101.97S295.15,.07,238.74,.07ZM45.59,250.03v-11.36c12.72,0,34.08-2.22,34.08-17.05,0-.37,.04-.74,.11-1.11,.07-.36,.18-.72,.32-1.06,.15-.34,.32-.67,.53-.98,.21-.31,.44-.59,.71-.86,.26-.27,.55-.5,.86-.71,.31-.2,.64-.38,.98-.52,.34-.15,.7-.26,1.06-.32,.36-.07,.73-.11,1.11-.11s.74,.04,1.11,.11c.36,.07,.72,.18,1.06,.32,.35,.14,.67,.32,.98,.52,.31,.21,.6,.44,.86,.71,.27,.27,.5,.55,.71,.86,.21,.31,.38,.64,.53,.98,.14,.34,.25,.7,.32,1.06,.07,.37,.11,.74,.11,1.11,0,8.52-4.43,28.41-45.45,28.41Zm34.08-76.69c-15.68,0-28.4-10.17-28.4-22.72,0-.38,.04-.74,.11-1.11,.07-.36,.18-.72,.32-1.06,.14-.35,.32-.67,.52-.98,.21-.31,.44-.6,.71-.86,.27-.27,.55-.5,.86-.71,.31-.21,.64-.38,.98-.53,.34-.14,.7-.25,1.07-.32,.36-.07,.73-.11,1.1-.11s.74,.04,1.11,.11,.72,.18,1.07,.32c.34,.15,.67,.32,.98,.53,.31,.21,.6,.44,.86,.71s.49,.55,.7,.86,.39,.64,.53,.98c.14,.34,.25,.7,.32,1.06s.11,.73,.11,1.11c0,6.14,7.81,11.36,17.04,11.36s17.05-5.22,17.05-11.36c0-.38,.04-.74,.1-1.11,.07-.36,.18-.72,.33-1.06,.14-.35,.32-.67,.52-.98,.21-.31,.44-.6,.71-.86,.27-.27,.55-.5,.86-.71,.31-.21,.64-.38,.98-.53,.34-.14,.7-.25,1.06-.32,.37-.07,.74-.11,1.11-.11s.74,.04,1.11,.11,.72,.18,1.07,.32c.34,.15,.67,.32,.98,.53,.31,.21,.6,.44,.86,.71s.49,.55,.7,.86,.39,.64,.53,.98c.14,.34,.25,.7,.32,1.06s.11,.73,.11,1.11c0,12.56-12.72,22.72-28.41,22.72Zm159.07,19.89c-50.1,0-90.9-40.79-90.9-90.9S188.64,11.43,238.74,11.43s90.9,40.79,90.9,90.9-40.79,90.9-90.9,90.9Z"/></g><path class="cls-3" d="M276.12,57.16c0-12.67-10.57-23.01-23.43-23.01-2.47-.05-4.9,.28-7.28,.96-2.38,.69-4.6,1.71-6.67,3.07-2.06-1.35-4.28-2.38-6.66-3.06-2.37-.69-4.79-1.01-7.26-.97-12.9,0-23.43,10.34-23.43,22.83-.52,17.1,10.28,31.53,31.7,43.01v64.82c0,.37,.04,.74,.11,1.11,.07,.36,.18,.72,.32,1.06,.14,.34,.32,.67,.53,.98,.2,.31,.44,.59,.7,.86,.27,.27,.55,.5,.86,.71,.31,.21,.64,.38,.98,.53,.34,.14,.7,.25,1.07,.32s.73,.11,1.11,.11h22.72c.37,0,.74-.04,1.1-.11,.37-.07,.72-.18,1.07-.32,.34-.15,.67-.32,.98-.53,.31-.21,.59-.44,.86-.71s.5-.55,.71-.86c.2-.31,.38-.64,.52-.98,.15-.34,.25-.7,.32-1.06,.07-.37,.11-.74,.11-1.11s-.04-.74-.11-1.11-.18-.72-.32-1.07c-.14-.34-.32-.67-.52-.98-.21-.31-.44-.6-.71-.86-.27-.27-.55-.5-.86-.71-.31-.21-.64-.38-.98-.53-.34-.14-.7-.25-1.07-.32-.36-.07-.73-.11-1.1-.11h-17.07v-11.36h11.36c.38,0,.74-.04,1.11-.11s.72-.18,1.07-.32c.34-.15,.67-.32,.98-.53,.31-.21,.6-.44,.86-.71,.26-.27,.5-.55,.7-.86,.21-.31,.39-.64,.53-.98,.15-.34,.25-.7,.32-1.06,.07-.37,.11-.74,.11-1.11s-.04-.74-.11-1.11-.18-.72-.32-1.07c-.14-.34-.32-.67-.53-.98-.2-.31-.44-.6-.7-.86s-.55-.5-.86-.71c-.31-.21-.64-.38-.98-.53-.34-.14-.7-.25-1.07-.32s-.73-.11-1.11-.11h-11.36v-36.42c21.42-11.47,32.21-25.9,31.7-42.83Z"/></svg>