<?xml version="1.0" encoding="UTF-8"?><svg xmlns="http://www.w3.org/2000/svg" xmlns:xlink="http://www.w3.org/1999/xlink" viewBox="0 0 642.92 666.04"><defs><style>.cls-1{fill:url(#linear-gradient);}.cls-2{fill:#a16058;}.cls-3,.cls-4{fill:#302d2d;}.cls-5{fill:#d57f7b;}.cls-6{fill:#e0eff8;}.cls-7{fill:#5c4642;}.cls-8{fill:#3b3838;}.cls-9{fill:#4b4343;}.cls-10{fill:#4d3d36;}.cls-4,.cls-11,.cls-12,.cls-13,.cls-14,.cls-15,.cls-16,.cls-17,.cls-18{mix-blend-mode:multiply;}.cls-4,.cls-18{opacity:.14;}.cls-11{fill:#99a6bc;opacity:.3;}.cls-12{fill:#525d68;opacity:.43;}.cls-13{fill:url(#linear-gradient-6);}.cls-13,.cls-14,.cls-15,.cls-16,.cls-17{opacity:.39;}.cls-14{fill:url(#linear-gradient-9);}.cls-15{fill:url(#linear-gradient-3);}.cls-16{fill:url(#linear-gradient-12);}.cls-17{fill:url(#linear-gradient-16);}.cls-19{fill:url(#linear-gradient-8);}.cls-20{fill:url(#linear-gradient-4);}.cls-21{fill:url(#linear-gradient-2);}.cls-22{fill:url(#linear-gradient-7);}.cls-23{fill:url(#linear-gradient-5);}.cls-24{fill:url(#linear-gradient-14);}.cls-25{fill:url(#linear-gradient-15);}.cls-26{fill:url(#linear-gradient-13);}.cls-27{fill:url(#linear-gradient-10);}.cls-28{fill:url(#linear-gradient-11);}.cls-29{isolation:isolate;}</style><linearGradient id="linear-gradient" x1="292" y1="656.81" x2="292" y2="595.04" gradientUnits="userSpaceOnUse"><stop offset="0" stop-color="#f8a499"/><stop offset="1" stop-color="#d96c5d"/></linearGradient><linearGradient id="linear-gradient-2" x1="310.48" y1="627.64" x2="306.79" y2="471" gradientUnits="userSpaceOnUse"><stop offset="0" stop-color="#7f7878"/><stop offset="1" stop-color="#433f3f"/></linearGradient><linearGradient id="linear-gradient-3" x1="288.24" y1="622.17" x2="399.95" y2="648.07" gradientUnits="userSpaceOnUse"><stop offset="0" stop-color="#f8a79a"/><stop offset="1" stop-color="#d88679"/></linearGradient><linearGradient id="linear-gradient-4" x1="453.25" y1="624.27" x2="449.56" y2="467.63" xlink:href="#linear-gradient-2"/><linearGradient id="linear-gradient-5" x1="397.53" y1="656.81" x2="397.53" y2="595.04" xlink:href="#linear-gradient"/><linearGradient id="linear-gradient-6" x1="346.82" y1="622.41" x2="386.01" y2="631.5" xlink:href="#linear-gradient-3"/><linearGradient id="linear-gradient-7" x1="117.37" y1="511.37" x2="202.31" y2="511.37" xlink:href="#linear-gradient"/><linearGradient id="linear-gradient-8" x1="369.4" y1="149.2" x2="376.95" y2="222.98" xlink:href="#linear-gradient"/><linearGradient id="linear-gradient-9" x1="67.35" y1="511.76" x2="101.22" y2="519.61" xlink:href="#linear-gradient-3"/><linearGradient id="linear-gradient-10" x1="249.22" y1="161.5" x2="256.77" y2="235.28" xlink:href="#linear-gradient"/><linearGradient id="linear-gradient-11" x1="320.19" y1="224.1" x2="319.51" y2="276.75" xlink:href="#linear-gradient-3"/><linearGradient id="linear-gradient-12" x1="317.11" y1="246.31" x2="316.9" y2="262.61" xlink:href="#linear-gradient-3"/><linearGradient id="linear-gradient-13" x1="312.37" y1="115" x2="316.06" y2="501.86" xlink:href="#linear-gradient"/><linearGradient id="linear-gradient-14" x1="207.34" y1="630.07" x2="203.65" y2="473.43" xlink:href="#linear-gradient-2"/><linearGradient id="linear-gradient-15" x1="690.79" y1="511.37" x2="775.74" y2="511.37" xlink:href="#linear-gradient"/><linearGradient id="linear-gradient-16" x1="562.97" y1="512.57" x2="581.61" y2="516.89" xlink:href="#linear-gradient-3"/></defs><g class="cls-29"><g id="Layer_2"><g id="Layer_1-2"><g><ellipse class="cls-11" cx="338.19" cy="644.3" rx="269.81" ry="21.74"/><g><path class="cls-1" d="M340.78,626.59c-.52,.35-1.06,.71-1.59,1.05-5.63,3.65-11.54,6.75-17.66,9.43-18.41,8.07-38.63,12.35-58.45,16.46-5.39,1.12-11.13,2.22-16.3,.29-2.04-.76-4.18-2.72-3.39-4.75,.34-.85,1.12-1.42,1.86-1.94,10.18-6.97,22.23-11.18,34.53-12.09,3.06-.22,6.19-.25,9.06-1.32,1.63-.6,3.1-1.52,4.49-2.59,1.28-.98,2.48-2.09,3.64-3.21,2.6-2.5,5.13-5.07,7.57-7.72,.55-.59,1.1-1.19,1.63-1.78,2.37-2.64,5.82-5.63,9.01-4.07l25.6,12.24Z"/><polygon class="cls-21" points="142.58 554.42 294.02 521.26 430.06 537.74 474.87 552.36 357.54 628.12 292.64 614.18 171 577.1 142.58 554.42"/><path class="cls-15" d="M339.18,627.64c-5.63,3.65-11.54,6.75-17.66,9.43-11.24-.98-24.09-4.68-28.2-5.93,1.28-.98,2.48-2.09,3.64-3.21,2.6-2.5,5.13-5.07,7.57-7.72l33.53,5.3s.61,.87,1.12,2.13Z"/><path class="cls-12" d="M449.97,549.92s-37.51-5.85-119.5,48.96l-4.66,3.04,8.08,4.04,24.01-12.7,98.05-42.14-5.98-1.2Z"/><path class="cls-20" d="M593.14,545.36c-.45,3.33-3.23,5.8-5.87,7.89-10.63,8.37-53.07,22.21-63.65,26.28-60.55,23.28-72.79,32.4-177.4,44.57-6.62,.77-12.79,4.45-19.43,3.95-6.64-.48-13.5-4.42-15.3-10.83-.32-1.13-.46-2.38-.03-3.48,.57-1.44,2-2.32,3.33-3.1,3.21-1.9,6.42-3.79,9.63-5.69,32.48-19.22,57.67-27.55,87.96-41.71,20.84-9.74,37.58-13.33,35.17-13.38l-67.33-18.11c4.3-1,8.79-2,13.44-2.96,49.7-10.45,117.57-19.15,164.73-17.7,4.99,.15,10.17,.41,14.57,2.75,4.3,2.27,7.39,6.26,10.1,10.28,2.99,4.43,5.7,9.03,8.11,13.8,.41,.81,.81,1.66,1.14,2.51h.01c.63,1.61,1.03,3.26,.8,4.94Z"/><path class="cls-12" d="M199.02,558.37l1.72-1.39s53.2,13.3,75.74,22.45c39.13,15.89,82.34,39.55,82.34,39.55,0,0-20.68,11.33-21.3,10.41-6.17-9.18-40.74-8.58-40.74-8.58l-48.18-11.28-62.78-20.95,13.2-30.22Z"/><path class="cls-23" d="M446.43,654.77c-1.34,.58-3.06,.63-4.58,.57-5.75-.21-11.48-.42-17.23-.64-7.95-.29-15.95-.58-23.79-2-15.14-2.73-29.1-9.51-42.61-17.05-3.55-1.98-7.07-4-10.56-6.03l6.05-11.62c2.76-1.05,5.61-1.98,8.49-2.65,4.79-1.13,9.7-1.57,14.54-.8,7.75,1.26,15.26,6.18,17.86,13.59,.7,2,1.05,4.15,2.22,5.92,2.11,3.21,6.24,4.28,10.02,4.97,13.94,2.55,29.33,3.74,39.95,12.85,.95,.81,.79,2.37-.35,2.87Z"/><path class="cls-12" d="M592.33,540.42c-.65-.65-21.85-21.65-59.54-22.11-38.29-.48-139.04,11.84-139.04,11.84l-.08-1.36c49.7-10.45,117.57-19.15,164.73-17.7,4.99,.15,10.17,.41,14.57,2.75,4.3,2.27,7.39,6.26,10.1,10.28,2.99,4.43,5.7,9.03,8.11,13.8,.41,.81,.81,1.66,1.14,2.51Z"/><path class="cls-13" d="M362.94,629.45c-1.76,2.73-3.41,4.77-4.72,6.22-3.55-1.98-7.07-4-10.56-6.03l6.05-11.62c2.76-1.05,5.61-1.98,8.49-2.65,1.41,2.8,3.93,9.15,.75,14.08Z"/><path class="cls-22" d="M84.94,513.67c-.87,.64-1.74,1.25-2.63,1.84-2.62,1.75-5.36,3.34-8.18,4.77-8.58,4.37-17.91,7.42-27.14,10.32-14.5,4.58-29.72,9.01-44.67,6.32-.49-.09-.99-.19-1.4-.46-1.35-.89-1.06-2.99-.19-4.35,2.7-4.26,8.42-5.17,13.41-5.88,12.05-1.71,23.91-4.66,35.35-8.79-6.98,1.14-14.23,.44-20.87-2-3.86-1.42-7.93-4.01-8.52-8.08-.38-2.73,.93-5.39,2.32-7.77,1.58-2.72,3.37-5.4,5.81-7.4,1.79-1.46,4.06-2.53,6.35-2.23,2.29,.3,4.41,2.39,4.13,4.68-.16,1.33-1.05,2.47-1.42,3.76-.8,2.68,.81,5.63,3.16,7.15,2.34,1.52,5.24,1.89,8.03,1.92,1.36,.01,2.75-.05,4-.57,3.45-1.43,4.53-6.63,1.94-9.31-1.3-1.34-3.15-1.97-4.76-2.9-1.61-.94-3.16-2.5-3.02-4.36,.11-1.45,1.22-2.64,2.43-3.46,2.77-1.86,6.42-2.36,9.6-1.29,3.17,1.06,5.79,3.64,6.88,6.79,1.34,3.84,.46,8.14,1.55,12.05,.43,1.56,1.31,3.16,2.83,3.71,.13,.05,.27,.09,.41,.12,1.02,.23,2.11,.01,3.15-.24,1.21-.28,2.41-.58,3.61-.91,2.51-.66,5-1.4,7.46-2.21l.38,8.8Z"/><path class="cls-19" d="M367,170.31c2-4.34,7.45-6.74,12.01-5.29,.87,.28,1.72,.69,2.32,1.39,1.5,1.75,.81,4.41,.11,6.61-1.86,5.86-3.16,11.89-3.89,18-.56,4.7-.79,9.52-2.46,13.94s-5.17,8.51-9.83,9.37l1.74-44.02Z"/><path class="cls-14" d="M82.31,515.51c-2.62,1.75-5.36,3.34-8.18,4.77-2.62-2.96-3.51-9.07-3.79-12.06,1.02,.23,2.11,.01,3.15-.24,1.21-.28,2.41-.58,3.61-.91l5.21,8.44Z"/><path class="cls-27" d="M256.61,173.42c-2.55-4.04-8.26-5.72-12.59-3.69-.83,.39-1.62,.91-2.12,1.67-1.26,1.93-.23,4.48,.75,6.57,2.6,5.57,4.68,11.38,6.19,17.34,1.16,4.59,2.01,9.33,4.25,13.5s6.23,7.77,10.96,8.01l-7.43-43.42Z"/><path class="cls-10" d="M255.63,184.88c-3.04-9.12-4.95-18.59-5.69-28.15-2.23,2.65-4.02,5.65-5.3,8.84-10.52-7.82-9-22.04-5.58-34.48-4.75,4.2-8.62,9.34-11.3,15.01-4.7-10.29-.76-22.77,6.71-31.37,7.47-8.61,17.91-14.16,28.09-19.53-4.77-3.49-9.28-7.3-13.49-11.41,5.7-2.65,12.43-3.12,18.46-1.29-2.89-3.64-5.73-7.47-7.1-11.87-1.38-4.41-1.07-9.56,1.89-13.15,2.99,7.59,24.47,24.48,24.47,24.48h0c-5.38-11.91-8.33-24.79-8.13-37.8,.06-3.75,.32-7.49,.81-11.21,.95-7.3,2.79-14.65,6.85-20.86,4.06-6.21,10.6-11.19,18.11-12.1-5.04,5.64-6.74,13.56-6.02,21,.71,7.44,3.61,14.51,6.88,21.27-2.09-7.93,4.2-16.93,12.55-17.96-6.33,9.65-5.79,23.11,1.3,32.24,.3-5.25,3.4-10.28,8.02-13.01-2.36,6.75-.51,14.72,4.61,19.83,.31-4.37,.63-8.82,2.28-12.9,1.65-4.08,4.87-7.79,9.2-8.98,.24,12.1,3.21,24.15,8.66,35.03,1.23,2.44,2.43,5.2,4.78,6.64,20.95,12.86,20.98,28.89,21.53,38.91,.36,6.54,.25,13.45-2.89,19.27,2.51,.94,4.14,3.46,4.58,6.04,.44,2.58-.13,5.23-.96,7.72-2.1,6.32-5.86,12.11-10.83,16.66l-112.48,13.12Z"/><path class="cls-28" d="M344.29,303.99c-7.93,.15-20.97,32.43-28.91,32.59-8.82,.17-12.55-31.78-21.36-31.59,1.53-11.68,2.45-23.45,2.75-35.22,.07-2.77,.11-5.55,.11-8.33,0-1.67-.01-3.34-.03-5.01,5.39,.84,10.79,1.68,16.17,2.53,.52,.08,1.05,.16,1.57,.24,2.76,.42,5.52,.86,8.32,.82,4.28-.07,8.55-1.29,12.22-3.51-1.11,2.99-1.73,6.17-1.84,9.37l3.53-2.44c-.16,3.04-.17,6.11,0,9.15,.54,10.81,3.08,21.51,7.48,31.4Z"/><path class="cls-16" d="M336.81,272.59c-5.37,4.46-13.56,8.28-17.66,8.56-6.08,.42-18.07-8.05-22.38-11.39,.07-2.77,.11-5.55,.11-8.33l1.58-.75,14.56-1.73c.52,.08,1.05,.16,1.57,.24,2.76,.42,5.52,.86,8.32,.82,4.28-.07,8.55-1.29,12.22-3.51-1.11,2.99-1.73,6.17-1.84,9.37l3.53-2.44c-.16,3.04-.17,6.11,0,9.15Z"/><path class="cls-26" d="M314.99,91.84c-20.6-4.62-43.65,5.96-53.59,24.58-4.82,9.04-6.68,19.38-7.31,29.61-1.06,17.12,1.13,34.25,3.53,51.23,1.69,11.92,3.57,24.07,9.03,34.8,10.55,20.71,27.04,31.98,47.64,42.72,1.93,1.01,4.35,2.43,6.54,1.75,2.74-.85,5.71-3.85,8.03-5.52,11.69-8.42,18.98-14.54,27.5-26.46,7.89-11.03,15.36-27.12,14.73-40.67-1.13-24.16,3.09-51.13-1.76-74.83-1.75-8.55-12.75-14.31-18.29-21.06-4.23-5.15-10.43-8.64-17.03-9.58l-19.01-6.58Z"/><path class="cls-24" d="M359.77,623.99c-1.79,6.41,.31,12.71-23.78,9.59-58.66-7.61-149.28-23.22-209.84-46.51-10.58-4.06-57-17.91-67.62-26.28-2.65-2.09-5.42-4.56-5.88-7.9-.35-2.58,.78-5.12,1.96-7.44,.95-1.88,1.95-3.73,3-5.57,1.59-2.8,3.3-5.55,5.11-8.23,2.72-4.02,5.81-8.01,10.1-10.28,.34-.18,.69-.34,1.04-.48,4.18-1.88,8.94-2.13,13.55-2.27,32.65-.99,75.3,.34,114.97,4.43,18.02,1.85,35.42,4.27,50.98,7.3,4.3,.83,8.45,1.71,12.44,2.64l-63.57,24.41c16.46,10.49,36.58,15.56,53.96,22.02,30.55,11.35,60.16,21.98,100.32,37.97,1.44,.57,2.75,1.68,3.32,3.11,.44,1.1,.29,2.35-.03,3.48Z"/><path class="cls-12" d="M254.09,530.91s-43.99-5.62-80.6-6.1c-44.19-.58-73.35,.79-91.97,5.3-8.62,2.09-17.62,5.81-23.91,9.78,1.59-2.8,3.3-5.55,5.11-8.23,2.72-4.02,5.81-8.01,10.1-10.28,4.42-2.34,9.75-1.52,14.58-2.75,32.65-.99,75.3,.34,114.97,4.43,18.02,1.85,35.42,4.27,50.98,7.3,.25,.18,.5,.37,.75,.56Z"/><path class="cls-25" d="M641.99,536.46c-.41,.27-.91,.37-1.4,.46-14.95,2.69-30.17-1.74-44.67-6.32-9.16-2.89-18.43-5.92-26.97-10.24-2-1.01-3.94-2.09-5.85-3.25-1.75-1.08-3.47-2.22-5.13-3.45l.38-8.8c3.23,1.06,6.5,2.01,9.8,2.8,.42,.11,.85,.21,1.27,.31,.9,.21,1.83,.41,2.73,.31,.28-.03,.56-.09,.83-.19,1.52-.55,2.4-2.15,2.83-3.71,1.09-3.91,.21-8.21,1.55-12.05,1.09-3.16,3.71-5.74,6.88-6.79,3.18-1.07,6.82-.57,9.6,1.29,1.21,.82,2.32,2.01,2.43,3.46,.13,1.86-1.41,3.43-3.02,4.36-1.61,.94-3.46,1.56-4.76,2.9-2.59,2.68-1.51,7.88,1.94,9.31,1.25,.52,2.64,.58,4,.57,2.79-.03,5.7-.39,8.03-1.92,2.35-1.52,3.95-4.47,3.16-7.15-.37-1.29-1.26-2.43-1.42-3.76-.27-2.29,1.84-4.38,4.13-4.68,2.29-.3,4.56,.77,6.35,2.23,2.45,2,4.22,4.68,5.81,7.4,1.39,2.38,2.7,5.04,2.32,7.77-.57,4.07-4.66,6.66-8.52,8.08-6.63,2.44-13.89,3.14-20.87,2,11.44,4.13,23.31,7.08,35.35,8.79,5,.71,10.71,1.61,13.41,5.88,.87,1.36,1.16,3.47-.19,4.35Z"/><path class="cls-12" d="M255.8,529.1l-1.71,1.81-4.75-.57s2.43,13.9,29.56,15.2c27.12,1.3,31.95-3.34,69.66-.93,37.71,2.42,52.13-15.28,52.13-15.28l-8.41,1.04-24.21-6.56-53.69-4.09-39.94,9.38h-18.64Z"/><path class="cls-17" d="M572.16,508.29c-.15,2.13-.78,8.25-3.21,12.07-2-1.01-3.94-2.09-5.85-3.25l3.87-8.37,1.18-1.08c.42,.11,.85,.21,1.27,.31,.9,.21,1.83,.41,2.73,.31Z"/><path class="cls-6" d="M571.67,500.19c-1.64,6.87-4.52,14.91-7.52,20.42-.48,.88-1.5,1.33-2.47,1.09-6.9-1.68-13.51-4.2-19.99-7.12-9.52-4.27-18.77-9.38-28.21-13.86-16.33-7.75-33.46-13.66-50.35-20.08-2.85-1.08-5.76-2.22-8.06-4.23-1.81-1.57-3.15-3.58-4.45-5.58-15.82-24.41-46.74-66.83-57.7-81.77-1.12-1.54-3.57-.66-3.45,1.24,.95,14.95,.6,30.98-1.39,45.86-.33,2.55-.72,5.06-1.15,7.53-.12,.67-.25,1.35-.42,2.02h-.01c-.39,1.54-1.04,2.96-2.4,3.93-.63,.46-1.16,1.06-1.49,1.78-2.22,4.89,7.95,5.57,6.6,10.07-.22,.74-.73,1.35-1.35,1.82l-9.95,7.34c-1.36,1-.82,3.14,.84,3.39,2.71,.42,6.37-.42,8.35,1.56,.95,.95,1.25,2.37,1.52,3.69,.46,2.36,.92,4.72,1.39,7.08,.01,.02,.01,.04,.02,.06,.52,2.65,1.03,5.29,1.56,7.94,1.61,8.17,3.21,16.34,4.82,24.51,.26,1.36,.53,2.74,.8,4.11,.37,1.88,.67,4.03-.55,5.5-.72,.87-1.84,1.29-2.9,1.68-10.94,3.99-21.99,8.02-33.55,9.45-15.65,1.94-31.45-.95-47.22-1.13-8.69-.11-26.38,2.66-35.04,1.8-8.65-.86-17.44-3.48-23.86-9.36-.67-.61-1.34-1.32-1.49-2.22-.15-.99,.39-1.95,.91-2.81,2.38-3.84,4.87-7.6,7.48-11.27,.02-.02,.02-.03,.02-.03,.19-.28,.39-.55,.58-.82,.63-.9,.38-2.12-.53-2.73-.89-.6-1.62-1.44-2.14-2.42h0c-1.21-2.26-1.38-5.23-.19-7.56,1.7-3.34,5.28-5.29,9.02-5.91,.03,0,.04-.01,.04-.01,.7-.15,.86-1.11,.22-1.48-2.93-1.63-6.42-2.53-7.97-5.26,0,0,0-.01,0-.01-.22-.38-.39-.79-.53-1.24-.12-.38-.17-.78-.19-1.18-.02-.2-.02-.4-.01-.59,.13-4.02,.33-7.62,.55-10.91,.84-12.58,2.04-20.82,1.45-32.4-.7-13.53-3.34-26.91-6.9-39.98-1.05-3.89-2.73-11.12-3.52-14.67-.2-.88-1.31-1.2-1.95-.55-23.54,24.13-38.23,55.59-56.64,83.99-1.29,2-2.64,4.01-4.45,5.58-2.3,2.01-5.21,3.14-8.06,4.23-16.89,6.42-34.01,12.33-50.35,20.08-8.99,4.27-17.8,9.11-26.86,13.26-6.88,3.16-13.91,5.91-21.25,7.7-1.03,.25-2.12-.23-2.62-1.17-3.29-6.19-6.32-15.85-7.77-23.22-.4-2.04,1.7-3.64,3.56-2.74,1.43,.69,3.34,2.67,5.04,3.91,1.12,.82,2.74,.25,3.07-1.1,.73-2.99,2.38-8.02,5.16-7.75,.47,.05,.95,.15,1.42,.29,2.72,.84,4.82,3.31,5.33,6.09,.1,.52,.66,.79,1.11,.52,22.58-13.13,44.8-26.9,66.61-41.27,6.63-4.38,13.35-8.89,18.36-15.06,4.92-6.07,7.95-13.42,10.72-20.73,3.82-10.04,7.3-20.21,10.41-30.5,5.59-18.46,10.11-37.45,19.05-54.54,1.31-2.52,2.77-5.04,4.91-6.91,2.33-2.03,5.28-3.15,8.17-4.23,16.53-6.16,33.06-12.32,49.59-18.48l27.14,14.79,1.52,.99,7.05,4.62,9.6-6.66,30.71-13.75c16.53,6.15,33.06,12.31,49.59,18.48,2.89,1.07,5.84,2.2,8.17,4.23,2.14,1.87,3.59,4.39,4.91,6.91,8.94,17.09,13.46,36.08,19.05,54.54,3.11,10.29,6.58,20.46,10.41,30.5,2.77,7.31,5.8,14.65,10.72,20.73,5.01,6.17,11.72,10.69,18.36,15.06,22.13,14.58,44.68,28.54,67.61,41.85,.01-.51,.08-1.02,.21-1.52,.63-2.61,2.66-4.88,5.24-5.68,2.03-.63,4.29-.32,6.13,.71,1.55,.86,2.38,2.6,2.2,4.36,0,.04,0,.08,0,.12,0,.77,.72,1.39,1.51,1.21l3.59-.76c2.76-.59,5.18,1.9,4.53,4.65Z"/><path class="cls-4" d="M324.38,329.26s-4.61,52.99,4.28,102.59c8.89,49.6,14.49,63.67,15.63,66.42,1.15,2.75-5.54,21.46-5.54,21.46l-12.18-11.12-9.78-153.79,4.55-29.92,3.04,4.36Z"/><path class="cls-5" d="M309.23,210.71c1.85,1.33,4.39,1.66,6.62,1.71,2.23,.06,4.84-.32,6.86-1.3,.92-.45,2.16-1.4,2.16-2.52,.01-1.34-1.09-2.05-2.31-1.52-.21,.09-.35,.21-.54,.34,.07-.05,.18-.1-.11,.06-.06,.03-.45,.21-.27,.14-.47,.19-.94,.37-1.42,.53-.98,.33-2,.58-3.03,.72-1.23,.16-2.47,.22-3.71,.15-1.25-.07-2.49-.27-3.74-.29-1.13-.02-1.34,1.4-.53,1.97h0Z"/><path class="cls-10" d="M362.5,158.39c.25,.16,.59,.1,.78-.13,.75-.94,.7-2.39,.09-3.5-.71-1.27-1.99-2.19-3.28-2.99-4.94-3.07-10.64-5.03-16.46-5.78-2.88-.37-5.89-.44-8.56,.5-1.35,.47-2.6,1.24-3.55,2.22-1.25,1.29-1.66,4.9-1.66,4.9-.03,.83,.06,1.79,.79,2.32,.88,.63,2.1,.24,3.09-.15,4.72-1.88,9.8-3.27,15.02-3.05,4.56,.19,11.96,4.58,13.75,5.68Z"/><path class="cls-10" d="M260.95,163.08c-.23,.19-.58,.17-.79-.04-.86-.85-.99-2.28-.51-3.46,.55-1.35,1.71-2.42,2.89-3.37,4.53-3.65,9.95-6.28,15.64-7.73,2.82-.72,5.79-1.15,8.56-.54,1.39,.3,2.73,.91,3.8,1.77,1.4,1.13,2.24,4.66,2.24,4.66,.13,.82,.16,1.79-.5,2.39-.79,.73-2.06,.49-3.09,.22-4.91-1.3-10.13-2.06-15.28-1.21-4.51,.74-11.32,5.99-12.96,7.3Z"/><path class="cls-9" d="M295.34,180.15c-.71,.64-1.07,1.73-1.46,2.58-.46,1-.98,1.99-1.63,2.88-1.28,1.77-3.13,3.03-5.35,3.2-2.28,.18-4.45-.52-6.34-1.77-1.76-1.16-3.47-2.73-4.07-4.78,0-.02,.01-.05,.01-.07,0-.61-.42-1.01-.87-1.34-.95-.7-2.49,.24-2.4,1.38,.26,3.14,2.59,5.61,5.05,7.35,2.42,1.71,5.46,2.78,8.44,2.43,2.92-.34,5.42-1.81,7.13-4.21,.78-1.11,1.35-2.35,1.83-3.62,.42-1.12,.97-2.55,.71-3.76-.11-.49-.72-.58-1.05-.28Z"/><path class="cls-9" d="M333.43,180.15c.71,.64,1.07,1.73,1.46,2.58,.46,1,.98,1.99,1.63,2.88,1.28,1.77,3.13,3.03,5.35,3.2,2.28,.18,4.45-.52,6.34-1.77,1.76-1.16,3.47-2.73,4.07-4.78,0-.02-.01-.05-.01-.07,0-.61,.42-1.01,.87-1.34,.95-.7,2.49,.24,2.4,1.38-.26,3.14-2.59,5.61-5.05,7.35-2.42,1.71-5.46,2.78-8.44,2.43-2.92-.34-5.42-1.81-7.13-4.21-.78-1.11-1.35-2.35-1.83-3.62-.42-1.12-.97-2.55-.71-3.76,.11-.49,.72-.58,1.05-.28Z"/><path class="cls-9" d="M323.94,179.43c-.15,1.29-.29,2.58-.42,3.87-.4,.22-.79,.43-1.18,.61-.19,.09-.38,.18-.57,.27-1.94,.87-3.96,1.39-5.99,1.64-3.06,.38-6.44,.11-9.47-1.29-.61-.29-1.22-.61-1.8-1.01-.1-.79-.19-1.58-.3-2.38,.61,.28,1.23,.52,1.85,.74,3.03,1.1,6.13,1.51,9.33,1.08,2.1-.29,4.18-.95,6.15-1.96,.16-.08,.33-.17,.48-.27,.67-.38,1.3-.82,1.91-1.3Z"/><path class="cls-9" d="M305.7,187.03c0-.28-.01-.56-.01-.85,0-.89-.03-1.77-.04-2.66-.02-1.94-.07-3.89-.17-5.83-.06-1.24-.54-2.4-1.94-2.84-1.15-.35-2.57-.2-3.78-.24-1.61-.06-3.21-.13-4.8-.22-6.18-.32-12.34-.78-18.49-1.39-3.03-.3-6.05-.64-9.07-1.02-2.36-.3-5.02-.98-7.37-.34-2.51,.7-3.31,2.84-3.45,5.07-.2,2.93-.29,5.89-.36,8.83-.06,2.66-.34,5.58,.41,8.19,.6,2.06,1.84,3.87,3.54,5.31,3.54,3.01,8.17,4.2,12.74,5.08,5.46,1.05,11,1.72,16.54,1.24,2.65-.24,5.25-.73,7.75-1.54,2.92-.94,5.18-2.31,6.6-3.74,.27-.28,.5-.6,.67-.95,1.72-3.57,1.27-8.46,1.21-12.11Zm-8.45,13.36c-1.93,.82-4.05,1.23-6.16,1.55-4.2,.67-8.5,.48-12.72-.07-4.22-.54-8.67-1.18-12.55-2.91-3.93-1.75-6.31-4.56-6.44-8.66-.08-2.57,0-5.16,.03-7.74,.02-1.32,.05-2.63,.09-3.95,.04-1.07-.14-2.43,.31-3.44,.83-1.85,4.05-1.02,5.68-.84,2.68,.3,5.34,.57,8.02,.8,5.38,.48,10.78,.84,16.18,1.07,2.72,.12,5.45,.21,8.17,.27,1.26,.03,2.51,.05,3.77,.06,.85,0,1.7-.08,1.93,.83,.23,.9,.12,1.98,.18,2.9,.05,.79,.08,1.59,.12,2.37,.04,.8,.08,1.6,.11,2.39,.01,.27,.02,.53,.03,.81,.09,2.16,.28,4.32,.23,6.48-.13,5.24-2.44,6.14-6.99,8.07Z"/><path class="cls-6" d="M327.31,304.24c.81,7.2,.89,10.37-.71,16.91-.18,.72,.52,1.37,1.22,1.12,9.84-3.5,19.12-8.55,27.4-14.91,.69-.53,1.4-1.1,1.78-1.87,.32-.64,.4-1.37,.47-2.08,.49-4.69,.92-9.73-.97-13.97-.35-.8-1.33-1.1-2.09-.67-6.48,3.68-13.03,7.25-19.63,10.71-1.76,.93-7.18,2.92-7.39,3.8l-.05,.21c-.06,.24-.07,.49-.04,.74Z"/><path class="cls-6" d="M311.79,304.04c-.72,7.21-.75,10.38,.94,16.9,.19,.72-.5,1.38-1.21,1.14-9.88-3.36-19.23-8.29-27.59-14.54-.7-.52-1.41-1.08-1.81-1.85-.33-.63-.42-1.36-.5-2.07-.56-4.69-1.05-9.72,.78-13.98,.34-.8,1.32-1.12,2.08-.7,6.53,3.59,13.12,7.07,19.77,10.45,1.77,.9,7.22,2.83,7.44,3.7l.05,.21c.06,.24,.08,.49,.05,.74Z"/><path class="cls-10" d="M255.68,182.7c-1.94-11.19-1.84-26.17,2.65-36.6s11.69-19.6,20.35-26.95c2.13-1.8,4.4-3.54,7.06-4.37,5.08-1.6,10.51,.32,15.63,1.79,7.87,2.26,16.03,3.47,24.22,3.61,5.1,.09,24.76,.38,28.33-3.26,2.21,13.58,7.75,22.78,12.34,38.52,4.44,15.23,1.44,22.02,4.91,24.55,.79-13.24,1.42-42.62,.54-55.86-.33-4.92-9.91-12.23-10.47-17.13-.56-4.9-2.13-9.89-5.63-13.36-2.11-2.1-4.8-3.52-7.57-4.61-5.04-1.98-10.41-2.95-15.76-3.77-6.08-.92-12.18-1.66-18.3-2.2-3.28-.29-6.59-.52-9.87-.15-3.56,.4-6.99,1.51-10.39,2.62-4.37,1.42-8.76,2.84-12.88,4.87-3.54,1.74-6.85,3.92-10.14,6.1-6.05,4.01-12.36,8.38-15.39,14.98-1.95,4.25-2.33,9.03-3.48,13.56-1.01,3.99-2.64,7.81-3.52,11.83-.88,4.02-.96,8.42,.99,12.05l6.36,33.78Z"/><path class="cls-4" d="M274.4,498.15c-8.1,2.32-15.65,8.14-15.48,10.45-1.21-2.25-1.38-5.22-.19-7.55,1.7-3.34,5.28-5.29,9.02-5.91,.03,0,.04-.01,.04-.01,.7-.15,.86-1.11,.22-1.48-2.93-1.63-6.42-2.53-7.97-5.26,0,0,0-.01,0-.01-.22-.38-.39-.79-.53-1.24-.12-.38-.17-.78-.19-1.18-.02-.2-.02-.4-.01-.59,.13-4.02,.33-7.62,.55-10.91,2.01,4.24,4.85,9.75,8.44,12.08,6.57,4.27,9.18,4.04,12.59,4.28,3.39,.23,1.62,5.02-6.48,7.34Z"/><path class="cls-4" d="M396.66,528.48c-.72,.87-1.84,1.29-2.9,1.68-10.94,3.99-21.99,8.02-33.55,9.45-15.65,1.94-31.45-.95-47.22-1.13-8.69-.11-26.38,2.66-35.04,1.8-8.65-.86-17.44-3.48-23.86-9.36-.67-.61-1.34-1.32-1.49-2.22-.15-.99,.39-1.95,.91-2.81,2.38-3.84,4.87-7.6,7.48-11.27-.32,.66-5.94,12.32,.45,16.32,6.58,4.11,20.9,7.62,40.82,4.84,19.91-2.78,36.13,1.69,49.87,.99,13.74-.68,42.3-7.17,44.16-17.36,.03-.18,.07-.36,.11-.52,.26,1.36,.53,2.74,.8,4.11,.37,1.88,.67,4.03-.55,5.5Z"/><path class="cls-4" d="M391.59,494.37c-.16,.31-.24,.54-.21,.71-3.39-12.56-20.25-14.23-23.96-19.69-3.71-5.45,13.55-10.19,8.85-14.3-4.7-4.12-2.88-9.38-.62-10.81,4.84-3.05,9.46-9.44,12.44-14.1-.33,2.55-.72,5.06-1.15,7.53-.12,.67-.25,1.35-.42,2.02h-.01c-.39,1.54-1.04,2.96-2.4,3.93-.63,.46-1.16,1.06-1.49,1.78-2.22,4.89,7.95,5.57,6.6,10.07-.22,.74-.73,1.35-1.35,1.82l-9.95,7.34c-1.36,1-.82,3.14,.84,3.39,2.71,.42,6.37-.42,8.35,1.56,.95,.95,1.25,2.37,1.52,3.69,.46,2.36,.92,4.72,1.39,7.08,.01,.02,.01,.04,.02,.06,.52,2.65,1.03,5.29,1.56,7.94Z"/><path class="cls-7" d="M335.68,95.03c-5.34-4.55-11.04-10.78-12.08-17.3,0,0-6.56,10.76-3.41,17.94,0,0-14.02-13.84-15.81-25.63,0,0-9.99,14.61-1.28,29.98,0,0-27.24-2.56-43.6,17.68-16.36,20.24-2.32,38.92-2.32,38.92,0,0,7.43-35.59,31.03-36.62,23.6-1.02,57.02,5.79,66.02-5.38,5.7-7.09,.74-10.17-3.66-11.47-5.48-1.63-10.53-4.43-14.88-8.13Z"/><path class="cls-7" d="M348.35,115.44s-9.29,5.47-8.38,11.84c0,0,4.92-5.1,10.75-5.92,0,0-5.83,6.1-2.73,11.57,0,0,2.28-8.02,7.15-8.75,0,0-1.95,10.93,3.15,20.58,0,0,10.59-13.66,8.32-25.38-2.05-10.57-10.06-14.6-15.03-15.9-4.97-1.3-7.78,6.85-7.78,6.85l-11.84,5.65,16.4-.55Z"/><path class="cls-9" d="M367.78,169.07c-2.35-.56-4.96,.2-7.3,.58-2.98,.48-5.96,.91-8.96,1.31-6.07,.8-12.16,1.47-18.26,1.99-1.58,.13-3.17,.26-4.75,.37-1.19,.08-2.61-.02-3.74,.37-1.37,.49-1.81,1.66-1.83,2.9-.03,1.6,0,3.21,.03,4.82,.02,1.15,.04,2.31,.07,3.45,0,.35,.01,.7,.02,1.06,.07,3.65-.21,8.55,1.61,12.06,.19,.34,.42,.65,.7,.93,1.46,1.38,3.74,2.68,6.66,3.53,2.51,.73,5.1,1.13,7.73,1.28,5.52,.29,10.98-.56,16.35-1.78,4.51-1.02,9.05-2.36,12.46-5.49,1.63-1.49,2.8-3.34,3.32-5.42,.66-2.63,.28-5.54,.13-8.2-.16-2.94-.36-5.89-.65-8.81-.22-2.23-1.09-4.34-3.59-4.95Zm.77,6.93c.08,1.31,.15,2.63,.22,3.94,.12,2.58,.28,5.17,.29,7.74,.02,4.1-2.24,6.98-6.08,8.87-3.78,1.86-8.17,2.65-12.34,3.32-4.16,.68-8.4,1.01-12.59,.48-2.1-.26-4.21-.59-6.15-1.35-4.57-1.78-6.9-2.6-7.2-7.84-.12-2.16-.01-4.32,0-6.48,0-.28,0-.58,.01-.86,0-1.29,.02-2.6,.05-3.89,0-.27,.01-.56,.01-.83,.02-.92-.12-2,.08-2.9,.2-.92,1.04-.85,1.88-.89,1.25-.06,2.49-.12,3.73-.19,2.7-.15,5.39-.33,8.09-.54,5.35-.41,10.68-.95,16-1.6,2.64-.32,5.28-.68,7.91-1.06,1.62-.24,4.77-1.17,5.67,.65,.48,.99,.36,2.35,.43,3.43Z"/><path class="cls-4" d="M102.58,513.99c-6.88,3.16-13.91,5.91-21.25,7.7-1.03,.25-2.12-.23-2.62-1.17-3.29-6.19-6.32-15.85-7.77-23.22-.4-2.04,1.7-3.64,3.56-2.74,1.43,.69,3.34,2.67,5.04,3.91,1.12,.82,2.74,.25,3.07-1.1,.73-2.99,2.38-8.02,5.16-7.75,.47,.05,.95,.15,1.42,.29,2.72,.84,4.82,3.31,5.33,6.09,.1,.52-.31,10.53,8.06,18Z"/><path class="cls-4" d="M571.67,500.19c-1.64,6.87-4.52,14.91-7.52,20.42-.48,.88-1.5,1.33-2.47,1.09-6.9-1.68-13.51-4.2-19.99-7.12,.29-.32,5.58-6.34,6.58-17.49,.05-.52,.11-1.02,.21-1.52,.63-2.61,2.66-4.88,5.24-5.68,2.03-.63,4.29-.32,6.13,.71,1.55,.86,2.38,2.6,2.2,4.36,0,.04,0,.08,0,.12,0,.77,.72,1.39,1.51,1.21l3.59-.76c2.76-.59,5.18,1.9,4.53,4.65Z"/><path class="cls-3" d="M278.78,306.54s.94-3.15,2.74-3.7c1.8-.54,17.59,14.79,31.23,16.98l1.35,7.88c-1.67,.78-19.91-6.12-35.32-21.17Z"/><path class="cls-3" d="M361.41,305.53s-2.1-1.92-3.9-2.46c-1.8-.54-17,15.35-30.65,17.54l-1.35,7.88c1.67,.78,20.48-7.91,35.89-22.95Z"/><g class="cls-18"><path class="cls-3" d="M326.85,535.27c.18-.87,3.47-16.68,.71-29.81-2.65-12.59-2.94-23.24-.81-29.22,1.3-3.62,.03-6.52-1.19-9.33-1-2.3-2.04-4.69-1.96-7.75l.04-1.52c.82-28.76,2.32-98.92-1.31-129.24l-2,.24c3.61,30.18,2.11,100.23,1.3,128.94l-.04,1.52c-.09,3.51,1.08,6.22,2.12,8.61,1.21,2.78,2.17,4.98,1.14,7.85-2.26,6.32-1.9,17.35,.73,30.31,1.19,5.89,1.12,23.95-.5,29.27l1.76,.12Z"/></g><path class="cls-3" d="M317.71,327.77s-17.34,120.36,0,180.36l14.85,13.64,6.19-17.54s-27.24-110.23-13.83-175.73l-7.21-.73Z"/><path class="cls-8" d="M312.76,319.83c0-1.23,9.5-2.69,14-1,.22,.08,.38,.27,.45,.49,.38,1.3,1.51,5.87-.11,9.66-1.9,4.46-11.56,2.57-12.41,.6-.86-1.97-1.93-2.51-1.93-9.76Z"/><path class="cls-2" d="M315.59,241.29c-11.51,0-13.74-8.47-13.76-8.56-.15-.59,.21-1.19,.8-1.33,.59-.14,1.18,.21,1.33,.8,.08,.29,1.9,6.89,11.62,6.89s12.22-7.19,12.32-7.5c.19-.58,.8-.9,1.38-.71,.58,.18,.9,.8,.72,1.38-.03,.09-2.96,9.04-14.42,9.04Z"/></g></g></g></g></g></svg>