<?xml version="1.0" encoding="UTF-8"?><svg id="Layer_2" xmlns="http://www.w3.org/2000/svg" xmlns:xlink="http://www.w3.org/1999/xlink" viewBox="0 0 286 286"><defs><style>.cls-1{fill:#fbd11a;}.cls-2{clip-path:url(#clippath-1);}.cls-3{fill:#1c4ed8;}.cls-4{clip-path:url(#clippath);}.cls-5{fill:none;}</style><clipPath id="clippath"><rect class="cls-5" width="286" height="286"/></clipPath><clipPath id="clippath-1"><rect class="cls-5" x="9.3" y="8.58" width="267.41" height="268.84"/></clipPath></defs><g id="Layer_1-2"><g class="cls-4"><path class="cls-3" d="M286,143c0,2.34-.06,4.68-.17,7.02-.12,2.34-.29,4.67-.51,7-.23,2.33-.52,4.65-.86,6.96s-.74,4.63-1.2,6.92-.97,4.57-1.53,6.84c-.57,2.27-1.2,4.53-1.88,6.76-.68,2.24-1.42,4.46-2.2,6.67-.79,2.2-1.63,4.39-2.53,6.55-.89,2.16-1.84,4.3-2.84,6.41-1.01,2.12-2.06,4.21-3.16,6.27s-2.26,4.1-3.46,6.11c-1.2,2-2.45,3.98-3.75,5.93-1.3,1.94-2.64,3.86-4.04,5.73-1.4,1.88-2.84,3.72-4.32,5.53-1.49,1.81-3.02,3.58-4.59,5.32s-3.18,3.43-4.84,5.08c-1.65,1.66-3.34,3.27-5.08,4.84s-3.51,3.1-5.32,4.59c-1.81,1.48-3.65,2.92-5.53,4.32-1.88,1.39-3.79,2.74-5.73,4.04-1.94,1.3-3.93,2.55-5.93,3.75-2.01,1.21-4.04,2.36-6.11,3.46s-4.16,2.15-6.27,3.16c-2.12,1-4.25,1.94-6.41,2.84-2.17,.9-4.35,1.74-6.55,2.53-2.2,.78-4.42,1.52-6.67,2.2-2.23,.68-4.49,1.3-6.76,1.88-2.27,.57-4.55,1.08-6.84,1.53s-4.6,.86-6.92,1.2-4.63,.63-6.96,.86c-2.33,.22-4.66,.39-7,.51-2.34,.11-4.68,.17-7.02,.17s-4.68-.06-7.02-.17c-2.34-.12-4.67-.29-7-.51-2.33-.23-4.65-.52-6.96-.86s-4.63-.74-6.92-1.2-4.57-.97-6.84-1.53c-2.27-.57-4.53-1.2-6.76-1.88-2.24-.68-4.46-1.42-6.67-2.2-2.2-.79-4.39-1.63-6.55-2.53-2.16-.89-4.3-1.84-6.41-2.84-2.12-1.01-4.21-2.06-6.27-3.16s-4.1-2.26-6.11-3.46c-2-1.2-3.98-2.45-5.93-3.75-1.94-1.3-3.86-2.64-5.73-4.04-1.88-1.4-3.72-2.84-5.53-4.32-1.81-1.49-3.58-3.02-5.32-4.59s-3.43-3.18-5.08-4.84c-1.66-1.65-3.27-3.34-4.84-5.08s-3.1-3.51-4.59-5.32c-1.48-1.81-2.92-3.65-4.32-5.53-1.39-1.88-2.74-3.79-4.04-5.73-1.3-1.94-2.55-3.93-3.75-5.93-1.21-2.01-2.36-4.04-3.46-6.11s-2.15-4.16-3.16-6.27c-1-2.12-1.94-4.25-2.84-6.41-.9-2.17-1.74-4.35-2.53-6.55s-1.52-4.42-2.2-6.67c-.68-2.23-1.3-4.49-1.88-6.76-.57-2.27-1.08-4.55-1.53-6.84s-.86-4.6-1.2-6.92-.63-4.63-.86-6.96c-.22-2.33-.39-4.66-.51-7-.11-2.34-.17-4.68-.17-7.02s.06-4.68,.17-7.02c.12-2.34,.29-4.67,.51-7,.23-2.33,.52-4.65,.86-6.96s.74-4.63,1.2-6.92,.97-4.57,1.53-6.84c.57-2.27,1.2-4.53,1.88-6.76,.68-2.24,1.41-4.46,2.2-6.67s1.63-4.39,2.53-6.55c.89-2.16,1.84-4.3,2.84-6.41,1.01-2.12,2.06-4.21,3.16-6.27s2.26-4.1,3.46-6.11c1.2-2,2.45-3.98,3.75-5.93,1.3-1.94,2.64-3.86,4.04-5.73,1.4-1.88,2.84-3.72,4.32-5.53,1.49-1.81,3.02-3.58,4.59-5.32s3.18-3.43,4.84-5.08c1.65-1.66,3.34-3.27,5.08-4.84s3.51-3.1,5.32-4.59c1.81-1.48,3.65-2.92,5.53-4.32,1.88-1.39,3.79-2.74,5.73-4.04,1.94-1.3,3.93-2.55,5.93-3.75,2.01-1.21,4.04-2.36,6.11-3.46s4.16-2.15,6.27-3.16c2.12-1,4.25-1.94,6.41-2.84,2.17-.9,4.35-1.74,6.55-2.53s4.42-1.52,6.67-2.2c2.23-.68,4.49-1.3,6.76-1.88,2.27-.57,4.55-1.08,6.84-1.53s4.6-.86,6.92-1.2,4.63-.63,6.96-.86c2.33-.22,4.66-.39,7-.51,2.34-.11,4.68-.17,7.02-.17s4.68,.06,7.02,.17c2.34,.12,4.67,.29,7,.51,2.33,.23,4.65,.52,6.96,.86s4.63,.74,6.92,1.2,4.57,.97,6.84,1.53c2.27,.57,4.53,1.2,6.76,1.88,2.24,.68,4.46,1.41,6.67,2.2s4.39,1.63,6.55,2.53c2.16,.89,4.3,1.84,6.41,2.84,2.12,1.01,4.21,2.06,6.27,3.16s4.1,2.26,6.11,3.46c2,1.2,3.98,2.45,5.93,3.75,1.94,1.3,3.86,2.64,5.73,4.04,1.88,1.4,3.72,2.84,5.53,4.32,1.81,1.49,3.58,3.02,5.32,4.59s3.43,3.18,5.08,4.84c1.66,1.65,3.27,3.34,4.84,5.08s3.1,3.51,4.59,5.32c1.48,1.81,2.92,3.65,4.32,5.53,1.39,1.88,2.74,3.79,4.04,5.73,1.3,1.94,2.55,3.93,3.75,5.93,1.21,2.01,2.36,4.04,3.46,6.11s2.15,4.16,3.16,6.27c1,2.12,1.94,4.25,2.84,6.41,.9,2.17,1.74,4.35,2.53,6.55,.78,2.2,1.52,4.42,2.2,6.67,.68,2.23,1.3,4.49,1.88,6.76,.57,2.27,1.08,4.55,1.53,6.84s.86,4.6,1.2,6.92,.63,4.63,.86,6.96c.22,2.33,.39,4.66,.51,7,.11,2.34,.17,4.68,.17,7.02Z"/></g><g class="cls-2"><path class="cls-1" d="M211.82,124.48c1.39-12.88,2.79-25.77,4.19-38.65-46.6-5.06-93.2-10.14-139.8-15.2,22.43-14.11,47.96-25.34,74.44-24.15,24.71,1.11,48.35,13.37,64.98,31.65,17.72,19.48,27.81,46.43,24.38,72.53-14.41,3.88-28.82,7.75-43.24,11.63,19.62,0,39.74,3.09,59.31,4.61,4.43,.34,10.17,1.81,14.54,1.13,4.95-.77,4.2-2.76,4.86-7.99,.98-7.78,1.24-15.65,.82-23.48-.1-1.97-.25-3.93-.45-5.89-2.88-29.26-15.29-57.65-35.34-79.22-1.93-2.07-3.93-4.08-5.98-6.02C201.82,14.68,152.94,2.17,109.44,13.41,65.94,24.65,29.27,59.27,15.57,102.01c47.72,4.1,95.36,9.18,142.87,15.25l-55.19,30.33-27.8,15.28-.23,.13-.13,.07-.85,8.52s-1.33,13.31-1.4,13.91c-.49,4.8-.86,9.63-1.45,14.41,45.83,4.68,91.62,9.8,137.42,14.72,.22,.01,.44,.04,.64,.07-1.56,0-8.15,6.7-9.7,7.77-3.59,2.49-7.34,4.71-11.23,6.7-7.52,3.81-15.54,6.65-23.8,8.51-38.01,8.55-77.52-6.59-100.65-37.73-8.05-10.81-13.89-23.35-16.32-36.63-.22-1.2-.34-2.47-.54-3.68-2.67-15.77-1.13-27.39-1.13-27.39l45.88-6.89c-9.38-1.37-18.86-2.65-28.36-3.13l-6.76-.74-22.57-2.48-7.7-.85-15.4-1.69c-.1,0-.19,.9-.22,2.37v.05c-.52,6.29-1.62,24,.6,43.54,6.02,53.09,46.51,96.44,97.69,110.68,52.44,14.59,112.14-8.86,143.42-52.59,3.97-5.54,7.49-11.4,10.53-17.51,.81-1.63,7.74-19.37,7.72-19.37l-12.78-1.32-28.63-2.97-1.56-.16-97.96-10.14-3.93-.4,.22-.11,7.06-3.6,6.32-3.25,16.2-8.3,55.95-28.67"/></g></g></svg>