<svg xmlns="http://www.w3.org/2000/svg" xmlns:xlink="http://www.w3.org/1999/xlink" width="500" zoomAndPan="magnify" viewBox="0 0 375 374.999991" height="500" preserveAspectRatio="xMidYMid meet" version="1.0"><defs><clipPath id="4a9d211058"><path d="M 177 113.867188 L 223 113.867188 L 223 149 L 177 149 Z M 177 113.867188 " clip-rule="nonzero"/></clipPath><clipPath id="38f4ea459f"><path d="M 61.339844 131 L 301 131 L 301 260.867188 L 61.339844 260.867188 Z M 61.339844 131 " clip-rule="nonzero"/></clipPath><clipPath id="383db5a63a"><path d="M 61.339844 131 L 302 131 L 302 260.867188 L 61.339844 260.867188 Z M 61.339844 131 " clip-rule="nonzero"/></clipPath></defs><path fill="#1f2937" d="M 109.15625 148.636719 C 113.148438 149.457031 116.914062 151.394531 119.972656 154.335938 C 120.058594 154.40625 120.128906 154.492188 120.1875 154.59375 C 120.53125 155.15625 120.359375 155.886719 119.800781 156.230469 C 107.835938 163.523438 99.9375 174.234375 96.117188 188.386719 C 96.085938 188.488281 96.058594 188.601562 96 188.703125 C 95.683594 189.277344 94.953125 189.492188 94.378906 189.175781 C 90.628906 187.152344 87.65625 184.125 85.671875 180.535156 C 83.707031 176.960938 82.730469 172.824219 83.003906 168.578125 C 83.273438 164.328125 84.785156 160.351562 87.195312 157.0625 C 89.625 153.777344 92.96875 151.164062 96.949219 149.628906 C 100.925781 148.105469 105.164062 147.804688 109.171875 148.621094 Z M 109.15625 148.636719 " fill-opacity="1" fill-rule="evenodd"/><g clip-path="url(#4a9d211058)"><path fill="#1f2937" d="M 177.464844 133.765625 C 181.617188 123.011719 187.847656 117.011719 194.371094 114.828125 C 197.976562 113.625 201.652344 113.582031 205.128906 114.542969 C 208.574219 115.503906 211.820312 117.457031 214.5625 120.242188 C 220.324219 126.097656 223.914062 135.675781 222.636719 147.488281 C 222.5625 148.148438 221.976562 148.621094 221.328125 148.550781 C 221.085938 148.523438 220.855469 148.421875 220.683594 148.277344 C 214.421875 142.964844 207.785156 139.234375 200.804688 137.09375 C 193.824219 134.957031 186.457031 134.410156 178.699219 135.445312 C 178.054688 135.53125 177.449219 135.070312 177.363281 134.410156 C 177.335938 134.179688 177.363281 133.964844 177.464844 133.765625 Z M 177.464844 133.765625 " fill-opacity="1" fill-rule="evenodd"/></g><path fill="#1f2937" d="M 290.484375 137.753906 C 289.191406 137.09375 288.6875 135.515625 289.351562 134.238281 C 290.011719 132.945312 291.589844 132.445312 292.867188 133.089844 C 295.023438 134.195312 296.933594 135.660156 298.527344 137.398438 C 300.121094 139.132812 301.398438 141.171875 302.304688 143.410156 C 302.851562 144.761719 302.191406 146.28125 300.855469 146.828125 C 299.503906 147.375 297.980469 146.714844 297.4375 145.363281 C 296.773438 143.726562 295.828125 142.234375 294.636719 140.929688 C 293.441406 139.636719 292.050781 138.546875 290.484375 137.742188 Z M 290.484375 137.753906 " fill-opacity="1" fill-rule="evenodd"/><path fill="#1f2937" d="M 292.625 129.445312 C 291.332031 128.769531 290.828125 127.191406 291.503906 125.898438 C 292.179688 124.605469 293.757812 124.105469 295.050781 124.777344 C 299.128906 126.902344 302.75 129.757812 305.753906 133.175781 C 308.738281 136.578125 311.109375 140.539062 312.6875 144.863281 C 313.175781 146.226562 312.472656 147.734375 311.125 148.222656 C 309.757812 148.707031 308.25 148.003906 307.761719 146.640625 C 306.398438 142.9375 304.375 139.535156 301.800781 136.621094 C 299.246094 133.707031 296.144531 131.265625 292.625 129.429688 Z M 292.625 129.445312 " fill-opacity="1" fill-rule="evenodd"/><path fill="#1f2937" d="M 107.777344 217.257812 C 110.953125 230.519531 118.261719 235.457031 129.667969 232.085938 C 141.472656 227.105469 134.160156 212.675781 135.914062 201.710938 C 137.394531 192.390625 149.53125 176.011719 140.023438 173.34375 C 121.09375 168.046875 105.867188 199.527344 107.777344 217.257812 Z M 129.78125 194 C 129.78125 197 127.828125 199.441406 125.414062 199.441406 C 123.003906 199.441406 121.050781 197 121.050781 194 C 121.050781 191 123.003906 188.558594 125.414062 188.558594 C 127.828125 188.558594 129.78125 191 129.78125 194 Z M 129.78125 194 " fill-opacity="1" fill-rule="evenodd"/><path fill="#1f2937" d="M 178.011719 199.167969 C 178.371094 198.851562 178.757812 198.566406 179.160156 198.292969 C 182.964844 195.191406 184.863281 191.632812 183.742188 188.761719 C 181.933594 184.082031 172.855469 183.019531 163.476562 186.363281 C 154.097656 189.707031 147.949219 196.210938 149.757812 200.875 C 150.851562 203.691406 154.585938 205.199219 159.425781 205.226562 C 173.488281 205.6875 178.125 233.605469 154.515625 228.597656 C 153.679688 228.667969 153.035156 229.34375 153.019531 230.191406 C 153.003906 231.023438 153.625 231.742188 154.457031 231.828125 C 171.160156 238.257812 190.046875 231.238281 198.464844 215.449219 C 198.550781 214.902344 198.277344 214.371094 197.789062 214.125 C 197.300781 213.882812 196.710938 213.984375 196.324219 214.371094 C 181.070312 233.734375 166.519531 209.074219 178.011719 199.183594 Z M 178.011719 199.167969 " fill-opacity="1" fill-rule="evenodd"/><path fill="#1f2937" d="M 179.460938 171.949219 C 181.226562 173.199219 183.210938 174.304688 184.933594 175.265625 C 186.15625 175.941406 187.246094 176.558594 187.949219 177.046875 C 189.960938 178.4375 191.800781 179.859375 193.449219 181.296875 C 195.101562 182.730469 196.566406 184.195312 197.847656 185.703125 C 199.570312 187.699219 200.660156 189.550781 201.667969 191.273438 C 203.691406 194.71875 205.414062 197.675781 210.871094 200.386719 C 214.347656 202.109375 217.550781 202.382812 220.238281 201.523438 C 222.449219 200.820312 224.289062 199.371094 225.636719 197.375 C 226.945312 195.4375 227.777344 192.964844 228.007812 190.183594 C 228.453125 184.785156 226.6875 178.109375 221.789062 171.605469 C 219.675781 168.804688 217.308594 166.394531 214.664062 164.386719 C 212.023438 162.375 209.121094 160.753906 205.945312 159.519531 C 203.648438 158.628906 200.34375 157.851562 196.753906 157.4375 C 193.625 157.078125 190.246094 156.976562 187.117188 157.320312 C 183.957031 157.667969 180.609375 158.6875 178.253906 160.234375 C 176.933594 161.097656 175.898438 162.144531 175.355469 163.351562 C 174.75 164.65625 174.707031 166.09375 175.425781 167.628906 C 176.070312 169.007812 177.351562 170.457031 179.445312 171.9375 Z M 204.066406 168.734375 C 204.78125 170.472656 204.582031 172.339844 203.390625 173.53125 C 201.679688 175.238281 198.578125 174.894531 196.453125 172.769531 C 194.613281 170.945312 194.113281 168.375 195.101562 166.609375 C 195.261719 166.324219 195.445312 166.066406 195.691406 165.835938 C 197.402344 164.125 200.503906 164.472656 202.628906 166.597656 C 203.273438 167.242188 203.75 167.972656 204.066406 168.734375 Z M 204.066406 168.734375 " fill-opacity="1" fill-rule="evenodd"/><g clip-path="url(#38f4ea459f)"><path fill="#1f2937" d="M 297.40625 251.449219 L 259.273438 251.449219 C 275.316406 228.96875 291.488281 195.105469 294.894531 169.882812 C 296.601562 158.15625 291.890625 146.410156 282.554688 139.089844 C 256.960938 119.050781 229 143.972656 245.472656 168.835938 C 252.710938 179.757812 266.828125 183.808594 278.75 178.367188 C 274.199219 182.574219 268.09375 184.726562 261.902344 184.324219 C 255.710938 183.921875 249.953125 180.980469 245.976562 176.214844 C 248.289062 199.886719 232.445312 233.792969 214.507812 251.449219 L 65.222656 251.449219 C 63.382812 251.449219 61.875 252.957031 61.875 254.796875 L 61.875 257.464844 C 61.875 259.304688 63.382812 260.8125 65.222656 260.8125 L 297.394531 260.8125 C 299.230469 260.8125 300.738281 259.304688 300.738281 257.464844 L 300.738281 254.796875 C 300.738281 252.957031 299.230469 251.449219 297.394531 251.449219 Z M 297.40625 251.449219 " fill-opacity="1" fill-rule="evenodd"/></g><g clip-path="url(#383db5a63a)"><path stroke-linecap="butt" transform="matrix(1.436261, 0, 0, 1.435547, 61.83181, 113.868134)" fill="none" stroke-linejoin="miter" d="M 164.01924 95.838803 L 137.469182 95.838803 C 148.639136 80.178938 159.89884 56.589821 162.27045 39.019751 C 163.458974 30.851043 160.178973 22.66873 153.678805 17.56941 C 135.859099 3.610225 116.391232 20.970771 127.860357 38.2905 C 132.900027 45.898663 142.729151 48.720432 151.029783 44.929956 C 147.861291 47.860568 143.610345 49.359888 139.299564 49.079616 C 134.988783 48.799344 130.979893 46.750364 128.211203 43.430636 C 129.821286 59.920433 118.790039 83.539482 106.301014 95.838803 L 2.360884 95.838803 C 1.079889 95.838803 0.0300711 96.889143 0.0300711 98.170776 L 0.0300711 100.029279 C 0.0300711 101.310912 1.079889 102.361252 2.360884 102.361252 L 164.01108 102.361252 C 165.289356 102.361252 166.339174 101.310912 166.339174 100.029279 L 166.339174 98.170776 C 166.339174 96.889143 165.289356 95.838803 164.01108 95.838803 Z M 164.01924 95.838803 " stroke="#373435" stroke-width="0.09" stroke-opacity="1" stroke-miterlimit="2.613"/></g></svg>