<?xml version="1.0" encoding="UTF-8"?><svg id="Layer_2" xmlns="http://www.w3.org/2000/svg" viewBox="0 0 41.49 50.77"><defs><style>.cls-1{fill:#454545;}</style></defs><g id="Layer_1-2"><path class="cls-1" d="M32.42,50.77h-15.69c-1.12,0-2.02-.83-2.02-1.84v-6.33h-5.02c-1.87,0-3.05-.36-3.81-1.15-.84-.87-1.16-2.24-1.07-4.57,.08-2.2,.04-2.92-.05-4.35-.02-.31-.04-.65-.06-1.04l-2.23-.04c-.94-.03-1.72-.46-2.15-1.2-.43-.73-.43-1.64,0-2.43,2.26-4.25,3.21-6.04,3.76-7.07,.45-.84,.64-1.78,.55-2.71-.04-.41-.05-.82-.06-1.16-.09-4.87,1.4-9.01,4.3-11.96C11.97,1.75,16.66,0,22.07,0c14.32,0,19.42,9.11,19.42,17.64,0,3.57-1.06,7-3.08,9.94-2.6,3.8-3.98,8.32-3.98,13.07v5.98s.01,.09,.01,.14v2.16c0,1.02-.91,1.84-2.02,1.84ZM22.07,1.46c-5.01,0-9.33,1.59-12.17,4.48-2.66,2.71-3.96,6.38-3.88,10.91,0,.32,.02,.69,.05,1.06,.11,1.21-.14,2.43-.71,3.52-.54,1.03-1.49,2.82-3.76,7.07-.18,.34-.19,.72-.02,1.01,.17,.29,.5,.46,.93,.47l2.9,.05c.38,0,.7,.31,.71,.69,.03,.69,.07,1.23,.1,1.7,.09,1.48,.13,2.22,.05,4.5-.07,1.87,.13,2.95,.66,3.5,.47,.48,1.32,.7,2.76,.7h5.75c.4,0,.73,.33,.73,.73v7.06c0,.18,.23,.38,.57,.38h15.69c.33,0,.57-.2,.57-.38v-2.13s0-.06,0-.07c0-.02,0-.04,0-.06v-6.03c0-5.05,1.46-9.85,4.23-13.89,1.85-2.69,2.82-5.84,2.82-9.11C40.03,7.66,33.15,1.46,22.07,1.46Z"/><path class="cls-1" d="M22.5,22.58s-.04,0-.06,0c-.26-.02-.49-.18-.6-.41l-1.86-3.87c-.17-.36-.02-.8,.34-.97,.36-.18,.8-.02,.97,.34l1.32,2.74,2.68-3.83c.23-.33,.69-.41,1.02-.18,.33,.23,.41,.69,.18,1.02l-3.39,4.86c-.14,.2-.36,.31-.6,.31Z"/><path class="cls-1" d="M22.86,25.89c-3.87,0-7.01-3.15-7.01-7.01s3.15-7.01,7.01-7.01,7.01,3.15,7.01,7.01-3.15,7.01-7.01,7.01Zm0-12.57c-3.06,0-5.55,2.49-5.55,5.55s2.49,5.55,5.55,5.55,5.55-2.49,5.55-5.55-2.49-5.55-5.55-5.55Z"/><g><path class="cls-1" d="M37.79,19.55h-5.85c-.4,0-.73-.33-.73-.73s.33-.73,.73-.73h5.85c.4,0,.73,.33,.73,.73s-.33,.73-.73,.73Z"/><polygon class="cls-1" points="34.84 21.29 32.37 18.82 34.84 16.35 32.74 16.35 30.27 18.82 32.74 21.29 34.84 21.29"/></g><g><path class="cls-1" d="M13.78,19.55H7.92c-.4,0-.73-.33-.73-.73s.33-.73,.73-.73h5.85c.4,0,.73,.33,.73,.73s-.33,.73-.73,.73Z"/><polygon class="cls-1" points="10.87 16.35 13.35 18.82 10.87 21.29 12.97 21.29 15.44 18.82 12.97 16.35 10.87 16.35"/></g><g><path class="cls-1" d="M33.42,30.11c-.19,0-.37-.07-.52-.21l-4.14-4.14c-.28-.28-.28-.75,0-1.03,.28-.28,.75-.28,1.03,0l4.14,4.14c.28,.28,.28,.75,0,1.03-.14,.14-.33,.21-.52,.21Z"/><polygon class="cls-1" points="29.58 29.04 29.58 25.54 33.08 25.54 31.59 24.06 28.1 24.06 28.1 27.56 29.58 29.04"/></g><g><path class="cls-1" d="M16.44,13.13c-.19,0-.37-.07-.52-.21l-4.14-4.14c-.28-.28-.28-.75,0-1.03,.28-.28,.75-.28,1.03,0l4.14,4.14c.28,.28,.28,.75,0,1.03-.14,.14-.33,.21-.52,.21Z"/><polygon class="cls-1" points="16.13 8.6 16.13 12.09 12.63 12.09 14.12 13.58 17.62 13.58 17.62 10.08 16.13 8.6"/></g><g><path class="cls-1" d="M22.86,34.48c-.4,0-.73-.33-.73-.73v-5.85c0-.4,.33-.73,.73-.73s.73,.33,.73,.73v5.85c0,.4-.33,.73-.73,.73Z"/><polygon class="cls-1" points="20.38 30.8 22.86 28.33 25.33 30.8 25.33 28.7 22.86 26.23 20.38 28.7 20.38 30.8"/></g><g><path class="cls-1" d="M22.86,10.47c-.4,0-.73-.33-.73-.73V3.89c0-.4,.33-.73,.73-.73s.73,.33,.73,.73v5.85c0,.4-.33,.73-.73,.73Z"/><polygon class="cls-1" points="25.33 6.83 22.86 9.31 20.38 6.83 20.38 8.93 22.86 11.41 25.33 8.93 25.33 6.83"/></g><g><path class="cls-1" d="M12.3,30.11c-.19,0-.37-.07-.52-.21-.28-.28-.28-.75,0-1.03l4.14-4.14c.28-.28,.75-.28,1.03,0s.28,.75,0,1.03l-4.14,4.14c-.14,.14-.33,.21-.52,.21Z"/><polygon class="cls-1" points="12.63 25.54 16.13 25.54 16.13 29.04 17.62 27.56 17.62 24.06 14.12 24.06 12.63 25.54"/></g><g><path class="cls-1" d="M29.28,13.13c-.19,0-.37-.07-.52-.21-.28-.28-.28-.75,0-1.03l4.14-4.14c.28-.28,.75-.28,1.03,0,.28,.28,.28,.75,0,1.03l-4.14,4.14c-.14,.14-.33,.21-.52,.21Z"/><polygon class="cls-1" points="33.08 12.09 29.58 12.09 29.58 8.6 28.1 10.08 28.1 13.58 31.59 13.58 33.08 12.09"/></g></g></svg>