<?xml version="1.0" encoding="UTF-8"?><svg id="Layer_2" xmlns="http://www.w3.org/2000/svg" viewBox="0 0 39.28 48.07"><defs><style>.cls-1{fill:#434343;}.cls-2{fill:#454545;}</style></defs><g id="Layer_1-2"><path class="cls-2" d="M30.7,48.07H15.84c-1.06,0-1.92-.78-1.92-1.74v-5.99h-4.76c-1.77,0-2.89-.34-3.61-1.09-.79-.82-1.1-2.12-1.01-4.33,.08-2.08,.04-2.77-.04-4.12-.02-.29-.04-.61-.06-.98l-2.11-.04c-.89-.03-1.63-.44-2.04-1.13-.4-.69-.41-1.55-.01-2.3,2.14-4.03,3.04-5.72,3.56-6.69,.42-.8,.6-1.69,.52-2.57-.04-.38-.05-.76-.05-1.1-.08-4.61,1.32-8.53,4.07-11.33C11.33,1.65,15.78,0,20.89,0c13.56,0,18.39,8.63,18.39,16.7,0,3.38-1.01,6.63-2.91,9.41-2.46,3.59-3.77,7.87-3.77,12.38v5.66s.01,.09,.01,.14v2.04c0,.96-.86,1.74-1.92,1.74ZM20.89,1.38c-4.74,0-8.84,1.51-11.52,4.24-2.52,2.56-3.75,6.04-3.67,10.33,0,.32,.02,.66,.05,1,.11,1.15-.13,2.3-.67,3.34-.52,.98-1.41,2.67-3.56,6.7-.17,.32-.18,.68-.02,.96,.16,.28,.47,.44,.88,.45l2.74,.05c.36,0,.66,.29,.68,.66,.03,.66,.06,1.17,.09,1.61,.08,1.4,.13,2.1,.04,4.26-.07,1.77,.13,2.79,.63,3.32,.44,.46,1.25,.66,2.62,.67h5.44c.38,0,.69,.31,.69,.69v6.68c0,.17,.22,.36,.54,.36h14.86c.32,0,.54-.19,.54-.36v-2.01s0-.05,0-.06c0-.02,0-.04,0-.06v-5.71c0-4.78,1.39-9.33,4.01-13.16,1.75-2.55,2.67-5.53,2.67-8.63,0-9.45-6.52-15.32-17.01-15.32Z"/><path class="cls-1" d="M21.53,29.7c-1.05,0-2.1-.15-3.13-.46-5.81-1.72-9.13-7.85-7.4-13.65,.37-1.24,.96-2.41,1.74-3.45l-.45,.03c-.18,.01-.36-.05-.5-.17-.14-.12-.22-.29-.23-.47l-.19-2.95c-.02-.38,.26-.71,.65-.73l5.64-.36c.57-.04,1.13,.15,1.57,.54,.43,.38,.69,.91,.73,1.49l.36,5.64c.02,.38-.26,.71-.65,.73l-2.95,.19c-.18,.01-.36-.05-.5-.17-.14-.12-.22-.29-.23-.47l-.02-.36c-.35,.54-.63,1.13-.82,1.76-.5,1.7-.32,3.49,.53,5.06,.85,1.56,2.25,2.7,3.95,3.2,1.7,.51,3.49,.32,5.06-.53,1.56-.85,2.7-2.25,3.2-3.95,.5-1.7,.32-3.49-.53-5.06-.85-1.56-2.25-2.7-3.95-3.2-.18-.05-.32-.17-.41-.33-.09-.16-.11-.35-.05-.53l.84-2.83c.11-.37,.49-.58,.86-.47,2.81,.83,5.13,2.71,6.52,5.3,1.4,2.58,1.71,5.55,.88,8.36-.83,2.81-2.71,5.13-5.3,6.52-1.63,.89-3.42,1.34-5.23,1.34ZM14.35,10.65c.27,0,.52,.16,.63,.41,.12,.26,.06,.57-.15,.77-1.18,1.15-2.05,2.58-2.51,4.15-1.51,5.08,1.4,10.43,6.47,11.94,5.08,1.51,10.43-1.4,11.94-6.47,.73-2.45,.46-5.05-.77-7.31-1.11-2.05-2.89-3.6-5.05-4.41l-.45,1.51c1.76,.69,3.2,1.96,4.12,3.65,1.02,1.89,1.25,4.06,.64,6.11-.61,2.05-1.98,3.75-3.87,4.77-1.89,1.02-4.06,1.25-6.11,.64-2.05-.61-3.75-1.98-4.77-3.87-1.02-1.89-1.25-4.06-.64-6.11,.41-1.39,1.19-2.64,2.25-3.61,.2-.18,.48-.23,.72-.13,.25,.1,.41,.33,.43,.6l.09,1.37,1.57-.1-.31-4.96c-.01-.21-.11-.4-.26-.54-.16-.14-.36-.21-.57-.2l-4.96,.31,.1,1.57,1.41-.09s.03,0,.04,0Z"/></g></svg>