<?xml version="1.0" encoding="UTF-8"?><svg xmlns="http://www.w3.org/2000/svg" viewBox="0 0 185.69 186.34"><defs><style>.cls-1,.cls-2{fill:#f15946;}.cls-3{fill:#e3e3e3;}.cls-4{fill:#fff;}.cls-5,.cls-6{fill:#fae480;}.cls-7,.cls-8{fill:#404d66;}.cls-9{fill:#88cb96;}.cls-10,.cls-11{fill:#4fc6da;}.cls-11,.cls-8,.cls-2,.cls-6{fill-rule:evenodd;}.cls-12{isolation:isolate;}.cls-13{mix-blend-mode:multiply;opacity:.2;}</style></defs><g class="cls-12"><g id="Layer_2"><g id="Layer_1-2"><path class="cls-1" d="M185.64,70.63l-4.76,.37c-.18-2.19-.94-4.18-2.11-5.87l3.93-2.73c-1.68-2.42-3.97-4.36-6.63-5.62l-2.05,4.32c-1.83-.87-3.9-1.29-6.07-1.12-.02,0-.04,0-.06,0l-.39-4.76c-.1,0-.2,.02-.31,.04-2.83,.28-5.56,1.28-7.89,2.89l2.74,3.95c-1.73,1.2-3.11,2.84-4.01,4.74l-4.36-2.07c-1.26,2.65-1.8,5.6-1.57,8.53v.03s4.81-.39,4.81-.39c.18,2.18,.94,4.17,2.1,5.85l-3.99,2.76c1.67,2.42,3.96,4.37,6.62,5.64l2.09-4.38c.81,.39,1.68,.67,2.57,.87,1.13,.25,2.31,.36,3.52,.27l.38,4.81c2.95-.24,5.78-1.24,8.2-2.91l-2.74-3.97c1.74-1.19,3.13-2.82,4.04-4.72l4.34,2.07c1.27-2.66,1.82-5.62,1.58-8.61Z"/><path class="cls-9" d="M185.64,166.4l-4.76,.37c-.18-2.19-.94-4.18-2.11-5.87l3.93-2.73c-1.68-2.42-3.97-4.36-6.63-5.62l-2.05,4.32c-1.83-.87-3.9-1.29-6.07-1.12-.02,0-.04,0-.06,0l-.39-4.76c-.1,0-.2,.02-.31,.04-2.83,.28-5.56,1.28-7.89,2.89l2.74,3.95c-1.73,1.2-3.11,2.84-4.01,4.74l-4.36-2.07c-1.26,2.65-1.8,5.6-1.57,8.53v.03s4.81-.39,4.81-.39c.18,2.18,.94,4.17,2.1,5.85l-3.99,2.76c1.67,2.42,3.96,4.37,6.62,5.64l2.09-4.38c.81,.39,1.68,.67,2.57,.87,1.13,.25,2.31,.36,3.52,.27l.38,4.81c2.95-.24,5.78-1.24,8.2-2.91l-2.74-3.97c1.74-1.19,3.13-2.82,4.04-4.72l4.34,2.07c1.27-2.66,1.82-5.62,1.58-8.61Z"/><g><path class="cls-8" d="M145.55,59.64C145.55,26.7,124.32,0,79.61,0,46.68,0,19.75,18.77,20.45,56.91c.02,1.31,.07,2.62,.19,3.92,.35,3.8-.44,7.62-2.23,11-1.92,3.64-5.27,9.94-13.25,24.95-2.12,3.98,.11,8.86,5.4,9.01l10.24,.19c.5,10.08,.9,11.2,.5,21.64-.52,13.54,2.79,17.49,14.64,17.5h20.29v24.89c0,2.17,2.05,3.93,4.57,3.93h55.34c2.52,0,4.57-1.76,4.57-3.93v-7.62c0-.12-.03-.23-.04-.35v-21.26c0-16.94,4.91-33.58,14.49-47.55,6.56-9.56,10.4-21.12,10.4-33.59Z"/><g class="cls-13"><path class="cls-7" d="M135.15,93.23c6.56-9.56,10.4-21.12,10.4-33.59C145.55,27.59,125.44,1.46,83.18,.07V173.93h32.96c2.52,0,4.57-1.76,4.57-3.93v-7.62c0-.12-.03-.23-.04-.35v-21.26c0-16.94,4.91-33.58,14.49-47.55Z"/></g></g><path class="cls-5" d="M99.04,120.59l-4.76,.37c-.18-2.19-.94-4.18-2.11-5.87l3.93-2.73c-1.68-2.42-3.97-4.36-6.63-5.62l-2.05,4.32c-1.83-.87-3.9-1.29-6.07-1.12-.02,0-.04,0-.06,0l-.39-4.76c-.1,0-.2,.02-.31,.04-2.83,.28-5.56,1.28-7.89,2.89l2.74,3.95c-1.73,1.2-3.11,2.84-4.01,4.74l-4.36-2.07c-1.26,2.65-1.8,5.6-1.57,8.53v.03s4.81-.39,4.81-.39c.18,2.18,.94,4.17,2.1,5.85l-3.99,2.76c1.67,2.42,3.96,4.37,6.62,5.64l2.09-4.38c.81,.39,1.68,.67,2.57,.87,1.13,.25,2.31,.36,3.52,.27l.39,4.81c2.95-.24,5.78-1.24,8.2-2.91l-2.74-3.97c1.74-1.19,3.13-2.82,4.04-4.72l4.34,2.07c1.27-2.66,1.82-5.62,1.58-8.61Z"/><g><g class="cls-13"><circle class="cls-5" cx="82.27" cy="121.93" r="10.2"/></g><g class="cls-13"><path class="cls-6" d="M90.75,121.93c0,4.68-3.8,8.48-8.48,8.48s-8.48-3.8-8.48-8.48,3.8-8.48,8.48-8.48,8.48,3.8,8.48,8.48Z"/></g></g><g><g class="cls-13"><circle class="cls-9" cx="168.87" cy="167.76" r="10.2"/></g><g class="cls-13"><circle class="cls-9" cx="168.87" cy="167.76" r="8.48"/></g></g><g><g class="cls-13"><circle class="cls-1" cx="168.87" cy="72" r="10.2"/></g><g class="cls-13"><path class="cls-2" d="M177.35,72c0,4.68-3.8,8.48-8.48,8.48s-8.48-3.8-8.48-8.48,3.8-8.48,8.48-8.48,8.48,3.8,8.48,8.48Z"/></g></g><path class="cls-11" d="M160.7,123.08l-7.31,.57c-.27-3.35-1.44-6.42-3.23-9l6.03-4.19c-2.58-3.71-6.09-6.69-10.18-8.63l-3.14,6.63c-2.81-1.33-5.99-1.99-9.31-1.72-.03,0-.06,0-.09,.01l-.6-7.31c-.16,.01-.31,.04-.47,.05-.14,.01-.27,.04-.41,.05-4.2,.49-8.23,1.98-11.7,4.39l4.2,6.06c-2.65,1.85-4.77,4.36-6.15,7.28l-6.69-3.18c-1.93,4.06-2.76,8.59-2.41,13.09v.04s7.39-.6,7.39-.6c.27,3.34,1.44,6.39,3.22,8.97l-6.12,4.23c1.95,2.82,4.44,5.22,7.31,7.06,.91,.59,1.86,1.12,2.84,1.59l3.2-6.72c1.25,.6,2.58,1.03,3.95,1.34,1.73,.39,3.54,.56,5.4,.41l.59,7.38c4.52-.36,8.87-1.91,12.59-4.47l-4.2-6.1c2.66-1.83,4.8-4.33,6.2-7.23l6.66,3.18c1.95-4.07,2.79-8.62,2.43-13.2Z"/><path class="cls-7" d="M82.27,127.85c-3.25,0-5.89-2.64-5.89-5.89s2.64-5.89,5.89-5.89,5.89,2.64,5.89,5.89-2.64,5.89-5.89,5.89Zm0-8.71c-1.56,0-2.82,1.27-2.82,2.82s1.27,2.82,2.82,2.82,2.82-1.27,2.82-2.82-1.27-2.82-2.82-2.82Z"/><path class="cls-7" d="M168.87,173.77c-3.31,0-6-2.69-6-6s2.69-6.01,6-6.01,6.01,2.69,6.01,6.01-2.69,6-6.01,6Zm0-8.88c-1.59,0-2.87,1.29-2.87,2.88s1.29,2.87,2.87,2.87,2.88-1.29,2.88-2.87-1.29-2.88-2.88-2.88Z"/><path class="cls-7" d="M168.87,78.17c-3.4,0-6.17-2.77-6.17-6.17s2.77-6.17,6.17-6.17,6.17,2.77,6.17,6.17-2.77,6.17-6.17,6.17Zm0-9.13c-1.63,0-2.95,1.33-2.95,2.95s1.32,2.95,2.95,2.95,2.95-1.32,2.95-2.95-1.33-2.95-2.95-2.95Z"/><path class="cls-5" d="M172.5,140.97c0-1.1,.88-1.98,1.98-1.98h0c1.1,0,1.98,.88,1.98,1.98h0c0,1.08-.88,1.98-1.98,1.98h0c-1.1,0-1.98-.9-1.98-1.98Zm0-15.85c0-1.1,.88-1.98,1.98-1.98h0c1.1,0,1.98,.88,1.98,1.98h0c0,1.1-.88,1.98-1.98,1.98h0c-1.1,0-1.98-.88-1.98-1.98Zm0-15.85c0-1.1,.88-1.98,1.98-1.98h0c1.1,0,1.98,.88,1.98,1.98h0c0,1.08-.88,1.98-1.98,1.98h0c-1.1,0-1.98-.9-1.98-1.98Zm0-15.85c0-1.1,.88-1.98,1.98-1.98h0c1.1,0,1.98,.88,1.98,1.98h0c0,1.08-.88,1.98-1.98,1.98h0c-1.1,0-1.98-.9-1.98-1.98Z"/><g><path class="cls-5" d="M134.98,9.94c-.53,0-1.03-.2-1.4-.58-.38-.37-.58-.87-.58-1.4s.21-1.03,.58-1.4c.09-.09,.18-.17,.29-.24,.11-.08,.22-.13,.34-.18,.12-.05,.25-.09,.37-.12,.66-.13,1.33,.08,1.8,.54,.37,.37,.58,.88,.58,1.4s-.21,1.03-.58,1.4c-.19,.19-.41,.33-.65,.44-.24,.09-.49,.15-.75,.15Z"/><path class="cls-5" d="M148.7,7.96c0-1.1,.89-1.98,1.98-1.98h0c1.1,0,1.98,.88,1.98,1.98h0c0,1.1-.88,1.98-1.98,1.98h0c-1.1,0-1.98-.88-1.98-1.98Z"/><path class="cls-5" d="M166.39,9.94c-.53,0-1.03-.2-1.4-.58-.37-.37-.58-.87-.58-1.4s.21-1.03,.58-1.4c.73-.74,2.07-.74,2.8,0,.09,.09,.17,.2,.25,.3,.07,.11,.13,.22,.17,.34,.05,.12,.09,.24,.12,.37,.03,.13,.04,.25,.04,.38,0,.53-.21,1.03-.58,1.4-.18,.19-.41,.33-.65,.44-.24,.09-.49,.15-.75,.15Z"/><path class="cls-5" d="M164.41,35.45c0-1.1,.88-1.98,1.98-1.98h0c1.1,0,1.98,.88,1.98,1.98h0c0,1.1-.88,1.98-1.98,1.98h0c-1.1,0-1.98-.88-1.98-1.98Zm0-13.74c0-1.1,.88-1.98,1.98-1.98h0c1.1,0,1.98,.88,1.98,1.98h0c0,1.1-.88,1.98-1.98,1.98h0c-1.1,0-1.98-.88-1.98-1.98Z"/><path class="cls-5" d="M166.39,51.18c-.53,0-1.03-.21-1.4-.58-.18-.19-.33-.4-.44-.65-.09-.24-.14-.49-.14-.75,0-.13,.01-.26,.04-.38,.03-.13,.07-.25,.1-.37,.05-.12,.12-.24,.19-.34,.08-.11,.16-.21,.25-.3,.73-.74,2.07-.74,2.8,0,.09,.09,.17,.2,.25,.3,.07,.11,.13,.22,.17,.34,.05,.12,.09,.24,.12,.37,.03,.12,.04,.25,.04,.38,0,.53-.21,1.03-.58,1.4-.18,.18-.41,.33-.65,.43-.24,.09-.49,.15-.75,.15Z"/></g><path class="cls-9" d="M41.9,113.97c-1.09,0-1.98-.89-1.98-1.98v-4.51c0-1.09,.89-1.98,1.98-1.98s1.98,.89,1.98,1.98v4.51c0,1.09-.89,1.98-1.98,1.98Z"/><path class="cls-9" d="M41.87,132.47c-1.09,0-1.98-.89-1.98-1.98v-4.51c0-1.09,.89-1.98,1.98-1.98s1.98,.89,1.98,1.98v4.51c0,1.09-.89,1.98-1.98,1.98Z"/><path class="cls-9" d="M36.95,116.01c-.51,0-1.01-.19-1.4-.58l-3.19-3.19c-.77-.77-.77-2.03,0-2.8,.77-.77,2.03-.77,2.8,0l3.19,3.19c.77,.77,.77,2.03,0,2.8-.39,.39-.89,.58-1.4,.58Z"/><path class="cls-9" d="M50.01,129.11c-.51,0-1.01-.19-1.4-.58l-3.19-3.19c-.77-.77-.77-2.03,0-2.8,.77-.77,2.03-.77,2.8,0l3.19,3.19c.77,.77,.77,2.03,0,2.8-.39,.39-.89,.58-1.4,.58Z"/><path class="cls-9" d="M34.89,120.94h-4.51c-1.09,0-1.98-.89-1.98-1.98s.89-1.98,1.98-1.98h4.51c1.09,0,1.98,.89,1.98,1.98s-.89,1.98-1.98,1.98Z"/><path class="cls-9" d="M53.39,120.98h-4.51c-1.09,0-1.98-.89-1.98-1.98s.89-1.98,1.98-1.98h4.51c1.09,0,1.98,.89,1.98,1.98s-.89,1.98-1.98,1.98Z"/><path class="cls-9" d="M33.74,129.08c-.51,0-1.01-.19-1.4-.58-.77-.77-.77-2.03,0-2.8l3.19-3.19c.77-.77,2.03-.77,2.8,0s.77,2.03,0,2.8l-3.19,3.19c-.39,.39-.89,.58-1.4,.58Z"/><path class="cls-9" d="M46.84,116.03c-.51,0-1.01-.19-1.4-.58-.77-.77-.77-2.03,0-2.8l3.19-3.19c.77-.77,2.03-.77,2.8,0,.77,.77,.77,2.03,0,2.8l-3.19,3.19c-.39,.39-.89,.58-1.4,.58Z"/><polygon class="cls-1" points="56.08 164.48 2.89 164.48 2.89 186.34 121.07 186.34 121.07 171.21 121.07 164.48 56.08 164.48"/><polygon class="cls-5" points="139.15 29.92 134.98 29.92 134.98 46.98 144.99 46.98 152.04 46.98 152.04 29.92 139.15 29.92"/><polygon class="cls-6" points="24.77 30.91 11.85 30.91 11.85 49.2 20.27 49.2 30.14 49.2 30.14 30.91 24.77 30.91"/><polygon class="cls-6" points="144.95 71.72 128.79 71.72 128.79 88.12 139.04 88.12 145.19 88.12 145.19 71.72 144.95 71.72"/><g class="cls-13"><polygon class="cls-5" points="139.15 29.96 134.98 29.96 152.04 47.03 152.04 29.96 139.15 29.96"/></g><g class="cls-13"><polygon class="cls-6" points="24.77 30.96 11.85 30.96 30.14 49.24 30.14 30.96 24.77 30.96"/></g><g class="cls-13"><polygon class="cls-6" points="144.95 71.76 128.79 71.76 145.19 88.17 145.19 71.76 144.95 71.76"/></g><path class="cls-4" d="M15.57,182.11c-3.69,0-6.69-3-6.69-6.69s3-6.69,6.69-6.69,6.69,3,6.69,6.69-3,6.69-6.69,6.69Z"/><path class="cls-7" d="M15.57,172.68c-1.51,0-2.73,1.23-2.73,2.73s1.23,2.73,2.73,2.73,2.73-1.23,2.73-2.73-1.23-2.73-2.73-2.73Z"/><path class="cls-4" d="M30.67,182.11c-3.69,0-6.69-3-6.69-6.69s3-6.69,6.69-6.69,6.69,3,6.69,6.69-3,6.69-6.69,6.69Z"/><path class="cls-7" d="M30.67,172.68c-1.51,0-2.73,1.23-2.73,2.73s1.23,2.73,2.73,2.73,2.73-1.23,2.73-2.73-1.23-2.73-2.73-2.73Z"/><path class="cls-4" d="M45.77,182.11c-3.69,0-6.69-3-6.69-6.69s3-6.69,6.69-6.69,6.69,3,6.69,6.69-3,6.69-6.69,6.69Z"/><path class="cls-7" d="M45.77,172.68c-1.51,0-2.73,1.23-2.73,2.73s1.23,2.73,2.73,2.73,2.73-1.23,2.73-2.73-1.23-2.73-2.73-2.73Z"/><path class="cls-4" d="M19.07,40.06c0-1.1,.88-1.98,1.98-1.98h0c1.1,0,1.98,.88,1.98,1.98h0c0,1.1-.88,1.98-1.98,1.98h0c-1.1,0-1.98-.88-1.98-1.98Z"/><path class="cls-4" d="M141.61,37.55c0-1.1,.9-1.98,1.99-1.98h0c1.08,0,1.98,.88,1.98,1.98h0c0,1.08-.9,1.98-1.98,1.98h0c-1.1,0-1.99-.9-1.99-1.98Z"/><path class="cls-4" d="M135.01,80.65c0-1.08,.88-1.98,1.98-1.98h0c1.1,0,1.98,.9,1.98,1.98h0c0,1.1-.89,1.98-1.98,1.98h0c-1.1,0-1.98-.89-1.98-1.98Z"/><path class="cls-7" d="M42.63,14.25H21.48c-1.09,0-1.98-.89-1.98-1.98s.89-1.98,1.98-1.98h21.15c1.09,0,1.98,.89,1.98,1.98s-.89,1.98-1.98,1.98Z"/><path class="cls-5" d="M11.85,24.16C5.32,24.16,0,18.84,0,12.31S5.32,.46,11.85,.46s11.85,5.32,11.85,11.85-5.32,11.85-11.85,11.85Z"/><path class="cls-1" d="M11.85,3.74C7.13,3.74,3.29,7.59,3.29,12.31s3.84,8.56,8.56,8.56,8.56-3.84,8.56-8.56S16.57,3.74,11.85,3.74Z"/><g class="cls-13"><path class="cls-1" d="M11.84,5.96c-3.5,0-6.35,2.85-6.35,6.35s2.85,6.36,6.35,6.36,6.36-2.85,6.36-6.36-2.85-6.35-6.36-6.35Z"/></g><g><rect class="cls-1" x="46.7" y="22.36" width="71.57" height="14.35"/><rect class="cls-3" x="46.7" y="36.69" width="71.57" height="52.89"/><g><path class="cls-4" d="M53.87,32.03c-.33,0-.66-.07-.96-.18-.3-.13-.56-.32-.8-.55-.48-.47-.73-1.1-.73-1.76,0-.17,.02-.33,.05-.48,.03-.17,.08-.31,.13-.46,.07-.15,.15-.3,.23-.43,.1-.15,.2-.26,.32-.38,.56-.58,1.43-.83,2.24-.68,.17,.03,.32,.08,.47,.15,.15,.05,.3,.13,.43,.22,.13,.1,.27,.2,.38,.32,.12,.12,.22,.23,.31,.38,.08,.13,.17,.28,.22,.43,.07,.15,.12,.3,.15,.46,.03,.15,.05,.32,.05,.48,0,.33-.07,.65-.2,.95-.12,.32-.3,.58-.53,.81-.23,.23-.52,.42-.81,.55-.3,.12-.62,.18-.95,.18Z"/><path class="cls-4" d="M62.73,29.53c0-1.38,1.11-2.49,2.49-2.49h0c1.38,0,2.49,1.11,2.49,2.49h0c0,1.38-1.11,2.49-2.49,2.49h0c-1.38,0-2.49-1.11-2.49-2.49Z"/><path class="cls-4" d="M76.58,32.03c-.33,0-.65-.07-.95-.18-.3-.13-.56-.32-.81-.55-.47-.47-.73-1.1-.73-1.76,0-.17,.02-.33,.05-.48,.03-.17,.08-.31,.15-.46,.07-.15,.13-.3,.23-.43,.08-.13,.2-.26,.3-.38,.93-.93,2.59-.93,3.54,0,.1,.12,.22,.25,.3,.38,.1,.13,.17,.28,.23,.43,.07,.15,.12,.3,.13,.46,.03,.15,.05,.32,.05,.48,0,.67-.25,1.3-.71,1.76-.48,.47-1.11,.73-1.78,.73Z"/></g><path class="cls-7" d="M98.38,60.64h-2.56c-.35-1.89-1.09-3.65-2.14-5.18l1.81-1.81c.97-.97,.97-2.55,0-3.53-.97-.97-2.55-.97-3.53,0l-1.81,1.81c-1.53-1.05-3.29-1.8-5.18-2.15v-2.55c0-1.38-1.12-2.49-2.49-2.49s-2.49,1.12-2.49,2.49v2.55c-1.89,.35-3.65,1.09-5.18,2.15l-1.8-1.8c-.97-.97-2.55-.97-3.53,0s-.97,2.55,0,3.53l1.81,1.81c-1.05,1.53-1.79,3.29-2.14,5.18h-2.56c-1.38,0-2.49,1.12-2.49,2.49s1.12,2.49,2.49,2.49h2.57c.35,1.89,1.1,3.64,2.15,5.17l-1.82,1.82c-.97,.97-.97,2.55,0,3.53,.49,.49,1.12,.73,1.76,.73s1.28-.24,1.76-.73l1.82-1.82c1.53,1.05,3.28,1.78,5.16,2.14v2.58c0,1.38,1.12,2.49,2.49,2.49s2.49-1.12,2.49-2.49v-2.58c1.89-.35,3.64-1.09,5.16-2.14l1.82,1.82c.49,.49,1.12,.73,1.76,.73s1.28-.24,1.76-.73c.97-.97,.97-2.55,0-3.53l-1.82-1.82c1.05-1.53,1.79-3.28,2.15-5.16h2.57c1.38,0,2.49-1.12,2.49-2.49s-1.12-2.49-2.49-2.49Zm-15.9,11.06c-4.71,0-8.53-3.81-8.58-8.51,0-.02,0-.04,0-.06,0-.03,0-.05,0-.08,.02-2.31,.95-4.41,2.46-5.95,.02-.02,.04-.02,.06-.04,.02-.02,.02-.04,.04-.06,1.52-1.5,3.59-2.43,5.88-2.46,.05,0,.09,.01,.14,.01s.09-.01,.14-.01c2.29,.04,4.37,.97,5.89,2.47,.02,.02,.02,.04,.04,.06,.02,.02,.04,.02,.05,.03,1.51,1.54,2.45,3.64,2.47,5.96,0,.02,0,.05,0,.07,0,.02,0,.04,0,.06-.04,4.7-3.87,8.51-8.58,8.51Z"/></g><g><path class="cls-5" d="M146.14,177.39c-.53,0-1.03-.2-1.4-.58-.38-.37-.58-.87-.58-1.4s.21-1.03,.58-1.4c.74-.74,2.06-.74,2.8,0,.37,.37,.58,.88,.58,1.4s-.21,1.03-.58,1.4c-.38,.38-.87,.58-1.4,.58Z"/><path class="cls-5" d="M129.66,175.41c0-1.1,.88-1.98,1.98-1.98h0c1.08,0,1.97,.88,1.97,1.98h0c0,1.1-.88,1.98-1.97,1.98h0c-1.1,0-1.98-.88-1.98-1.98Zm-14.52,0c0-1.1,.88-1.98,1.98-1.98h0c1.1,0,1.98,.88,1.98,1.98h0c0,1.1-.88,1.98-1.98,1.98h0c-1.1,0-1.98-.88-1.98-1.98Zm-14.5,0c0-1.1,.88-1.98,1.98-1.98h0c1.08,0,1.98,.88,1.98,1.98h0c0,1.1-.9,1.98-1.98,1.98h0c-1.1,0-1.98-.88-1.98-1.98Zm-14.52,0c0-1.1,.88-1.98,1.98-1.98h0c1.1,0,1.98,.88,1.98,1.98h0c0,1.1-.88,1.98-1.98,1.98h0c-1.1,0-1.98-.88-1.98-1.98Z"/><path class="cls-5" d="M73.6,177.39c-.26,0-.52-.05-.75-.14-.25-.11-.46-.25-.65-.44-.38-.37-.58-.87-.58-1.4s.21-1.03,.58-1.4c.46-.46,1.14-.67,1.78-.54,.13,.03,.25,.07,.37,.12,.12,.05,.24,.11,.34,.19,.11,.07,.21,.14,.3,.24,.37,.37,.58,.88,.58,1.4,0,.54-.21,1.03-.58,1.4-.37,.38-.87,.58-1.4,.58Z"/><path class="cls-5" d="M71.62,161.7c0-1.1,.88-1.98,1.98-1.98h0c1.1,0,1.98,.88,1.98,1.98h0c0,1.08-.88,1.98-1.98,1.98h0c-1.1,0-1.98-.9-1.98-1.98Z"/><path class="cls-5" d="M73.6,149.95c-.26,0-.52-.05-.75-.15-.25-.11-.46-.25-.65-.44-.38-.37-.58-.87-.58-1.4s.21-1.03,.58-1.4c.46-.46,1.15-.67,1.78-.54,.13,.03,.25,.07,.37,.1,.12,.05,.24,.12,.34,.19,.11,.08,.21,.16,.3,.25,.37,.37,.58,.87,.58,1.4s-.21,1.03-.58,1.4c-.37,.37-.87,.58-1.4,.58Z"/></g><g class="cls-13"><circle class="cls-10" cx="134.98" cy="125.12" r="16.1"/></g><g class="cls-13"><circle class="cls-10" cx="134.98" cy="125.12" r="13.39"/></g><path class="cls-7" d="M134.98,135.77c-5.85,0-10.6-4.76-10.6-10.6s4.76-10.6,10.6-10.6,10.6,4.76,10.6,10.6-4.76,10.6-10.6,10.6Zm0-17.25c-3.66,0-6.64,2.98-6.64,6.64s2.98,6.64,6.64,6.64,6.64-2.98,6.64-6.64-2.98-6.64-6.64-6.64Z"/><path class="cls-5" d="M132.55,125.15c0-1.32,1.1-2.41,2.44-2.41h0c1.32,0,2.41,1.08,2.41,2.41h0c0,1.34-1.08,2.44-2.41,2.44h0c-1.34,0-2.44-1.1-2.44-2.44Z"/><path class="cls-5" d="M167.32,167.75c0-.85,.7-1.54,1.56-1.54h0c.85,0,1.54,.69,1.54,1.54h0c0,.86-.69,1.56-1.54,1.56h0c-.86,0-1.56-.7-1.56-1.56Z"/></g></g></g></svg>