<?xml version="1.0" encoding="UTF-8"?><svg xmlns="http://www.w3.org/2000/svg" viewBox="0 0 185.7 183.32"><defs><style>.cls-1{fill:#f15946;}.cls-2{fill:#fff;}.cls-3{fill:#fae480;}.cls-4,.cls-5{fill:#404d66;}.cls-6{fill:#88cb96;}.cls-7{fill:#4fc6da;}.cls-8{mix-blend-mode:screen;}.cls-8,.cls-9{opacity:.2;}.cls-5{fill-rule:evenodd;}.cls-10{isolation:isolate;}.cls-9{mix-blend-mode:multiply;}</style></defs><g class="cls-10"><g id="Layer_2"><g id="Layer_1-2"><path class="cls-4" d="M172.43,130.86h-25.01c-.62,0-1.2-.3-1.56-.79-.36-.5-.47-1.14-.28-1.73l12.51-38.86c.26-.8,1-1.34,1.84-1.34h0c.84,0,1.58,.54,1.84,1.34l12.51,38.86c.19,.59,.09,1.23-.28,1.73-.36,.5-.94,.79-1.56,.79Zm-22.37-3.86h19.72l-9.86-30.63-9.86,30.63Z"/><path class="cls-4" d="M159.92,130.86c-1.07,0-1.93-.86-1.93-1.93v-38.86c0-1.06,.86-1.93,1.93-1.93s1.93,.86,1.93,1.93v38.86c0,1.06-.86,1.93-1.93,1.93Z"/><path class="cls-7" d="M171.22,13.97h-37.55c-1.13,0-2.05-.86-2.05-1.93s.92-1.93,2.05-1.93h37.55c1.13,0,2.05,.86,2.05,1.93s-.92,1.93-2.05,1.93Z"/><path class="cls-7" d="M172.76,38.46h-20.07c-1.13,0-2.05-.86-2.05-1.93s.92-1.93,2.05-1.93h20.07c1.13,0,2.05,.86,2.05,1.93s-.92,1.93-2.05,1.93Z"/><path class="cls-7" d="M173.51,62.36h-.03l-16.1-.23c-1.13-.02-2.04-.89-2.02-1.96,.02-1.06,.93-1.9,2.05-1.9h.03l16.1,.23c1.13,.02,2.04,.89,2.02,1.96-.02,1.06-.93,1.9-2.05,1.9Z"/><path class="cls-7" d="M61.37,13.97H20.17c-1.13,0-2.04-.86-2.04-1.93s.91-1.93,2.04-1.93H61.37c1.13,0,2.04,.86,2.04,1.93s-.91,1.93-2.04,1.93Z"/><path class="cls-7" d="M40.04,38.46H14.82c-1.13,0-2.04-.86-2.04-1.93s.91-1.93,2.04-1.93h25.22c1.13,0,2.04,.86,2.04,1.93s-.91,1.93-2.04,1.93Z"/><path class="cls-7" d="M14.07,62.36c-1.11,0-2.02-.84-2.04-1.9-.02-1.07,.88-1.94,2.01-1.96l23.65-.34h.03c1.11,0,2.02,.84,2.04,1.9,.02,1.06-.88,1.94-2.01,1.96l-23.65,.34h-.03Z"/><g><path class="cls-5" d="M158.56,58.06C158.56,26,137.89,0,94.36,0,62.3,0,36.08,18.27,36.76,55.41c.02,1.28,.07,2.55,.18,3.81,.34,3.7-.43,7.42-2.17,10.71-1.87,3.54-5.13,9.68-12.9,24.29-2.06,3.88,.11,8.63,5.26,8.78l9.97,.19c.49,9.81,.87,10.9,.49,21.07-.5,13.18,2.72,17.02,14.26,17.04h19.75v24.24c0,2.11,1.99,3.82,4.45,3.82h53.88c2.46,0,4.45-1.71,4.45-3.82v-7.42c0-.12-.03-.22-.04-.34v-20.7c0-16.49,4.78-32.7,14.1-46.3,6.38-9.31,10.12-20.56,10.12-32.71Z"/><g class="cls-9"><path class="cls-4" d="M148.44,90.77c6.38-9.31,10.12-20.56,10.12-32.71C158.56,26.86,138.98,1.42,97.84,.07V169.34h32.09c2.46,0,4.45-1.71,4.45-3.82v-7.42c0-.12-.03-.22-.04-.34v-20.7c0-16.49,4.78-32.7,14.1-46.3Z"/></g></g><path class="cls-3" d="M175.57,22.17c-5.59,0-10.13-4.55-10.13-10.13s4.55-10.13,10.13-10.13,10.13,4.55,10.13,10.13-4.55,10.13-10.13,10.13Z"/><path class="cls-1" d="M175.57,4.72c-4.04,0-7.32,3.29-7.32,7.32s3.29,7.32,7.32,7.32,7.32-3.29,7.32-7.32-3.29-7.32-7.32-7.32Z"/><g class="cls-9"><path class="cls-1" d="M175.56,6.61c-3,0-5.43,2.44-5.43,5.43s2.44,5.44,5.43,5.44,5.44-2.44,5.44-5.44-2.44-5.43-5.44-5.43Z"/></g><path class="cls-3" d="M173.49,12.03c0-1.13,.94-2.06,2.09-2.06h0c1.13,0,2.06,.93,2.06,2.06h0c0,1.15-.93,2.09-2.06,2.09h0c-1.15,0-2.09-.94-2.09-2.09Z"/><path class="cls-3" d="M12.78,23.86C6.27,23.86,.97,18.56,.97,12.05S6.27,.23,12.78,.23s11.81,5.3,11.81,11.81-5.3,11.81-11.81,11.81Z"/><path class="cls-1" d="M12.78,3.51c-4.71,0-8.54,3.83-8.54,8.54s3.83,8.54,8.54,8.54,8.54-3.83,8.54-8.54S17.49,3.51,12.78,3.51Z"/><g class="cls-9"><path class="cls-1" d="M12.77,5.72c-3.49,0-6.33,2.84-6.33,6.33s2.84,6.33,6.33,6.33,6.33-2.84,6.33-6.33-2.84-6.33-6.33-6.33Z"/></g><path class="cls-3" d="M10.36,12.04c0-1.32,1.1-2.4,2.43-2.4h0c1.32,0,2.4,1.08,2.4,2.4h0c0,1.34-1.08,2.43-2.4,2.43h0c-1.34,0-2.43-1.1-2.43-2.43Z"/><path class="cls-3" d="M12.77,44.26c-4.26,0-7.73-3.47-7.73-7.73s3.47-7.73,7.73-7.73,7.73,3.47,7.73,7.73-3.47,7.73-7.73,7.73Z"/><path class="cls-1" d="M12.77,30.94c-3.08,0-5.58,2.51-5.58,5.58s2.51,5.59,5.58,5.59,5.59-2.51,5.59-5.59-2.51-5.58-5.59-5.58Z"/><g class="cls-9"><path class="cls-1" d="M12.77,32.39c-2.29,0-4.14,1.86-4.14,4.14s1.86,4.14,4.14,4.14,4.14-1.86,4.14-4.14-1.86-4.14-4.14-4.14Z"/></g><path class="cls-3" d="M11.19,36.52c0-.86,.72-1.57,1.59-1.57h0c.86,0,1.57,.71,1.57,1.57h0c0,.87-.71,1.59-1.57,1.59h0c-.87,0-1.59-.72-1.59-1.59Z"/><path class="cls-3" d="M14.34,68c-4.26,0-7.73-3.47-7.73-7.73s3.47-7.73,7.73-7.73,7.73,3.47,7.73,7.73-3.47,7.73-7.73,7.73Z"/><path class="cls-1" d="M14.34,54.68c-3.08,0-5.58,2.51-5.58,5.58s2.51,5.59,5.58,5.59,5.59-2.51,5.59-5.59-2.51-5.58-5.59-5.58Z"/><g class="cls-9"><path class="cls-1" d="M14.34,56.13c-2.29,0-4.14,1.86-4.14,4.14s1.86,4.14,4.14,4.14,4.14-1.86,4.14-4.14-1.86-4.14-4.14-4.14Z"/></g><path class="cls-3" d="M12.76,60.26c0-.86,.72-1.57,1.59-1.57h0c.86,0,1.57,.71,1.57,1.57h0c0,.87-.71,1.59-1.57,1.59h0c-.87,0-1.59-.72-1.59-1.59Z"/><path class="cls-3" d="M175.56,46.26c-5.59,0-10.13-4.55-10.13-10.13s4.55-10.13,10.13-10.13,10.13,4.55,10.13,10.13-4.55,10.13-10.13,10.13Z"/><path class="cls-1" d="M175.56,28.8c-4.04,0-7.32,3.29-7.32,7.32s3.29,7.32,7.32,7.32,7.32-3.29,7.32-7.32-3.29-7.32-7.32-7.32Z"/><g class="cls-9"><path class="cls-1" d="M175.56,30.7c-3,0-5.43,2.44-5.43,5.43s2.44,5.44,5.43,5.44,5.44-2.44,5.44-5.44-2.44-5.43-5.44-5.43Z"/></g><path class="cls-3" d="M173.48,36.12c0-1.13,.94-2.06,2.09-2.06h0c1.13,0,2.06,.93,2.06,2.06h0c0,1.15-.93,2.09-2.06,2.09h0c-1.15,0-2.09-.94-2.09-2.09Z"/><path class="cls-3" d="M175.56,70.34c-5.59,0-10.13-4.55-10.13-10.13s4.55-10.13,10.13-10.13,10.13,4.55,10.13,10.13-4.55,10.13-10.13,10.13Z"/><path class="cls-1" d="M175.55,52.88c-4.04,0-7.32,3.29-7.32,7.32s3.29,7.32,7.32,7.32,7.32-3.29,7.32-7.32-3.29-7.32-7.32-7.32Z"/><g class="cls-9"><path class="cls-1" d="M175.55,54.78c-3,0-5.43,2.44-5.43,5.43s2.44,5.44,5.43,5.44,5.44-2.44,5.44-5.44-2.44-5.43-5.44-5.43Z"/></g><path class="cls-3" d="M173.48,60.2c0-1.13,.94-2.06,2.09-2.06h0c1.13,0,2.06,.93,2.06,2.06h0c0,1.15-.93,2.09-2.06,2.09h0c-1.15,0-2.09-.94-2.09-2.09Z"/><path class="cls-7" d="M110.13,97.76c-4.11,0-8.28-.78-12.31-2.45-13.42-5.53-19.83-20.94-14.3-34.36,2.18-5.29,6.3-9.42,11.58-11.62,5.29-2.2,11.11-2.21,16.41-.03,4.33,1.78,7.71,5.15,9.51,9.48,1.8,4.32,1.81,9.09,.02,13.42-1.47,3.56-4.23,6.33-7.79,7.81-3.55,1.48-7.47,1.49-11.03,.02-6.07-2.5-8.98-9.48-6.47-15.56,1.01-2.45,2.91-4.36,5.36-5.38,2.45-1.02,5.14-1.02,7.59-.01,2.05,.85,3.66,2.44,4.51,4.5s.86,4.31,.01,6.37c-.41,.98-1.54,1.46-2.52,1.05-.99-.41-1.45-1.53-1.05-2.52,.94-2.28-.15-4.89-2.42-5.83-1.5-.62-3.15-.62-4.64,0-1.5,.62-2.66,1.79-3.28,3.29-1.69,4.11,.27,8.83,4.38,10.52,2.61,1.07,5.48,1.07,8.08-.01,2.6-1.08,4.63-3.12,5.7-5.72,1.39-3.38,1.39-7.1-.02-10.47-1.4-3.37-4.04-6-7.41-7.39-8.97-3.69-19.26,.59-22.95,9.55-2.29,5.55-2.28,11.65,.03,17.19,2.31,5.54,6.63,9.85,12.17,12.13,7.05,2.91,14.81,2.89,21.86-.04,7.04-2.93,12.52-8.43,15.43-15.48,3.68-8.93,3.67-18.77-.05-27.69-3.71-8.92-10.68-15.86-19.61-19.54-23.31-9.6-50.06,1.54-59.67,24.83-.4,.99-1.53,1.46-2.52,1.05-.99-.41-1.45-1.53-1.05-2.52,5.05-12.24,14.56-21.78,26.78-26.87,12.22-5.08,25.69-5.11,37.93-.06,9.89,4.08,17.59,11.76,21.7,21.63,4.11,9.87,4.13,20.75,.05,30.64-5.15,12.49-17.26,20.06-30.01,20.06Z"/><circle class="cls-6" cx="55.47" cy="66.26" r="14.39" transform="translate(-13.74 14.52) rotate(-13.28)"/><g class="cls-8"><circle class="cls-6" cx="54.13" cy="65.15" r="11.1" transform="translate(-9.74 9.51) rotate(-9.22)"/></g><path class="cls-2" d="M55.85,77.76c-1.06-.11-1.83-1.06-1.72-2.12,.11-1.06,1.06-1.83,2.12-1.72,2.53,.27,4.8-1.57,5.07-4.1,.11-1.06,1.06-1.83,2.12-1.72,1.06,.11,1.83,1.06,1.72,2.12-.49,4.64-4.67,8.02-9.31,7.53Z"/><rect class="cls-1" x="8.64" y="137.58" width="23.76" height="23.76"/><rect class="cls-7" x="1.16" y="114.8" width="22.78" height="22.78"/><g><path class="cls-2" d="M18.98,134.74c-.26,0-.51-.05-.75-.15-.23-.09-.45-.23-.63-.41-.36-.37-.57-.85-.57-1.36,0-.13,.01-.26,.04-.39,.03-.12,.06-.24,.12-.36,.05-.12,.1-.23,.18-.33,.06-.1,.14-.21,.23-.3,.72-.71,2.01-.72,2.74,0,.09,.09,.17,.19,.23,.3,.08,.1,.13,.22,.18,.33,.05,.12,.09,.24,.1,.36,.03,.13,.04,.26,.04,.39,0,.51-.19,.99-.55,1.36-.19,.18-.4,.32-.63,.41-.23,.1-.48,.15-.73,.15Z"/><path class="cls-2" d="M6.12,134.74c-.51,0-1-.21-1.38-.57-.18-.19-.32-.4-.41-.63-.1-.23-.15-.49-.15-.73,0-.13,.03-.26,.04-.39,.03-.12,.06-.24,.12-.36,.05-.12,.1-.23,.18-.33,.06-.1,.14-.21,.23-.3,.09-.08,.19-.17,.3-.23,.1-.08,.22-.13,.34-.18,.12-.05,.24-.09,.36-.12,.63-.12,1.3,.09,1.74,.53,.37,.37,.58,.86,.58,1.38,0,.24-.05,.5-.15,.73-.09,.23-.23,.44-.42,.63-.36,.36-.84,.57-1.35,.57Z"/><path class="cls-2" d="M6.12,121.87c-.26,0-.51-.04-.75-.14-.23-.09-.45-.23-.63-.41-.18-.19-.32-.4-.41-.63-.1-.23-.15-.48-.15-.73,0-.13,.03-.26,.04-.39,.03-.12,.06-.24,.12-.36,.05-.12,.1-.23,.18-.33,.06-.1,.14-.21,.23-.28,.09-.09,.19-.18,.3-.24,.1-.08,.22-.13,.34-.18,.12-.05,.24-.09,.36-.12,.63-.12,1.3,.09,1.74,.54,.37,.36,.58,.85,.58,1.36,0,.26-.05,.5-.15,.73-.09,.23-.23,.44-.42,.63-.36,.36-.84,.55-1.35,.55Z"/><path class="cls-2" d="M18.98,121.88c-.26,0-.51-.05-.75-.15-.23-.09-.45-.23-.63-.41-.36-.37-.57-.85-.57-1.36,0-.13,.01-.26,.04-.39,.03-.12,.06-.24,.12-.36,.05-.12,.1-.23,.18-.33,.06-.1,.14-.21,.23-.3,.72-.71,2.01-.72,2.74,0,.09,.09,.17,.19,.23,.3,.08,.1,.13,.22,.18,.33,.05,.12,.09,.24,.1,.36,.03,.13,.04,.26,.04,.39,0,.51-.19,.99-.55,1.36-.19,.18-.4,.32-.63,.41-.23,.1-.48,.15-.73,.15Z"/></g><rect class="cls-7" x="144.04" y="129.82" width="31.76" height="31.76"/><g class="cls-9"><polygon class="cls-1" points="32.4 161.34 8.64 137.58 32.4 137.58 32.4 161.34"/></g><g class="cls-9"><polygon class="cls-7" points="23.94 137.58 1.16 114.8 23.94 114.8 23.94 137.58"/></g><g class="cls-9"><polygon class="cls-7" points="175.8 161.57 144.04 129.82 175.8 129.82 175.8 161.57"/></g><g><path class="cls-2" d="M169.27,156.97c-.26,0-.5-.05-.74-.14-.23-.1-.44-.24-.62-.42-.18-.18-.32-.39-.42-.62-.09-.23-.14-.49-.14-.75,0-.12,.01-.24,.04-.37,.03-.13,.06-.24,.1-.36,.05-.12,.12-.23,.18-.33,.08-.1,.15-.21,.24-.3,.09-.09,.18-.17,.3-.23,.1-.08,.2-.14,.32-.18,.13-.05,.24-.09,.37-.12,.62-.13,1.29,.08,1.74,.53,.09,.09,.17,.19,.23,.3,.08,.1,.14,.22,.18,.33,.05,.12,.09,.23,.12,.36,.03,.13,.04,.26,.04,.37,0,.26-.05,.51-.15,.75-.09,.23-.23,.44-.41,.62-.18,.18-.4,.32-.63,.42-.23,.09-.48,.14-.73,.14Z"/><path class="cls-2" d="M158,155.04c0-1.07,.86-1.93,1.93-1.93h0c1.05,0,1.93,.86,1.93,1.93h0c0,1.07-.87,1.93-1.93,1.93h0c-1.07,0-1.93-.86-1.93-1.93Z"/><path class="cls-2" d="M150.56,156.97c-.51,0-.99-.19-1.36-.57-.18-.18-.32-.39-.41-.62-.1-.23-.15-.49-.15-.75,0-.12,.01-.24,.04-.37,.03-.13,.06-.24,.12-.36,.05-.12,.1-.23,.17-.33,.08-.1,.15-.21,.24-.3,.72-.72,2.02-.72,2.73,0,.36,.36,.57,.86,.57,1.36s-.19,1-.57,1.36c-.18,.18-.39,.32-.62,.42-.24,.09-.49,.14-.75,.14Z"/><path class="cls-2" d="M148.63,145.69c0-1.07,.86-1.93,1.93-1.93h0c1.07,0,1.93,.86,1.93,1.93h0c0,1.07-.86,1.93-1.93,1.93h0c-1.07,0-1.93-.86-1.93-1.93Z"/><path class="cls-2" d="M150.56,138.27c-.51,0-.99-.21-1.36-.57-.18-.18-.32-.4-.41-.63-.1-.23-.15-.48-.15-.73,0-.51,.21-1.02,.57-1.36,.72-.73,2.02-.73,2.73,0,.36,.35,.57,.85,.57,1.36s-.19,.99-.57,1.36c-.36,.36-.85,.57-1.36,.57Z"/><path class="cls-2" d="M158,136.35c0-1.07,.86-1.93,1.93-1.93h0c1.05,0,1.93,.86,1.93,1.93h0c0,1.05-.87,1.93-1.93,1.93h0c-1.07,0-1.93-.87-1.93-1.93Z"/><path class="cls-2" d="M169.27,138.26c-.51,0-1-.19-1.36-.55-.36-.37-.57-.85-.57-1.36s.21-1.02,.57-1.36c.09-.09,.18-.18,.3-.24,.1-.08,.2-.13,.32-.18,.13-.05,.24-.09,.37-.12,.24-.04,.5-.04,.74,0,.13,.03,.24,.07,.36,.12,.12,.05,.23,.1,.33,.18,.1,.06,.21,.15,.3,.24,.36,.35,.57,.85,.57,1.36s-.2,.99-.57,1.36c-.36,.36-.85,.55-1.36,.55Z"/><path class="cls-2" d="M167.34,145.69c0-1.07,.86-1.93,1.93-1.93h0c1.07,0,1.93,.86,1.93,1.93h0c0,1.07-.86,1.93-1.93,1.93h0c-1.07,0-1.93-.86-1.93-1.93Z"/></g><path class="cls-2" d="M48.34,61.03c0-1.07,.86-1.93,1.94-1.93h0c1.05,0,1.92,.86,1.92,1.93h0c0,1.07-.86,1.93-1.92,1.93h0c-1.08,0-1.94-.86-1.94-1.93Z"/><path class="cls-7" d="M37.26,87.62h-10.29c-1.06,0-1.93-.86-1.93-1.93s.86-1.93,1.93-1.93h10.29c1.07,0,1.93,.86,1.93,1.93s-.86,1.93-1.93,1.93Z"/><path class="cls-7" d="M41.47,97.56H21.68c-1.06,0-1.93-.86-1.93-1.93s.86-1.93,1.93-1.93h19.79c1.06,0,1.93,.86,1.93,1.93s-.86,1.93-1.93,1.93Z"/><path class="cls-7" d="M56.72,106.34h-20.11c-1.06,0-1.93-.86-1.93-1.93s.86-1.93,1.93-1.93h20.11c1.06,0,1.93,.86,1.93,1.93s-.86,1.93-1.93,1.93Z"/><path class="cls-7" d="M50.76,116.73h-13.5c-1.06,0-1.93-.86-1.93-1.93s.86-1.93,1.93-1.93h13.5c1.07,0,1.93,.86,1.93,1.93s-.86,1.93-1.93,1.93Z"/><path class="cls-7" d="M50.76,125.73h-13.5c-1.06,0-1.93-.86-1.93-1.93s.86-1.93,1.93-1.93h13.5c1.07,0,1.93,.86,1.93,1.93s-.86,1.93-1.93,1.93Z"/><path class="cls-7" d="M64.58,134.73h-26.04c-1.06,0-1.93-.86-1.93-1.93s.86-1.93,1.93-1.93h26.04c1.07,0,1.93,.86,1.93,1.93s-.86,1.93-1.93,1.93Z"/><path class="cls-7" d="M87.41,143.67h-17.01c-1.06,0-1.93-.86-1.93-1.93s.86-1.93,1.93-1.93h17.01c1.07,0,1.93,.86,1.93,1.93s-.86,1.93-1.93,1.93Z"/><path class="cls-7" d="M81.11,154.83h-10.61c-1.06,0-1.93-.86-1.93-1.93s.86-1.93,1.93-1.93h10.61c1.07,0,1.93,.86,1.93,1.93s-.86,1.93-1.93,1.93Z"/><g><rect class="cls-3" x=".15" y="160.68" width="183.35" height="22.64"/><g class="cls-9"><rect class="cls-3" y="172" width="183.35" height="11.32"/></g><g class="cls-9"><rect class="cls-3" x="14.01" y="173.74" width="3.95" height="9.58"/></g><g class="cls-9"><rect class="cls-3" x="30.89" y="173.74" width="3.95" height="9.58"/></g><g class="cls-9"><rect class="cls-3" x="47.77" y="173.74" width="3.95" height="9.58"/></g><g class="cls-9"><rect class="cls-3" x="64.64" y="173.74" width="3.95" height="9.58"/></g><g class="cls-9"><rect class="cls-3" x="81.52" y="173.74" width="3.95" height="9.58"/></g><g class="cls-9"><rect class="cls-3" x="98.4" y="173.74" width="3.95" height="9.58"/></g><g class="cls-9"><rect class="cls-3" x="115.28" y="173.74" width="3.95" height="9.58"/></g><g class="cls-9"><rect class="cls-3" x="132.15" y="173.74" width="3.95" height="9.58"/></g><g class="cls-9"><rect class="cls-3" x="149.03" y="173.74" width="3.95" height="9.58"/></g><g class="cls-9"><rect class="cls-3" x="165.91" y="173.74" width="3.95" height="9.58"/></g></g></g></g></g></svg>