<?xml version="1.0" encoding="UTF-8"?><svg id="Layer_2" xmlns="http://www.w3.org/2000/svg" viewBox="0 0 47.39 58"><defs><style>.cls-1{fill:#454545;}</style></defs><g id="Layer_1-2"><path class="cls-1" d="M37.03,58H19.11c-1.28,0-2.31-.94-2.31-2.1v-7.23h-5.74c-2.14,0-3.48-.41-4.35-1.31-.96-.99-1.32-2.56-1.22-5.22,.1-2.52,.05-3.34-.05-4.97-.02-.35-.04-.74-.07-1.19l-2.54-.05c-1.08-.03-1.97-.53-2.46-1.37-.49-.84-.49-1.87-.01-2.77,2.58-4.86,3.67-6.9,4.29-8.08,.51-.96,.73-2.04,.63-3.1-.04-.48-.06-.94-.06-1.33-.1-5.57,1.59-10.29,4.91-13.66C13.67,1.99,19.03,0,25.21,0c16.36,0,22.19,10.41,22.19,20.15,0,4.07-1.21,8-3.51,11.35-2.97,4.34-4.55,9.5-4.55,14.93v6.83c0,.05,.01,.11,.01,.17v2.47c0,1.16-1.04,2.1-2.31,2.1ZM25.21,1.67c-5.72,0-10.66,1.82-13.9,5.12-3.03,3.09-4.52,7.28-4.43,12.47,0,.36,.02,.79,.06,1.21,.13,1.38-.15,2.78-.81,4.03-.62,1.18-1.71,3.22-4.29,8.08-.21,.39-.21,.82-.02,1.15,.19,.34,.57,.53,1.06,.54l3.31,.06c.44,0,.79,.35,.82,.79,.04,.79,.08,1.41,.11,1.95,.1,1.69,.15,2.54,.05,5.14-.08,2.14,.15,3.37,.76,4,.53,.55,1.51,.8,3.16,.8h6.57c.46,0,.83,.37,.83,.83v8.06c0,.21,.27,.44,.65,.44h17.92c.38,0,.65-.23,.65-.44v-2.43s0-.06,0-.07c0-.03,0-.06,0-.08v-6.88c0-5.77,1.67-11.26,4.84-15.87,2.11-3.07,3.22-6.67,3.22-10.41,0-11.4-7.86-18.48-20.52-18.48Z"/><path class="cls-1" d="M26.44,35.59c-1.21,0-2.46-.16-3.72-.47-6.93-1.71-11.77-7.88-11.77-15.01,0-8.54,6.94-15.48,15.48-15.48,.85,0,1.71,.07,2.56,.22,1.47,.25,2.9,.71,4.24,1.37h0c5.35,2.63,8.67,7.95,8.67,13.89,0,6.76-4.33,12.68-10.76,14.74-1.53,.49-3.12,.74-4.72,.74Zm0-29.27c-7.6,0-13.79,6.18-13.79,13.79,0,6.35,4.31,11.85,10.48,13.37,2.61,.64,5.12,.53,7.51-.24,5.73-1.83,9.58-7.11,9.58-13.13,0-5.29-2.96-10.03-7.73-12.37h0c-1.2-.59-2.47-1-3.78-1.22-.76-.13-1.53-.2-2.28-.2Z"/><path class="cls-1" d="M26.24,28.59c-8.26,0-14.79-7.29-15.07-7.6-.28-.32-.28-.8,0-1.12,.27-.31,6.81-7.6,15.07-7.6s14.79,7.29,15.07,7.6c.28,.32,.28,.8,0,1.12-.27,.31-6.81,7.6-15.07,7.6Zm-13.26-8.16c1.67,1.67,7.04,6.47,13.26,6.47s11.58-4.8,13.26-6.47c-1.68-1.67-7.04-6.47-13.26-6.47s-11.59,4.8-13.26,6.47Z"/><path class="cls-1" d="M26.44,28.59c-4.5,0-8.16-3.66-8.16-8.16s3.66-8.16,8.16-8.16,8.16,3.66,8.16,8.16-3.66,8.16-8.16,8.16Zm0-14.63c-3.57,0-6.47,2.9-6.47,6.47s2.9,6.47,6.47,6.47,6.47-2.9,6.47-6.47-2.9-6.47-6.47-6.47Z"/><path class="cls-1" d="M26.24,23.74c-1.82,0-3.31-1.48-3.31-3.31s1.48-3.31,3.31-3.31,3.31,1.48,3.31,3.31-1.48,3.31-3.31,3.31Zm0-4.92c-.89,0-1.61,.72-1.61,1.61s.72,1.61,1.61,1.61,1.61-.72,1.61-1.61-.72-1.61-1.61-1.61Z"/></g></svg>