<?xml version="1.0" encoding="UTF-8"?><svg id="Layer_2" xmlns="http://www.w3.org/2000/svg" viewBox="0 0 39.89 48.81"><defs><style>.cls-1{fill:#454545;}</style></defs><g id="Layer_1-2"><path class="cls-1" d="M31.17,48.81h-15.08c-1.07,0-1.95-.79-1.95-1.77v-6.08h-4.83c-1.8,0-2.93-.34-3.67-1.11-.81-.84-1.11-2.15-1.03-4.39,.08-2.12,.04-2.81-.04-4.19-.02-.29-.04-.62-.06-1l-2.14-.04c-.91-.03-1.66-.45-2.07-1.15-.41-.7-.41-1.58-.01-2.33,2.18-4.09,3.09-5.81,3.61-6.8,.43-.81,.61-1.71,.53-2.61-.04-.4-.05-.79-.05-1.12-.09-4.68,1.34-8.66,4.13-11.5C11.51,1.68,16.02,0,21.21,0c13.77,0,18.67,8.76,18.67,16.96,0,3.43-1.02,6.73-2.96,9.55-2.5,3.65-3.83,7.99-3.83,12.56v5.75s.01,.09,.01,.14v2.08c0,.98-.87,1.77-1.95,1.77ZM21.21,1.4c-4.82,0-8.97,1.53-11.7,4.31-2.55,2.6-3.81,6.13-3.73,10.49,0,.3,.02,.66,.05,1.02,.11,1.17-.13,2.34-.69,3.39-.52,.99-1.44,2.71-3.61,6.8-.17,.33-.18,.69-.02,.97,.16,.28,.48,.44,.89,.46l2.79,.05c.37,0,.67,.3,.69,.67,.03,.67,.06,1.19,.09,1.64,.09,1.42,.13,2.14,.04,4.32-.07,1.8,.13,2.84,.64,3.37,.45,.47,1.27,.67,2.66,.68h5.53c.39,0,.7,.31,.7,.7v6.78c0,.17,.22,.37,.54,.37h15.08c.32,0,.54-.19,.54-.37v-2.05s0-.05,0-.06c0-.02,0-.04,0-.07v-5.79c0-4.85,1.41-9.47,4.07-13.36,1.77-2.59,2.71-5.62,2.71-8.76,0-9.59-6.62-15.55-17.27-15.55Z"/><path class="cls-1" d="M25.66,12.13c-.08,0-.15-.01-.22-.04-2.5-.85-5.33-.85-7.83,0-.22,.08-.47,.03-.66-.11-.19-.15-.29-.38-.26-.61,.27-2.93,2.34-5.14,4.84-5.14s4.57,2.21,4.84,5.14c.02,.24-.08,.47-.26,.61-.13,.1-.28,.15-.43,.15Zm-4.14-4.51c-1.47,0-2.74,1.15-3.24,2.81,2.1-.51,4.37-.51,6.47,0-.5-1.66-1.77-2.81-3.24-2.81Z"/><path class="cls-1" d="M21.53,30.53c-6.56,0-11.9-4.59-11.9-10.24,0-3.11,1.67-6.07,4.48-8.01,0-.1,0-.2,0-.29,0-4.59,3.33-8.32,7.42-8.32,1.72,0,3.39,.68,4.72,1.9,1.72,1.59,2.7,3.93,2.7,6.42,0,.1,0,.2,0,.29,2.82,1.93,4.48,4.9,4.48,8.01,0,4.45-3.31,8.36-8.23,9.73-1.19,.33-2.43,.5-3.67,.5Zm0-25.45c-3.32,0-6.02,3.1-6.02,6.92,0,.2,.01,.4,.03,.6,.02,.26-.1,.51-.32,.64-2.66,1.69-4.18,4.26-4.18,7.05,0,4.87,4.71,8.83,10.5,8.83,1.11,0,2.22-.15,3.29-.45,4.31-1.2,7.21-4.57,7.21-8.38,0-2.79-1.52-5.37-4.18-7.05-.22-.14-.34-.39-.32-.64,.02-.2,.03-.4,.03-.6,0-2.1-.82-4.06-2.25-5.39-1.08-1-2.38-1.53-3.77-1.53Zm4.14,7.06c-.08,0-.15-.01-.22-.04-2.5-.85-5.33-.85-7.83,0-.22,.08-.47,.03-.66-.11-.19-.15-.29-.38-.26-.61,.27-2.93,2.34-5.14,4.84-5.14s4.57,2.21,4.84,5.14c.02,.24-.08,.47-.26,.61-.13,.1-.28,.15-.43,.15Zm-4.14-4.51c-1.47,0-2.74,1.15-3.24,2.81,2.1-.51,4.37-.51,6.47,0-.5-1.66-1.77-2.81-3.24-2.81Z"/><g><path class="cls-1" d="M18.03,20.83s-.09,0-.14-.01c-.04,0-.09-.02-.13-.04-.04-.01-.08-.04-.12-.06-.04-.03-.07-.06-.11-.09-.13-.13-.2-.31-.2-.5s.07-.36,.2-.5c.16-.16,.41-.24,.64-.19,.05,0,.09,.02,.13,.04,.04,.02,.08,.04,.12,.07,.04,.03,.07,.06,.11,.09,.13,.13,.21,.31,.21,.5,0,.05,0,.09-.01,.14,0,.05-.02,.09-.04,.13-.02,.04-.04,.08-.07,.12-.02,.04-.05,.07-.08,.11-.13,.13-.31,.21-.5,.21Z"/><path class="cls-1" d="M21.38,20.13c0-.39,.31-.7,.7-.7h0c.39,0,.7,.31,.7,.7h0c0,.39-.31,.7-.7,.7h0c-.39,0-.7-.31-.7-.7Z"/><path class="cls-1" d="M26.14,20.83c-.18,0-.36-.07-.5-.21s-.21-.31-.21-.5,.07-.36,.21-.5c.03-.03,.07-.06,.11-.09,.04-.02,.07-.05,.12-.07,.04-.01,.08-.03,.13-.04,.22-.05,.47,.03,.63,.19,.13,.13,.21,.31,.21,.5,0,.05,0,.09-.01,.14,0,.05-.02,.09-.04,.13-.01,.04-.04,.08-.06,.12-.03,.04-.06,.07-.09,.11-.13,.13-.31,.21-.5,.21Z"/></g></g></svg>