<?xml version="1.0" encoding="UTF-8"?><svg id="Layer_1" xmlns="http://www.w3.org/2000/svg" xmlns:xlink="http://www.w3.org/1999/xlink" viewBox="0 0 184 194.02"><defs><style>.cls-1{fill:#1069b2;fill-rule:evenodd;}.cls-2{clip-path:url(#clippath);}.cls-3{fill:none;}</style><clipPath id="clippath"><rect class="cls-3" y=".02" width="184" height="194"/></clipPath></defs><g class="cls-2"><path class="cls-1" d="M108.23,89.78l-27.18-15.71,29.96-37.32L41.81,73.39l27.18,15.71-29.96,37.32,69.2-36.63Zm-20.69,60.74c-10.91,1.05-21.24,4.98-27.84,12.89-1.95,2.16-4.05,7.22-6.9,5.57l-43.04-24.69c-3.11-1.78-7.07-.8-8.81,2.21-1.74,3.02-.61,6.95,2.49,8.74l7.72,4.47c-1.82,6.04,1.81,13.51,8.97,17.64,7.15,4.14,15.43,3.55,19.74-1.05l9.87,5.26c2.4,1.28,5.19,1.12,7.19-.39,11.31-8.55,13.85-15.98,32.15-6.66,7.67,4.09,19.01,9.6,29.43,14.38,37.13,17.02,29.57-13.07,33.81-21.15,11.93-2.84,8.44-10.37,8.44-10.37,6.07-2.03,5.56-6.22,5.56-6.22-2.02-11.33,1.11-11.83,1.11-11.83,24.45,4.45,14.35-10.72,14.35-10.72-15.56-25.28-8.19-38.72-8.19-38.72C185.47,39.86,137.93-1.72,86.99,.05c52.3,6.19,77.03,70.53,53.19,111.85-12.54,21.72-29.19,36.35-52.64,38.6v.03Z"/></g></svg>