<?xml version="1.0" encoding="UTF-8"?><svg id="Layer_2" xmlns="http://www.w3.org/2000/svg" xmlns:xlink="http://www.w3.org/1999/xlink" viewBox="0 0 4000 4500"><defs><style>.cls-1{fill:none;}.cls-2{fill:url(#_ÂÁ_Ï_ÌÌ_È_ËÂÌÚ_112-2);}.cls-3{fill:#1b1a30;opacity:.12;}.cls-4{fill:url(#_ÂÁ_Ï_ÌÌ_È_ËÂÌÚ_29);}.cls-5{fill:url(#_ÂÁ_Ï_ÌÌ_È_ËÂÌÚ_45);}.cls-6{fill:url(#_ÂÁ_Ï_ÌÌ_È_ËÂÌÚ_10);}.cls-7{fill:#fb7552;}.cls-8{fill:#003853;}.cls-9{fill:#e5d2b4;}.cls-10{fill:#9e6d70;}.cls-11{fill:#735b69;}.cls-12{fill:#1c4ed8;}.cls-13{fill:#724559;}.cls-14{fill:url(#_ÂÁ_Ï_ÌÌ_È_ËÂÌÚ_29-2);}.cls-15{fill:#fff;opacity:.2;}.cls-16{opacity:.4;}.cls-17{fill:url(#_ÂÁ_Ï_ÌÌ_È_ËÂÌÚ_112);}.cls-18{fill:#0a111b;opacity:.3;}</style><linearGradient id="_ÂÁ_Ï_ÌÌ_È_ËÂÌÚ_10" x1="1989.68" y1="1929.55" x2="1989.68" y2="1472.3" gradientUnits="userSpaceOnUse"><stop offset=".05" stop-color="#fca878"/><stop offset=".33" stop-color="#f99d68"/><stop offset=".67" stop-color="#f7955c"/><stop offset="1" stop-color="#f79358"/></linearGradient><linearGradient id="_ÂÁ_Ï_ÌÌ_È_ËÂÌÚ_45" x1="2043.07" y1="1310.56" x2="2060.53" y2="692.15" gradientTransform="translate(100.03 127.31) rotate(.12) scale(.91 .93) skewX(.24)" gradientUnits="userSpaceOnUse"><stop offset="0" stop-color="#fcb482"/><stop offset=".52" stop-color="#f9a86a"/><stop offset="1" stop-color="#f7a05a"/></linearGradient><linearGradient id="_ÂÁ_Ï_ÌÌ_È_ËÂÌÚ_112" x1="546.25" y1="2882.65" x2="1118.05" y2="2882.65" gradientTransform="translate(-546.11 287.61) rotate(-14.69) scale(.89 1)" gradientUnits="userSpaceOnUse"><stop offset=".47" stop-color="#fca878"/><stop offset=".61" stop-color="#f99d68"/><stop offset=".79" stop-color="#f7955c"/><stop offset=".97" stop-color="#f79358"/></linearGradient><linearGradient id="_ÂÁ_Ï_ÌÌ_È_ËÂÌÚ_112-2" x1="2962.96" y1="2867.63" x2="3504.32" y2="2867.63" gradientTransform="translate(419.82 -75.39) rotate(1.4) scale(.88 1)" xlink:href="#_ÂÁ_Ï_ÌÌ_È_ËÂÌÚ_112"/><linearGradient id="_ÂÁ_Ï_ÌÌ_È_ËÂÌÚ_29" x1="1664.49" y1="3175.54" x2="2586.99" y2="3175.54" gradientUnits="userSpaceOnUse"><stop offset="0" stop-color="#f79358"/><stop offset=".14" stop-color="#f99d67"/><stop offset=".32" stop-color="#fba573"/><stop offset=".49" stop-color="#fca878"/><stop offset=".63" stop-color="#f99e69"/><stop offset=".82" stop-color="#f7955c"/><stop offset="1" stop-color="#f79358"/></linearGradient><linearGradient id="_ÂÁ_Ï_ÌÌ_È_ËÂÌÚ_29-2" x1="1330.01" y1="3070.34" x2="1939.89" y2="3070.34" gradientTransform="translate(398.69 -181.85) rotate(7.48)" xlink:href="#_ÂÁ_Ï_ÌÌ_È_ËÂÌÚ_29"/></defs><rect class="cls-1" width="4000" height="4500"/><g class="cls-16"><path class="cls-9" d="M497.06,3629.66c-186.7-161.88-190.25-655.91-190.25-1175.41,0-1131.36,548.69-2048.52,1723.22-2048.52s1723.22,917.15,1723.22,2048.52c0,519.5-70.18,1180.05-402.4,1302.27-344.83,126.86-2466.36,209.06-2853.79-126.86Z"/></g><ellipse class="cls-3" cx="2040.04" cy="3248.76" rx="1284.82" ry="335.68"/><g><path class="cls-8" d="M1893.42,2721.79c440.01-5.43,1210.06,64.28,1304,222.49,93.94,158.22-44.93,268.76-272.33,349.76-227.7,81.1-807.34,64.21-979.2-11.35-159.08,43.67-720.78,129.88-995.27,39.42-237.46-78.25-291.75-167.36-202.75-318.16,68.56-116.16,745.06-277.22,1145.55-282.16Z"/><path class="cls-18" d="M1515.48,3068.53s-219.54-98.37-451.86-39.31c-30.07,7.64,114.57-71.06,232.32-59.06,117.75,12,219.54,98.37,219.54,98.37Z"/><path class="cls-18" d="M2680.02,2950.06c-59.97,1.05-213.2,33.74-213.2,33.74,0,0-516.68,65.36-839.06,49.38,124.37,51.98,276.54,128.92,650.07,30.26-19.12,5.78-30.44,9.25-30.44,9.25,0,0,13.65-3.89,37.44-10.1,128.12-15.82,359.7-102.18,626.31-79.66,30.44,2.57-115.48-54.66-231.12-32.87Z"/><g><path class="cls-8" d="M2006.32,925.98c-73.48-4.52-349.25,110.29-430.12,352.92-80.88,242.63-286.76,1092.49-231.62,1224.84,55.14,132.35,1179.18,102.27,1239.84,17.71,60.66-84.55-39.52-851.03-199.44-1044.03-159.92-193-130.51-279.4-187.49-391.52-56.98-112.13-71.69-152.57-191.17-159.92Z"/><g><g><path class="cls-8" d="M1610.76,1818.94c39.98-39.98,139.23-146.12,133.72-249.51-5.51-103.39-53.76-154.4-60.66-209.54-6.89-55.14-4.14-136.47,38.6-191.62,42.73-55.14,181.97-235.73,343.26-219.19,161.29,16.54,97.88,326.71,85.47,369.45-12.41,42.73-38.6,100.63,28.95,169.56,67.55,68.93,147.5,126.83,90.98,256.41-56.52,129.58-201.27,231.59-328.09,226.08-126.83-5.51-332.23-151.64-332.23-151.64Z"/><path class="cls-10" d="M1612.88,1821.06c34.28-34.31,66.22-71.53,91.6-112.97,15.17-24.77,28.09-51.28,35.87-79.34,8.11-29.25,8.48-58.34,4.35-88.29-3.92-28.47-11.8-56.09-22.31-82.8-8.42-21.39-18.62-42.07-26.56-63.64-7.87-21.37-10.7-43.05-11.6-65.74-1.17-29.34,.9-59.02,7.95-87.59,6.77-27.43,18.46-52.41,35.79-74.73,9.94-12.8,20.03-25.49,30.46-37.9,30.14-35.86,62.89-69.78,99.43-99.18,40.61-32.68,87.03-60.54,138.29-72.26,38.96-8.91,86.68-10.9,119.94,15,26.46,20.61,39.63,53.6,46.69,85.42,8.22,37.07,9.14,75.64,7.32,113.44-1.64,34.14-5.76,68.18-11.86,101.81-2.05,11.33-4.32,22.62-6.98,33.82-2.86,12.02-6.8,23.71-10.25,35.57-6.21,21.4-10.27,43.56-7.35,65.87,3.79,29.02,18.79,54.69,38.18,76.13,33.52,37.06,74.7,68.01,98.54,112.95,11.6,21.87,17.55,46.09,16.81,70.87-.94,31.33-11.52,61.74-25.27,89.62-26.16,53.05-65.76,99.26-112.34,135.49-45.06,35.04-98.21,61.79-154.77,71.52-24.34,4.19-49.36,4.99-73.8,1.22-23-3.55-45.49-10.15-67.37-17.99-47.16-16.89-92.15-39.75-135.63-64.48-31.52-17.93-62.39-37.07-92.43-57.39-4.45-3.01-8.91-6.04-13.29-9.15-3.15-2.24-6.15,2.96-3.03,5.18,17.44,12.4,35.48,24.02,53.61,35.38,40,25.08,81.17,48.48,123.82,68.76,43.57,20.72,89.87,39.81,138.01,46.23,52.48,7.01,106.14-6.11,153.56-28.35,53.67-25.17,101.68-63.06,139.64-108.5,19.03-22.78,35.68-47.61,48.87-74.22,13.6-27.44,24.16-57.05,26.16-87.82,1.6-24.6-3.04-49-13.38-71.36-10.09-21.83-25.03-41.06-41.12-58.77-16.92-18.63-35.34-35.82-53.03-53.69-22.15-22.38-40.86-48.74-45.58-80.56-5.32-35.82,9.57-68.23,17.55-102.26,6.42-27.39,10.93-55.27,14.26-83.19,4.53-37.93,6.68-76.36,4.19-114.52-2.34-35.84-8.48-73.06-25.77-105-15.69-28.99-41.58-50.21-74.4-56.18-50.25-9.14-103.08,5.37-147.71,28.15-46.01,23.48-86.71,56.72-123.2,93.01-28.42,28.26-54.34,58.84-78.94,90.44-15.99,20.55-28.25,42.35-35.9,67.36-8.65,28.28-11.99,58.13-11.95,87.63,.04,23.6,1.34,47.98,8.39,70.64,6.63,21.33,16.59,41.5,25.21,62.06,22.61,53.98,39,115.68,24.72,173.93-13.87,56.59-48.47,107.06-85.73,150.89-13.31,15.66-27.36,30.68-41.88,45.22-2.73,2.73,1.51,6.98,4.24,4.24Z"/></g><g><path class="cls-8" d="M1737.59,1787.24c35.84-48.25,99.25-141.99,84.09-217.81-15.16-75.82-57.9-90.98-51.01-154.4,6.89-63.41,26.19-194.37,162.67-197.13,136.48-2.76,175.07,133.72,158.53,227.46-16.54,93.74,37.22,107.53,64.79,159.91,27.57,52.38,11.03,128.2-26.19,194.37-37.22,66.17-197.13,90.98-296.39,74.44-99.25-16.54-96.5-86.85-96.5-86.85Z"/><path class="cls-11" d="M1740.18,1788.75c20.95-28.24,40.6-57.61,56.49-89.02,16.7-32.99,30.53-69.61,30.3-107.08-.22-35.82-15.43-69.11-32.64-99.72-6.89-12.26-13.86-24.61-17.76-38.22-4.21-14.66-4.07-29.46-2.36-44.49,5.28-46.46,15.27-95.04,43.58-133.41,16.41-22.24,39.09-39.06,65.36-47.77,31.57-10.47,67.85-11.28,99.82-2.08,27.77,7.98,52.01,24.68,69.77,47.43,17.14,21.96,27.97,48.4,33.97,75.46,5.99,27.02,7.31,55.18,4.05,82.66-2.04,17.22-5.62,33.95-4.86,51.42,.63,14.42,3.68,28.58,9.71,41.73,10.67,23.25,29.97,40.44,45.19,60.52,9.36,12.34,16.98,25.8,21.33,40.74,5.52,18.93,6.27,38.95,4.28,58.48-2.23,21.81-7.96,43.24-15.62,63.75-4.02,10.76-8.63,21.3-13.73,31.59-3.93,7.94-7.88,16.11-12.97,23.38-15.92,22.73-43.17,36.46-68.43,46.04-32.06,12.17-66.17,19.07-100.19,22.8-34.14,3.74-68.87,4.39-103.04,.64-31.42-3.45-64.76-11.26-88.09-34.05-12.24-11.96-20.81-27.72-23.24-44.73-.34-2.38-.62-5.07-.53-7.58,.14-3.86-5.86-3.86-6,0-.37,10.23,2.91,21.01,7.02,30.22,10.05,22.52,29.87,38.71,52.19,48.29,31.92,13.69,68.62,16.11,102.97,16.29,36.06,.19,72.31-3.34,107.59-10.84,31.54-6.71,63.54-16.57,91.12-33.65,11.16-6.91,21.76-15.2,30.06-25.45,11.56-14.28,19.17-32.36,26.21-49.17,16.09-38.45,26.6-81.89,19.39-123.62-2.94-17.03-9.4-33.02-18.94-47.41-7.3-11.02-16.04-20.97-24.67-30.95-8.37-9.68-16.6-19.54-22.89-30.75-7.2-12.84-11.32-27.07-12.47-41.73-1.44-18.32,2.04-35.89,4.34-53.95,1.75-13.78,2.3-27.71,1.74-41.59-2.26-55.74-22.4-114.83-68.4-149.39-25.19-18.93-56.22-27.81-87.48-28.61-32.2-.83-65.25,5.76-92.57,23.43-44.7,28.92-65.73,80.8-75.53,131.11-2.11,10.85-3.75,21.78-5.12,32.74-1.7,13.61-3.12,27.16-1.19,40.84,4.26,30.13,23.86,54.56,36.19,81.6,8.3,18.2,14.77,38.31,16.39,58.33,1.56,19.22-1.35,38.51-6.48,57.01-10.53,37.99-29.92,73.25-51.35,106.1-8.81,13.51-18.13,26.67-27.74,39.62-2.3,3.1,2.9,6.1,5.18,3.03Z"/></g><path class="cls-6" d="M1899.53,1484.72c10.86,23.28,24.83,102.43,7.76,158.3-17.07,55.87-176.92,110.19-228.14,147.44-51.21,37.25-70.96,103.98-92.69,128.81-21.73,24.83,806.85-3.1,806.85-3.1,0,0-65.44-114.85-113.55-139.68-48.11-24.83-212.62-97.77-228.14-141.23-15.52-43.46-6.21-162.96-6.21-162.96l-145.89,12.42Z"/><path class="cls-5" d="M2184.83,1213.98c16.38,171.52-100.04,322.06-202.22,331.82-102.18,9.76-215.94-118.52-232.32-290.04-16.38-171.52,97.02-274.96,199.2-284.72,102.18-9.76,218.96,71.42,235.34,242.94Z"/><path class="cls-7" d="M1998.78,1414.51c-12.05,1.39-14.38,14.24-18.75,14.28-4.38,.05-6.95-12.77-19.08-13.92-13.66-1.26-16.53,22.33-31.39,22.86,11.09,9.51,20.8,36.89,50.89,36.6,30.07-.28,39.27-27.84,50.18-37.56-14.88-.24-18.2-23.78-31.86-22.26Z"/><g><path class="cls-8" d="M1945.49,1047.95c-125.1,106.33-187.51,144.34-245.42,193.97-57.91,49.63-101.2,122.44-118.57,197.67-46.88,203.04,97.65,350.86-17.19,479.67-64.01,71.79-244.84,580.45-310.63,595.56-168.52,38.71-367.06-96.41-367.06-446.61,0-184.83,179.24-322.63,228.87-430.17,49.63-107.54-66.18-314.35,35.85-496.35,102.03-181.99,328.14-159.93,427.41-179.24,99.27-19.3,206.81-159.93,319.87-176.48,113.06-16.54,135.12,52.39,193.02,52.39s209.57-13.74,325.38,88.28c115.81,102.03,37.72,297.76,103.9,391.52s317.99,126.84,403.47,284.02c85.48,157.18-16.54,289.54-30.33,405.35-13.79,115.81,113.06,139.71,77.21,288.61-35.85,148.9-253.69,183.82-341.93,167.28-88.24-16.54-226.11-477.95-190.27-560.67,35.85-82.72,38.6-212.33-71.69-333.66-110.3-121.33-176.48-148.9-187.51-256.45-11.03-107.54-7.14-131.18-49.63-201.3-55.15-91-129.6-110.3-184.75-63.42Z"/><path class="cls-13" d="M1943.37,1045.83c-64.04,54.37-130.88,104.73-197.61,155.67-25.92,19.79-51.98,39.89-74.34,63.73-32.65,34.79-58.36,76.04-76.05,120.3-34.09,85.31-29.97,174.86-12.24,263.28,14.2,70.84,40.22,150.6,9.9,220.79-10.43,24.15-28.54,41.86-42.66,63.45-10.75,16.43-19.85,33.96-28.7,51.47-26.47,52.38-50.01,106.25-73.74,159.9-26.83,60.66-53.34,121.48-81.33,181.62-22.53,48.43-45.31,97.53-73.99,142.7-8.39,13.22-17.47,27.57-29.74,37.6-4.8,3.92-9.21,5.49-15.24,6.74-13.12,2.73-26.46,4.38-39.85,4.94-53.69,2.25-106.73-13.52-151.37-43.22-130.88-87.08-169.06-263.85-166.76-411.04,1.33-85.46,42.27-162.92,90.46-231.19,23.16-32.81,48.37-64.07,73.01-95.75,20.29-26.08,40.79-52.47,56.87-81.43,34.94-62.9,19.29-137.87,10.66-205.66-12.12-95.15-19.55-194.43,21.81-284.05,34.44-74.62,96.44-128.14,173.06-156.31,62.89-23.12,129.76-29.85,196.03-35.82,25.25-2.28,51.38-3.68,76.03-10.01,37.09-9.52,70.22-31.77,101.04-53.67,67.81-48.18,136.91-114.59,223.66-122.51,37.74-3.45,72.65,4.17,105.34,23.12,20.71,12.01,40.76,27.45,65.24,30.37,25.81,3.07,53.01-.51,79,.21,39.02,1.09,78.02,5.6,115.78,15.74,45.91,12.33,89.54,33.12,126.63,63.04,32.19,25.96,54.02,58.98,65.64,98.67,21.54,73.54,10.68,151.11,21.81,226.07,4.36,29.34,12.89,58.92,32.01,82.21,16.84,20.51,39.68,35.73,62.41,48.95,61.15,35.56,127.84,60.52,189.52,95.17,69.09,38.81,131.4,89.27,161.19,164.92,18.33,46.57,22.06,96.66,14.41,145.9-6.71,43.16-20.9,84.58-34.54,125.92-11.99,36.31-25.48,74.45-26.64,113.06-.87,29.32,8.55,56.55,23.25,81.58,14.41,24.53,32.29,46.94,44.75,72.62,16.02,33,19.84,69.08,13.51,105.09-6.37,36.24-22.21,68.72-47.94,95.16-23.47,24.11-52.67,42.06-83.38,55.44-57.16,24.9-122.9,37.08-185.21,32.97-18.44-1.22-33.53-3.22-47.45-15.96-15.05-13.78-26.46-31.49-36.73-48.95-30.59-52-52.57-109.29-71.95-166.24-20.72-60.87-38.12-123.13-50.4-186.27-5.16-26.54-9.49-53.34-11.4-80.32-1.26-17.75-2.24-36.74,2.18-54.16,2.91-11.49,8.59-22.24,12.14-33.58,4.95-15.78,8.4-32.01,10.49-48.41,4.98-39.22,1.69-79.31-9.01-117.34-27.45-97.52-101.48-166.61-171.73-235.13-25.95-25.3-52.94-50.93-71.85-82.16-20.8-34.37-25.56-71.63-29.26-110.92-3.22-34.17-4.83-69.36-14.08-102.6-9.51-34.2-27.99-67.25-49.22-95.45-21.92-29.11-51.67-56.11-88.4-63.71-31.06-6.42-61,3.49-85.01,23.47-2.97,2.47,1.29,6.7,4.24,4.24,29.92-24.9,68.28-30.53,103.59-13.57,41.32,19.85,68.9,60.35,89.76,99.67,15.46,29.15,23.68,59.45,27.59,92.09,4.86,40.62,4.34,83.09,15.29,122.69,20.14,72.85,85.56,121.87,136.53,173.16,39.23,39.47,77.43,80.13,103.12,130.01,20.66,40.1,33.06,84.43,34.58,129.59,1.23,36.69-4.56,73.62-17.68,107.94-6.59,17.24-10.06,32.19-10.13,50.83-.19,53.51,11.83,107.68,24.38,159.4,15.78,65.05,35.76,129.28,60.25,191.59,19.16,48.75,40.42,99.81,73.04,141.32,9.31,11.84,20.68,24.65,35.22,30,20.46,7.51,46.84,5.96,68.19,5.08,64.62-2.66,131.48-18.86,187.31-52.18,27.79-16.59,52.95-38.14,71.07-65.13,20.2-30.09,30.09-66.5,30.91-102.58,.73-32.25-8.26-62.78-24.01-90.73-14.17-25.16-32.63-47.74-45.56-73.62-35.01-70.08,2.72-147.67,24.42-216.07,13.46-42.43,24.67-86.04,25.62-130.79,1.05-49.11-11.41-97.42-35.34-140.28-73.02-130.76-233.26-161.68-350.79-236.57-23.47-14.95-45.86-32.85-59.18-57.8-16.36-30.65-20.09-66.79-22.17-100.91-4.55-74.38,1.88-154.48-32.21-223.25-38.12-76.92-128.39-119.08-208.81-135.18-35.7-7.15-72.12-9.84-108.48-10.01-24.72-.12-52.98,4.72-76.69-3.74-25.17-8.99-45.99-27.36-70.59-37.81-35.09-14.9-75.13-16.1-112.05-7.68-39.84,9.09-75.93,30.87-109.28,53.72-36.23,24.82-70.35,52.59-106.78,77.11-30.56,20.57-62.85,38.83-99.64,44.77-27.13,4.38-54.69,6.07-82.03,8.63-67.41,6.33-135.56,16-197.88,43.87-74.4,33.27-131.12,92.96-160.4,169.15-34.06,88.61-24.79,183.94-12.98,275.88,5.06,39.37,11.12,79.3,9.44,119.11-1.43,33.96-12.1,62.35-30.12,90.84-40.85,64.61-94.16,120.47-136.2,184.36-22.61,34.36-42.59,70.73-56.35,109.59-14.66,41.39-19.75,83.37-18.7,127.11,2.04,84.88,15.98,171.23,52.27,248.6,49.56,105.64,148.21,190.04,269.87,185.81,12.73-.44,25.44-1.86,37.97-4.19,6.94-1.29,13.43-2.37,19.32-6.38,11.86-8.06,20.66-21.01,28.57-32.69,29.33-43.33,51.71-91.71,73.91-138.93,54.02-114.87,100.82-233.19,157.32-346.88,9.32-18.75,18.9-37.5,30.07-55.24,13.18-20.93,30.96-37.98,41.95-60.48,32.43-66.37,12.76-141.77-1.67-210.14-9.01-42.68-17.1-85.68-18.44-129.4-1.49-48.69,5.61-97.32,22.48-143.1,17.67-47.95,45.16-92.68,80.49-129.65,23.32-24.4,50.53-44.98,77.36-65.32,65.12-49.36,129.95-98.71,192.28-151.63,2.95-2.5-1.31-6.73-4.24-4.24Z"/></g><path class="cls-10" d="M1251.13,2412.75c-68.94-57.59-130.58-126.62-166.69-209.74-27.45-63.17-37.7-132.37-30.49-200.81,6.47-61.36,26.23-120.76,52.93-176.15,23.04-47.8,51.31-92.84,81.74-136.24,21.26-30.32,40.79-60.34,50.16-96.68,9.22-35.79,8.59-72.77,5.8-109.34-2.81-36.98-7.11-74.05-3.66-111.15,4.2-45.17,21.08-86.92,46.83-124.08,44.01-63.52,107.88-106.18,181-129.28,28.59-9.03,57.91-15.29,87.28-21.16,23.25-4.64,48.31-7.89,70.27-17.21,25.61-10.88,46.49-31.61,65.36-51.47,23.65-24.89,45.42-51.47,69.12-76.31,22.48-23.57,47-46.75,76.49-61.28,33.72-16.61,75.2-16.62,111.51-9.87,29.89,5.55,56.53,18.74,84.31,30.37,12.16,5.09,24.64,9.47,37.7,11.53,15.81,2.5,31.92,2.8,47.89,3.13,38.62,.8,78.23,.45,115.57,11.74,26.32,7.96,47.88,23.29,67.39,42.2,28.79,27.89,43.33,63.66,51.6,102.37,7.08,33.12,10.37,67,12.71,100.74,1.61,23.16,2.64,46.35,3.37,69.55,.6,18.91,.8,37.71,3.91,56.42,9.22,55.5,40.7,101.06,85.35,134.32,44.2,32.92,95.94,53.69,145.68,76.55,45.1,20.73,93.78,43.57,125.28,83.43,27.4,34.66,44.89,79.45,51.38,122.93,6.2,41.54,1.73,83.9-9.49,124.2-4.89,17.58-11.01,34.8-17.92,51.68-6.88,16.83-15.53,33.06-21.36,50.29-14.64,43.27-11.46,89.4-4.98,133.86,11.3,77.56,36.81,167.41-6.88,239.91-6.94,11.52-17.54,26.79-31,31.48-3.62,1.26-2.07,7.06,1.6,5.79,13.98-4.87,24.92-19.09,32.58-31,16.33-25.41,23.83-55.76,26.31-85.58,7.95-95.63-42.15-192.1-13.8-286.71,5.57-18.6,14.81-35.88,22.23-53.78,6.95-16.76,13.15-33.85,18.15-51.29,11.26-39.25,16.32-80.49,11.58-121.19-5.29-45.34-22.3-90.11-48.63-127.47-13.88-19.69-32.26-35.61-52.13-49.03-45.36-30.61-97.47-49.67-146.54-73.29-49.22-23.69-99.23-52.42-130.76-98.47-16.9-24.69-27.24-53.06-31.55-82.6-3.1-21.3-2.69-42.95-3.5-64.42-.84-22.32-1.99-44.64-3.73-66.92-4.11-52.68-9.23-110.64-35.47-157.75-20.5-36.8-57.76-68.74-97.76-81.36-37.4-11.8-77.36-11.78-116.17-12.53-16.65-.32-33.59-.39-50.06-3.09-13.52-2.22-26.43-6.91-38.98-12.28-28.28-12.09-55.62-25.11-86.26-30.21-35.17-5.86-74.59-5.85-107.6,9.03-29.59,13.34-54.46,35.84-76.91,58.82-24.52,25.1-46.78,52.27-70.74,77.89-19.56,20.92-41.32,43.75-68.4,54.7-22.88,9.25-48.78,12.48-72.85,17.31-64.62,12.96-128.77,30.42-183.72,68.3-68.02,46.89-120.89,121.55-130.58,204.66-8.84,75.81,16.95,152.5-3.16,227.45-5.82,21.7-15.11,42.27-27,61.32-7.73,12.39-16.61,24.06-24.95,36.04-14.65,21.03-28.77,42.43-42,64.37-30.49,50.55-56.49,104.23-73.25,160.95-18.25,61.77-24.78,126.91-14.91,190.76,11.8,76.32,46.94,146.59,94.56,206.82,30.06,38.01,64.83,72.03,101.98,103.07,2.94,2.46,7.21-1.76,4.24-4.24h0Z"/><path class="cls-11" d="M1423.08,2035.3c-62.87-35.18-92-110.34-91.61-179.43,.34-60.1,19.81-119.03,43.64-173.6,9-20.6,19.19-40.63,30.07-60.3,8.46-15.29,17.37-30.36,25.06-46.07,15.78-32.21,22.09-66.01,21.08-101.81-.76-26.78-4.58-53.31-4.63-80.15-.05-25.01,1.88-50.11,6.95-74.63,8.57-41.48,26.58-81.71,58.5-110.45,33.79-30.42,78.51-39.64,120.28-54.22,37.48-13.08,71.92-30.08,102.15-56.16,19.76-17.04,37.01-36.43,54.45-55.77,18.38-20.38,38.94-39.08,62.39-53.47,41.93-25.73,90.31-33.3,138.38-23.5,26.44,5.39,50.49,16.29,75.72,25.38,20.38,7.34,41.31,12.84,62.31,18.1,32.52,8.15,67.67,16.03,90.79,42.3,13.85,15.74,21.94,35.75,27.44,55.74,6.58,23.92,10.39,48.64,13.78,73.18,6.4,46.23,10.06,93.65,26.12,137.84,7.78,21.41,18.49,41.63,32.38,59.72,16.56,21.55,36.92,38.54,58.78,54.45,47.4,34.5,91.89,74.62,126.87,121.91,23.42,31.65,43.63,67.44,50.79,106.57,6.42,35.12,17.36,69.19,22.97,104.51,8.19,51.63,7.02,104.5-7.28,154.99-8.53,30.14-21.43,58.75-37.45,85.63-1.98,3.32,3.2,6.35,5.18,3.03,30.85-51.77,48.98-109.83,50.64-170.19,1.24-45.31-6.8-89.83-17.6-133.64-8.06-32.68-13.13-66.17-27.49-96.86-20.68-44.21-52.48-83.02-87.16-116.98-22.13-21.67-45.96-41.58-70.83-60.02-23.84-17.68-46.64-35.37-64.5-59.4-28.6-38.5-40.35-84.74-47.35-131.43-7.35-49.05-9.84-100.36-25.97-147.61-6.25-18.3-15.24-36-28.98-49.84-11.32-11.41-25.3-19.38-40.17-25.22-17.22-6.77-35.37-10.93-53.28-15.43-21.28-5.35-42.45-11.11-63.02-18.82-25.79-9.66-50.58-20.22-77.91-24.97-23.59-4.1-47.71-4.55-71.29-.13-50.57,9.47-93.12,41.09-127.13,78.43-32.02,35.16-63.77,69.88-106.71,91.82-17.82,9.11-36.64,16.02-55.55,22.46-22.8,7.76-46.45,13.96-68.63,23.38-37.95,16.12-68.06,45.34-86.62,82.04-21.32,42.17-28.04,90.49-27.95,137.28,.09,46.72,10.64,93.55-.92,139.72-8.47,33.82-27.92,63.3-44.34,93.62-26.7,49.29-49.03,102.51-61.38,157.3-10.94,48.52-12.69,100.11,2.6,147.91,10.46,32.7,28.77,63.11,54.09,86.45,8.92,8.23,18.71,15.61,29.31,21.54,3.37,1.89,6.4-3.29,3.03-5.18h0Z"/></g></g><path class="cls-17" d="M1060.4,2752.9c-18.55,19.26-25.66,37.57-64.98,57.48-39.33,19.91-159.16,23.43-158.08,45.74,.55,11.45,48.39,13.98,66.18,18.22,17.79,4.24-128.65,46.76-163.43,42.51-34.78-4.24-91.1-3.57-91.21,9.59-.11,13.17,13.53,29.79,58.59,46.88,45.06,17.08,150.27,44.28,261.85-21.65,111.57-65.94,171.71-152.75,171.71-152.75l-80.62-46.03Z"/><path class="cls-2" d="M3431.1,2893.63c-1.23-13.17-53.17-10.96-85.52-4.45-32.36,6.52-174.88-25.71-158.5-31.11,16.38-5.41,66.77-11.54,66.6-23.06-.33-22.44-119.84-17.62-158.54-34.99-38.7-17.37-46.96-35.24-66.06-53.31l-71.91,51.34s64.01,82.99,174.63,141.73c110.62,58.74,207.27,24.64,248.2,4.6,40.93-20.04,52.33-37.58,51.1-50.75Z"/><path class="cls-12" d="M2247.19,1751.33c-29.42-5.83-196.99,41.97-255.12,44.13-58.13,2.15-247.59-46.3-279.88-44.15s-176.54,63.52-297.1,334.79c-120.56,271.27-148.55,355.23-180.84,398.29-32.29,43.06-254.04,318.63-247.59,329.4,6.46,10.76,71.05,71.05,83.96,68.89,12.92-2.15,348.02-208.19,369.55-223.26,21.53-15.07,190.85-152.87,197.31-142.11,6.46,10.76-18.51,225.43-7.74,236.2s258.99,83.96,349.41,83.96,320.67-64.59,340.05-79.66c19.38-15.07-6.52-269.58,2.09-254.51,8.61,15.07,161.65,108.12,193.95,136.1,32.29,27.99,494.53,241.13,509.6,243.28,15.07,2.15,90.62-65.67,80.29-92.58s-344.47-288.49-381.07-305.71c-36.6-17.22-249.89-688.1-476.88-733.06Z"/><path class="cls-4" d="M1936.5,3183.23c20.59-15.75,151.41-125.97,182.9-129.6,31.49-3.63,92.33,32.7,114.13,35.13,21.8,2.42,163.24-48.45,217.75-47.24,54.51,1.21,138.08,54.51,135.66,81.15-2.42,26.65-96.9-1.21-128.39,7.27-31.49,8.48-168.36,76.31-231.35,95.69-62.98,19.38-222.87,29.07-285.85,43.6-62.98,14.53-174.42,32.7-242.25,39.97-67.83,7.27-21.8-90.84,18.17-100.53,39.97-9.69,219.24-25.44,219.24-25.44Z"/><path class="cls-14" d="M1922.74,3114.06c-15.79,16.69-27.91,54.54-19.11,76.49-45.54-5.98-213.89-24.69-292.65-42.26-78.76-17.57-228.62-22.76-261.49-3.91-32.87,18.85-55.54-29-29.83-70.5,25.71-41.5,112.01-66.36,152.72-56.68,40.71,9.68,76,34.58,128.79,18.35,52.79-16.23,111.12-63.59,136.17-55.96,25.05,7.63,81.2,53.04,110.8,103.25,29.6,50.2,74.6,31.23,74.6,31.23Z"/><path class="cls-8" d="M1822.26,3155.4c27.97,2.38,106.32,18.33,124.75,87.33l18.43,68.99s-286.65,61.99-458.18,61.99-358.66,6.24-475.61-23.39c-116.95-29.63-224.55-127.87-254.18-173.09-29.63-45.22,63.93-109.16,265.09-70.17,201.16,38.98,706.4,42.1,779.69,48.34Z"/></g><path class="cls-15" d="M1683.01,1786.63c-32.58,22.84-102.98,76.81-154.35,149.77-.41,.59-1.58,.18-1.39-.5,23.79-87.45,113.37-136.54,153.01-152.49,2.42-.97,4.77,1.8,2.74,3.22Z"/></svg>